<svg width="104" height="73" fill="none" xmlns="http://www.w3.org/2000/svg"><path d="M13.258 48.69c0 7.874 6.615 14.252 14.781 14.252 4.194 0 7.982-1.675 10.66-4.383l1.737 1.978.924 1.033 1.293 1.479-1.792 1.728-1.552-1.497a19.26 19.26 0 01-8.536 3.42v2.103h-5.45v-2.12a18.969 18.969 0 01-8.536-3.42l-1.552 1.496-3.861-3.705 1.552-1.497c-1.83-2.37-3.086-5.184-3.548-8.23H7.18v-5.255h2.198a17.59 17.59 0 013.548-8.23l-1.552-1.497 3.861-3.724 1.552 1.497a19.17 19.17 0 018.536-3.42v-2.12h5.45v2.102a18.966 18.966 0 018.536 3.42l1.552-1.496 3.806 3.67-1.681 1.3-.98.766-2.198 1.71c-2.697-3.402-6.965-5.611-11.75-5.611-8.185 0-14.8 6.377-14.8 14.251z" fill="#000"/><path d="M8.916 64.99s-24.942-33.615 29.082-48.65c0 0-10.402-6.13-6.837-15.785 0 0-49.404 32.405-22.245 64.436z" fill="#488DCD"/><path d="M26.543 23.216l13.191-4.454S53.702 31.571 51.485 42.99c0 0-4.342-20.986-24.942-19.774z" fill="#488DCD"/><path d="M32.584 45.645c0 1.21-.425 2.137-1.275 2.796-.85.66-2.088.98-3.677.98h-1.46v4.703h-1.44V42.188h3.215c3.085-.017 4.637 1.14 4.637 3.456zm-6.411 2.583h1.293c1.275 0 2.199-.196 2.771-.588.573-.392.85-1.034.85-1.907 0-.783-.277-1.371-.813-1.763-.535-.392-1.367-.588-2.512-.588h-1.608v4.846h.019zm12.711 6.038c-1.367 0-2.457-.41-3.252-1.211-.794-.802-1.182-1.924-1.182-3.35 0-1.442.37-2.582 1.108-3.437.74-.855 1.719-1.283 2.975-1.283 1.164 0 2.088.374 2.753 1.105.684.73 1.016 1.71 1.016 2.921v.855H35.91c.037 1.051.295 1.853.831 2.387.517.553 1.256.82 2.199.82.997 0 1.995-.196 2.956-.606v1.212c-.5.213-.961.356-1.404.445-.444.107-.98.142-1.608.142zm-.388-8.14c-.739 0-1.349.23-1.774.694-.443.463-.702 1.122-.776 1.942h4.86c0-.855-.204-1.515-.592-1.96-.406-.445-.979-.677-1.718-.677zm11.012 6.68l.259-.766.37-.962 2.512-5.897h1.792v8.925h-1.238v-7.393l-.166.481-.5 1.247-2.4 5.665h-1.183l-2.402-5.683c-.296-.73-.5-1.3-.61-1.71v7.393h-1.256v-8.925h1.718l2.439 5.683c.24.588.462 1.23.665 1.942zm17.053 1.3h-1.737l-5.727-6.057v6.057h-1.441V42.17h1.44v5.79l5.58-5.79h1.645l-5.469 5.79 5.71 6.146zm9.497-4.489c0 1.46-.388 2.6-1.146 3.42-.757.82-1.81 1.23-3.16 1.23-.83 0-1.57-.197-2.216-.57a3.714 3.714 0 01-1.497-1.622c-.35-.712-.517-1.532-.517-2.458 0-1.461.37-2.601 1.127-3.403.757-.82 1.81-1.229 3.16-1.229 1.293 0 2.327.41 3.103 1.247.776.837 1.146 1.977 1.146 3.385zm-7.058 0c0 1.14.24 2.013.72 2.619.48.605 1.165.89 2.088.89.924 0 1.626-.303 2.088-.89.48-.588.72-1.461.72-2.62 0-1.14-.24-1.994-.72-2.6-.48-.588-1.182-.89-2.106-.89-.924 0-1.608.284-2.088.872-.48.606-.702 1.479-.702 2.619zm14.356 3.189l.259-.766.37-.962 2.512-5.897h1.792v8.925h-1.238v-7.393l-.166.481-.5 1.247-2.4 5.665h-1.183L80.4 48.423c-.296-.73-.5-1.3-.61-1.71v7.393h-1.256v-8.925h1.718l2.439 5.683c.24.588.462 1.23.665 1.942zm-24.13 7.571c-1.127 0-2.032.356-2.679 1.086-.665.73-.979 1.728-.979 2.993 0 1.3.314 2.316.942 3.01.629.713 1.534 1.07 2.698 1.07.72 0 1.533-.125 2.457-.374v1.015c-.72.267-1.589.392-2.642.392-1.515 0-2.697-.445-3.51-1.336-.832-.89-1.238-2.156-1.238-3.795 0-1.033.203-1.924.591-2.69.407-.766.98-1.371 1.718-1.781.758-.41 1.626-.624 2.642-.624 1.09 0 2.033.196 2.846.57l-.518.998c-.776-.356-1.552-.534-2.328-.534zm7.797 9.192c-1.145 0-2.05-.338-2.716-1.015-.665-.677-.997-1.604-.997-2.797 0-1.194.314-2.156.923-2.868.61-.713 1.441-1.07 2.476-1.07.96 0 1.737.304 2.31.927.572.624.85 1.425.85 2.44v.713h-5.322c.019.873.26 1.532.684 1.995.425.464 1.053.677 1.848.677a6.4 6.4 0 002.475-.498v1.015a5.656 5.656 0 01-1.182.374c-.37.071-.832.107-1.349.107zm-.332-6.77c-.629 0-1.109.197-1.478.588-.37.392-.592.927-.647 1.621h4.046c0-.712-.166-1.264-.499-1.638-.332-.392-.813-.57-1.422-.57zm8.757 6.77c-.499 0-.96-.089-1.385-.267-.425-.178-.758-.463-1.054-.82h-.092c.055.428.092.855.092 1.247v3.064h-1.163V61.98h.96l.166 1.016h.056a2.74 2.74 0 011.053-.891c.406-.178.85-.267 1.367-.267 1.035 0 1.81.338 2.384 1.015.554.677.831 1.621.831 2.85 0 1.23-.277 2.174-.85 2.85-.573.678-1.349 1.016-2.365 1.016zm-.166-6.77c-.794 0-1.367.214-1.718.642-.351.427-.536 1.087-.536 2.013v.25c0 1.05.185 1.799.536 2.244.37.445.942.677 1.737.677.665 0 1.182-.267 1.57-.784.388-.517.573-1.247.573-2.155 0-.927-.185-1.64-.573-2.138-.37-.5-.905-.748-1.589-.748zm11.714 1.051c0 .482-.148.856-.425 1.105-.296.25-.702.428-1.22.499v.053c.665.09 1.146.267 1.442.552.295.285.461.678.461 1.176 0 .695-.258 1.23-.794 1.604-.536.374-1.293.57-2.31.57h-3.418v-7.465h3.4c1.903.036 2.864.66 2.864 1.906zm-1.146.107c0-.356-.148-.623-.425-.766-.295-.16-.72-.231-1.311-.231h-2.218v2.102h1.977c.72 0 1.238-.09 1.534-.267.295-.178.443-.446.443-.838zm.222 3.243c0-.41-.166-.695-.48-.873-.314-.178-.85-.267-1.57-.267h-2.126v2.458h2.162c1.33-.018 2.014-.463 2.014-1.318zm3.972-5.22v4.72l-.055 1.248-.019.392 4.194-6.36h1.46v7.464h-1.109v-4.56l.019-.891.037-.89-4.176 6.341h-1.46V61.98h1.11zm11.141 7.589c-1.127 0-1.995-.338-2.605-.998-.61-.659-.924-1.603-.924-2.814 0-1.247.314-2.21.942-2.886.629-.677 1.516-1.016 2.661-1.016.37 0 .739.036 1.109.107.369.071.665.16.868.267l-.351.962a5.271 5.271 0 00-.85-.25 3.668 3.668 0 00-.813-.106c-1.57 0-2.365.962-2.365 2.904 0 .908.185 1.62.573 2.102.388.499.961.73 1.7.73.646 0 1.311-.142 1.977-.41v.998c-.481.285-1.127.41-1.922.41zm-8.074-13.415H23.032v.517h70.08v-.517z" fill="#000"/></svg>