<?xml version="1.0" standalone="no"?><!DOCTYPE svg PUBLIC "-//W3C//DTD SVG 1.1//EN" "http://www.w3.org/Graphics/SVG/1.1/DTD/svg11.dtd" ><svg xmlns="http://www.w3.org/2000/svg"><metadata></metadata><defs><font id="3.601;NONE;Nunito-Regular" horiz-adv-x="1327"><font-face font-family="Nunito" font-weight="400" font-stretch="normal" units-per-em="1000" panose-1="0 0 0 0 0 0 0 0 0 0" ascent="1011" descent="-353" x-height="0" bbox="-248 -277 1301 1047" underline-thickness="36" underline-position="-82" unicode-range="U+0000-fb02" /><missing-glyph horiz-adv-x="500" d="M50 -180 l0 885 l400 0 l0 -885 l-400 0 ZM100 -130 l300 0 l0 785 l-300 0 l0 -785 Z" /><glyph glyph-name="A" unicode="a" d="M72 -7 q-24 0 -33 16 q-9 16 2 40 l275 626 q16 37 49 37 q15 0 27.5 -8.5 q12.5 -8.5 20.5 -28.5 l276 -626 q11 -24 3 -40 q-8 -16 -32 -16 q-18 0 -29 9.5 q-11 9.5 -18 27.5 l-65 150 l-367 0 l-64 -150 q-16 -37 -45 -37 ZM364 609 l-153 -360 l308 0 l-153 360 l-2 0 Z" /><glyph glyph-name="Aogonek" unicode="&#x104;" d="M673 -192 q-47 0 -76 26 q-29 26 -29 71 q0 30 14.5 58 q14.5 28 40.5 49 q-5 6 -10 18 l-65 150 l-367 0 l-64 -150 q-16 -37 -45 -37 q-24 0 -33 16 q-9 16 1 40 l276 626 q16 37 49 37 q15 0 27.5 -8.5 q12.5 -8.5 20.5 -28.5 l276 -626 q17 -38 -8 -51 q-16 -9 -35.5 -31 q-19.5 -22 -19.5 -53 q0 -29 17 -42.5 q17 -13.5 41 -13.5 q17 0 35 6 q18 5 26 -5 q8 -10 4.5 -23.5 q-3.5 -13.5 -17.5 -18.5 q-15 -6 -29.5 -7.5 q-14.5 -1.5 -29.5 -1.5 ZM364 609 l-153 -360 l308 0 l-153 360 l-2 0 Z" /><glyph glyph-name="AE" unicode="æ" d="M42 -7 q-28 0 -35 16 q-7 16 5 36 l385 635 q15 25 45 25 l458 0 q37 0 37 -34 q0 -35 -37 -35 l-396 0 l52 -244 l324 0 q37 0 37 -34 q0 -35 -37 -35 l-310 0 l55 -254 l275 0 q37 0 37 -34 q0 -35 -37 -35 l-302 0 q-33 0 -41 33 l-31 147 l-346 0 l-95 -160 q-8 -13 -18 -20 q-10 -7 -25 -7 ZM433 608 l-213 -359 l291 0 l-76 359 l-2 0 Z" /><glyph glyph-name="B" unicode="b" d="M132 0 q-45 0 -45 45 l0 615 q0 45 45 45 l237 0 q109 0 168.5 -48.5 q59.5 -48.5 59.5 -135.5 q0 -58 -30 -99 q-30 -41 -83 -60 q61 -16 95.5 -59 q34.5 -43 34.5 -109 q0 -94 -61 -144 q-61 -50 -172 -50 l-249 0 ZM167 390 l190 0 q159 0 159 124 q0 125 -159 125 l-190 0 l0 -249 ZM167 66 l206 0 q160 0 160 129 q0 129 -160 129 l-206 0 l0 -258 Z" /><glyph glyph-name="uni0181" unicode="&#x181;" d="M256 0 q-45 0 -45 45 l0 597 l-32 0 q-109 0 -109 -106 l0 -20 q0 -14 -8.5 -24.5 q-8.5 -10.5 -25.5 -10.5 q-18 0 -27 11 q-9 11 -9 25 l0 23 q0 165 188 165 l305 0 q109 0 168.5 -48.5 q59.5 -48.5 59.5 -135.5 q0 -58 -30 -99 q-30 -41 -83 -60 q61 -16 95.5 -59 q34.5 -43 34.5 -109 q0 -94 -61 -144 q-61 -50 -172 -50 l-249 0 ZM291 390 l190 0 q159 0 159 124 q0 125 -159 125 l-190 0 l0 -249 ZM291 66 l206 0 q160 0 160 129 q0 129 -160 129 l-206 0 l0 -258 Z" /><glyph glyph-name="C" unicode="c" d="M392 -9 q-104 0 -178 44 q-74 44 -113.5 125 q-39.5 81 -39.5 193 q0 111 39.5 192 q39.5 81 113.5 125 q74 44 178 44 q62 0 118 -18 q56 -18 97 -51 q17 -12 19.5 -28 q2.5 -16 -5.5 -28.5 q-8 -12.5 -22.5 -16 q-14.5 -3.5 -32.5 9.5 q-71 57 -172 57 q-119 0 -182 -75 q-63 -75 -63 -211 q0 -137 63 -212 q63 -75 182 -75 q101 0 174 58 q18 12 32.5 9 q14.5 -3 22 -15 q7.5 -12 5.5 -27 q-2 -15 -17 -27 q-43 -36 -99 -54.5 q-56 -18.5 -120 -18.5 Z" /><glyph glyph-name="D" unicode="d" d="M132 0 q-45 0 -45 45 l0 615 q0 45 45 45 l193 0 q171 0 264 -90.5 q93 -90.5 93 -261.5 q0 -171 -93 -262 q-93 -91 -264 -91 l-193 0 ZM169 70 l150 0 q276 0 276 283 q0 282 -276 282 l-150 0 l0 -565 Z" /><glyph glyph-name="uni018A" unicode="&#x18a;" d="M256 0 q-45 0 -45 45 l0 597 l-32 0 q-109 0 -109 -106 l0 -20 q0 -14 -8.5 -24.5 q-8.5 -10.5 -25.5 -10.5 q-18 0 -27 11 q-9 11 -9 25 l0 23 q0 165 180 165 l269 0 q171 0 264 -90.5 q93 -90.5 93 -261.5 q0 -171 -93 -262 q-93 -91 -264 -91 l-193 0 ZM294 70 l149 0 q276 0 276 283 q0 282 -276 282 l-149 0 l0 -565 Z" /><glyph glyph-name="E" unicode="e" d="M132 0 q-45 0 -45 45 l0 615 q0 45 45 45 l372 0 q35 0 35 -34 q0 -35 -35 -35 l-337 0 l0 -244 l316 0 q35 0 35 -34 q0 -35 -35 -35 l-316 0 l0 -254 l337 0 q35 0 35 -34 q0 -35 -35 -35 l-372 0 Z" /><glyph glyph-name="F" unicode="f" d="M131 -7 q-44 0 -44 45 l0 622 q0 45 45 45 l363 0 q35 0 35 -34 q0 -35 -35 -35 l-326 0 l0 -246 l305 0 q36 0 36 -34 q0 -35 -36 -35 l-305 0 l0 -283 q0 -45 -38 -45 Z" /><glyph glyph-name="G" unicode="g" d="M409 -9 q-170 0 -259 96 q-89 96 -89 265 q0 112 40 193 q40 81 115 125 q75 44 181 44 q63 0 122 -17.5 q59 -17.5 105 -55.5 q14 -10 16 -24.5 q2 -14.5 -5.5 -27 q-7.5 -12.5 -21 -16.5 q-13.5 -4 -28.5 6 q-41 32 -87 46.5 q-46 14.5 -102 14.5 q-120 0 -184 -75.5 q-64 -75.5 -64 -212.5 q0 -140 66 -214 q66 -74 197 -74 q85 0 163 29 l0 209 l-143 0 q-36 0 -36 33 q0 32 36 32 l179 0 q35 0 35 -35 l0 -261 q0 -31 -22 -40 q-42 -18 -100.5 -29 q-58.5 -11 -113.5 -11 Z" /><glyph glyph-name="H" unicode="h" d="M128 -7 q-41 0 -41 43 l0 633 q0 43 41 43 q41 0 41 -43 l0 -276 l423 0 l0 276 q0 43 41 43 q41 0 41 -43 l0 -633 q0 -43 -41 -43 q-41 0 -41 43 l0 286 l-423 0 l0 -286 q0 -43 -41 -43 Z" /><glyph glyph-name="Hbar" unicode="&#x126;" d="M147 -7 q-42 0 -42 43 l0 483 l-63 0 q-34 0 -34 33 q0 32 34 32 l63 0 l0 85 q0 43 42 43 q41 0 41 -43 l0 -85 l422 0 l0 85 q0 43 42 43 q41 0 41 -43 l0 -85 l63 0 q35 0 35 -32 q0 -33 -35 -33 l-63 0 l0 -483 q0 -43 -41 -43 q-42 0 -42 43 l0 281 l-422 0 l0 -281 q0 -43 -41 -43 ZM188 388 l422 0 l0 131 l-422 0 l0 -131 Z" /><glyph glyph-name="I" unicode="i" d="M128 -7 q-41 0 -41 43 l0 633 q0 43 41 43 q41 0 41 -43 l0 -633 q0 -43 -41 -43 Z" /><glyph glyph-name="Iogonek" unicode="&#x12e;" d="M138 -192 q-48 0 -76.5 26 q-28.5 26 -28.5 71 q0 64 59 109 q-5 9 -5 22 l0 633 q0 43 41 43 q41 0 41 -43 l0 -633 q0 -29 -19 -39 q-23 -12 -41.5 -33.5 q-18.5 -21.5 -18.5 -49.5 q0 -29 17 -42.5 q17 -13.5 42 -13.5 q16 0 34 6 q19 5 26.5 -5 q7.5 -10 4.5 -23.5 q-3 -13.5 -17 -18.5 q-15 -6 -30 -7.5 q-15 -1.5 -29 -1.5 Z" /><glyph glyph-name="J" unicode="j" d="M28 -6 q-19 -1 -29.5 10 q-10.5 11 -10.5 27 q0 12 7.5 21.5 q7.5 9.5 23.5 11.5 l31 2 q51 4 78 35.5 q27 31.5 27 86.5 l0 482 q0 42 41 42 q41 0 41 -42 l0 -483 q0 -87 -45 -135.5 q-45 -48.5 -131 -54.5 l-33 -3 Z" /><glyph glyph-name="K" unicode="k" d="M128 -7 q-41 0 -41 43 l0 634 q0 42 41 42 q41 0 41 -42 l0 -285 l2 0 l326 304 q24 23 50 23 q27 0 32.5 -19.5 q5.5 -19.5 -12.5 -36.5 l-317 -293 l333 -308 q22 -21 14 -41.5 q-8 -20.5 -35 -20.5 q-15 0 -25.5 6.5 q-10.5 6.5 -23.5 19.5 l-342 313 l-2 0 l0 -296 q0 -43 -41 -43 Z" /><glyph glyph-name="L" unicode="l" d="M129 0 q-42 0 -42 43 l0 624 q0 43 41 43 q41 0 41 -43 l0 -595 l328 0 q38 0 38 -36 q0 -36 -38 -36 l-368 0 Z" /><glyph glyph-name="M" unicode="m" d="M127 -7 q-38 0 -38 40 l0 639 q0 40 38 40 q16 0 25.5 -6.5 q9.5 -6.5 17.5 -21.5 l259 -488 l258 488 q8 15 17 21.5 q9 6.5 26 6.5 q37 0 37 -40 l0 -639 q0 -40 -38 -40 q-38 0 -38 40 l0 518 l-226 -425 q-7 -13 -14.5 -18.5 q-7.5 -5.5 -21.5 -5.5 q-14 0 -22 6 q-8 6 -14 18 l-229 424 l0 -517 q0 -40 -37 -40 Z" /><glyph glyph-name="N" unicode="n" d="M126 -7 q-39 0 -39 41 l0 636 q0 42 36 42 q15 0 23 -5.5 q8 -5.5 18 -19.5 l412 -549 l0 534 q0 40 39 40 q37 0 37 -40 l0 -639 q0 -40 -33 -40 q-15 0 -24 6 q-9 6 -19 19 l-412 551 l0 -535 q0 -41 -38 -41 Z" /><glyph glyph-name="Eng" unicode="&#x14a;" d="M475 -191 q-26 -1 -35 14.5 q-9 15.5 -2.5 31.5 q6.5 16 26.5 17 q55 4 83.5 29.5 q28.5 25.5 28.5 83.5 l0 34 l-412 550 l0 -535 q0 -41 -38 -41 q-39 0 -39 41 l0 636 q0 42 36 42 q15 0 23 -5.5 q8 -5.5 18 -19.5 l412 -549 l0 534 q0 40 39 40 q37 0 37 -40 l0 -679 q0 -95 -46 -137.5 q-46 -42.5 -131 -46.5 Z" /><glyph glyph-name="O" unicode="o" d="M383 -9 q-98 0 -170.5 44.5 q-72.5 44.5 -112 125.5 q-39.5 81 -39.5 192 q0 111 39 192 q39 81 111.5 125 q72.5 44 171.5 44 q100 0 172.5 -44 q72.5 -44 112 -124.5 q39.5 -80.5 39.5 -191.5 q0 -111 -40 -192.5 q-40 -81.5 -112.5 -126 q-72.5 -44.5 -171.5 -44.5 ZM383 64 q113 0 175 76 q62 76 62 213 q0 137 -62 212.5 q-62 75.5 -175 75.5 q-111 0 -173 -75.5 q-62 -75.5 -62 -212.5 q0 -136 62 -212.5 q62 -76.5 173 -76.5 Z" /><glyph glyph-name="OE" unicode="&#x152;" d="M418 0 q-171 0 -264 91 q-93 91 -93 262 q0 171 93 261.5 q93 90.5 264 90.5 l549 0 q36 0 36 -34 q0 -35 -36 -35 l-336 0 l0 -244 l315 0 q36 0 36 -34 q0 -35 -36 -35 l-315 0 l0 -254 l336 0 q36 0 36 -34 q0 -35 -36 -35 l-549 0 ZM424 70 l127 0 l0 565 l-127 0 q-276 0 -276 -282 q0 -283 276 -283 Z" /><glyph glyph-name="P" unicode="p" d="M128 -7 q-41 0 -41 43 l0 627 q0 42 42 42 l237 0 q114 0 174.5 -55 q60.5 -55 60.5 -157 q0 -101 -60.5 -156.5 q-60.5 -55.5 -174.5 -55.5 l-197 0 l0 -245 q0 -43 -41 -43 ZM169 350 l187 0 q164 0 164 143 q0 144 -164 144 l-187 0 l0 -287 Z" /><glyph glyph-name="Thorn" unicode="þ" d="M128 -5 q-41 0 -41 43 l0 629 q0 43 42 43 q40 0 40 -39 l0 -94 l198 0 q113 0 174 -55 q61 -55 61 -156 q0 -101 -61 -156.5 q-61 -55.5 -174 -55.5 l-198 0 l0 -116 q0 -43 -41 -43 ZM169 222 l188 0 q163 0 163 144 q0 143 -163 143 l-188 0 l0 -287 Z" /><glyph glyph-name="Q" unicode="q" d="M627 -133 q12 -18 7.5 -33 q-4.5 -15 -18 -22 q-13.5 -7 -30 -3.5 q-16.5 3.5 -27.5 22.5 l-65 103 q-34 57 -111 57 l0 0 q-98 0 -170.5 44.5 q-72.5 44.5 -112 125.5 q-39.5 81 -39.5 192 q0 111 39 192 q39 81 111.5 125 q72.5 44 171.5 44 q100 0 172.5 -44 q72.5 -44 112 -124.5 q39.5 -80.5 39.5 -191.5 q0 -129 -53.5 -217.5 q-53.5 -88.5 -146.5 -124.5 q21 -7 38 -23.5 q17 -16.5 35 -45.5 l47 -76 ZM383 64 q113 0 175 76 q62 76 62 213 q0 137 -62 212.5 q-62 75.5 -175 75.5 q-111 0 -173 -75.5 q-62 -75.5 -62 -212.5 q0 -136 62 -212.5 q62 -76.5 173 -76.5 Z" /><glyph glyph-name="R" unicode="r" d="M128 -7 q-41 0 -41 43 l0 627 q0 42 42 42 l237 0 q114 0 174.5 -53 q60.5 -53 60.5 -151 q0 -78 -42.5 -128 q-42.5 -50 -120.5 -65 q46 -16 79 -78 l96 -179 q11 -21 4 -39.5 q-7 -18.5 -32 -18.5 q-17 0 -28 7.5 q-11 7.5 -19 23.5 l-109 202 q-23 43 -53 57.5 q-30 14.5 -79 14.5 l-128 0 l0 -262 q0 -43 -41 -43 ZM169 363 l185 0 q166 0 166 138 q0 136 -166 136 l-185 0 l0 -274 Z" /><glyph glyph-name="S" unicode="s" d="M315 -9 q-72 0 -135.5 17.5 q-63.5 17.5 -109.5 51.5 q-16 11 -19 26 q-3 15 3.5 28 q6.5 13 19.5 17.5 q13 4.5 30 -6.5 q45 -33 96 -47 q51 -14 115 -14 q90 0 133.5 33.5 q43.5 33.5 43.5 88.5 q0 44 -31.5 70 q-31.5 26 -105.5 41 l-104 21 q-94 20 -140.5 65.5 q-46.5 45.5 -46.5 121.5 q0 63 32.5 110 q32.5 47 90.5 73 q58 26 134 26 q63 0 117.5 -17.5 q54.5 -17.5 98.5 -52.5 q14 -11 16.5 -25.5 q2.5 -14.5 -4.5 -26.5 q-7 -12 -20 -15.5 q-13 -3.5 -31 7.5 q-40 31 -83.5 44 q-43.5 13 -94.5 13 q-79 0 -126 -36.5 q-47 -36.5 -47 -96.5 q0 -48 29.5 -76 q29.5 -28 96.5 -41 l104 -22 q101 -21 149.5 -63.5 q48.5 -42.5 48.5 -115.5 q0 -59 -31.5 -104 q-31.5 -45 -90 -70 q-58.5 -25 -138.5 -25 Z" /><glyph glyph-name="uni1E9E" unicode="&#x1e9e;" d="M431 -9 q-52 0 -98 12.5 q-46 12.5 -79 37.5 q-14 10 -16 23.5 q-2 13.5 4 25.5 q6 12 18 16.5 q12 4.5 26 -4.5 q33 -23 66.5 -32 q33.5 -9 72.5 -9 q70 0 107 35 q37 35 37 96 q0 62 -39.5 95 q-39.5 33 -120.5 33 l-103 0 q-16 0 -26 9 q-10 9 -10 26 q0 33 33 33 l83 0 q66 0 105.5 33 q39.5 33 39.5 95 q0 63 -42 95.5 q-42 32.5 -121 32.5 q-199 0 -199 -185 l0 -423 q0 -43 -41 -43 q-41 0 -41 43 l0 425 q0 125 74.5 189 q74.5 64 208.5 64 q112 0 177.5 -50 q65.5 -50 65.5 -137 q0 -56 -26.5 -99.5 q-26.5 -43.5 -73.5 -63.5 q64 -16 100.5 -61 q36.5 -45 36.5 -115 q0 -94 -57.5 -145.5 q-57.5 -51.5 -161.5 -51.5 Z" /><glyph glyph-name="uni018F" unicode="&#x18f;" d="M389 -9 q-109 0 -182 45.5 q-73 45.5 -109.5 127 q-36.5 81.5 -36.5 190.5 q0 36 31 36 l526 0 q-9 121 -77 186 q-68 65 -187 65 q-63 0 -112.5 -15 q-49.5 -15 -94.5 -47 q-17 -11 -30.5 -6.5 q-13.5 4.5 -20.5 16.5 q-7 12 -4 26.5 q3 14.5 18 25.5 q48 36 112.5 54.5 q64.5 18.5 139.5 18.5 q105 0 182.5 -43.5 q77.5 -43.5 120 -124.5 q42.5 -81 42.5 -193 q0 -112 -39.5 -193 q-39.5 -81 -111 -125 q-71.5 -44 -167.5 -44 ZM386 63 q103 0 164 66.5 q61 66.5 69 191.5 l-472 0 q6 -127 66 -192.5 q60 -65.5 173 -65.5 Z" /><glyph glyph-name="T" unicode="t" d="M301 -7 q-41 0 -41 43 l0 598 l-225 0 q-38 0 -38 36 q0 35 38 35 l533 0 q38 0 38 -35 q0 -36 -38 -36 l-225 0 l0 -598 q0 -43 -42 -43 Z" /><glyph glyph-name="U" unicode="u" d="M365 -9 q-139 0 -211 73.5 q-72 73.5 -72 214.5 l0 391 q0 42 41 42 q41 0 41 -42 l0 -387 q0 -219 201 -219 q199 0 199 219 l0 387 q0 42 42 42 q40 0 40 -42 l0 -391 q0 -141 -71.5 -214.5 q-71.5 -73.5 -209.5 -73.5 Z" /><glyph glyph-name="V" unicode="v" d="M345 -7 q-35 0 -50 36 l-275 629 q-11 25 1 39.5 q12 14.5 33 14.5 q18 0 27.5 -8.5 q9.5 -8.5 16.5 -24.5 l248 -575 l247 576 q7 16 17 24 q10 8 28 8 q21 0 31 -15.5 q10 -15.5 0 -38.5 l-275 -629 q-8 -18 -19 -27 q-11 -9 -30 -9 Z" /><glyph glyph-name="W" unicode="w" d="M313 -7 q-33 0 -47 38 l-221 631 q-7 22 3 36 q10 14 34 14 q32 0 44 -35 l189 -557 l194 554 q13 38 44 38 q16 0 25.5 -9.5 q9.5 -9.5 16.5 -28.5 l192 -559 l194 562 q11 35 43 35 q21 0 30.5 -14 q9.5 -14 2.5 -36 l-222 -631 q-7 -19 -17.5 -28.5 q-10.5 -9.5 -29.5 -9.5 q-18 0 -29 9.5 q-11 9.5 -18 28.5 l-190 549 l-192 -549 q-7 -19 -17 -28.5 q-10 -9.5 -29 -9.5 Z" /><glyph glyph-name="X" unicode="x" d="M78 -7 q-25 0 -35.5 18.5 q-10.5 18.5 5.5 38.5 l230 310 l-216 293 q-17 22 -6.5 40.5 q10.5 18.5 33.5 18.5 q25 0 45 -27 l192 -263 l191 263 q19 27 44 27 q24 0 34.5 -18.5 q10.5 -18.5 -6.5 -40.5 l-217 -293 l231 -310 q15 -20 5 -38.5 q-10 -18.5 -35 -18.5 q-25 0 -45 27 l-203 278 l-203 -278 q-19 -27 -44 -27 Z" /><glyph glyph-name="Y" unicode="y" d="M298 -7 q-41 0 -41 44 l0 297 l-233 320 q-14 19 -5.5 38.5 q8.5 19.5 33.5 19.5 q26 0 45 -27 l203 -279 l202 279 q20 27 45 27 q24 0 32 -18.5 q8 -18.5 -7 -40.5 l-233 -321 l0 -295 q0 -44 -41 -44 Z" /><glyph glyph-name="uni01B3" unicode="&#x1b3;" d="M298 -7 q-41 0 -41 45 l0 296 l-233 320 q-14 19 -5 38.5 q9 19.5 33 19.5 q17 0 26 -6.5 q9 -6.5 22 -23.5 l200 -276 l159 227 q28 41 65 60.5 q37 19.5 82 19.5 q31 0 48.5 -7 q17.5 -7 17.5 -30 q0 -29 -27 -28 q-5 0 -13.5 1 q-8.5 1 -13.5 1 q-24 0 -48 -11.5 q-24 -11.5 -44 -38.5 l-187 -267 l0 -295 q0 -45 -41 -45 Z" /><glyph glyph-name="Z" unicode="z" d="M86 0 q-31 0 -39.5 24.5 q-8.5 24.5 14.5 55.5 l394 554 l-375 0 q-39 0 -39 36 q0 35 39 35 l434 0 q32 0 40.5 -24 q8.5 -24 -14.5 -56 l-394 -554 l389 0 q39 0 39 -35 q0 -36 -39 -36 l-449 0 Z" /><glyph glyph-name="a" unicode="a" d="M229 -9 q-50 0 -89.5 19.5 q-39.5 19.5 -62.5 53.5 q-23 34 -23 76 q0 53 27.5 84 q27.5 31 91 44.5 q63.5 13.5 173.5 13.5 l32 0 l0 31 q0 62 -25.5 89.5 q-25.5 27.5 -81.5 27.5 q-35 0 -70.5 -9 q-35.5 -9 -73.5 -29 q-17 -9 -28.5 -3.5 q-11.5 5.5 -16 18 q-4.5 12.5 0 26 q4.5 13.5 19.5 20.5 q43 22 86.5 32 q43.5 10 82.5 10 q94 0 139.5 -46 q45.5 -46 45.5 -143 l0 -271 q0 -42 -37 -42 q-39 0 -39 42 l0 49 q-19 -43 -58.5 -68 q-39.5 -25 -92.5 -25 ZM242 52 q60 0 98 41.5 q38 41.5 38 105.5 l0 30 l-31 0 q-81 0 -127.5 -7.5 q-46.5 -7.5 -65 -26 q-18.5 -18.5 -18.5 -50.5 q0 -41 28.5 -67 q28.5 -26 77.5 -26 Z" /><glyph glyph-name="aogonek" unicode="&#x105;" d="M421 -192 q-48 0 -76.5 26 q-28.5 26 -28.5 71 q0 32 17.5 62 q17.5 30 48.5 52 q-2 7 -2 17 l0 48 q-19 -43 -58.5 -68 q-39.5 -25 -92.5 -25 q-50 0 -89.5 19.5 q-39.5 19.5 -62.5 53.5 q-23 34 -23 76 q0 53 27.5 84 q27.5 31 91 44.5 q63.5 13.5 173.5 13.5 l32 0 l0 31 q0 62 -25.5 89.5 q-25.5 27.5 -81.5 27.5 q-35 0 -70.5 -9 q-35.5 -9 -73.5 -29 q-17 -9 -28.5 -3.5 q-11.5 5.5 -16 18 q-4.5 12.5 0 26 q4.5 13.5 19.5 20.5 q43 22 86.5 32 q43.5 10 82.5 10 q94 0 139.5 -46 q45.5 -46 45.5 -143 l0 -271 q0 -17 -6.5 -26.5 q-6.5 -9.5 -18.5 -14.5 q-22 -12 -39.5 -32 q-17.5 -20 -17.5 -48 q0 -29 16.5 -42.5 q16.5 -13.5 41.5 -13.5 q16 0 34 6 q19 5 26.5 -5 q7.5 -10 4.5 -23.5 q-3 -13.5 -17 -18.5 q-15 -6 -30 -7.5 q-15 -1.5 -29 -1.5 ZM242 52 q60 0 98 41.5 q38 41.5 38 105.5 l0 30 l-31 0 q-81 0 -127.5 -7.5 q-46.5 -7.5 -65 -26 q-18.5 -18.5 -18.5 -50.5 q0 -41 28.5 -67 q28.5 -26 77.5 -26 Z" /><glyph glyph-name="ae" unicode="æ" d="M234 -9 q-52 0 -93 19.5 q-41 19.5 -64 53.5 q-23 34 -23 76 q0 53 27.5 84 q27.5 31 92 44.5 q64.5 13.5 173.5 13.5 l34 0 l0 30 q0 62 -26.5 90 q-26.5 28 -82.5 28 q-36 0 -71 -9 q-35 -9 -74 -29 q-17 -9 -28.5 -3.5 q-11.5 5.5 -16 18 q-4.5 12.5 0 26 q4.5 13.5 20.5 20.5 q43 22 86.5 32 q43.5 10 83.5 10 q125 0 163 -92 q28 45 74.5 68.5 q46.5 23.5 102.5 24.5 q95 0 150.5 -63.5 q55.5 -63.5 55.5 -174.5 l0 -3 q0 -27 -34 -27 l-325 0 q5 -84 46.5 -128 q41.5 -44 119.5 -44 q30 0 65 9 q35 9 67 30 q23 15 38 6 q15 -9 16 -27.5 q1 -18.5 -20 -32.5 q-34 -24 -78 -37 q-44 -13 -87 -13 q-75 0 -130 31 q-55 31 -82 91 q-20 -57 -67 -89.5 q-47 -32.5 -114 -32.5 ZM612 435 q-64 0 -104 -41 q-40 -41 -47 -112 l289 0 q-3 72 -38 112.5 q-35 40.5 -100 40.5 ZM244 52 q61 0 99 43 q38 43 38 109 l0 24 l-34 0 q-81 0 -127.5 -7 q-46.5 -7 -65 -25.5 q-18.5 -18.5 -18.5 -50.5 q0 -41 28.5 -67 q28.5 -26 79.5 -26 Z" /><glyph glyph-name="b" unicode="b" d="M322 -9 q-57 0 -101 25.5 q-44 25.5 -65 70.5 l0 -52 q0 -42 -40 -42 q-40 0 -40 42 l0 636 q0 41 40 41 q41 0 41 -41 l0 -269 q21 43 65 68 q44 25 100 25 q65 0 113.5 -30.5 q48.5 -30.5 75 -87 q26.5 -56.5 26.5 -134.5 q0 -77 -26.5 -133.5 q-26.5 -56.5 -75 -87.5 q-48.5 -31 -113.5 -31 ZM305 56 q68 0 109 48.5 q41 48.5 41 138.5 q0 91 -41 139 q-41 48 -109 48 q-68 0 -109 -48 q-41 -48 -41 -139 q0 -90 41 -138.5 q41 -48.5 109 -48.5 Z" /><glyph glyph-name="uni0253" unicode="&#x253;" d="M322 -9 q-57 0 -101 25.5 q-44 25.5 -65 70.5 l0 -52 q0 -42 -40 -42 q-40 0 -40 42 l0 508 q0 81 42 125.5 q42 44.5 123 44.5 q33 0 47.5 -8.5 q14.5 -8.5 14.5 -26.5 q0 -15 -7 -24.5 q-7 -9.5 -19 -8.5 q-6 0 -12.5 1 q-6.5 1 -15.5 1 q-92 0 -92 -102 l0 -143 q21 43 65 68 q44 25 100 25 q65 0 113.5 -30.5 q48.5 -30.5 75 -87 q26.5 -56.5 26.5 -134.5 q0 -77 -26.5 -133.5 q-26.5 -56.5 -75 -87.5 q-48.5 -31 -113.5 -31 ZM305 56 q68 0 109 48.5 q41 48.5 41 138.5 q0 91 -41 139 q-41 48 -109 48 q-68 0 -109 -48 q-41 -48 -41 -139 q0 -90 41 -138.5 q41 -48.5 109 -48.5 Z" /><glyph glyph-name="c" unicode="c" d="M282 -9 q-73 0 -126 31.5 q-53 31.5 -81.5 89 q-28.5 57.5 -28.5 134.5 q0 116 63 182.5 q63 66.5 173 66.5 q36 0 75 -11.5 q39 -11.5 71 -37.5 q17 -12 14.5 -30 q-2.5 -18 -17 -27 q-14.5 -9 -33.5 4 q-27 20 -53.5 28 q-26.5 8 -51.5 8 q-76 0 -117 -47.5 q-41 -47.5 -41 -136.5 q0 -87 41 -137.5 q41 -50.5 117 -50.5 q25 0 51.5 8 q26.5 8 53.5 28 q19 13 33 3.5 q14 -9.5 15.5 -27.5 q1.5 -18 -14.5 -29 q-32 -26 -70 -37.5 q-38 -11.5 -74 -11.5 Z" /><glyph glyph-name="d" unicode="d" d="M261 -9 q-65 0 -113.5 31 q-48.5 31 -75 87.5 q-26.5 56.5 -26.5 133.5 q0 78 26.5 134.5 q26.5 56.5 75 87 q48.5 30.5 113.5 30.5 q57 0 100.5 -25 q43.5 -25 64.5 -69 l0 270 q0 41 41 41 q40 0 40 -41 l0 -636 q0 -42 -40 -42 q-40 0 -40 42 l0 52 q-22 -45 -65.5 -70.5 q-43.5 -25.5 -100.5 -25.5 ZM278 56 q68 0 109 48.5 q41 48.5 41 138.5 q0 91 -41 139 q-41 48 -109 48 q-69 0 -109.5 -48 q-40.5 -48 -40.5 -139 q0 -90 40.5 -138.5 q40.5 -48.5 109.5 -48.5 Z" /><glyph glyph-name="eth" unicode="ð" d="M276 -9 q-69 0 -121 29 q-52 29 -80.5 81 q-28.5 52 -28.5 122 q0 68 28.5 120 q28.5 52 79.5 80.5 q51 28.5 118 28.5 q53 0 93 -19 q40 -19 65 -59 q-12 69 -46.5 123 q-34.5 54 -87.5 90 l-137 -60 q-21 -9 -34 0.5 q-13 9.5 -11.5 25.5 q1.5 16 23.5 26 l100 43 q-17 9 -35 15.5 q-18 6.5 -37 12.5 q-23 7 -27 23 q-4 16 7.5 28 q11.5 12 35.5 5 q37 -9 68 -22.5 q31 -13.5 59 -29.5 l112 49 q20 9 33.5 -0.5 q13.5 -9.5 12.5 -25.5 q-1 -16 -22 -25 l-81 -35 q73 -58 112 -142 q39 -84 39 -191 q0 -142 -61 -217.5 q-61 -75.5 -177 -75.5 ZM277 57 q70 0 110 44.5 q40 44.5 40 121.5 q0 76 -39.5 120 q-39.5 44 -110.5 44 q-69 0 -109 -44 q-40 -44 -40 -120 q0 -79 39.5 -122.5 q39.5 -43.5 109.5 -43.5 Z" /><glyph glyph-name="dcroat" unicode="&#x111;" d="M261 -9 q-64 0 -112.5 31 q-48.5 31 -75.5 87.5 q-27 56.5 -27 133.5 q0 78 27 134.5 q27 56.5 75 87 q48 30.5 113 30.5 q57 0 100.5 -25 q43.5 -25 65.5 -69 l0 153 l-164 0 q-34 0 -34 30 q0 30 34 30 l164 0 l0 61 q0 17 10.5 27 q10.5 10 29.5 10 q19 0 30 -10 q11 -10 11 -27 l0 -61 l62 0 q34 0 34 -30 q0 -30 -34 -30 l-62 0 l0 -519 q0 -42 -40 -42 q-41 0 -41 42 l0 52 q-21 -44 -64.5 -70 q-43.5 -26 -101.5 -26 ZM278 56 q69 0 109.5 48.5 q40.5 48.5 40.5 138.5 q0 91 -40.5 139 q-40.5 48 -109.5 48 q-68 0 -109 -48 q-41 -48 -41 -139 q0 -90 41 -138.5 q41 -48.5 109 -48.5 Z" /><glyph glyph-name="uni0257" unicode="&#x257;" d="M261 -9 q-65 0 -113.5 31 q-48.5 31 -75 87.5 q-26.5 56.5 -26.5 133.5 q0 78 26.5 134.5 q26.5 56.5 75 87 q48.5 30.5 113.5 30.5 q57 0 100.5 -25 q43.5 -25 64.5 -69 l0 142 q0 81 42.5 125.5 q42.5 44.5 123.5 44.5 q33 0 47.5 -8.5 q14.5 -8.5 14.5 -26.5 q0 -15 -7 -24.5 q-7 -9.5 -19 -8.5 q-6 0 -12.5 1 q-6.5 1 -15.5 1 q-93 0 -93 -102 l0 -510 q0 -42 -40 -42 q-40 0 -40 42 l0 52 q-22 -45 -65.5 -70.5 q-43.5 -25.5 -100.5 -25.5 ZM278 57 q68 0 109 48 q41 48 41 138 q0 91 -41 139 q-41 48 -109 48 q-69 0 -109.5 -48 q-40.5 -48 -40.5 -139 q0 -90 40.5 -138 q40.5 -48 109.5 -48 Z" /><glyph glyph-name="e" unicode="e" d="M295 -9 q-115 0 -182 67.5 q-67 67.5 -67 183.5 q0 75 30 132.5 q30 57.5 82.5 89 q52.5 31.5 121.5 31.5 q99 0 155 -63.5 q56 -63.5 56 -174.5 q0 -31 -35 -31 l-331 0 q4 -83 48 -126.5 q44 -43.5 122 -43.5 q33 0 67 8.5 q34 8.5 66 30.5 q23 15 38.5 6 q15.5 -9 16 -27.5 q0.5 -18.5 -20.5 -32.5 q-33 -24 -78.5 -37 q-45.5 -13 -88.5 -13 ZM282 435 q-69 0 -109 -43 q-40 -43 -47 -113 l295 0 q-3 74 -38.5 115 q-35.5 41 -100.5 41 Z" /><glyph glyph-name="uni0259" unicode="&#x259;" d="M257 -9 q-102 0 -158.5 63 q-56.5 63 -56.5 177 q0 30 34 30 l332 0 q-5 82 -49 125.5 q-44 43.5 -122 43.5 q-33 0 -67.5 -9.5 q-34.5 -9.5 -66.5 -31.5 q-23 -14 -37.5 -4.5 q-14.5 9.5 -15 28.5 q-0.5 19 19.5 32 q34 24 79 37 q45 13 88 13 q116 0 182.5 -67 q66.5 -67 66.5 -183 q0 -77 -29 -134 q-29 -57 -80.5 -88.5 q-51.5 -31.5 -119.5 -31.5 ZM256 51 q65 0 104.5 41.5 q39.5 41.5 46.5 114.5 l-292 0 q3 -75 38 -115.5 q35 -40.5 103 -40.5 Z" /><glyph glyph-name="f" unicode="f" d="M142 -7 q-40 0 -40 42 l0 388 l-64 0 q-35 0 -35 32 q0 31 35 31 l64 0 l0 17 q0 187 183 203 l29 3 q18 1 26 -8 q8 -9 8.5 -21.5 q0.5 -12.5 -6.5 -22.5 q-7 -10 -20 -11 l-23 -2 q-61 -5 -88.5 -37 q-27.5 -32 -27.5 -94 l0 -27 l108 0 q35 0 35 -31 q0 -32 -35 -32 l-108 0 l0 -388 q0 -42 -41 -42 Z" /><glyph glyph-name="g" unicode="g" d="M291 -189 q-53 0 -103.5 12.5 q-50.5 12.5 -91.5 39.5 q-15 9 -17.5 21.5 q-2.5 12.5 3.5 24 q6 11.5 17.5 16.5 q11.5 5 24.5 -2 q44 -27 84 -37 q40 -10 79 -10 q144 0 144 148 l0 86 q-21 -46 -65.5 -72.5 q-44.5 -26.5 -101.5 -26.5 q-67 0 -116 31 q-49 31 -75.5 85.5 q-26.5 54.5 -26.5 126.5 q0 72 26.5 126.5 q26.5 54.5 75.5 84.5 q49 30 116 30 q57 0 101 -25 q44 -25 65 -70 l0 52 q0 41 40 41 q40 0 40 -41 l0 -417 q0 -112 -55.5 -168 q-55.5 -56 -163.5 -56 ZM279 77 q70 0 111 48 q41 48 41 129 q0 81 -41 128.5 q-41 47.5 -111 47.5 q-69 0 -110 -47.5 q-41 -47.5 -41 -128.5 q0 -81 41 -129 q41 -48 110 -48 Z" /><glyph glyph-name="uni01E5" unicode="&#x1e5;" d="M291 -189 q-53 0 -103.5 12.5 q-50.5 12.5 -91.5 39.5 q-15 9 -17 21.5 q-2 12.5 4 24 q6 11.5 17 16.5 q11 5 24 -2 q40 -26 82 -36.5 q42 -10.5 81 -10.5 q92 1 125 64 l-85 0 q-13 0 -21 8 q-8 8 -8 20 q0 12 8 20 q8 8 21 8 l103 0 q1 14 1 28 l0 109 q-20 -46 -64 -71 q-44 -25 -103 -25 q-65 0 -114 29 q-49 29 -76.5 81 q-27.5 52 -27.5 119 q0 67 27.5 119 q27.5 52 76.5 81 q49 29 114 29 q58 0 101.5 -24.5 q43.5 -24.5 64.5 -68.5 l0 51 q0 40 40 40 q40 0 40 -40 l0 -418 q0 -20 -2 -39 l45 0 q13 0 21 -8 q8 -8 8 -20 q0 -12 -8 -20 q-8 -8 -21 -8 l-56 0 q-42 -129 -206 -129 ZM279 102 q69 0 110 44.5 q41 44.5 41 119.5 q0 75 -40.5 119.5 q-40.5 44.5 -110.5 44.5 q-69 0 -110 -44 q-41 -44 -41 -120 q0 -76 41.5 -120 q41.5 -44 109.5 -44 Z" /><glyph glyph-name="h" unicode="h" d="M116 -7 q-40 0 -40 42 l0 636 q0 41 40 41 q41 0 41 -41 l0 -265 q24 44 67.5 66.5 q43.5 22.5 97.5 22.5 q173 0 173 -192 l0 -268 q0 -42 -40 -42 q-41 0 -41 42 l0 263 q0 68 -26.5 99.5 q-26.5 31.5 -84.5 31.5 q-67 0 -106.5 -41.5 q-39.5 -41.5 -39.5 -110.5 l0 -242 q0 -42 -41 -42 Z" /><glyph glyph-name="hbar" unicode="&#x127;" d="M116 -7 q-40 0 -40 42 l0 519 l-60 0 q-34 0 -34 30 q0 30 34 30 l60 0 l0 59 q0 39 40 39 q41 0 41 -39 l0 -59 l161 0 q33 0 33 -30 q0 -30 -33 -30 l-161 0 l0 -148 q24 44 67.5 66.5 q43.5 22.5 97.5 22.5 q173 0 173 -192 l0 -268 q0 -42 -40 -42 q-41 0 -41 42 l0 263 q0 68 -26.5 99.5 q-26.5 31.5 -84.5 31.5 q-67 0 -106.5 -41.5 q-39.5 -41.5 -39.5 -110.5 l0 -242 q0 -42 -41 -42 Z" /><glyph glyph-name="i" unicode="i" d="M116 603 q-53 0 -53 50 q0 49 53 49 q53 0 53 -49 q0 -50 -53 -50 ZM116 -5 q-40 0 -40 44 l0 409 q0 43 40 43 q41 0 41 -43 l0 -409 q0 -44 -41 -44 Z" /><glyph glyph-name="dotlessi" unicode="&#x131;" d="M116 -5 q-40 0 -40 44 l0 409 q0 43 40 43 q41 0 41 -43 l0 -409 q0 -44 -41 -44 Z" /><glyph glyph-name="iogonek" unicode="&#x12f;" d="M116 603 q-53 0 -53 50 q0 49 53 49 q53 0 53 -49 q0 -50 -53 -50 ZM126 -192 q-48 0 -77 26 q-29 26 -29 71 q0 31 16 59.5 q16 28.5 45 50.5 q-5 10 -5 24 l0 409 q0 43 40 43 q41 0 41 -43 l0 -409 q0 -30 -22 -42 q-27 -18 -42 -38 q-15 -20 -15 -45 q0 -29 17 -42.5 q17 -13.5 41 -13.5 q17 0 35 6 q18 5 26 -5 q8 -10 4.5 -23.5 q-3.5 -13.5 -17.5 -18.5 q-15 -6 -29.5 -7.5 q-14.5 -1.5 -28.5 -1.5 Z" /><glyph glyph-name="j" unicode="j" d="M119 603 q-53 0 -53 50 q0 49 53 49 q54 0 54 -49 q0 -50 -54 -50 ZM-17 -191 q-25 -1 -34.5 14 q-9.5 15 -3.5 31.5 q6 16.5 26 17.5 q55 3 81.5 29.5 q26.5 26.5 26.5 83.5 l0 467 q0 41 41 41 q40 0 40 -41 l0 -461 q0 -92 -45.5 -135 q-45.5 -43 -131.5 -47 Z" /><glyph glyph-name="uni0237" unicode="&#x237;" d="M-17 -191 q-25 -1 -34.5 14 q-9.5 15 -3.5 31.5 q6 16.5 26 17.5 q55 3 81.5 29.5 q26.5 26.5 26.5 83.5 l0 467 q0 41 41 41 q40 0 40 -41 l0 -461 q0 -92 -45.5 -135 q-45.5 -43 -131.5 -47 Z" /><glyph glyph-name="k" unicode="k" d="M116 -7 q-40 0 -40 42 l0 636 q0 41 40 41 q41 0 41 -41 l0 -401 l2 0 l205 196 q13 13 24 20 q11 7 29 7 q24 0 31.5 -18.5 q7.5 -18.5 -10.5 -37.5 l-195 -185 l214 -201 q21 -20 11.5 -39 q-9.5 -19 -31.5 -19 q-18 0 -29.5 7.5 q-11.5 7.5 -26.5 22.5 l-222 205 l-2 0 l0 -193 q0 -42 -41 -42 Z" /><glyph glyph-name="kgreenlandic" unicode="&#x138;" d="M116 -7 q-40 0 -40 42 l0 417 q0 41 40 41 q41 0 41 -41 l0 -182 l2 0 l205 196 q13 13 24 20 q11 7 28 7 q24 0 32 -18.5 q8 -18.5 -10 -37.5 l-195 -185 l214 -201 q21 -20 11.5 -39 q-9.5 -19 -31.5 -19 q-18 0 -29.5 7.5 q-11.5 7.5 -26.5 22.5 l-222 205 l-2 0 l0 -193 q0 -42 -41 -42 Z" /><glyph glyph-name="l" unicode="l" d="M224 -9 q-72 0 -110 43.5 q-38 43.5 -38 126.5 l0 510 q0 41 40 41 q41 0 41 -41 l0 -504 q0 -107 85 -107 q9 0 16 1 q7 1 14 1 q11 1 15.5 -5 q4.5 -6 4.5 -24 q0 -34 -34 -39 q-8 -2 -17 -2.5 q-9 -0.5 -17 -0.5 Z" /><glyph glyph-name="m" unicode="m" d="M118 -7 q-40 0 -40 42 l0 417 q0 41 39 41 q40 0 40 -41 l0 -48 q22 44 61 67.5 q39 23.5 91 23.5 q114 0 146 -99 q22 46 65 72.5 q43 26.5 99 26.5 q162 0 162 -192 l0 -268 q0 -42 -41 -42 q-40 0 -40 42 l0 264 q0 67 -23.5 98.5 q-23.5 31.5 -77.5 31.5 q-59 0 -94 -42 q-35 -42 -35 -112 l0 -240 q0 -42 -41 -42 q-40 0 -40 42 l0 264 q0 67 -23.5 98.5 q-23.5 31.5 -77.5 31.5 q-60 0 -94.5 -42 q-34.5 -42 -34.5 -112 l0 -240 q0 -42 -41 -42 Z" /><glyph glyph-name="n" unicode="n" d="M116 -7 q-40 0 -40 42 l0 417 q0 41 39 41 q40 0 40 -41 l0 -49 q24 46 68 69 q44 23 99 23 q173 0 173 -192 l0 -268 q0 -42 -40 -42 q-41 0 -41 42 l0 263 q0 68 -26.5 99.5 q-26.5 31.5 -84.5 31.5 q-67 0 -106.5 -41.5 q-39.5 -41.5 -39.5 -110.5 l0 -242 q0 -42 -41 -42 Z" /><glyph glyph-name="eng" unicode="&#x14b;" d="M314 -192 q-25 -1 -34 14 q-9 15 -3 31.5 q6 16.5 27 18.5 q56 4 83 29.5 q27 25.5 27 83.5 l0 313 q0 68 -26.5 99.5 q-26.5 31.5 -84.5 31.5 q-67 0 -106.5 -41.5 q-39.5 -41.5 -39.5 -110.5 l0 -242 q0 -42 -41 -42 q-40 0 -40 42 l0 417 q0 41 39 41 q40 0 40 -41 l0 -49 q24 46 68 69 q44 23 99 23 q173 0 173 -192 l0 -312 q0 -92 -46 -135.5 q-46 -43.5 -135 -47.5 Z" /><glyph glyph-name="o" unicode="o" d="M278 -9 q-71 0 -123 31 q-52 31 -80.5 87.5 q-28.5 56.5 -28.5 133.5 q0 77 28.5 133.5 q28.5 56.5 80.5 87.5 q52 31 123 31 q70 0 122.5 -31 q52.5 -31 81 -87.5 q28.5 -56.5 28.5 -133.5 q0 -77 -28.5 -133.5 q-28.5 -56.5 -81 -87.5 q-52.5 -31 -122.5 -31 ZM278 56 q68 0 109 48.5 q41 48.5 41 138.5 q0 91 -41 139 q-41 48 -109 48 q-69 0 -109.5 -48 q-40.5 -48 -40.5 -139 q0 -90 40.5 -138.5 q40.5 -48.5 109.5 -48.5 Z" /><glyph glyph-name="oslash" unicode="ø" d="M152 -30 q-10 -16 -25 -14.5 q-15 1.5 -23.5 14 q-8.5 12.5 1.5 31.5 l23 40 q-39 32 -60.5 84 q-21.5 52 -21.5 118 q0 77 28.5 133.5 q28.5 56.5 80.5 87.5 q52 31 123 31 q56 0 102 -20 l24 42 q10 16 25.5 14 q15.5 -2 24 -15 q8.5 -13 -1.5 -30 l-24 -41 q39 -33 60.5 -84 q21.5 -51 21.5 -118 q0 -77 -28.5 -133.5 q-28.5 -56.5 -81 -87.5 q-52.5 -31 -122.5 -31 q-56 0 -102 20 l-24 -41 ZM128 243 q0 -87 39 -136 l178 308 q-29 15 -67 15 q-69 0 -109.5 -48 q-40.5 -48 -40.5 -139 ZM278 56 q68 0 109 48.5 q41 48.5 41 138.5 q0 87 -39 136 l-178 -308 q29 -15 67 -15 Z" /><glyph glyph-name="oe" unicode="&#x153;" d="M276 -9 q-70 0 -121.5 31 q-51.5 31 -80 87.5 q-28.5 56.5 -28.5 133.5 q0 77 28.5 133.5 q28.5 56.5 80 87.5 q51.5 31 121.5 31 q67 0 116.5 -31 q49.5 -31 75.5 -87 q27 55 77.5 86.5 q50.5 31.5 116.5 31.5 q96 0 151 -63.5 q55 -63.5 55 -174.5 q0 -31 -34 -31 l-325 0 q5 -83 47 -126.5 q42 -43.5 119 -43.5 q32 0 65.5 8.5 q33.5 8.5 65.5 30.5 q23 15 38 6 q15 -9 16 -27.5 q1 -18.5 -20 -32.5 q-34 -24 -78 -37 q-44 -13 -86 -13 q-74 0 -128.5 30 q-54.5 30 -80.5 87 q-27 -55 -76 -86 q-49 -31 -115 -31 ZM661 435 q-68 0 -106 -43 q-38 -43 -45 -113 l289 0 q-3 74 -38 115 q-35 41 -100 41 ZM278 56 q68 0 109 48.5 q41 48.5 41 138.5 q0 91 -41 139 q-41 48 -109 48 q-69 0 -109.5 -48 q-40.5 -48 -40.5 -139 q0 -90 40.5 -138.5 q40.5 -48.5 109.5 -48.5 Z" /><glyph glyph-name="p" unicode="p" d="M116 -187 q-40 0 -40 41 l0 598 q0 41 39 41 q41 0 41 -41 l0 -52 q21 44 65 69.5 q44 25.5 101 25.5 q65 0 113.5 -30.5 q48.5 -30.5 75 -87 q26.5 -56.5 26.5 -134.5 q0 -77 -26.5 -133.5 q-26.5 -56.5 -75 -87.5 q-48.5 -31 -113.5 -31 q-56 0 -100 25 q-44 25 -65 69 l0 -231 q0 -41 -41 -41 ZM305 56 q68 0 109 48.5 q41 48.5 41 138.5 q0 91 -41 139 q-41 48 -109 48 q-68 0 -109 -48 q-41 -48 -41 -139 q0 -90 41 -138.5 q41 -48.5 109 -48.5 Z" /><glyph glyph-name="thorn" unicode="þ" d="M116 -187 q-40 0 -40 41 l0 817 q0 41 40 41 q41 0 41 -41 l0 -269 q21 43 64.5 68 q43.5 25 100.5 25 q65 0 113.5 -30.5 q48.5 -30.5 75 -87 q26.5 -56.5 26.5 -134.5 q0 -77 -26.5 -133.5 q-26.5 -56.5 -75 -87.5 q-48.5 -31 -113.5 -31 q-56 0 -100 25 q-44 25 -65 69 l0 -231 q0 -41 -41 -41 ZM305 56 q68 0 109 48.5 q41 48.5 41 138.5 q0 91 -41 139 q-41 48 -109 48 q-68 0 -109 -48 q-41 -48 -41 -139 q0 -90 41 -138.5 q41 -48.5 109 -48.5 Z" /><glyph glyph-name="q" unicode="q" d="M467 -187 q-41 0 -41 41 l0 231 q-21 -43 -64.5 -68.5 q-43.5 -25.5 -100.5 -25.5 q-65 0 -113.5 31 q-48.5 31 -75 87.5 q-26.5 56.5 -26.5 133.5 q0 78 26.5 134.5 q26.5 56.5 75 87 q48.5 30.5 113.5 30.5 q57 0 100.5 -25.5 q43.5 -25.5 65.5 -69.5 l0 52 q0 41 40 41 q40 0 40 -41 l0 -598 q0 -41 -40 -41 ZM278 56 q68 0 109 48.5 q41 48.5 41 138.5 q0 91 -41 139 q-41 48 -109 48 q-69 0 -109.5 -48 q-40.5 -48 -40.5 -139 q0 -90 40.5 -138.5 q40.5 -48.5 109.5 -48.5 Z" /><glyph glyph-name="r" unicode="r" d="M117 -7 q-41 0 -41 42 l0 417 q0 41 39 41 q40 0 40 -41 l0 -53 q20 46 62 70.5 q42 24.5 100 26.5 q32 3 34 -32 q3 -35 -36 -39 l-16 -2 q-69 -6 -105 -43.5 q-36 -37.5 -36 -102.5 l0 -242 q0 -42 -41 -42 Z" /><glyph glyph-name="s" unicode="s" d="M240 -9 q-45 0 -90.5 11.5 q-45.5 11.5 -84.5 37.5 q-18 11 -17.5 28.5 q0.5 17.5 13.5 27.5 q13 10 33 0 q39 -24 75.5 -33.5 q36.5 -9.5 72.5 -9.5 q57 0 86 21 q29 21 29 57 q0 28 -19 44.5 q-19 16.5 -60 25.5 l-91 20 q-124 27 -124 128 q0 66 52.5 106 q52.5 40 137.5 40 q43 0 83 -11.5 q40 -11.5 72 -36.5 q17 -12 15 -29 q-2 -17 -15.5 -26.5 q-13.5 -9.5 -32.5 2.5 q-30 20 -61 29.5 q-31 9.5 -61 9.5 q-56 0 -85 -22 q-29 -22 -29 -58 q0 -56 74 -72 l91 -19 q64 -14 97 -44.5 q33 -30.5 33 -82.5 q0 -67 -53 -105.5 q-53 -38.5 -141 -38.5 Z" /><glyph glyph-name="germandbls" unicode="ß" d="M403 -9 q-43 0 -87 12.5 q-44 12.5 -78 36.5 q-19 12 -17.5 30.5 q1.5 18.5 15.5 28 q14 9.5 33 -2.5 q33 -21 69 -30.5 q36 -9.5 66 -9.5 q48 0 76.5 20.5 q28.5 20.5 28.5 57.5 q0 29 -24 48 q-24 19 -83 38 q-80 25 -112 56.5 q-32 31.5 -32 79.5 q0 31 16.5 60 q16.5 29 61.5 68 q31 27 43.5 48.5 q12.5 21.5 12.5 46.5 q0 33 -23.5 52.5 q-23.5 19.5 -66.5 19.5 q-71 0 -108 -42 q-37 -42 -37 -119 l0 -455 q0 -42 -41 -42 q-40 0 -40 42 l0 445 q0 111 59 172.5 q59 61.5 166 61.5 q80 0 124.5 -35 q44.5 -35 44.5 -93 q0 -38 -17 -68.5 q-17 -30.5 -59 -66.5 q-35 -30 -47 -48.5 q-12 -18.5 -12 -38.5 q0 -26 23.5 -45 q23.5 -19 83.5 -38 q77 -24 110 -58 q33 -34 33 -87 q0 -65 -50 -105 q-50 -40 -132 -40 Z" /><glyph glyph-name="t" unicode="t" d="M271 -9 q-86 0 -129 45.5 q-43 45.5 -43 131.5 l0 255 l-67 0 q-35 0 -35 32 q0 31 35 31 l67 0 l0 115 q0 41 41 41 q40 0 40 -41 l0 -115 l126 0 q35 0 35 -31 q0 -32 -35 -32 l-126 0 l0 -247 q0 -57 24 -86.5 q24 -29.5 78 -29.5 q19 0 32 4 q13 4 23 4 q9 1 15 -6 q6 -7 6 -24 q0 -12 -4.5 -22 q-4.5 -10 -15.5 -14 q-12 -4 -31.5 -7.5 q-19.5 -3.5 -35.5 -3.5 Z" /><glyph glyph-name="u" unicode="u" d="M248 -9 q-175 0 -175 193 l0 268 q0 41 40 41 q41 0 41 -41 l0 -267 q0 -65 26.5 -96 q26.5 -31 83.5 -31 q62 0 101 41.5 q39 41.5 39 110.5 l0 242 q0 41 41 41 q40 0 40 -41 l0 -417 q0 -42 -39 -42 q-40 0 -40 42 l0 47 q-23 -44 -64.5 -67.5 q-41.5 -23.5 -93.5 -23.5 Z" /><glyph glyph-name="uhorn" unicode="&#x1b0;" d="M248 -9 q-175 0 -175 193 l0 268 q0 41 40 41 q41 0 41 -41 l0 -267 q0 -65 26.5 -96 q26.5 -31 83.5 -31 q62 0 101 41.5 q39 41.5 39 110.5 l0 237 q0 20 10.5 29 q10.5 9 30.5 12 q46 5 65.5 28 q19.5 23 19.5 73 q0 32 36 32 q36 0 36 -32 q0 -62 -30.5 -101 q-30.5 -39 -86.5 -49 l0 -404 q0 -42 -39 -42 q-40 0 -40 42 l0 47 q-23 -44 -64.5 -67.5 q-41.5 -23.5 -93.5 -23.5 Z" /><glyph glyph-name="uogonek" unicode="&#x173;" d="M509 -183 q-15 -6 -30 -7.5 q-15 -1.5 -29 -1.5 q-48 0 -76.5 26 q-28.5 26 -28.5 71 q0 32 17 61.5 q17 29.5 47 51.5 q-3 7 -3 18 l0 46 q-23 -44 -64.5 -67.5 q-41.5 -23.5 -93.5 -23.5 q-175 0 -175 193 l0 268 q0 41 40 41 q41 0 41 -41 l0 -267 q0 -65 26.5 -96 q26.5 -31 83.5 -31 q62 0 101 41.5 q39 41.5 39 110.5 l0 242 q0 41 41 41 q40 0 40 -41 l0 -417 q0 -17 -6.5 -26.5 q-6.5 -9.5 -18.5 -14.5 q-22 -11 -39.5 -31.5 q-17.5 -20.5 -17.5 -48.5 q0 -29 16.5 -42.5 q16.5 -13.5 41.5 -13.5 q16 0 34 6 q19 5 26.5 -5 q7.5 -10 4.5 -23.5 q-3 -13.5 -17 -18.5 Z" /><glyph glyph-name="v" unicode="v" d="M257 -7 q-35 0 -52 39 l-173 404 q-10 23 -1 40 q9 17 36 17 q28 0 41 -32 l151 -369 l153 369 q7 18 16 25 q9 7 26 7 q23 0 31 -17 q8 -17 -1 -39 l-175 -405 q-16 -39 -52 -39 Z" /><glyph glyph-name="w" unicode="w" d="M244 -7 q-37 0 -51 38 l-149 405 q-10 26 0.5 41.5 q10.5 15.5 33.5 15.5 q15 0 24.5 -7 q9.5 -7 15.5 -26 l128 -365 l132 365 q12 33 45 33 q32 0 44 -33 l130 -366 l130 368 q7 18 16.5 24.5 q9.5 6.5 24.5 6.5 q24 0 31 -17.5 q7 -17.5 -2 -39.5 l-149 -405 q-15 -38 -51 -38 q-37 0 -50 38 l-126 346 l-126 -346 q-14 -38 -51 -38 Z" /><glyph glyph-name="x" unicode="x" d="M78 -6 q-20 0 -30 17.5 q-10 17.5 9 40.5 l159 199 l-148 184 q-19 23 -9 40.5 q10 17.5 30 17.5 q16 0 26 -5.5 q10 -5.5 19 -17.5 l129 -163 l130 163 q9 12 19 17.5 q10 5.5 25 5.5 q21 0 30.5 -17.5 q9.5 -17.5 -9.5 -41.5 l-148 -183 l160 -199 q18 -23 8 -40.5 q-10 -17.5 -31 -17.5 q-27 0 -45 23 l-140 176 l-139 -176 q-9 -11 -19 -17 q-10 -6 -26 -6 Z" /><glyph glyph-name="y" unicode="y" d="M184 -187 q-23 0 -31 17.5 q-8 17.5 1 39.5 l61 138 l-184 428 q-10 23 -0.5 40 q9.5 17 36.5 17 q28 0 41 -32 l151 -369 l152 369 q8 18 17 25 q9 7 26 7 q23 0 31 -17 q8 -17 -1 -39 l-256 -592 q-8 -18 -17.5 -25 q-9.5 -7 -26.5 -7 Z" /><glyph glyph-name="uni01B4" unicode="&#x1b4;" d="M184 -187 q-23 0 -31 18 q-8 18 2 40 l60 137 l-184 429 q-10 23 -0.5 39.5 q9.5 16.5 36.5 16.5 q28 0 41 -32 l151 -369 l125 302 q20 49 53 75 q33 26 89 26 q37 0 51.5 -8.5 q14.5 -8.5 14.5 -25.5 q0 -34 -26 -34 q-5 0 -12.5 1 q-7.5 1 -17.5 1 q-30 0 -50 -17 q-20 -17 -39 -61 l-219 -506 q-8 -18 -17.5 -25 q-9.5 -7 -26.5 -7 Z" /><glyph glyph-name="z" unicode="z" d="M85 0 q-26 0 -32 22 q-6 22 13 45 l267 356 l-252 0 q-33 0 -33 32 q0 31 33 31 l307 0 q30 0 37 -21.5 q7 -21.5 -11 -43.5 l-270 -358 l264 0 q33 0 33 -31 q0 -32 -33 -32 l-323 0 Z" /><glyph glyph-name="fi" unicode="&#xfb01;" d="M142 -7 q-40 0 -40 42 l0 388 l-64 0 q-35 0 -35 32 q0 31 35 31 l64 0 l0 17 q0 186 180 201 l30 3 q19 2 28 -7 q9 -9 9 -21.5 q0 -12.5 -6.5 -23 q-6.5 -10.5 -18.5 -11.5 l-30 -2 q-59 -4 -85 -37 q-26 -33 -26 -92 l0 -27 l260 0 q40 0 40 -43 l0 -404 q0 -44 -40 -44 q-41 0 -41 44 l0 384 l-219 0 l0 -388 q0 -42 -41 -42 ZM444 603 q-52 0 -52 50 q0 49 52 49 q52 0 52 -49 q0 -50 -52 -50 Z" /><glyph glyph-name="ordfeminine" unicode="ª" d="M136 411 q-47 0 -78 25.5 q-31 25.5 -31 64.5 q0 46 41.5 66 q41.5 20 113.5 20 l52 0 l0 16 q0 66 -72 66 q-43 0 -84 -18 q-17 -7 -26 1.5 q-9 8.5 -7 21.5 q2 13 17 19 q24 12 50.5 16.5 q26.5 4.5 51.5 4.5 q126 0 126 -113 l0 -162 q0 -28 -27 -28 q-13 0 -20 8 q-7 8 -7 20 l0 31 l-2 0 q-32 -59 -98 -59 ZM149 453 q37 0 61 24.5 q24 24.5 24 68.5 l0 5 l-50 0 q-100 0 -100 -49 q0 -20 15.5 -34.5 q15.5 -14.5 49.5 -14.5 Z" /><glyph glyph-name="ordmasculine" unicode="º" d="M170 411 q-64 0 -105.5 41.5 q-41.5 41.5 -41.5 110.5 q0 69 41.5 110 q41.5 41 105.5 41 q63 0 104.5 -41 q41.5 -41 41.5 -110 q0 -69 -41.5 -110.5 q-41.5 -41.5 -104.5 -41.5 ZM170 457 q40 0 64 27.5 q24 27.5 24 78.5 q0 51 -24 78 q-24 27 -64 27 q-41 0 -65 -26.5 q-24 -26.5 -24 -78.5 q0 -52 24 -79 q24 -27 65 -27 Z" /><glyph glyph-name="uni0411" unicode="&#x411;" d="M132 0 q-45 0 -45 45 l0 615 q0 45 45 45 l387 0 q36 0 36 -34 q0 -35 -36 -35 l-352 0 l0 -242 l214 0 q111 0 172 -49 q61 -49 61 -147 q0 -98 -61 -148 q-61 -50 -172 -50 l-249 0 ZM167 69 l206 0 q160 0 160 129 q0 127 -160 127 l-206 0 l0 -256 Z" /><glyph glyph-name="uni0413" unicode="&#x413;" d="M128 -7 q-41 0 -41 43 l0 626 q0 43 43 43 l367 0 q38 0 38 -36 q0 -35 -38 -35 l-328 0 l0 -598 q0 -43 -41 -43 Z" /><glyph glyph-name="uni0490" unicode="&#x490;" d="M128 -7 q-41 0 -41 43 l0 626 q0 43 43 43 l323 0 l0 123 q0 39 37 39 q38 0 38 -39 l0 -151 q0 -43 -43 -43 l-316 0 l0 -598 q0 -43 -41 -43 Z" /><glyph glyph-name="uni0414" unicode="&#x414;" d="M54 -164 q-37 0 -37 39 l0 153 q0 41 41 41 l27 0 q53 65 78 176.5 q25 111.5 25 277.5 l0 137 q0 45 45 45 l378 0 q45 0 45 -45 l0 -591 l58 0 q42 0 42 -41 l0 -153 q0 -39 -37 -39 q-38 0 -38 39 l0 125 l-590 0 l0 -125 q0 -39 -37 -39 ZM172 69 l401 0 l0 567 l-308 0 l0 -119 q0 -161 -22.5 -269 q-22.5 -108 -70.5 -179 Z" /><glyph glyph-name="uni0416" unicode="&#x416;" d="M485 -7 q-41 0 -41 43 l0 284 l-86 0 q-56 0 -94 -26.5 q-38 -26.5 -67 -86.5 l-89 -187 q-9 -18 -25 -23.5 q-16 -5.5 -31 0 q-15 5.5 -21.5 20 q-6.5 14.5 3.5 34.5 l95 194 q52 106 138 134 l-183 273 q-12 18 -7.5 32.5 q4.5 14.5 18 21.5 q13.5 7 29.5 4 q16 -3 27 -20 l197 -299 l96 0 l0 279 q0 42 41 42 q39 0 39 -42 l0 -279 l97 0 l197 299 q11 17 27 20 q16 3 29.5 -4 q13.5 -7 18 -21.5 q4.5 -14.5 -7.5 -32.5 l-183 -273 q43 -15 77 -48.5 q34 -33.5 59 -85.5 l95 -194 q10 -20 3.5 -34.5 q-6.5 -14.5 -21.5 -20 q-15 -5.5 -31 0 q-16 5.5 -25 23.5 l-89 187 q-29 61 -66.5 87 q-37.5 26 -92.5 26 l-87 0 l0 -284 q0 -43 -39 -43 Z" /><glyph glyph-name="uni0417" unicode="&#x417;" d="M312 -9 q-79 0 -144.5 20 q-65.5 20 -109.5 56 q-15 11 -17.5 25.5 q-2.5 14.5 4.5 26.5 q7 12 20.5 15.5 q13.5 3.5 30.5 -7.5 q85 -63 211 -63 q97 0 142.5 33.5 q45.5 33.5 45.5 99.5 q0 126 -160 126 l-142 0 q-37 0 -37 34 q0 34 37 34 l126 0 q159 0 159 122 q0 60 -42.5 94 q-42.5 34 -127.5 34 q-53 0 -102.5 -14 q-49.5 -14 -91.5 -45 q-17 -11 -30.5 -7 q-13.5 4 -20 16 q-6.5 12 -4 26.5 q2.5 14.5 17.5 24.5 q48 37 110.5 54.5 q62.5 17.5 126.5 17.5 q123 0 185 -53 q62 -53 62 -140 q0 -58 -30.5 -99 q-30.5 -41 -82.5 -60 q61 -16 95.5 -59 q34.5 -43 34.5 -109 q0 -94 -65.5 -148.5 q-65.5 -54.5 -200.5 -54.5 Z" /><glyph glyph-name="uni0418" unicode="&#x418;" d="M122 -7 q-35 0 -35 43 l0 636 q0 40 39 40 q38 0 38 -40 l0 -536 l412 551 q10 14 19 19.5 q9 5.5 24 5.5 q33 0 33 -40 l0 -638 q0 -41 -37 -41 q-39 0 -39 41 l0 536 l-412 -552 q-10 -13 -18.5 -19 q-8.5 -6 -23.5 -6 Z" /><glyph glyph-name="uni048A" unicode="&#x48a;" d="M370 760 q-60 0 -108 27 q-48 27 -73 82 q-7 15 -3 24.5 q4 9.5 15 13.5 q23 8 36 -17 q19 -38 51.5 -58 q32.5 -20 81.5 -20 q48 0 81 20 q33 20 51 58 q14 25 36 17 q11 -4 15 -13.5 q4 -9.5 -2 -24.5 q-25 -55 -73.5 -82 q-48.5 -27 -107.5 -27 ZM696 -138 q-6 -16 -18.5 -22 q-12.5 -6 -25.5 -2.5 q-13 3.5 -20 15 q-7 11.5 -1 29.5 l39 118 l-53 0 q-41 0 -41 39 l0 531 l-412 -552 q-10 -13 -18.5 -19 q-8.5 -6 -23.5 -6 q-35 0 -35 43 l0 636 q0 40 39 40 q38 0 38 -40 l0 -536 l412 551 q10 14 19 19.5 q9 5.5 24 5.5 q33 0 33 -40 l0 -603 l59 0 q25 0 35.5 -13 q10.5 -13 2.5 -36 l-53 -158 Z" /><glyph glyph-name="uni041A" unicode="&#x41a;" d="M128 -7 q-41 0 -41 43 l0 634 q0 42 41 42 q41 0 41 -42 l0 -279 l124 0 l198 299 q11 17 27 20 q16 3 29.5 -4.5 q13.5 -7.5 17.5 -21.5 q4 -14 -7 -32 l-184 -273 q44 -15 77.5 -48.5 q33.5 -33.5 59.5 -85.5 l95 -194 q10 -20 3.5 -34.5 q-6.5 -14.5 -21.5 -20 q-15 -5.5 -31 0 q-16 5.5 -25 23.5 l-89 187 q-29 61 -67 87 q-38 26 -93 26 l-114 0 l0 -284 q0 -43 -41 -43 Z" /><glyph glyph-name="uni041B" unicode="&#x41b;" d="M613 -7 q-42 0 -42 43 l0 598 l-308 0 l0 -162 q0 -135 -20.5 -227 q-20.5 -92 -60.5 -150.5 q-40 -58.5 -98 -94.5 q-16 -11 -31 -8 q-15 3 -25 19 q-21 32 15 54 q34 21 60.5 53 q26.5 32 45 80.5 q18.5 48.5 28.5 120.5 q10 72 10 174 l0 167 q0 45 45 45 l377 0 q45 0 45 -45 l0 -624 q0 -43 -41 -43 Z" /><glyph glyph-name="uni041F" unicode="&#x41f;" d="M128 -7 q-41 0 -41 43 l0 624 q0 45 45 45 l492 0 q45 0 45 -45 l0 -624 q0 -43 -41 -43 q-42 0 -42 43 l0 598 l-417 0 l0 -598 q0 -43 -41 -43 Z" /><glyph glyph-name="uni0423" unicode="&#x423;" d="M254 -7 q-21 0 -32 16 q-11 16 2 41 l83 161 l-277 444 q-14 22 -4 39.5 q10 17.5 33 17.5 q15 0 24.5 -7.5 q9.5 -7.5 17.5 -21.5 l246 -395 l202 394 q7 13 16 21.5 q9 8.5 25 8.5 q22 0 33 -15.5 q11 -15.5 -2 -41.5 l-325 -632 q-6 -13 -15.5 -21.5 q-9.5 -8.5 -26.5 -8.5 Z" /><glyph glyph-name="uni0424" unicode="&#x424;" d="M423 -29 q-42 0 -42 42 l0 43 l-2 0 q-99 0 -170.5 36.5 q-71.5 36.5 -109.5 104.5 q-38 68 -38 161 q0 142 83 221.5 q83 79.5 235 79.5 l2 0 l0 38 q0 42 42 42 q41 0 41 -42 l0 -38 l3 0 q151 0 234 -79.5 q83 -79.5 83 -221.5 q0 -93 -38 -161 q-38 -68 -109 -104.5 q-71 -36.5 -170 -36.5 l-3 0 l0 -43 q0 -42 -41 -42 ZM478 593 l-14 0 l0 -470 l14 0 q66 0 115.5 28 q49.5 28 77.5 80.5 q28 52.5 28 126.5 q0 113 -60 174 q-60 61 -161 61 ZM367 123 l15 0 l0 470 l-15 0 q-101 0 -161 -61 q-60 -61 -60 -174 q0 -74 28 -126.5 q28 -52.5 77.5 -80.5 q49.5 -28 115.5 -28 Z" /><glyph glyph-name="uni0427" unicode="&#x427;" d="M548 -7 q-42 0 -42 43 l0 262 q-31 -18 -78.5 -27 q-47.5 -9 -94.5 -9 q-133 0 -204 72.5 q-71 72.5 -71 216.5 l0 118 q0 43 41 43 q41 0 41 -43 l0 -112 q0 -115 50.5 -168.5 q50.5 -53.5 149.5 -53.5 q44 0 87 9 q43 9 79 31 l0 294 q0 43 42 43 q41 0 41 -43 l0 -633 q0 -43 -41 -43 Z" /><glyph glyph-name="uni0426" unicode="&#x426;" d="M732 -165 q-38 0 -38 39 l0 126 l-562 0 q-45 0 -45 45 l0 624 q0 43 41 43 q41 0 41 -43 l0 -598 l417 0 l0 598 q0 43 42 43 q41 0 41 -43 l0 -598 l58 0 q42 0 42 -41 l0 -156 q0 -39 -37 -39 Z" /><glyph glyph-name="uni0428" unicode="&#x428;" d="M132 0 q-45 0 -45 45 l0 624 q0 43 41 43 q41 0 41 -43 l0 -598 l317 0 l0 598 q0 43 41 43 q40 0 40 -43 l0 -598 l317 0 l0 598 q0 43 41 43 q41 0 41 -43 l0 -624 q0 -45 -45 -45 l-789 0 Z" /><glyph glyph-name="uni0429" unicode="&#x429;" d="M1029 -164 q-38 0 -38 39 l0 125 l-859 0 q-45 0 -45 45 l0 624 q0 43 41 43 q41 0 41 -43 l0 -598 l317 0 l0 598 q0 43 41 43 q40 0 40 -43 l0 -598 l317 0 l0 598 q0 43 41 43 q41 0 41 -43 l0 -598 l58 0 q41 0 41 -41 l0 -155 q0 -39 -36 -39 Z" /><glyph glyph-name="uni040F" unicode="&#x40f;" d="M378 -164 q-37 0 -37 39 l0 125 l-209 0 q-45 0 -45 45 l0 624 q0 43 41 43 q41 0 41 -43 l0 -598 l417 0 l0 598 q0 43 42 43 q41 0 41 -43 l0 -624 q0 -45 -45 -45 l-209 0 l0 -125 q0 -39 -37 -39 Z" /><glyph glyph-name="uni042C" unicode="&#x42c;" d="M132 0 q-45 0 -45 45 l0 624 q0 43 41 43 q41 0 41 -43 l0 -275 l212 0 q111 0 172 -49 q61 -49 61 -147 q0 -98 -61 -148 q-61 -50 -172 -50 l-249 0 ZM169 69 l204 0 q160 0 160 129 q0 127 -160 127 l-204 0 l0 -256 Z" /><glyph glyph-name="uni042A" unicode="&#x42a;" d="M262 0 q-45 0 -45 45 l0 589 l-182 0 q-38 0 -38 36 q0 35 38 35 l220 0 q45 0 45 -45 l0 -266 l210 0 q112 0 173 -49 q61 -49 61 -147 q0 -98 -61 -148 q-61 -50 -173 -50 l-248 0 ZM300 69 l203 0 q160 0 160 129 q0 127 -160 127 l-203 0 l0 -256 Z" /><glyph glyph-name="uni042B" unicode="&#x42b;" d="M132 0 q-45 0 -45 45 l0 624 q0 43 41 43 q41 0 41 -43 l0 -275 l182 0 q111 0 172 -49 q61 -49 61 -147 q0 -98 -61 -148 q-61 -50 -172 -50 l-219 0 ZM726 -7 q-41 0 -41 43 l0 633 q0 43 41 43 q41 0 41 -43 l0 -633 q0 -43 -41 -43 ZM169 69 l174 0 q160 0 160 129 q0 127 -160 127 l-174 0 l0 -256 Z" /><glyph glyph-name="uni0409" unicode="&#x409;" d="M601 0 q-45 0 -45 45 l0 589 l-293 0 l0 -162 q0 -135 -20 -227 q-20 -92 -60.5 -151 q-40.5 -59 -99.5 -94 q-16 -10 -31 -7.5 q-15 2.5 -24 18.5 q-19 29 15 54 q34 22 60.5 53.5 q26.5 31.5 45 80 q18.5 48.5 28.5 120.5 q10 72 10 174 l0 167 q0 45 45 45 l361 0 q45 0 45 -45 l0 -266 l212 0 q111 0 172 -49 q61 -49 61 -147 q0 -98 -61 -148 q-61 -50 -172 -50 l-249 0 ZM638 69 l204 0 q160 0 160 129 q0 127 -160 127 l-204 0 l0 -256 Z" /><glyph glyph-name="uni040A" unicode="&#x40a;" d="M128 -7 q-41 0 -41 43 l0 633 q0 43 41 43 q41 0 41 -43 l0 -276 l423 0 l0 276 q0 43 41 43 q41 0 41 -43 l0 -275 l211 0 q111 0 172.5 -49 q61.5 -49 61.5 -147 q0 -98 -61.5 -148 q-61.5 -50 -172.5 -50 l-248 0 q-45 0 -45 45 l0 277 l-423 0 l0 -286 q0 -43 -41 -43 ZM674 69 l203 0 q160 0 160 129 q0 127 -160 127 l-203 0 l0 -256 Z" /><glyph glyph-name="uni0404" unicode="&#x404;" d="M392 -9 q-104 0 -178 44 q-74 44 -113.5 125 q-39.5 81 -39.5 193 q0 111 39.5 192 q39.5 81 113.5 125 q74 44 178 44 q61 0 117 -17.5 q56 -17.5 102 -55.5 q17 -12 19.5 -27.5 q2.5 -15.5 -5.5 -27.5 q-8 -12 -22.5 -15 q-14.5 -3 -32.5 9 q-40 31 -82.5 45 q-42.5 14 -93.5 14 q-111 0 -173.5 -65 q-62.5 -65 -71.5 -181 l323 0 q38 0 38 -35 q0 -34 -38 -34 l-323 0 q7 -124 70 -191 q63 -67 175 -67 q52 0 95 14.5 q43 14.5 83 45.5 q18 13 31.5 9.5 q13.5 -3.5 20 -16.5 q6.5 -13 3.5 -29 q-3 -16 -18 -27 q-44 -37 -99.5 -54.5 q-55.5 -17.5 -117.5 -17.5 Z" /><glyph glyph-name="uni042D" unicode="&#x42d;" d="M281 -9 q-62 0 -118 18 q-56 18 -100 54 q-15 12 -18 28 q-3 16 3.5 28.5 q6.5 12.5 20.5 16.5 q14 4 31 -9 q41 -33 84 -47 q43 -14 95 -14 q113 0 175.5 67.5 q62.5 67.5 70.5 190.5 l-324 0 q-37 0 -37 34 q0 35 37 35 l322 0 q-9 116 -68.5 181 q-59.5 65 -169.5 65 q-50 0 -95 -15.5 q-45 -15.5 -85 -43.5 q-19 -13 -33.5 -9.5 q-14.5 3.5 -22 15.5 q-7.5 12 -4.5 27.5 q3 15.5 19 26.5 q49 37 106.5 55.5 q57.5 18.5 117.5 18.5 q103 0 175.5 -44 q72.5 -44 110.5 -125.5 q38 -81.5 38 -192.5 q0 -111 -39.5 -192 q-39.5 -81 -113.5 -125 q-74 -44 -178 -44 Z" /><glyph glyph-name="uni040B" unicode="&#x40b;" d="M301 -7 q-41 0 -41 43 l0 598 l-225 0 q-38 0 -38 36 q0 35 38 35 l533 0 q38 0 38 -35 q0 -36 -38 -36 l-225 0 l0 -235 q31 18 78 27 q47 9 94 9 q134 0 205 -72.5 q71 -72.5 71 -216.5 l0 -110 q0 -43 -41 -43 q-41 0 -41 43 l0 104 q0 115 -51 168.5 q-51 53.5 -150 53.5 q-44 0 -86.5 -9 q-42.5 -9 -78.5 -30 l0 -287 q0 -43 -42 -43 Z" /><glyph glyph-name="uni042E" unicode="&#x42e;" d="M638 -9 q-91 0 -159 40 q-68 40 -108 114.5 q-40 74.5 -46 176.5 l-156 0 l0 -286 q0 -43 -41 -43 q-41 0 -41 43 l0 633 q0 43 41 43 q41 0 41 -43 l0 -276 l157 0 q7 100 47 171.5 q40 71.5 107 110.5 q67 39 158 39 q97 0 167.5 -44 q70.5 -44 109 -125 q38.5 -81 38.5 -192 q0 -111 -38.5 -192 q-38.5 -81 -109.5 -125.5 q-71 -44.5 -167 -44.5 ZM638 64 q109 0 168.5 76 q59.5 76 59.5 213 q0 137 -59.5 212.5 q-59.5 75.5 -168.5 75.5 q-108 0 -168 -75.5 q-60 -75.5 -60 -212.5 q0 -136 60 -212.5 q60 -76.5 168 -76.5 Z" /><glyph glyph-name="uni042F" unicode="&#x42f;" d="M542 -7 q-41 0 -41 43 l0 262 l-118 0 q-49 0 -78.5 -14.5 q-29.5 -14.5 -52.5 -57.5 l-112 -207 q-11 -19 -27 -23.5 q-16 -4.5 -30.5 2 q-14.5 6.5 -20 22 q-5.5 15.5 6.5 36.5 l94 174 q32 59 76 76 q-81 15 -125.5 65 q-44.5 50 -44.5 130 q0 98 60.5 151 q60.5 53 174.5 53 l234 0 q45 0 45 -45 l0 -624 q0 -43 -41 -43 ZM316 363 l185 0 l0 274 l-185 0 q-166 0 -166 -136 q0 -138 166 -138 Z" /><glyph glyph-name="uni0402" unicode="&#x402;" d="M578 -189 q-23 0 -48 3.5 q-25 3.5 -44 9.5 q-23 7 -26.5 25 q-3.5 18 7.5 32 q11 14 33 8 q33 -9 71 -9 q63 0 97 42 q34 42 34 126 l0 92 q0 114 -50.5 168 q-50.5 54 -152.5 54 q-94 0 -156 -39 l0 -287 q0 -43 -42 -43 q-41 0 -41 43 l0 598 l-225 0 q-38 0 -38 36 q0 35 38 35 l533 0 q38 0 38 -35 q0 -36 -38 -36 l-225 0 l0 -235 q27 17 71.5 26.5 q44.5 9.5 91.5 9.5 q137 0 208 -72.5 q71 -72.5 71 -216.5 l0 -95 q0 -117 -55 -178.5 q-55 -61.5 -152 -61.5 Z" /><glyph glyph-name="uni0462" unicode="&#x462;" d="M198 0 q-45 0 -45 45 l0 491 l-145 0 q-35 0 -35 33 q0 32 35 32 l145 0 l0 68 q0 43 40 43 q41 0 41 -43 l0 -68 l210 0 q35 0 35 -32 q0 -33 -35 -33 l-210 0 l0 -142 l210 0 q112 0 173 -49 q61 -49 61 -147 q0 -98 -61 -148 q-61 -50 -173 -50 l-246 0 ZM233 69 l204 0 q160 0 160 129 q0 127 -160 127 l-204 0 l0 -256 Z" /><glyph glyph-name="uni046A" unicode="&#x46a;" d="M477 -7 q-41 0 -41 43 l0 284 l-78 0 q-57 0 -93.5 -26.5 q-36.5 -26.5 -65.5 -86.5 l-90 -187 q-9 -18 -25 -23.5 q-16 -5.5 -31 0 q-15 5.5 -21.5 20 q-6.5 14.5 3.5 34.5 l96 196 q32 64 84.5 103.5 q52.5 39.5 143.5 39.5 l35 0 l-224 258 q-18 22 -10.5 39.5 q7.5 17.5 38.5 17.5 l559 0 q31 0 38.5 -17.5 q7.5 -17.5 -10.5 -39.5 l-224 -258 l34 0 q91 0 144 -39.5 q53 -39.5 85 -103.5 l96 -196 q10 -20 3.5 -34.5 q-6.5 -14.5 -21.5 -20 q-15 -5.5 -31 0 q-16 5.5 -25 23.5 l-90 187 q-29 60 -65.5 86.5 q-36.5 26.5 -93.5 26.5 l-78 0 l0 -284 q0 -43 -42 -43 ZM476 392 l2 0 l213 251 l-427 0 l212 -251 Z" /><glyph glyph-name="uni0474" unicode="&#x474;" d="M345 -7 q-35 0 -50 36 l-275 629 q-11 25 1 39.5 q12 14.5 33 14.5 q18 0 27.5 -8.5 q9.5 -8.5 16.5 -24.5 l247 -574 l172 419 q27 65 56 105.5 q29 40.5 67 60.5 q38 20 92 23 q21 1 31.5 -8.5 q10.5 -9.5 11 -23 q0.5 -13.5 -8 -25 q-8.5 -11.5 -25.5 -13.5 q-36 -3 -61.5 -18 q-25.5 -15 -46 -45 q-20.5 -30 -41.5 -80 l-198 -471 q-8 -18 -19 -27 q-11 -9 -30 -9 Z" /><glyph glyph-name="uni0492" unicode="&#x492;" d="M164 -7 q-41 0 -41 43 l0 285 l-62 0 q-35 0 -35 32 q0 31 35 31 l62 0 l0 278 q0 43 43 43 l367 0 q38 0 38 -36 q0 -35 -38 -35 l-327 0 l0 -250 l150 0 q35 0 35 -31 q0 -32 -35 -32 l-150 0 l0 -285 q0 -43 -42 -43 Z" /><glyph glyph-name="uni0494" unicode="&#x494;" d="M407 -189 q-24 0 -50 3.5 q-26 3.5 -45 9.5 q-23 7 -26 25 q-3 18 8 32 q11 14 33 8 q34 -9 72 -9 q62 0 96 42 q34 42 34 126 l0 92 q0 114 -51 168 q-51 54 -152 54 q-94 0 -157 -39 l0 -287 q0 -43 -41 -43 q-41 0 -41 43 l0 626 q0 43 43 43 l385 0 q38 0 38 -35 q0 -36 -38 -36 l-346 0 l0 -235 q28 17 72 26.5 q44 9.5 92 9.5 q137 0 207.5 -72 q70.5 -72 70.5 -217 l0 -95 q0 -117 -54.5 -178.5 q-54.5 -61.5 -149.5 -61.5 Z" /><glyph glyph-name="uni0496" unicode="&#x496;" d="M972 -164 q-37 0 -37 39 l0 125 l-36 0 q-11 0 -23.5 6.5 q-12.5 6.5 -19.5 20.5 l-86 180 q-29 61 -66.5 87 q-37.5 26 -92.5 26 l-87 0 l0 -284 q0 -43 -39 -43 q-41 0 -41 43 l0 284 l-86 0 q-56 0 -94 -26.5 q-38 -26.5 -67 -86.5 l-89 -187 q-9 -18 -25 -23.5 q-16 -5.5 -31 0 q-15 5.5 -21.5 20 q-6.5 14.5 3.5 34.5 l95 194 q52 106 138 134 l-183 273 q-12 18 -7.5 32 q4.5 14 18 21.5 q13.5 7.5 29.5 4.5 q16 -3 27 -20 l197 -299 l96 0 l0 279 q0 42 41 42 q39 0 39 -42 l0 -279 l97 0 l197 299 q11 17 27 20 q16 3 29.5 -4.5 q13.5 -7.5 18 -21.5 q4.5 -14 -7.5 -32 l-183 -273 q43 -15 77 -48.5 q34 -33.5 59 -85.5 l86 -176 l44 0 q42 0 42 -41 l0 -153 q0 -39 -38 -39 Z" /><glyph glyph-name="uni0498" unicode="&#x498;" d="M317 -164 q-37 0 -37 40 l0 116 q-140 8 -222 75 q-15 11 -17.5 25.5 q-2.5 14.5 4.5 26.5 q7 12 20.5 15.5 q13.5 3.5 30.5 -7.5 q85 -63 211 -63 q97 0 142.5 33.5 q45.5 33.5 45.5 99.5 q0 126 -160 126 l-142 0 q-37 0 -37 34 q0 34 37 34 l126 0 q159 0 159 122 q0 60 -42.5 94 q-42.5 34 -127.5 34 q-53 0 -102.5 -14 q-49.5 -14 -91.5 -45 q-17 -11 -30.5 -7 q-13.5 4 -20 16 q-6.5 12 -4 26.5 q2.5 14.5 17.5 24.5 q48 37 110.5 54.5 q62.5 17.5 126.5 17.5 q123 0 185 -53 q62 -53 62 -140 q0 -58 -30.5 -99 q-30.5 -41 -82.5 -60 q61 -16 95.5 -59 q34.5 -43 34.5 -109 q0 -87 -55 -140 q-55 -53 -168 -61 l0 -117 q0 -40 -38 -40 Z" /><glyph glyph-name="uni049A" unicode="&#x49a;" d="M645 -164 q-38 0 -38 39 l0 125 l-35 0 q-12 0 -24 6 q-12 6 -19 20 l-86 181 q-29 61 -67 87 q-38 26 -93 26 l-114 0 l0 -284 q0 -43 -41 -43 q-41 0 -41 43 l0 634 q0 42 41 42 q41 0 41 -42 l0 -279 l124 0 l198 299 q11 17 27 20 q16 3 29 -4.5 q13 -7.5 17.5 -21.5 q4.5 -14 -6.5 -32 l-184 -273 q44 -15 77.5 -48.5 q33.5 -33.5 59.5 -85.5 l86 -176 l43 0 q42 0 42 -41 l0 -153 q0 -39 -37 -39 Z" /><glyph glyph-name="uni049C" unicode="&#x49c;" d="M128 -7 q-41 0 -41 43 l0 634 q0 42 41 42 q41 0 41 -42 l0 -279 l71 0 l0 140 q0 34 31 34 q31 0 31 -34 l0 -140 l21 0 l198 299 q11 17 27 20 q16 3 29.5 -4.5 q13.5 -7.5 18 -21.5 q4.5 -14 -7.5 -32 l-184 -273 q85 -28 137 -134 l95 -194 q10 -20 3.5 -34.5 q-6.5 -14.5 -21.5 -20 q-15 -5.5 -31 0 q-16 5.5 -25 23.5 l-89 187 q-30 61 -67.5 87.5 q-37.5 26.5 -92.5 26.5 l-11 0 l0 -138 q0 -34 -31 -34 q-31 0 -31 34 l0 138 l-71 0 l0 -285 q0 -43 -41 -43 Z" /><glyph glyph-name="uni049E" unicode="&#x49e;" d="M169 -7 q-41 0 -41 43 l0 503 l-113 0 q-34 0 -34 32 q0 32 34 32 l113 0 l0 67 q0 42 41 42 q41 0 41 -42 l0 -67 l114 0 q33 0 33 -32 q0 -32 -33 -32 l-114 0 l0 -148 l126 0 l200 299 q12 18 28 20.5 q16 2.5 29 -5 q13 -7.5 17 -21.5 q4 -14 -7 -32 l-188 -276 q41 -15 72.5 -48 q31.5 -33 56.5 -83 l95 -194 q10 -20 3.5 -34.5 q-6.5 -14.5 -21.5 -20 q-15 -5.5 -31 0 q-16 5.5 -25 23.5 l-89 187 q-29 61 -67 87 q-38 26 -93 26 l-106 0 l0 -284 q0 -43 -41 -43 Z" /><glyph glyph-name="uni04A0" unicode="&#x4a0;" d="M259 -7 q-42 0 -42 43 l0 599 l-182 0 q-38 0 -38 35 q0 35 38 35 l224 0 q41 0 41 -42 l0 -272 l124 0 l197 299 q11 17 27 20 q16 3 29.5 -4.5 q13.5 -7.5 18 -21.5 q4.5 -14 -7.5 -32 l-183 -273 q43 -15 76.5 -48.5 q33.5 -33.5 59.5 -85.5 l95 -194 q10 -20 3.5 -34.5 q-6.5 -14.5 -21.5 -20 q-15 -5.5 -31 0 q-16 5.5 -25 23.5 l-89 187 q-29 61 -66.5 87 q-37.5 26 -92.5 26 l-114 0 l0 -284 q0 -43 -41 -43 Z" /><glyph glyph-name="uni04A2" unicode="&#x4a2;" d="M737 -164 q-38 0 -38 39 l0 125 l-66 0 q-41 0 -41 43 l0 279 l-423 0 l0 -286 q0 -43 -41 -43 q-41 0 -41 43 l0 633 q0 43 41 43 q41 0 41 -43 l0 -276 l423 0 l0 276 q0 43 41 43 q41 0 41 -43 l0 -600 l59 0 q41 0 41 -41 l0 -153 q0 -39 -37 -39 Z" /><glyph glyph-name="uni04A4" unicode="&#x4a4;" d="M128 -7 q-41 0 -41 43 l0 633 q0 43 41 43 q41 0 41 -43 l0 -276 l423 0 l0 269 q0 43 43 43 l265 0 q38 0 38 -35 q0 -36 -38 -36 l-226 0 l0 -598 q0 -43 -41 -43 q-41 0 -41 43 l0 286 l-423 0 l0 -286 q0 -43 -41 -43 Z" /><glyph glyph-name="uni0524" unicode="&#x524;" d="M732 -164 q-38 0 -38 39 l0 125 l-66 0 q-42 0 -42 43 l0 591 l-417 0 l0 -598 q0 -43 -41 -43 q-41 0 -41 43 l0 624 q0 45 45 45 l492 0 q45 0 45 -45 l0 -591 l58 0 q42 0 42 -41 l0 -153 q0 -39 -37 -39 Z" /><glyph glyph-name="uni04A8" unicode="&#x4a8;" d="M383 -9 q-100 0 -172 44 q-72 44 -111 124.5 q-39 80.5 -39 190.5 q0 115 39 196 q39 81 111 124.5 q72 43.5 171 43.5 q21 0 39 -2 q18 -2 26.5 -12.5 q8.5 -10.5 7.5 -26.5 q-1 -18 -13.5 -25.5 q-12.5 -7.5 -27.5 -7.5 q-23 2 -40 1 q-109 -3 -168 -78 q-59 -75 -59 -210 q0 -142 62.5 -217.5 q62.5 -75.5 178.5 -75.5 q35 0 66 7 q-53 44 -84 110 q-31 66 -31 148 q0 105 50.5 168 q50.5 63 142.5 63 q91 0 141.5 -63 q50.5 -63 50.5 -168 q0 -82 -31 -148 q-31 -66 -85 -110 q32 -7 67 -7 q60 0 103 18 q18 8 29.5 1.5 q11.5 -6.5 15.5 -19.5 q4 -13 -1 -26.5 q-5 -13.5 -20 -19.5 q-27 -12 -59 -17.5 q-32 -5.5 -70 -5.5 q-77 0 -143 29 q-68 -29 -147 -29 ZM419 324 q0 -80 29 -138 q29 -58 83 -90 q54 32 83.5 90.5 q29.5 58.5 29.5 137.5 q0 79 -29.5 120.5 q-29.5 41.5 -82.5 41.5 q-53 0 -83 -41.5 q-30 -41.5 -30 -120.5 Z" /><glyph glyph-name="uni04AA" unicode="&#x4aa;" d="M381 -164 q-38 0 -38 40 l0 118 q-134 15 -208 110 q-74 95 -74 249 q0 111 39.5 192 q39.5 81 113.5 125 q74 44 178 44 q62 0 118 -18 q56 -18 97 -51 q17 -12 19.5 -28 q2.5 -16 -5.5 -28.5 q-8 -12.5 -22.5 -16 q-14.5 -3.5 -32.5 9.5 q-71 57 -172 57 q-119 0 -182 -75 q-63 -75 -63 -211 q0 -137 63 -212 q63 -75 182 -75 q101 0 174 58 q18 12 32.5 9 q14.5 -3 22 -15 q7.5 -12 5.5 -27 q-2 -15 -17 -27 q-38 -33 -87.5 -51 q-49.5 -18 -105.5 -21 l0 -116 q0 -40 -37 -40 Z" /><glyph glyph-name="uni04AC" unicode="&#x4ac;" d="M394 -164 q-37 0 -37 39 l0 125 l-62 0 q-46 0 -46 45 l0 589 l-217 0 q-38 0 -38 36 q0 35 38 35 l525 0 q38 0 38 -35 q0 -36 -38 -36 l-225 0 l0 -565 l59 0 q41 0 41 -39 l0 -155 q0 -39 -38 -39 Z" /><glyph glyph-name="uni04B2" unicode="&#x4b2;" d="M635 -164 q-38 0 -38 39 l0 125 l-24 0 q-13 0 -24.5 3.5 q-11.5 3.5 -21.5 18.5 l-202 276 l-203 -278 q-19 -27 -44 -27 q-25 0 -35.5 18.5 q-10.5 18.5 5.5 38.5 l230 310 l-216 293 q-17 22 -6.5 40.5 q10.5 18.5 33.5 18.5 q14 0 23.5 -5.5 q9.5 -5.5 19.5 -19.5 l194 -265 l191 263 q19 27 44 27 q24 0 34.5 -18.5 q10.5 -18.5 -6.5 -40.5 l-217 -293 l217 -291 l41 0 q42 0 42 -41 l0 -153 q0 -39 -37 -39 Z" /><glyph glyph-name="uni04B4" unicode="&#x4b4;" d="M861 -163 q-38 0 -38 38 l0 126 l-562 0 q-46 0 -46 45 l0 589 l-183 0 q-38 0 -38 36 q0 35 38 35 l448 0 q38 0 38 -35 q0 -36 -38 -36 l-182 0 l0 -564 l417 0 l0 597 q0 43 41 43 q41 0 41 -43 l0 -597 l59 0 q41 0 41 -40 l0 -156 q0 -38 -36 -38 Z" /><glyph glyph-name="uni04B6" unicode="&#x4b6;" d="M506 298 q-31 -18 -78.5 -27 q-47.5 -9 -94.5 -9 q-133 0 -204 72.5 q-71 72.5 -71 216.5 l0 118 q0 43 41 43 q41 0 41 -43 l0 -112 q0 -115 50.5 -168.5 q50.5 -53.5 149.5 -53.5 q44 0 87 9 q43 9 79 31 l0 294 q0 43 42 43 q41 0 41 -43 l0 -600 l58 0 q42 0 42 -41 l0 -153 q0 -39 -37 -39 q-38 0 -38 39 l0 125 l-66 0 q-42 0 -42 43 l0 255 Z" /><glyph glyph-name="uni04B8" unicode="&#x4b8;" d="M548 -7 q-42 0 -42 43 l0 262 q-27 -16 -66 -24.5 q-39 -8.5 -79 -10.5 l0 -125 q0 -34 -31 -34 q-31 0 -31 34 l0 125 q-115 10 -178 79.5 q-63 69.5 -63 208.5 l0 118 q0 43 41 43 q41 0 41 -43 l0 -112 q0 -104 41 -156.5 q41 -52.5 118 -62.5 l0 144 q0 34 31 34 q31 0 31 -34 l0 -146 q39 2 76.5 11 q37.5 9 68.5 28 l0 294 q0 43 42 43 q41 0 41 -43 l0 -633 q0 -43 -41 -43 Z" /><glyph glyph-name="uni04BA" unicode="&#x4ba;" d="M128 -7 q-41 0 -41 43 l0 633 q0 43 41 43 q41 0 41 -43 l0 -262 q31 18 78.5 27 q47.5 9 94.5 9 q134 0 205 -72.5 q71 -72.5 71 -216.5 l0 -118 q0 -43 -42 -43 q-40 0 -40 43 l0 112 q0 116 -51 169 q-51 53 -149 53 q-45 0 -87.5 -9 q-42.5 -9 -79.5 -30 l0 -295 q0 -43 -41 -43 Z" /><glyph glyph-name="uni0526" unicode="&#x526;" d="M536 148 q0 116 -51 169 q-51 53 -149 53 q-45 0 -87.5 -9 q-42.5 -9 -79.5 -30 l0 -295 q0 -43 -41 -43 q-41 0 -41 43 l0 633 q0 43 41 43 q41 0 41 -43 l0 -262 q31 18 78.5 27 q47.5 9 94.5 9 q134 0 205 -72.5 q71 -72.5 71 -216.5 l0 -85 l59 0 q41 0 41 -41 l0 -153 q0 -39 -37 -39 q-38 0 -38 39 l0 125 l-66 0 q-41 0 -41 43 l0 105 Z" /><glyph glyph-name="uni04BC" unicode="&#x4bc;" d="M582 -9 q-163 0 -258.5 86 q-95.5 86 -105.5 238 l-22 0 q-88 0 -132 43.5 q-44 43.5 -44 118.5 l0 32 q0 42 42 42 q22 0 31 -10.5 q9 -10.5 9 -26.5 q0 -10 0 -19 q0 -9 0 -17 q2 -51 27 -72.5 q25 -21.5 74 -21.5 l15 0 q6 102 47.5 176 q41.5 74 112.5 114 q71 40 168 40 q107 0 177 -47 q70 -47 104.5 -128 q34.5 -81 34.5 -182 q0 -24 -11.5 -33 q-11.5 -9 -34.5 -9 l-511 0 q10 -121 80.5 -186 q70.5 -65 199.5 -65 q53 0 100.5 13.5 q47.5 13.5 92.5 44.5 q18 12 31.5 8 q13.5 -4 20 -17 q6.5 -13 3 -28 q-3.5 -15 -19.5 -26 q-98 -68 -231 -68 ZM548 643 q-109 0 -172.5 -67.5 q-63.5 -67.5 -71.5 -191.5 l476 0 q-7 127 -66 193 q-59 66 -166 66 Z" /><glyph glyph-name="uni04C3" unicode="&#x4c3;" d="M407 -189 q-24 0 -49.5 3.5 q-25.5 3.5 -44.5 9.5 q-17 4 -23 16 q-6 12 -3 25 q3 13 13 20.5 q10 7.5 27 3.5 q33 -9 71 -9 q63 0 97 42 q34 42 34 126 l0 51 q0 114 -51.5 169 q-51.5 55 -165.5 55 l-143 0 l0 -287 q0 -43 -41 -43 q-41 0 -41 43 l0 634 q0 42 41 42 q41 0 41 -42 l0 -276 l130 0 l196 296 q11 17 27 20 q16 3 29 -4.5 q13 -7.5 17.5 -21.5 q4.5 -14 -6.5 -32 l-178 -263 q227 -25 227 -284 l0 -54 q0 -117 -54 -178.5 q-54 -61.5 -150 -61.5 Z" /><glyph glyph-name="uni04C5" unicode="&#x4c5;" d="M698 -138 q-6 -16 -19 -22 q-13 -6 -26 -2.5 q-13 3.5 -20 15 q-7 11.5 -1 29.5 l40 118 l-59 0 q-42 0 -42 39 l0 595 l-308 0 l0 -162 q0 -135 -20.5 -227 q-20.5 -92 -60.5 -150.5 q-40 -58.5 -98 -94.5 q-16 -11 -31 -8 q-15 3 -25 19 q-21 32 15 54 q34 21 60.5 53 q26.5 32 45 80.5 q18.5 48.5 28.5 120.5 q10 72 10 174 l0 167 q0 45 45 45 l377 0 q45 0 45 -45 l0 -591 l58 0 q25 0 35.5 -13 q10.5 -13 2.5 -36 l-52 -158 Z" /><glyph glyph-name="uni04C7" unicode="&#x4c7;" d="M494 -191 q-25 -1 -34 14 q-9 15 -3 31.5 q6 16.5 26 17.5 q55 3 82 29 q27 26 27 84 l0 337 l-423 0 l0 -286 q0 -43 -41 -43 q-41 0 -41 43 l0 633 q0 43 41 43 q41 0 41 -43 l0 -276 l423 0 l0 276 q0 43 41 43 q41 0 41 -43 l0 -679 q0 -93 -47 -135.5 q-47 -42.5 -133 -45.5 Z" /><glyph glyph-name="uni04C9" unicode="&#x4c9;" d="M718 -138 q-6 -16 -18.5 -22 q-12.5 -6 -25.5 -2.5 q-13 3.5 -20 15 q-7 11.5 -1 29.5 l39 118 l-59 0 q-41 0 -41 39 l0 283 l-423 0 l0 -286 q0 -43 -41 -43 q-41 0 -41 43 l0 633 q0 43 41 43 q41 0 41 -43 l0 -276 l423 0 l0 276 q0 43 41 43 q41 0 41 -43 l0 -600 l58 0 q26 0 36.5 -13 q10.5 -13 2.5 -36 l-53 -158 Z" /><glyph glyph-name="uni04CB" unicode="&#x4cb;" d="M443 -164 q-37 0 -37 39 l0 153 q0 41 42 41 l58 0 l0 229 q-31 -18 -78.5 -27 q-47.5 -9 -94.5 -9 q-133 0 -204 72.5 q-71 72.5 -71 216.5 l0 118 q0 43 41 43 q41 0 41 -43 l0 -112 q0 -115 50.5 -168.5 q50.5 -53.5 149.5 -53.5 q44 0 87 9 q43 9 79 31 l0 294 q0 43 42 43 q41 0 41 -43 l0 -626 q0 -43 -41 -43 l-67 0 l0 -125 q0 -39 -38 -39 Z" /><glyph glyph-name="uni04CD" unicode="&#x4cd;" d="M810 -138 q-5 -16 -18 -22 q-13 -6 -26 -2.5 q-13 3.5 -20 15 q-7 11.5 -1 29.5 l40 118 l-52 0 q-42 0 -42 39 l0 512 l-226 -425 q-7 -13 -14.5 -18.5 q-7.5 -5.5 -21.5 -5.5 q-14 0 -22 6 q-8 6 -14 18 l-229 424 l0 -517 q0 -40 -37 -40 q-38 0 -38 40 l0 639 q0 40 38 40 q16 0 25.5 -6.5 q9.5 -6.5 17.5 -21.5 l259 -488 l258 488 q8 15 17 21.5 q9 6.5 26 6.5 q37 0 37 -40 l0 -603 l58 0 q25 0 35.5 -13 q10.5 -13 2.5 -36 l-53 -158 Z" /><glyph glyph-name="uni04E0" unicode="&#x4e0;" d="M312 -9 q-79 0 -144 19.5 q-65 19.5 -108 55.5 q-15 11 -17.5 26 q-2.5 15 4 27 q6.5 12 20 16 q13.5 4 29.5 -7 q45 -32 96 -48 q51 -16 115 -16 q97 0 142.5 33 q45.5 33 45.5 99 q0 65 -42 96 q-42 31 -138 31 l-78 0 q-25 0 -31.5 21.5 q-6.5 21.5 13.5 42.5 l226 248 l-358 0 q-39 0 -39 35 q0 35 39 35 l436 0 q26 0 32.5 -22 q6.5 -22 -16.5 -47 l-225 -246 l24 0 q113 0 176.5 -48 q63.5 -48 63.5 -143 q0 -98 -65.5 -153 q-65.5 -55 -200.5 -55 Z" /><glyph glyph-name="uni04E8" unicode="&#x4e8;" d="M383 -9 q-98 0 -170.5 44.5 q-72.5 44.5 -112 125.5 q-39.5 81 -39.5 192 q0 111 39 192 q39 81 111.5 125 q72.5 44 171.5 44 q100 0 172.5 -44 q72.5 -44 112 -124.5 q39.5 -80.5 39.5 -191.5 q0 -111 -40 -192.5 q-40 -81.5 -112.5 -126 q-72.5 -44.5 -171.5 -44.5 ZM383 641 q-103 0 -164 -65.5 q-61 -65.5 -70 -184.5 l469 0 q-8 119 -69 184.5 q-61 65.5 -166 65.5 ZM383 64 q107 0 168.5 68.5 q61.5 68.5 67.5 192.5 l-471 0 q7 -123 68 -192 q61 -69 167 -69 Z" /><glyph glyph-name="uni04F6" unicode="&#x4f6;" d="M233 -164 q-38 0 -38 39 l0 125 l-67 0 q-41 0 -41 43 l0 619 q0 43 43 43 l367 0 q38 0 38 -36 q0 -35 -38 -35 l-328 0 l0 -565 l59 0 q41 0 41 -41 l0 -153 q0 -39 -36 -39 Z" /><glyph glyph-name="uni04FA" unicode="&#x4fa;" d="M119 -180 q-35 -2 -37 27 q-1 13 6 22.5 q7 9.5 28 11.5 l12 1 q56 5 79 33.5 q23 28.5 23 84.5 l-66 0 q-41 0 -41 41 l0 280 l-62 0 q-35 0 -35 32 q0 31 35 31 l62 0 l0 278 q0 43 43 43 l367 0 q38 0 38 -36 q0 -35 -38 -35 l-327 0 l0 -250 l150 0 q35 0 35 -31 q0 -32 -35 -32 l-150 0 l0 -252 l59 0 q41 0 41 -41 l0 -16 q0 -183 -169 -191 l-18 -1 Z" /><glyph glyph-name="uni04FC" unicode="&#x4fc;" d="M446 -180 q-19 -4 -32.5 4 q-13.5 8 -17.5 24 q-6 32 28 39 q51 9 72 33.5 q21 24.5 21 68.5 q0 46 -62 132 l-130 177 l-203 -278 q-19 -27 -44 -27 q-25 0 -35.5 18.5 q-10.5 18.5 5.5 38.5 l230 310 l-216 293 q-17 22 -6.5 40.5 q10.5 18.5 33.5 18.5 q25 0 45 -27 l192 -263 l191 263 q19 27 44 27 q24 0 34.5 -18.5 q10.5 -18.5 -6.5 -40.5 l-217 -293 l157 -211 q38 -52 54.5 -93 q16.5 -41 16.5 -74 q0 -66 -37.5 -106 q-37.5 -40 -116.5 -56 Z" /><glyph glyph-name="uni0510" unicode="&#x510;" d="M328 -9 q-136 0 -201 54.5 q-65 54.5 -65 148.5 q0 66 34.5 109 q34.5 43 95.5 59 q-53 19 -83 60 q-30 41 -30 99 q0 87 63.5 140 q63.5 53 186.5 53 q64 0 125 -18 q61 -18 110 -55 q16 -10 18.5 -25 q2.5 -15 -4.5 -27 q-7 -12 -20.5 -15.5 q-13.5 -3.5 -30.5 7.5 q-42 31 -92 45.5 q-50 14.5 -103 14.5 q-85 0 -127.5 -34 q-42.5 -34 -42.5 -94 q0 -122 159 -122 l126 0 q37 0 37 -34 q0 -35 -37 -35 l-142 0 q-160 0 -160 -125 q0 -66 45.5 -99.5 q45.5 -33.5 142.5 -33.5 q64 0 114.5 15 q50.5 15 97.5 48 q16 11 29 7 q13 -4 19.5 -16 q6.5 -12 4 -26.5 q-2.5 -14.5 -17.5 -25.5 q-43 -36 -108 -55.5 q-65 -19.5 -144 -19.5 Z" /><glyph glyph-name="uni0512" unicode="&#x512;" d="M473 -191 q-25 -1 -34 14 q-9 15 -3 31.5 q6 16.5 26 17.5 q54 4 81.5 29.5 q27.5 25.5 27.5 83.5 l0 649 l-308 0 l0 -162 q0 -135 -20.5 -227 q-20.5 -92 -60.5 -150.5 q-40 -58.5 -99 -94.5 q-16 -10 -31 -7.5 q-15 2.5 -24 18.5 q-21 31 15 54 q34 22 60.5 53.5 q26.5 31.5 45 80 q18.5 48.5 28.5 120.5 q10 72 10 174 l0 167 q0 45 45 45 l377 0 q45 0 45 -45 l0 -671 q0 -93 -48 -134.5 q-48 -41.5 -133 -45.5 Z" /><glyph glyph-name="uni048C" unicode="&#x48c;" d="M188 0 q-45 0 -45 45 l0 491 l-115 0 q-35 0 -35 33 q0 32 35 32 l115 0 l0 68 q0 43 40 43 q41 0 41 -43 l0 -68 l115 0 q35 0 35 -32 q0 -33 -35 -33 l-116 0 l0 -142 l211 0 q112 0 173 -49 q61 -49 61 -147 q0 -98 -61 -148 q-61 -50 -173 -50 l-246 0 ZM223 69 l204 0 q160 0 160 129 q0 127 -160 127 l-204 0 l0 -256 Z" /><glyph glyph-name="uni048E" unicode="&#x48e;" d="M128 -7 q-41 0 -41 43 l0 627 q0 42 42 42 l237 0 q114 0 174.5 -55 q60.5 -55 60.5 -157 q0 -69 -29 -116.5 q-29 -47.5 -82 -71.5 l36 -54 q13 -20 4.5 -34.5 q-8.5 -14.5 -25.5 -16.5 q-17 -2 -30 18 l-46 69 q-29 -6 -63 -6 l-197 0 l0 -245 q0 -43 -41 -43 ZM169 637 l0 -287 l187 0 q15 0 30 1 l-34 52 q-12 19 -4 34 q8 15 25 17 q17 2 30 -17 l45 -70 q72 33 72 126 q0 144 -164 144 l-187 0 Z" /><glyph glyph-name="uni0528" unicode="&#x528;" d="M-12 -191 q-25 -1 -34 14 q-9 15 -2.5 31.5 q6.5 16.5 26.5 17.5 q55 3 82 29 q27 26 27 84 l0 684 q0 43 41 43 q41 0 41 -43 l0 -276 l423 0 l0 276 q0 43 41 43 q41 0 41 -43 l0 -633 q0 -43 -41 -43 q-41 0 -41 43 l0 286 l-423 0 l0 -333 q0 -93 -47.5 -135 q-47.5 -42 -133.5 -45 Z" /><glyph glyph-name="uni052E" unicode="&#x52e;" d="M717 -164 q-38 0 -38 39 l0 125 l-66 0 q-42 0 -42 43 l0 591 l-308 0 l0 -162 q0 -135 -20.5 -227 q-20.5 -92 -60.5 -150.5 q-40 -58.5 -98 -94.5 q-16 -11 -31 -8 q-15 3 -25 19 q-21 32 15 54 q34 21 60.5 53 q26.5 32 45 80.5 q18.5 48.5 28.5 120.5 q10 72 10 174 l0 167 q0 45 45 45 l377 0 q45 0 45 -45 l0 -591 l58 0 q42 0 42 -41 l0 -153 q0 -39 -37 -39 Z" /><glyph glyph-name="uni0431" unicode="&#x431;" d="M285 -9 q-108 0 -171 71 q-63 71 -63 206 l0 75 q0 145 58.5 220.5 q58.5 75.5 175.5 107.5 l146 41 q38 11 46 -23 q9 -35 -31 -46 l-155 -42 q-81 -22 -121.5 -78.5 q-40.5 -56.5 -40.5 -138.5 l0 -2 q23 49 68 77.5 q45 28.5 106 28.5 q63 0 111 -30 q48 -30 74.5 -85.5 q26.5 -55.5 26.5 -130.5 q0 -76 -28.5 -132.5 q-28.5 -56.5 -80 -87.5 q-51.5 -31 -121.5 -31 ZM282 56 q71 0 111 47.5 q40 47.5 40 136.5 q0 87 -40 135 q-40 48 -110 48 q-70 0 -110 -47 q-40 -47 -40 -129 q0 -94 39 -142.5 q39 -48.5 110 -48.5 Z" /><glyph glyph-name="uni0432" unicode="&#x432;" d="M122 0 q-42 0 -42 42 l0 402 q0 42 42 42 l195 0 q86 0 127 -32.5 q41 -32.5 41 -95.5 q0 -38 -21.5 -66 q-21.5 -28 -58.5 -41 q45 -11 70.5 -42 q25.5 -31 25.5 -75 q0 -62 -46 -98 q-46 -36 -130 -36 l-203 0 ZM157 275 l156 0 q46 0 71 20.5 q25 20.5 25 58.5 q0 37 -25 57 q-25 20 -71 20 l-156 0 l0 -156 ZM157 55 l165 0 q50 0 76 21 q26 21 26 62 q0 40 -26 61 q-26 21 -76 21 l-165 0 l0 -165 Z" /><glyph glyph-name="uni0433" unicode="&#x433;" d="M121 -7 q-41 0 -41 44 l0 403 q0 46 46 46 l265 0 q37 0 37 -32 q0 -33 -37 -33 l-230 0 l0 -384 q0 -44 -40 -44 Z" /><glyph glyph-name="uni0491" unicode="&#x491;" d="M121 -7 q-41 0 -41 44 l0 403 q0 46 46 46 l225 0 l0 85 q0 38 35 38 q35 0 35 -38 l0 -104 q0 -46 -46 -46 l-214 0 l0 -384 q0 -44 -40 -44 Z" /><glyph glyph-name="uni0434" unicode="&#x434;" d="M62 -137 q-35 0 -35 38 l0 124 q0 40 40 40 l12 0 q34 52 49 118 q15 66 15 160 l0 97 q0 46 46 46 l252 0 q46 0 46 -46 l0 -375 l37 0 q40 0 40 -40 l0 -124 q0 -38 -35 -38 q-35 0 -35 38 l0 99 l-398 0 l0 -99 q0 -38 -34 -38 ZM156 65 l254 0 l0 357 l-195 0 l0 -93 q0 -75 -15 -145 q-15 -70 -44 -119 Z" /><glyph glyph-name="uni0436" unicode="&#x436;" d="M392 -7 q-40 0 -40 42 l0 183 l-63 0 q-41 0 -64.5 -14.5 q-23.5 -14.5 -48.5 -56.5 l-79 -132 q-10 -17 -25.5 -20 q-15.5 -3 -28.5 3.5 q-13 6.5 -18.5 20 q-5.5 13.5 4.5 30.5 l72 119 q26 44 47.5 67 q21.5 23 47.5 33 l-128 163 q-12 16 -9.5 30 q2.5 14 14 22.5 q11.5 8.5 26 7 q14.5 -1.5 26.5 -17.5 l150 -190 l77 0 l0 166 q0 42 40 42 q41 0 41 -42 l0 -166 l78 0 l148 190 q13 16 27.5 17.5 q14.5 1.5 26 -6.5 q11.5 -8 14 -22.5 q2.5 -14.5 -9.5 -30.5 l-128 -163 q26 -10 47.5 -33 q21.5 -23 47.5 -67 l72 -119 q9 -17 4 -30.5 q-5 -13.5 -18.5 -20 q-13.5 -6.5 -28.5 -3.5 q-15 3 -25 20 l-79 132 q-25 41 -48.5 56 q-23.5 15 -64.5 15 l-63 0 l0 -183 q0 -42 -41 -42 Z" /><glyph glyph-name="uni0437" unicode="&#x437;" d="M241 -9 q-52 0 -101 12 q-49 12 -84 35 q-20 12 -20.5 30.5 q-0.5 18.5 13.5 28.5 q14 10 37 -3 q32 -20 72.5 -30 q40.5 -10 80.5 -10 q73 0 104 21.5 q31 21.5 31 61.5 q0 39 -26.5 59 q-26.5 20 -74.5 20 l-87 0 q-35 0 -35 31 q0 30 35 30 l77 0 q43 0 68.5 19.5 q25.5 19.5 25.5 55.5 q0 37 -27.5 58.5 q-27.5 21.5 -90.5 21.5 q-40 0 -75.5 -8.5 q-35.5 -8.5 -68.5 -27.5 q-24 -13 -38 -3 q-14 10 -13.5 28 q0.5 18 20.5 29 q78 45 185 45 q93 0 139 -36 q46 -36 46 -101 q0 -37 -21.5 -65.5 q-21.5 -28.5 -58.5 -41.5 q45 -11 71 -41.5 q26 -30.5 26 -75.5 q0 -65 -53 -104 q-53 -39 -157 -39 Z" /><glyph glyph-name="uni0438" unicode="&#x438;" d="M117 -7 q-37 0 -37 44 l0 416 q0 40 37 40 q37 0 37 -40 l0 -343 l266 357 q8 11 18.5 18.5 q10.5 7.5 28.5 7.5 q37 0 37 -43 l0 -417 q0 -40 -37 -40 q-37 0 -37 40 l0 343 l-267 -357 q-7 -10 -17.5 -18 q-10.5 -8 -28.5 -8 Z" /><glyph glyph-name="uni048B" unicode="&#x48b;" d="M294 549 q-55 0 -100 27 q-45 27 -66 82 q-11 29 14 38 q22 8 35 -19 q34 -77 117 -77 q79 0 114 77 q13 27 36 19 q24 -9 14 -38 q-21 -56 -66 -82.5 q-45 -26.5 -98 -26.5 ZM527 -112 q-6 -16 -18.5 -22 q-12.5 -6 -25.5 -3 q-13 3 -19.5 14 q-6.5 11 -0.5 29 l33 94 l-26 0 q-40 0 -40 42 l0 334 l-267 -357 q-7 -10 -17.5 -18 q-10.5 -8 -28.5 -8 q-37 0 -37 44 l0 416 q0 40 37 40 q37 0 37 -40 l0 -343 l266 357 q8 11 18.5 18.5 q10.5 7.5 28.5 7.5 q37 0 37 -43 l0 -386 l32 0 q24 0 34 -12.5 q10 -12.5 2 -34.5 l-45 -129 Z" /><glyph glyph-name="uni043A" unicode="&#x43a;" d="M121 -7 q-41 0 -41 42 l0 414 q0 42 41 42 q40 0 40 -42 l0 -166 l91 0 l148 190 q13 16 27.5 17.5 q14.5 1.5 26 -6.5 q11.5 -8 14.5 -22.5 q3 -14.5 -9 -30.5 l-128 -164 q26 -9 47 -32 q21 -23 47 -67 l72 -119 q9 -17 4 -30.5 q-5 -13.5 -18.5 -20.5 q-13.5 -7 -28.5 -3.5 q-15 3.5 -25 20.5 l-79 132 q-25 41 -48 56 q-23 15 -65 15 l-76 0 l0 -183 q0 -42 -40 -42 Z" /><glyph glyph-name="uni043B" unicode="&#x43b;" d="M453 -7 q-40 0 -40 42 l0 386 l-196 0 l0 -62 q0 -104 -13.5 -175 q-13.5 -71 -44 -116 q-30.5 -45 -81.5 -70 q-17 -7 -30.5 -2 q-13.5 5 -20 17 q-6.5 12 -3.5 26 q3 14 20 24 q38 22 59 58.5 q21 36.5 29.5 94.5 q8.5 58 8.5 146 l0 78 q0 46 46 46 l261 0 q46 0 46 -46 l0 -405 q0 -42 -41 -42 Z" /><glyph glyph-name="uni043C" unicode="&#x43c;" d="M116 -7 q-36 0 -36 39 l0 418 q0 43 36 43 q18 0 27.5 -8 q9.5 -8 16.5 -21 l170 -303 l170 303 q7 13 16.5 21 q9.5 8 26.5 8 q36 0 36 -43 l0 -418 q0 -39 -36 -39 q-36 0 -36 39 l0 322 l-148 -261 q-5 -8 -11.5 -13.5 q-6.5 -5.5 -17.5 -5.5 q-12 0 -18.5 5.5 q-6.5 5.5 -11.5 13.5 l-148 261 l0 -322 q0 -39 -36 -39 Z" /><glyph glyph-name="uni043D" unicode="&#x43d;" d="M121 -7 q-41 0 -41 42 l0 417 q0 41 41 41 q40 0 40 -41 l0 -168 l265 0 l0 168 q0 41 40 41 q41 0 41 -41 l0 -417 q0 -42 -41 -42 q-40 0 -40 42 l0 183 l-265 0 l0 -183 q0 -42 -40 -42 Z" /><glyph glyph-name="uni043F" unicode="&#x43f;" d="M121 -7 q-41 0 -41 42 l0 405 q0 46 46 46 l332 0 q46 0 46 -46 l0 -405 q0 -42 -41 -42 q-40 0 -40 42 l0 386 l-262 0 l0 -386 q0 -42 -40 -42 Z" /><glyph glyph-name="uni0442" unicode="&#x442;" d="M222 -7 q-41 0 -41 42 l0 386 l-146 0 q-38 0 -38 33 q0 32 38 32 l374 0 q37 0 37 -32 q0 -33 -37 -33 l-147 0 l0 -386 q0 -42 -40 -42 Z" /><glyph glyph-name="uni0444" unicode="&#x444;" d="M397 -187 q-40 0 -40 43 l0 223 q-18 -42 -51 -65 q-33 -23 -79 -23 q-53 0 -92.5 31 q-39.5 31 -61.5 87.5 q-22 56.5 -22 133.5 q0 116 48 184 q48 68 128 68 q46 0 79 -23 q33 -23 51 -65 l0 262 q0 43 40 43 q41 0 41 -43 l0 -261 q18 42 51 64.5 q33 22.5 79 22.5 q79 0 127.5 -68 q48.5 -68 48.5 -184 q0 -115 -48 -183.5 q-48 -68.5 -128 -68.5 q-46 0 -79 23 q-33 23 -51 64 l0 -222 q0 -43 -41 -43 ZM245 55 q53 0 83 48 q30 48 30 140 q0 92 -30.5 140 q-30.5 48 -82.5 48 q-52 0 -82.5 -48 q-30.5 -48 -30.5 -140 q0 -92 30.5 -140 q30.5 -48 82.5 -48 ZM549 55 q52 0 83 48 q31 48 31 140 q0 92 -31 140 q-31 48 -83 48 q-52 0 -82 -48 q-30 -48 -30 -140 q0 -92 29.5 -140 q29.5 -48 82.5 -48 Z" /><glyph glyph-name="uni0447" unicode="&#x447;" d="M432 -7 q-40 0 -40 43 l0 161 q-56 -34 -129 -34 q-104 0 -154 49.5 q-50 49.5 -50 150.5 l0 89 q0 41 41 41 q40 0 40 -41 l0 -83 q0 -72 31.5 -105 q31.5 -33 101.5 -33 q36 0 63.5 8 q27.5 8 54.5 26 l0 186 q0 42 40 42 q41 0 41 -42 l0 -415 q0 -43 -40 -43 Z" /><glyph glyph-name="uni0446" unicode="&#x446;" d="M535 -137 q-35 0 -35 37 l0 100 l-378 0 q-42 0 -42 42 l0 410 q0 41 41 41 q40 0 40 -41 l0 -387 l251 0 l0 387 q0 41 41 41 q40 0 40 -41 l0 -387 l36 0 q41 0 41 -40 l0 -125 q0 -37 -35 -37 Z" /><glyph glyph-name="uni0448" unicode="&#x448;" d="M122 0 q-42 0 -42 42 l0 410 q0 41 39 41 q39 0 39 -41 l0 -387 l203 0 l0 387 q0 41 39 41 q38 0 38 -41 l0 -387 l203 0 l0 387 q0 41 39 41 q39 0 39 -41 l0 -410 q0 -42 -42 -42 l-555 0 Z" /><glyph glyph-name="uni0449" unicode="&#x449;" d="M761 -137 q-35 0 -35 37 l0 100 l-604 0 q-42 0 -42 42 l0 410 q0 41 39 41 q39 0 39 -41 l0 -387 l203 0 l0 387 q0 41 39 41 q38 0 38 -41 l0 -387 l203 0 l0 387 q0 41 39 41 q39 0 39 -41 l0 -387 l36 0 q41 0 41 -40 l0 -125 q0 -37 -35 -37 Z" /><glyph glyph-name="uni045F" unicode="&#x45f;" d="M291 -137 q-35 0 -35 37 l0 100 l-134 0 q-42 0 -42 42 l0 410 q0 41 41 41 q40 0 40 -41 l0 -387 l262 0 l0 387 q0 41 40 41 q41 0 41 -41 l0 -410 q0 -42 -43 -42 l-135 0 l0 -100 q0 -37 -35 -37 Z" /><glyph glyph-name="uni044C" unicode="&#x44c;" d="M122 0 q-42 0 -42 42 l0 410 q0 41 41 41 q40 0 40 -41 l0 -139 l147 0 q93 0 141 -40.5 q48 -40.5 48 -114.5 q0 -73 -49.5 -115.5 q-49.5 -42.5 -139.5 -42.5 l-186 0 ZM161 58 l139 0 q56 0 87.5 24 q31.5 24 31.5 75 q0 50 -31 74 q-31 24 -88 24 l-139 0 l0 -197 Z" /><glyph glyph-name="uni044A" unicode="&#x44a;" d="M200 0 q-42 0 -42 42 l0 379 l-124 0 q-37 0 -37 33 q0 32 37 32 l162 0 q43 0 43 -42 l0 -131 l146 0 q94 0 141.5 -40.5 q47.5 -40.5 47.5 -114.5 q0 -73 -49.5 -115.5 q-49.5 -42.5 -139.5 -42.5 l-185 0 ZM239 58 l139 0 q56 0 87 24 q31 24 31 75 q0 50 -31 74 q-31 24 -87 24 l-139 0 l0 -197 Z" /><glyph glyph-name="uni044B" unicode="&#x44b;" d="M122 0 q-42 0 -42 42 l0 410 q0 41 41 41 q40 0 40 -41 l0 -139 l147 0 q93 0 141 -40.5 q48 -40.5 48 -114.5 q0 -73 -49.5 -115.5 q-49.5 -42.5 -139.5 -42.5 l-186 0 ZM609 -7 q-40 0 -40 42 l0 417 q0 41 40 41 q41 0 41 -41 l0 -417 q0 -42 -41 -42 ZM161 58 l139 0 q56 0 87.5 24 q31.5 24 31.5 75 q0 50 -31 74 q-31 24 -88 24 l-139 0 l0 -197 Z" /><glyph glyph-name="uni0459" unicode="&#x459;" d="M78 -2 q-17 -7 -30 -2 q-13 5 -19.5 17.5 q-6.5 12.5 -3 26.5 q3.5 14 20.5 24 q37 21 57.5 57 q20.5 36 29 94.5 q8.5 58.5 8.5 146.5 l0 78 q0 46 46 46 l260 0 q46 0 46 -46 l0 -127 l147 0 q93 0 140.5 -40.5 q47.5 -40.5 47.5 -114.5 q0 -73 -49 -115.5 q-49 -42.5 -139 -42.5 l-184 0 q-43 0 -43 42 l0 379 l-196 0 l0 -62 q0 -104 -13.5 -175.5 q-13.5 -71.5 -44 -116 q-30.5 -44.5 -81.5 -69.5 ZM493 58 l139 0 q56 0 87.5 24 q31.5 24 31.5 75 q0 50 -31.5 74 q-31.5 24 -87.5 24 l-139 0 l0 -197 Z" /><glyph glyph-name="uni045A" unicode="&#x45a;" d="M121 -7 q-41 0 -41 42 l0 417 q0 41 41 41 q40 0 40 -41 l0 -168 l265 0 l0 168 q0 41 40 41 q41 0 41 -41 l0 -139 l146 0 q93 0 141 -40.5 q48 -40.5 48 -114.5 q0 -73 -49.5 -115.5 q-49.5 -42.5 -139.5 -42.5 l-185 0 q-42 0 -42 42 l0 176 l-265 0 l0 -183 q0 -42 -40 -42 ZM507 58 l138 0 q57 0 88 24 q31 24 31 75 q0 50 -31 74 q-31 24 -88 24 l-138 0 l0 -197 Z" /><glyph glyph-name="uni0454" unicode="&#x454;" d="M290 -9 q-74 0 -127.5 31.5 q-53.5 31.5 -82.5 89 q-29 57.5 -29 134.5 q0 116 64.5 182.5 q64.5 66.5 178.5 66.5 q43 0 87 -13.5 q44 -13.5 70 -36.5 q18 -14 16 -32 q-2 -18 -16 -26.5 q-14 -8.5 -32 4.5 q-28 22 -61.5 32 q-33.5 10 -63.5 10 q-80 0 -118.5 -45 q-38.5 -45 -46.5 -110 l217 0 q36 0 36 -30 q0 -31 -36 -31 l-217 0 q8 -78 50 -120.5 q42 -42.5 115 -42.5 q30 0 62.5 10 q32.5 10 60.5 30 q19 13 32.5 4 q13.5 -9 15 -27 q1.5 -18 -15.5 -32 q-29 -23 -73 -35.5 q-44 -12.5 -86 -12.5 Z" /><glyph glyph-name="uni044D" unicode="&#x44d;" d="M201 -9 q-43 0 -87 13 q-44 13 -73 35 q-18 13 -16 31 q2 18 16 27.5 q14 9.5 32 -3.5 q28 -20 60.5 -30 q32.5 -10 62.5 -10 q73 0 115.5 42.5 q42.5 42.5 49.5 120.5 l-216 0 q-37 0 -37 31 q0 30 37 30 l216 0 q-7 67 -47 111 q-40 44 -118 44 q-29 0 -61.5 -9.5 q-32.5 -9.5 -61.5 -30.5 q-18 -13 -32 -4.5 q-14 8.5 -16 26 q-2 17.5 17 31.5 q30 22 73.5 35.5 q43.5 13.5 85.5 13.5 q111 0 174.5 -66.5 q63.5 -66.5 63.5 -182.5 q0 -77 -28.5 -134.5 q-28.5 -57.5 -82 -89 q-53.5 -31.5 -127.5 -31.5 Z" /><glyph glyph-name="uni044E" unicode="&#x44e;" d="M486 -9 q-100 0 -161 61.5 q-61 61.5 -69 165.5 l-96 0 l0 -183 q0 -42 -40 -42 q-40 0 -40 42 l0 417 q0 41 40 41 q40 0 40 -41 l0 -168 l97 0 q12 98 72.5 154.5 q60.5 56.5 156.5 56.5 q71 0 123 -31 q52 -31 80.5 -87.5 q28.5 -56.5 28.5 -133.5 q0 -77 -28.5 -133.5 q-28.5 -56.5 -80.5 -87.5 q-52 -31 -123 -31 ZM486 56 q69 0 109.5 48.5 q40.5 48.5 40.5 138.5 q0 91 -40.5 139 q-40.5 48 -109.5 48 q-68 0 -109 -48 q-41 -48 -41 -139 q0 -90 41 -138.5 q41 -48.5 109 -48.5 Z" /><glyph glyph-name="uni044F" unicode="&#x44f;" d="M421 -7 q-39 0 -39 39 l0 153 l-71 0 q-40 0 -67.5 -19.5 q-27.5 -19.5 -44.5 -49.5 l-57 -100 q-11 -19 -27 -22 q-16 -3 -29.5 5 q-13.5 8 -19 23 q-5.5 15 4.5 32 l48 81 q12 22 31.5 39 q19.5 17 41.5 25 q-62 9 -96 45.5 q-34 36.5 -34 95.5 q0 67 44.5 106.5 q44.5 39.5 133.5 39.5 l176 0 q43 0 43 -42 l0 -412 q0 -19 -10.5 -29 q-10.5 -10 -27.5 -10 ZM255 244 l127 0 l0 185 l-127 0 q-59 0 -87 -24.5 q-28 -24.5 -28 -67.5 q0 -44 28 -68.5 q28 -24.5 87 -24.5 Z" /><glyph glyph-name="uni0452" unicode="&#x452;" d="M343 -177 q-19 -6 -31.5 0.5 q-12.5 6.5 -17 18.5 q-4.5 12 0.5 24.5 q5 12.5 22 18.5 q63 19 82.5 60.5 q19.5 41.5 19.5 110.5 l0 242 q0 68 -26 99.5 q-26 31.5 -85 31.5 q-66 0 -106 -41.5 q-40 -41.5 -40 -110.5 l0 -242 q0 -42 -40 -42 q-41 0 -41 42 l0 519 l-64 0 q-34 0 -34 30 q0 30 34 30 l64 0 l0 59 q0 39 41 39 q40 0 40 -39 l0 -59 l168 0 q34 0 34 -30 q0 -30 -34 -30 l-168 0 l0 -148 q25 44 68.5 66.5 q43.5 22.5 97.5 22.5 q172 0 172 -192 l0 -244 q0 -96 -34.5 -154 q-34.5 -58 -122.5 -82 Z" /><glyph glyph-name="uni0463" unicode="&#x463;" d="M200 0 q-42 0 -42 42 l0 384 l-126 0 q-34 0 -34 30 q0 30 34 30 l126 0 l0 184 q0 42 40 42 q41 0 41 -42 l0 -184 l136 0 q33 0 33 -30 q0 -30 -33 -30 l-136 0 l0 -113 l147 0 q93 0 140.5 -40.5 q47.5 -40.5 47.5 -114.5 q0 -73 -49 -115.5 q-49 -42.5 -139 -42.5 l-186 0 ZM239 58 l139 0 q56 0 87.5 24 q31.5 24 31.5 75 q0 50 -31.5 74 q-31.5 24 -87.5 24 l-139 0 l0 -197 Z" /><glyph glyph-name="uni046B" unicode="&#x46b;" d="M392 -7 q-40 0 -40 42 l0 178 l-63 0 q-41 0 -64 -14.5 q-23 -14.5 -49 -56.5 l-80 -129 q-10 -16 -25 -18.5 q-15 -2.5 -27.5 4.5 q-12.5 7 -17.5 20.5 q-5 13.5 5 30.5 l70 113 q26 42 48 67 q22 25 49.5 36 q27.5 11 69.5 11 l44 0 l-140 162 q-15 18 -9 32.5 q6 14.5 32 14.5 l395 0 q26 0 32 -14.5 q6 -14.5 -9 -32.5 l-140 -162 l45 0 q41 0 68.5 -10.5 q27.5 -10.5 50 -36 q22.5 -25.5 48.5 -67.5 l69 -113 q10 -17 5 -30.5 q-5 -13.5 -18 -20.5 q-13 -7 -27.5 -4.5 q-14.5 2.5 -24.5 18.5 l-80 129 q-26 42 -49 56.5 q-23 14.5 -64 14.5 l-63 0 l0 -178 q0 -42 -41 -42 ZM391 279 l2 0 l130 150 l-261 0 l129 -150 Z" /><glyph glyph-name="uni0475" unicode="&#x475;" d="M262 -7 q-35 0 -52 39 l-173 404 q-10 23 -1.5 40 q8.5 17 35.5 17 q28 0 42 -32 l151 -369 l117 284 q25 60 57.5 87 q32.5 27 90.5 31 q38 3 41 -30 q1 -16 -6.5 -25 q-7.5 -9 -27.5 -12 q-33 -5 -53 -26 q-20 -21 -36 -60 l-133 -309 q-16 -39 -52 -39 Z" /><glyph glyph-name="uni0493" unicode="&#x493;" d="M141 -7 q-41 0 -41 44 l0 167 l-68 0 q-34 0 -34 31 q0 30 34 30 l68 0 l0 175 q0 46 46 46 l265 0 q37 0 37 -32 q0 -33 -37 -33 l-230 0 l0 -156 l118 0 q35 0 35 -30 q0 -31 -35 -31 l-118 0 l0 -167 q0 -44 -40 -44 Z" /><glyph glyph-name="uni0495" unicode="&#x495;" d="M350 -177 q-19 -7 -31.5 -0.5 q-12.5 6.5 -16.5 19 q-4 12.5 1 25 q5 12.5 20 18.5 q63 21 82 61 q19 40 19 110 l0 61 q0 72 -26 104.5 q-26 32.5 -87 32.5 q-69 0 -109.5 -41.5 q-40.5 -41.5 -40.5 -110.5 l0 -69 q0 -40 -40 -40 q-41 0 -41 44 l0 403 q0 46 46 46 l265 0 q37 0 37 -32 q0 -33 -37 -33 l-230 0 l0 -187 q25 41 69 64 q44 23 99 23 q88 0 132 -48.5 q44 -48.5 44 -151.5 l0 -62 q0 -91 -32.5 -149.5 q-32.5 -58.5 -122.5 -86.5 Z" /><glyph glyph-name="uni0497" unicode="&#x497;" d="M774 -135 q-35 0 -35 38 l0 97 l-19 0 q-10 0 -19.5 5 q-9.5 5 -15.5 16 l-76 126 q-25 41 -48.5 56 q-23.5 15 -64.5 15 l-63 0 l0 -183 q0 -42 -41 -42 q-40 0 -40 42 l0 183 l-63 0 q-41 0 -64.5 -14.5 q-23.5 -14.5 -48.5 -56.5 l-79 -132 q-10 -17 -25.5 -20 q-15.5 -3 -28.5 3.5 q-13 6.5 -18.5 20 q-5.5 13.5 4.5 30.5 l72 119 q26 44 47.5 67 q21.5 23 47.5 33 l-128 163 q-12 16 -9.5 30 q2.5 14 14 22.5 q11.5 8.5 26 7 q14.5 -1.5 26.5 -17.5 l150 -190 l77 0 l0 166 q0 42 40 42 q41 0 41 -42 l0 -166 l78 0 l148 190 q13 16 27.5 17.5 q14.5 1.5 26 -6.5 q11.5 -8 14 -22.5 q2.5 -14.5 -9.5 -30.5 l-128 -163 q26 -10 47.5 -33 q21.5 -23 47.5 -67 l62 -104 l24 0 q40 0 40 -41 l0 -120 q0 -38 -36 -38 Z" /><glyph glyph-name="uni0499" unicode="&#x499;" d="M243 -140 q-33 0 -33 36 l0 96 q-44 3 -84 15 q-40 12 -70 31 q-20 12 -20.5 30.5 q-0.5 18.5 13.5 28.5 q14 10 37 -3 q32 -20 72.5 -30 q40.5 -10 80.5 -10 q73 0 104 21.5 q31 21.5 31 61.5 q0 39 -26.5 59 q-26.5 20 -74.5 20 l-87 0 q-35 0 -35 31 q0 30 35 30 l77 0 q43 0 68.5 19.5 q25.5 19.5 25.5 55.5 q0 37 -27.5 58.5 q-27.5 21.5 -90.5 21.5 q-40 0 -75.5 -8.5 q-35.5 -8.5 -68.5 -27.5 q-24 -13 -38 -3 q-14 10 -13.5 28 q0.5 18 20.5 29 q78 45 185 45 q93 0 139 -36 q46 -36 46 -101 q0 -37 -21.5 -65.5 q-21.5 -28.5 -58.5 -41.5 q45 -11 71 -41.5 q26 -30.5 26 -75.5 q0 -59 -43.5 -96.5 q-43.5 -37.5 -129.5 -44.5 l0 -97 q0 -36 -35 -36 Z" /><glyph glyph-name="uni049B" unicode="&#x49b;" d="M515 -135 q-35 0 -35 38 l0 97 l-19 0 q-23 0 -36 22 l-75 125 q-25 41 -48 56 q-23 15 -65 15 l-76 0 l0 -183 q0 -42 -40 -42 q-41 0 -41 42 l0 414 q0 42 41 42 q40 0 40 -42 l0 -166 l91 0 l148 190 q13 16 27.5 17.5 q14.5 1.5 26 -6.5 q11.5 -8 14.5 -22.5 q3 -14.5 -9 -30.5 l-128 -164 q26 -9 47 -32 q21 -23 47 -67 l62 -104 l24 0 q40 0 40 -41 l0 -120 q0 -38 -36 -38 Z" /><glyph glyph-name="uni049D" unicode="&#x49d;" d="M121 -7 q-41 0 -41 42 l0 414 q0 42 41 42 q40 0 40 -42 l0 -166 l55 0 l0 87 q0 33 30 33 q29 0 29 -33 l0 -87 l8 0 l148 190 q12 16 27 17.5 q15 1.5 26.5 -6.5 q11.5 -8 14 -22.5 q2.5 -14.5 -9.5 -30.5 l-129 -163 q27 -10 49 -34 q22 -24 47 -66 l72 -119 q9 -17 4 -30.5 q-5 -13.5 -18.5 -20.5 q-13.5 -7 -28.5 -3.5 q-15 3.5 -25 20.5 l-79 132 q-24 39 -46 54.5 q-22 15.5 -60 16.5 l0 -95 q0 -33 -29 -33 q-30 0 -30 33 l0 95 l-55 0 l0 -183 q0 -42 -40 -42 Z" /><glyph glyph-name="uni049F" unicode="&#x49f;" d="M122 -7 q-41 0 -41 42 l0 519 l-65 0 q-34 0 -34 30 q0 30 34 30 l65 0 l0 59 q0 39 41 39 q40 0 40 -39 l0 -59 l166 0 q34 0 34 -30 q0 -30 -34 -30 l-166 0 l0 -271 l91 0 l149 190 q12 16 27 17.5 q15 1.5 26 -6.5 q11 -8 14 -22.5 q3 -14.5 -10 -30.5 l-128 -163 q26 -10 47.5 -33 q21.5 -23 47.5 -67 l72 -119 q9 -17 4 -30.5 q-5 -13.5 -18.5 -20.5 q-13.5 -7 -28.5 -3.5 q-15 3.5 -25 20.5 l-79 132 q-25 41 -48.5 56 q-23.5 15 -64.5 15 l-76 0 l0 -183 q0 -42 -40 -42 Z" /><glyph glyph-name="uni04A1" unicode="&#x4a1;" d="M198 -7 q-40 0 -40 42 l0 386 l-124 0 q-37 0 -37 33 q0 32 37 32 l162 0 q43 0 43 -42 l0 -161 l90 0 l149 190 q12 16 27 17.5 q15 1.5 26.5 -6.5 q11.5 -8 14 -22.5 q2.5 -14.5 -10.5 -30.5 l-128 -163 q27 -10 48 -33 q21 -23 48 -67 l71 -119 q10 -17 5 -30.5 q-5 -13.5 -18.5 -20 q-13.5 -6.5 -28.5 -3.5 q-15 3 -25 20 l-79 132 q-25 41 -48.5 56 q-23.5 15 -64.5 15 l-76 0 l0 -183 q0 -42 -41 -42 Z" /><glyph glyph-name="uni04A3" unicode="&#x4a3;" d="M548 -137 q-35 0 -35 38 l0 99 l-47 0 q-40 0 -40 42 l0 176 l-265 0 l0 -183 q0 -42 -40 -42 q-41 0 -41 42 l0 417 q0 41 41 41 q40 0 40 -41 l0 -168 l265 0 l0 168 q0 41 40 41 q41 0 41 -41 l0 -388 l37 0 q40 0 40 -40 l0 -123 q0 -38 -36 -38 Z" /><glyph glyph-name="uni04A5" unicode="&#x4a5;" d="M121 -7 q-41 0 -41 42 l0 417 q0 41 41 41 q40 0 40 -41 l0 -168 l265 0 l0 156 q0 46 46 46 l227 0 q37 0 37 -32 q0 -33 -37 -33 l-192 0 l0 -386 q0 -42 -41 -42 q-40 0 -40 42 l0 183 l-265 0 l0 -183 q0 -42 -40 -42 Z" /><glyph glyph-name="uni0525" unicode="&#x525;" d="M545 -137 q-35 0 -35 38 l0 99 l-47 0 q-40 0 -40 42 l0 379 l-262 0 l0 -386 q0 -42 -40 -42 q-41 0 -41 42 l0 405 q0 46 46 46 l332 0 q46 0 46 -46 l0 -376 l37 0 q40 0 40 -40 l0 -123 q0 -38 -36 -38 Z" /><glyph glyph-name="uni04A9" unicode="&#x4a9;" d="M306 -9 q-119 0 -187 69 q-68 69 -68 187 q0 76 29 131.5 q29 55.5 81.5 86 q52.5 30.5 122.5 30.5 q20 0 41.5 -3 q21.5 -3 39.5 -9 q29 -8 23 -38 q-2 -16 -13.5 -21.5 q-11.5 -5.5 -24.5 -2.5 q-19 5 -35.5 7.5 q-16.5 2.5 -29.5 2.5 q-71 0 -113 -49.5 q-42 -49.5 -42 -134.5 q0 -94 47 -144 q47 -50 135 -50 q17 0 33 1 q-34 30 -53.5 71 q-19.5 41 -19.5 92 q0 70 40 113.5 q40 43.5 106 43.5 q66 0 106 -43.5 q40 -43.5 40 -113.5 q0 -51 -19 -92.5 q-19 -41.5 -53 -70.5 q15 -1 32 -1 q22 0 44.5 3.5 q22.5 3.5 42.5 11.5 q18 7 28.5 1 q10.5 -6 13.5 -18.5 q3 -12.5 -2.5 -24.5 q-5.5 -12 -21.5 -17 q-48 -18 -100 -18 q-60 0 -111 20 q-51 -20 -112 -20 ZM340 213 q0 -98 77 -138 q78 40 78 138 q0 47 -21 73.5 q-21 26.5 -56 26.5 q-35 0 -56.5 -26.5 q-21.5 -26.5 -21.5 -73.5 Z" /><glyph glyph-name="uni04AB" unicode="&#x4ab;" d="M281 -140 q-34 0 -34 36 l0 98 q-92 12 -144 80 q-52 68 -52 172 q0 116 63 182.5 q63 66.5 173 66.5 q36 0 75 -11.5 q39 -11.5 71 -37.5 q17 -12 14.5 -30 q-2.5 -18 -17 -27 q-14.5 -9 -34.5 4 q-26 20 -53 28 q-27 8 -51 8 q-76 0 -117 -47.5 q-41 -47.5 -41 -136.5 q0 -87 41 -137.5 q41 -50.5 117 -50.5 q24 0 51 8 q27 8 53 28 q20 13 34 3.5 q14 -9.5 15.5 -27.5 q1.5 -18 -14.5 -29 q-26 -21 -56 -32.5 q-30 -11.5 -60 -14.5 l0 -97 q0 -36 -34 -36 Z" /><glyph glyph-name="uni04AD" unicode="&#x4ad;" d="M304 -137 q-36 0 -36 38 l0 99 l-46 0 q-41 0 -41 42 l0 379 l-146 0 q-38 0 -38 33 q0 32 38 32 l374 0 q37 0 37 -32 q0 -33 -37 -33 l-147 0 l0 -357 l37 0 q40 0 40 -40 l0 -123 q0 -38 -35 -38 Z" /><glyph glyph-name="uni04AF" unicode="&#x4af;" d="M259 -187 q-41 0 -41 41 l0 150 l-185 432 q-10 23 -0.5 40 q9.5 17 36.5 17 q28 0 41 -32 l150 -369 l153 369 q7 18 16.5 25 q9.5 7 26.5 7 q23 0 31 -17 q8 -17 -2 -39 l-186 -431 l0 -152 q0 -41 -40 -41 Z" /><glyph glyph-name="uni04B1" unicode="&#x4b1;" d="M259 -187 q-41 0 -41 41 l0 100 l-92 0 q-36 0 -36 33 q0 33 36 33 l86 0 l-179 416 q-10 23 -0.5 40 q9.5 17 36.5 17 q28 0 41 -32 l150 -369 l153 369 q7 18 16.5 25 q9.5 7 26.5 7 q23 0 30.5 -17 q7.5 -17 -1.5 -39 l-180 -417 l87 0 q36 0 36 -33 q0 -33 -36 -33 l-93 0 l0 -100 q0 -41 -40 -41 Z" /><glyph glyph-name="uni04B3" unicode="&#x4b3;" d="M499 -135 q-36 0 -36 38 l0 97 l-15 0 q-27 0 -46 23 l-135 170 l-140 -176 q-9 -11 -19 -17 q-10 -6 -25 -6 q-21 0 -31.5 17 q-10.5 17 8.5 41 l161 199 l-148 183 q-19 24 -9 41.5 q10 17.5 30 17.5 q16 0 25.5 -5 q9.5 -5 19.5 -17 l129 -164 l129 164 q18 22 45 22 q20 0 30 -17.5 q10 -17.5 -9 -41.5 l-148 -183 l150 -187 l29 0 q40 0 40 -41 l0 -120 q0 -38 -35 -38 Z" /><glyph glyph-name="uni04B5" unicode="&#x4b5;" d="M628 -137 q-35 0 -35 37 l0 100 l-393 0 q-42 0 -42 42 l0 379 l-123 0 q-37 0 -37 33 q0 32 37 32 l327 0 q37 0 37 -32 q0 -33 -37 -33 l-123 0 l0 -356 l267 0 l0 387 q0 41 40 41 q41 0 41 -41 l0 -387 l36 0 q40 0 40 -40 l0 -125 q0 -37 -35 -37 Z" /><glyph glyph-name="uni04B7" unicode="&#x4b7;" d="M513 -137 q-35 0 -35 38 l0 99 l-47 0 q-39 0 -39 42 l0 155 q-56 -34 -129 -34 q-104 0 -154 49.5 q-50 49.5 -50 150.5 l0 89 q0 41 41 41 q40 0 40 -41 l0 -83 q0 -72 31.5 -105 q31.5 -33 101.5 -33 q36 0 63.5 8 q27.5 8 54.5 26 l0 186 q0 42 40 42 q41 0 41 -42 l0 -387 l37 0 q40 0 40 -40 l0 -123 q0 -38 -36 -38 Z" /><glyph glyph-name="uni04B9" unicode="&#x4b9;" d="M447 -7 q-41 0 -41 42 l0 163 q-22 -14 -47.5 -22 q-25.5 -8 -49.5 -11 l0 -71 q0 -34 -30 -34 q-29 0 -29 34 l0 70 q-97 5 -144 55 q-47 50 -47 144 l0 89 q0 41 41 41 q40 0 40 -41 l0 -85 q0 -65 27.5 -97.5 q27.5 -32.5 82.5 -37.5 l0 95 q0 34 29 34 q30 0 30 -34 l0 -96 q25 2 49.5 10 q24.5 8 47.5 23 l0 187 q0 42 41 42 q40 0 40 -42 l0 -416 q0 -42 -40 -42 Z" /><glyph glyph-name="uni0527" unicode="&#x527;" d="M541 -137 q-35 0 -35 38 l0 99 l-47 0 q-40 0 -40 42 l0 256 q0 68 -26.5 99.5 q-26.5 31.5 -84.5 31.5 q-67 0 -107 -41.5 q-40 -41.5 -40 -110.5 l0 -242 q0 -42 -40 -42 q-41 0 -41 42 l0 636 q0 41 41 41 q40 0 40 -41 l0 -265 q25 44 68.5 66.5 q43.5 22.5 97.5 22.5 q173 0 173 -192 l0 -239 l37 0 q40 0 40 -40 l0 -123 q0 -38 -36 -38 Z" /><glyph glyph-name="uni04BD" unicode="&#x4bd;" d="M408 -9 q-113 0 -179.5 63.5 q-66.5 63.5 -69.5 171.5 l-13 0 q-68 0 -98 35 q-30 35 -30 86 l0 18 q0 32 34 32 q33 0 33 -32 l0 -17 q0 -36 15.5 -52.5 q15.5 -16.5 54.5 -16.5 l6 0 q7 66 38 114.5 q31 48.5 80.5 75 q49.5 26.5 112.5 26.5 q99 0 155 -63.5 q56 -63.5 56 -174.5 q0 -31 -34 -31 l-332 0 q5 -83 49 -126.5 q44 -43.5 122 -43.5 q33 0 67 8.5 q34 8.5 65 30.5 q23 15 38.5 6 q15.5 -9 16 -27.5 q0.5 -18.5 -20.5 -32.5 q-33 -24 -78 -37 q-45 -13 -88 -13 ZM394 435 q-70 0 -110 -44 q-40 -44 -46 -112 l295 0 q-3 74 -38 115 q-35 41 -101 41 Z" /><glyph glyph-name="uni04C4" unicode="&#x4c4;" d="M336 -178 q-18 -6 -30.5 0.5 q-12.5 6.5 -16.5 19 q-4 12.5 1 25 q5 12.5 21 18.5 q62 20 81.5 60 q19.5 40 19.5 111 l0 19 q0 75 -34 109 q-34 34 -104 34 l-113 0 l0 -183 q0 -42 -40 -42 q-41 0 -41 42 l0 414 q0 42 41 42 q40 0 40 -42 l0 -166 l91 0 l149 190 q12 16 27 18 q15 2 26.5 -6.5 q11.5 -8.5 14 -23 q2.5 -14.5 -10.5 -30.5 l-121 -154 q74 -12 115 -61.5 q41 -49.5 41 -135.5 l0 -21 q0 -91 -32.5 -149 q-32.5 -58 -124.5 -88 Z" /><glyph glyph-name="uni04C6" unicode="&#x4c6;" d="M514 -112 q-5 -16 -18 -22 q-13 -6 -25.5 -3 q-12.5 3 -19.5 14 q-7 11 -1 29 l33 94 l-30 0 q-40 0 -40 42 l0 379 l-196 0 l0 -62 q0 -104 -13.5 -175 q-13.5 -71 -44 -116 q-30.5 -45 -81.5 -70 q-17 -7 -30.5 -2 q-13.5 5 -20 17 q-6.5 12 -3.5 26 q3 14 20 24 q38 22 59 58.5 q21 36.5 29.5 94.5 q8.5 58 8.5 146 l0 78 q0 46 46 46 l261 0 q46 0 46 -46 l0 -376 l30 0 q23 0 33 -12.5 q10 -12.5 2 -34.5 l-45 -129 Z" /><glyph glyph-name="uni04C8" unicode="&#x4c8;" d="M330 -191 q-25 -1 -34.5 14 q-9.5 15 -3.5 31.5 q6 16.5 26 17.5 q55 4 81.5 30 q26.5 26 26.5 83 l0 233 l-265 0 l0 -183 q0 -42 -40 -42 q-41 0 -41 42 l0 417 q0 41 41 41 q40 0 40 -41 l0 -168 l265 0 l0 168 q0 41 40 41 q41 0 41 -41 l0 -461 q0 -92 -45.5 -135 q-45.5 -43 -131.5 -47 Z" /><glyph glyph-name="uni04CA" unicode="&#x4ca;" d="M527 -112 q-6 -16 -18.5 -22 q-12.5 -6 -25.5 -3 q-13 3 -19.5 14 q-6.5 11 -0.5 29 l33 94 l-30 0 q-40 0 -40 42 l0 176 l-265 0 l0 -183 q0 -42 -40 -42 q-41 0 -41 42 l0 417 q0 41 41 41 q40 0 40 -41 l0 -168 l265 0 l0 168 q0 41 40 41 q41 0 41 -41 l0 -388 l29 0 q24 0 33.5 -12.5 q9.5 -12.5 2.5 -34.5 l-45 -129 Z" /><glyph glyph-name="uni04CC" unicode="&#x4cc;" d="M350 -137 q-35 0 -35 38 l0 110 q0 40 40 40 l37 0 l0 146 q-56 -34 -129 -34 q-104 0 -154 49.5 q-50 49.5 -50 150.5 l0 89 q0 41 41 41 q40 0 40 -41 l0 -83 q0 -72 31.5 -105 q31.5 -33 101.5 -33 q36 0 63.5 8 q27.5 8 54.5 26 l0 186 q0 42 40 42 q41 0 41 -42 l0 -409 q0 -42 -41 -42 l-45 0 l0 -99 q0 -38 -36 -38 Z" /><glyph glyph-name="uni04CE" unicode="&#x4ce;" d="M604 -112 q-6 -16 -18.5 -22 q-12.5 -6 -25.5 -3 q-13 3 -19.5 14 q-6.5 11 -0.5 29 l33 94 l-26 0 q-40 0 -40 42 l0 312 l-148 -261 q-5 -8 -11.5 -13.5 q-6.5 -5.5 -17.5 -5.5 q-12 0 -18.5 5.5 q-6.5 5.5 -11.5 13.5 l-148 261 l0 -322 q0 -39 -36 -39 q-36 0 -36 39 l0 418 q0 43 36 43 q18 0 27.5 -8 q9.5 -8 16.5 -21 l170 -303 l170 303 q7 13 16.5 21 q9.5 8 26.5 8 q36 0 36 -43 l0 -386 l34 0 q24 0 34 -12.5 q10 -12.5 2 -34.5 l-45 -129 Z" /><glyph glyph-name="uni04E1" unicode="&#x4e1;" d="M228 -189 q-119 0 -195 49 q-14 10 -17 23 q-3 13 2.5 24.5 q5.5 11.5 17.5 16 q12 4.5 27 -5.5 q65 -42 158 -42 q80 0 120.5 37 q40.5 37 40.5 107 q0 63 -40 97 q-40 34 -113 34 l-83 0 q-21 0 -24 16 q-3 16 13 33 l201 221 l-272 0 q-36 0 -36 33 q0 32 36 32 l339 0 q28 0 33.5 -22.5 q5.5 -22.5 -14.5 -42.5 l-191 -210 l19 0 q101 0 157 -49.5 q56 -49.5 56 -137.5 q0 -99 -62.5 -156 q-62.5 -57 -172.5 -57 Z" /><glyph glyph-name="uni04E9" unicode="&#x4e9;" d="M283 -9 q-71 0 -123 31 q-52 31 -80.5 87.5 q-28.5 56.5 -28.5 133.5 q0 77 28.5 133.5 q28.5 56.5 80.5 87.5 q52 31 123 31 q70 0 122.5 -31 q52.5 -31 81 -87.5 q28.5 -56.5 28.5 -133.5 q0 -77 -28.5 -133.5 q-28.5 -56.5 -81 -87.5 q-52.5 -31 -122.5 -31 ZM283 430 q-63 0 -102.5 -40.5 q-39.5 -40.5 -46.5 -117.5 l298 0 q-7 77 -47 117.5 q-40 40.5 -102 40.5 ZM283 56 q62 0 102 41 q40 41 47 118 l-298 0 q6 -77 46 -118 q40 -41 103 -41 Z" /><glyph glyph-name="uni04F7" unicode="&#x4f7;" d="M202 -137 q-35 0 -35 38 l0 99 l-47 0 q-40 0 -40 42 l0 398 q0 46 46 46 l265 0 q37 0 37 -32 q0 -33 -37 -33 l-230 0 l0 -357 l37 0 q40 0 40 -40 l0 -123 q0 -38 -36 -38 Z" /><glyph glyph-name="uni04FB" unicode="&#x4fb;" d="M111 -180 q-15 -2 -25 4.5 q-10 6.5 -11 21.5 q-2 32 32 35 l17 1 q38 4 56.5 32 q18.5 28 18.5 86 l-59 0 q-40 0 -40 41 l0 166 l-67 0 q-35 0 -35 30 q0 31 35 31 l67 0 l0 172 q0 46 46 46 l265 0 q37 0 37 -32 q0 -33 -37 -33 l-230 0 l0 -153 l118 0 q35 0 35 -31 q0 -30 -35 -30 l-118 0 l0 -142 l49 0 q42 0 42 -39 l0 -21 q0 -84 -36 -130.5 q-36 -46.5 -104 -52.5 l-21 -2 Z" /><glyph glyph-name="uni04FD" unicode="&#x4fd;" d="M355 -181 q-22 -4 -33 9.5 q-11 13.5 -7 29.5 q4 16 26 21 q80 16 80 80 q0 26 -16.5 53.5 q-16.5 27.5 -53.5 74.5 l-84 105 l-136 -171 q-9 -12 -19.5 -17.5 q-10.5 -5.5 -25.5 -5.5 q-21 0 -31 17.5 q-10 17.5 9 40.5 l157 195 l-148 184 q-19 23 -9.5 40.5 q9.5 17.5 30.5 17.5 q15 0 25 -5.5 q10 -5.5 19 -17.5 l130 -163 l129 163 q10 12 20 17.5 q10 5.5 24 5.5 q21 0 31 -17.5 q10 -17.5 -9 -40.5 l-148 -184 l101 -126 q45 -55 65 -91.5 q20 -36.5 20 -76.5 q0 -57 -37.5 -92.5 q-37.5 -35.5 -108.5 -45.5 Z" /><glyph glyph-name="uni0511" unicode="&#x511;" d="M256 -9 q-104 0 -157 39 q-53 39 -53 104 q0 45 26 75.5 q26 30.5 70 41.5 q-36 13 -57.5 41.5 q-21.5 28.5 -21.5 65.5 q0 65 49.5 101 q49.5 36 142.5 36 q100 0 178 -45 q20 -11 20 -29 q0 -18 -14 -28 q-14 -10 -37 3 q-63 36 -142 36 q-62 0 -91.5 -22 q-29.5 -22 -29.5 -58 q0 -36 25.5 -55.5 q25.5 -19.5 69.5 -19.5 l77 0 q35 0 35 -30 q0 -31 -35 -31 l-87 0 q-49 0 -75 -19.5 q-26 -19.5 -26 -58.5 q0 -40 31 -62 q31 -22 103 -22 q41 0 81 9.5 q40 9.5 73 30.5 q23 13 37 3 q14 -10 13.5 -28.5 q-0.5 -18.5 -21.5 -30.5 q-34 -22 -83 -34.5 q-49 -12.5 -101 -12.5 Z" /><glyph glyph-name="uni0513" unicode="&#x513;" d="M317 -191 q-25 -1 -34 14 q-9 15 -3.5 31.5 q5.5 16.5 25.5 17.5 q55 4 81.5 30 q26.5 26 26.5 83 l0 436 l-196 0 l0 -62 q0 -104 -13.5 -175 q-13.5 -71 -44 -116 q-30.5 -45 -81.5 -70 q-17 -7 -30.5 -2 q-13.5 5 -20 17 q-6.5 12 -3.5 26 q3 14 20 24 q38 22 59 58.5 q21 36.5 29.5 94.5 q8.5 58 8.5 146 l0 78 q0 46 46 46 l261 0 q46 0 46 -46 l0 -449 q0 -92 -45.5 -135 q-45.5 -43 -131.5 -47 Z" /><glyph glyph-name="uni048F" unicode="&#x48f;" d="M120 -187 q-40 0 -40 41 l0 598 q0 41 40 41 q40 0 40 -41 l0 -52 q22 44 65.5 69.5 q43.5 25.5 100.5 25.5 q65 0 113.5 -30.5 q48.5 -30.5 75 -87 q26.5 -56.5 26.5 -134.5 q0 -67 -20.5 -119 q-20.5 -52 -55.5 -83 l31 -40 q13 -16 6.5 -29 q-6.5 -13 -21.5 -15.5 q-15 -2.5 -27 13.5 l-33 42 q-20 -9 -43.5 -15 q-23.5 -6 -51.5 -6 q-56 0 -99.5 25 q-43.5 25 -65.5 69 l0 -231 q0 -41 -41 -41 ZM310 56 q36 0 65 15 l-37 48 q-12 15 -5.5 28 q6.5 13 21 16 q14.5 3 26.5 -13 l36 -46 q20 22 31.5 57 q11.5 35 11.5 82 q0 91 -40.5 139 q-40.5 48 -108.5 48 q-69 0 -109.5 -48 q-40.5 -48 -40.5 -139 q0 -90 40.5 -138.5 q40.5 -48.5 109.5 -48.5 Z" /><glyph glyph-name="uni0529" unicode="&#x529;" d="M-16 -191 q-25 -1 -34.5 14 q-9.5 15 -3.5 31.5 q6 16.5 26 17.5 q55 4 81.5 30 q26.5 26 26.5 83 l0 467 q0 41 41 41 q40 0 40 -41 l0 -168 l265 0 l0 168 q0 41 40 41 q41 0 41 -41 l0 -417 q0 -42 -41 -42 q-40 0 -40 42 l0 183 l-265 0 l0 -227 q0 -92 -45.5 -135 q-45.5 -43 -131.5 -47 Z" /><glyph glyph-name="uni052F" unicode="&#x52f;" d="M536 -137 q-36 0 -36 38 l0 99 l-47 0 q-40 0 -40 42 l0 379 l-196 0 l0 -62 q0 -104 -13.5 -175 q-13.5 -71 -44 -116 q-30.5 -45 -81.5 -70 q-17 -7 -30.5 -2 q-13.5 5 -20 17 q-6.5 12 -3.5 26 q3 14 20 24 q38 22 59 58.5 q21 36.5 29.5 94.5 q8.5 58 8.5 146 l0 78 q0 46 46 46 l261 0 q46 0 46 -46 l0 -376 l37 0 q40 0 40 -40 l0 -123 q0 -38 -35 -38 Z" /><glyph glyph-name="uni0394" unicode="&#x394;" d="M89 0 q-28 0 -38 20.5 q-10 20.5 5 55.5 l259 595 q14 34 50 34 q35 0 50 -34 l259 -595 q16 -37 4.5 -56.5 q-11.5 -19.5 -37.5 -19.5 l-552 0 ZM364 609 l-231 -540 l464 0 l-231 540 l-2 0 Z" /><glyph glyph-name="Sigma" unicode="&#x3a3;" d="M88 -180 q-31 0 -39 26.5 q-8 26.5 13 56.5 l257 360 l-257 359 q-23 32 -15 57.5 q8 25.5 41 25.5 l430 0 q43 0 43 -35 q0 -35 -43 -35 l-370 0 l233 -327 q18 -25 18 -45 q0 -20 -18 -46 l-233 -327 l370 0 q43 0 43 -35 q0 -35 -43 -35 l-430 0 Z" /><glyph glyph-name="uni03A9" unicode="&#x3a9;" d="M71 0 q-37 0 -37 35 q0 35 37 35 l169 0 q-95 64 -139.5 146 q-44.5 82 -44.5 182 q0 99 41.5 169.5 q41.5 70.5 117 108.5 q75.5 38 174.5 38 q100 0 175 -38 q75 -38 116.5 -108.5 q41.5 -70.5 41.5 -169.5 q0 -100 -44 -182 q-44 -82 -139 -146 l169 0 q36 0 36 -35 q0 -35 -36 -35 l-225 0 q-18 0 -28.5 11.5 q-10.5 11.5 -10.5 28.5 q0 14 6 23.5 q6 9.5 18 18.5 q86 66 127 142.5 q41 76.5 41 165.5 q0 120 -66 185.5 q-66 65.5 -181 65.5 q-114 0 -180 -65.5 q-66 -65.5 -66 -185.5 q0 -87 40.5 -164.5 q40.5 -77.5 127.5 -143.5 q25 -19 25 -43 q0 -16 -11 -27.5 q-11 -11.5 -29 -11.5 l-225 0 Z" /><glyph glyph-name="uni03BC" unicode="&#x3bc;" d="M114 -187 q-40 0 -40 41 l0 598 q0 41 40 41 q41 0 41 -41 l0 -266 q0 -65 26 -96.5 q26 -31.5 83 -31.5 q63 0 102 42 q39 42 39 111 l0 241 q0 41 40 41 q41 0 41 -41 l0 -417 q0 -42 -39 -42 q-19 0 -29.5 10.5 q-10.5 10.5 -10.5 26.5 l0 58 q-20 -47 -58.5 -72 q-38.5 -25 -85.5 -25 q-37 0 -66 11 q-29 11 -49 40 l6 -188 q1 -41 -40 -41 Z" /><glyph glyph-name="pi" unicode="&#x3c0;" d="M79 -7 q-22 0 -31 13 q-9 13 -3 35 q26 82 41 179 q15 97 17 203 l-69 0 q-36 0 -36 32 q0 31 37 31 l481 0 q37 0 37 -31 q0 -32 -36 -32 l-89 0 l0 -243 q0 -58 23 -87 q23 -29 74 -29 q13 0 22.5 1.5 q9.5 1.5 13.5 1.5 q9 0 15 -6 q6 -6 6 -21 q0 -26 -19 -35.5 q-19 -9.5 -52 -9.5 q-87 0 -125.5 48.5 q-38.5 48.5 -38.5 133.5 l0 246 l-164 0 q-2 -120 -16.5 -218.5 q-14.5 -98.5 -39.5 -177.5 q-11 -34 -48 -34 Z" /><glyph glyph-name="zero" unicode="0" d="M300 -9 q-121 0 -184 93 q-63 93 -63 269 q0 177 63 269 q63 92 184 92 q122 0 184.5 -91.5 q62.5 -91.5 62.5 -268.5 q0 -177 -63.5 -270 q-63.5 -93 -183.5 -93 ZM300 62 q84 0 124.5 71.5 q40.5 71.5 40.5 220.5 q0 150 -40 219.5 q-40 69.5 -125 69.5 q-84 0 -124.5 -70 q-40.5 -70 -40.5 -219 q0 -149 40.5 -220.5 q40.5 -71.5 124.5 -71.5 Z" /><glyph glyph-name="one" unicode="1" d="M155 0 q-38 0 -38 36 q0 34 38 34 l130 0 l0 539 l-102 -68 q-16 -10 -29.5 -5.5 q-13.5 4.5 -20.5 16.5 q-7 12 -4.5 26 q2.5 14 18.5 25 l138 91 q13 8 25 13 q12 5 24 5 q14 0 23.5 -8.5 q9.5 -8.5 9.5 -26.5 l0 -607 l120 0 q38 0 38 -34 q0 -36 -38 -36 l-332 0 Z" /><glyph glyph-name="two" unicode="2" d="M129 0 q-23 0 -33 10.5 q-10 10.5 -10 28.5 q0 21 21 43 l224 240 q51 55 73.5 101.5 q22.5 46.5 22.5 94.5 q0 123 -143 123 q-89 0 -162 -57 q-16 -12 -29 -8.5 q-13 3.5 -19.5 15.5 q-6.5 12 -5 26.5 q1.5 14.5 16.5 25.5 q39 32 94 51.5 q55 19.5 112 19.5 q106 0 162.5 -49.5 q56.5 -49.5 56.5 -140.5 q0 -63 -30.5 -123.5 q-30.5 -60.5 -95.5 -128.5 l-190 -202 l314 0 q38 0 38 -34 q0 -36 -38 -36 l-379 0 Z" /><glyph glyph-name="three" unicode="3" d="M292 -9 q-59 0 -117 17 q-58 17 -101 50 q-16 12 -18.5 26.5 q-2.5 14.5 4 26.5 q6.5 12 20.5 15.5 q14 3.5 31 -7.5 q44 -29 88 -42 q44 -13 91 -13 q76 0 116.5 33.5 q40.5 33.5 40.5 98.5 q0 62 -41 94 q-41 32 -119 32 l-71 0 q-39 0 -39 36 q0 35 39 35 l64 0 q68 0 107.5 35.5 q39.5 35.5 39.5 97.5 q0 55 -36.5 85 q-36.5 30 -103.5 30 q-46 0 -85.5 -13 q-39.5 -13 -78.5 -44 q-15 -11 -28.5 -8 q-13.5 3 -21 14.5 q-7.5 11.5 -5 26.5 q2.5 15 18.5 27 q39 33 93 51.5 q54 18.5 112 18.5 q102 0 159.5 -48 q57.5 -48 57.5 -133 q0 -59 -30 -103.5 q-30 -44.5 -83 -64.5 q63 -17 98 -62.5 q35 -45.5 35 -112.5 q0 -91 -63.5 -145 q-63.5 -54 -173.5 -54 Z" /><glyph glyph-name="four" unicode="4" d="M418 -7 q-41 0 -41 42 l0 116 l-287 0 q-20 0 -31.5 9.5 q-11.5 9.5 -11.5 27.5 q0 18 23 52 l305 444 q18 28 46 28 q16 0 27.5 -10.5 q11.5 -10.5 11.5 -31.5 l0 -449 l73 0 q39 0 39 -35 q0 -35 -39 -35 l-73 0 l0 -116 q0 -42 -42 -42 ZM377 221 l0 352 l-241 -352 l241 0 Z" /><glyph glyph-name="five" unicode="5" d="M315 -9 q-58 0 -114.5 17 q-56.5 17 -101.5 53 q-15 10 -17.5 24.5 q-2.5 14.5 4.5 26.5 q7 12 20.5 16 q13.5 4 30.5 -7 q79 -57 177 -57 q73 0 115 41 q42 41 42 108 q0 69 -40 113 q-40 44 -110 44 q-43 0 -79.5 -16 q-36.5 -16 -65.5 -51 q-7 -8 -16.5 -13.5 q-9.5 -5.5 -21.5 -5.5 q-36 0 -36 35 l0 348 q0 38 38 38 l340 0 q38 0 38 -35 q0 -35 -38 -35 l-297 0 l0 -252 q58 58 153 58 q66 0 115 -28 q49 -28 75.5 -78.5 q26.5 -50.5 26.5 -117.5 q0 -66 -29 -117 q-29 -51 -82.5 -80 q-53.5 -29 -126.5 -29 Z" /><glyph glyph-name="six" unicode="6" d="M324 -9 q-125 0 -192.5 90.5 q-67.5 90.5 -67.5 253.5 q0 183 75 281 q75 98 210 98 q46 0 94.5 -18 q48.5 -18 85.5 -51 q13 -11 14.5 -25 q1.5 -14 -5.5 -26 q-7 -12 -19.5 -15.5 q-12.5 -3.5 -28.5 8.5 q-34 29 -70 41.5 q-36 12.5 -73 12.5 q-98 0 -150.5 -73 q-52.5 -73 -52.5 -217 l0 -49 q19 66 70.5 103 q51.5 37 121.5 37 q62 0 110 -28.5 q48 -28.5 75 -78.5 q27 -50 27 -115 q0 -67 -28.5 -118.5 q-28.5 -51.5 -79 -81 q-50.5 -29.5 -116.5 -29.5 ZM319 61 q67 0 108.5 43 q41.5 43 41.5 113 q0 69 -41.5 112.5 q-41.5 43.5 -108.5 43.5 q-67 0 -108.5 -43.5 q-41.5 -43.5 -41.5 -112.5 q0 -70 41.5 -113 q41.5 -43 108.5 -43 Z" /><glyph glyph-name="seven" unicode="7" d="M168 -7 q-22 0 -32.5 15.5 q-10.5 15.5 1.5 38.5 l303 587 l-342 0 q-38 0 -38 36 q0 35 38 35 l397 0 q18 0 29 -9.5 q11 -9.5 11 -25.5 q0 -15 -3.5 -25.5 q-3.5 -10.5 -9.5 -22.5 l-308 -601 q-14 -28 -46 -28 Z" /><glyph glyph-name="eight" unicode="8" d="M300 -9 q-119 0 -185 51.5 q-66 51.5 -66 144.5 q0 65 35.5 111 q35.5 46 94.5 63 q-53 20 -83 64 q-30 44 -30 101 q0 89 63.5 138.5 q63.5 49.5 170.5 49.5 q107 0 171 -49.5 q64 -49.5 64 -138.5 q0 -57 -30.5 -101.5 q-30.5 -44.5 -82.5 -63.5 q59 -17 94 -63 q35 -46 35 -111 q0 -93 -66 -144.5 q-66 -51.5 -185 -51.5 ZM300 391 q73 0 114.5 34.5 q41.5 34.5 41.5 93.5 q0 60 -41.5 93.5 q-41.5 33.5 -114.5 33.5 q-73 0 -114 -33.5 q-41 -33.5 -41 -93.5 q0 -59 41 -93.5 q41 -34.5 114 -34.5 ZM300 59 q172 0 172 133 q0 131 -172 131 q-172 0 -172 -131 q0 -133 172 -133 Z" /><glyph glyph-name="nine" unicode="9" d="M251 -9 q-46 0 -94.5 18 q-48.5 18 -85.5 52 q-13 10 -14.5 24.5 q-1.5 14.5 5.5 26 q7 11.5 19.5 15 q12.5 3.5 28.5 -7.5 q34 -29 70 -42 q36 -13 73 -13 q98 0 150.5 73 q52.5 73 52.5 217 l0 49 q-19 -66 -70.5 -103 q-51.5 -37 -121.5 -37 q-62 0 -110 28.5 q-48 28.5 -75 78.5 q-27 50 -27 115 q0 67 28.5 118.5 q28.5 51.5 79 81 q50.5 29.5 116.5 29.5 q125 0 192.5 -90.5 q67.5 -90.5 67.5 -253.5 q0 -183 -75 -281 q-75 -98 -210 -98 ZM281 332 q67 0 109 43.5 q42 43.5 42 113.5 q0 69 -42 112.5 q-42 43.5 -109 43.5 q-66 0 -108 -43.5 q-42 -43.5 -42 -112.5 q0 -70 42 -113.5 q42 -43.5 108 -43.5 Z" /><glyph glyph-name="fraction" unicode="&#x2044;" d="M-81 1 q-11 -20 -28.5 -19 q-17.5 1 -27.5 15.5 q-10 14.5 2 35.5 l388 671 q12 20 29 19 q17 -1 27 -16 q10 -15 -2 -35 l-388 -671 Z" /><glyph glyph-name="period" unicode="." d="M115 -4 q-25 0 -40 15.5 q-15 15.5 -15 39.5 q0 24 15 39.5 q15 15.5 40 15.5 q25 0 39.5 -15.5 q14.5 -15.5 14.5 -39.5 q0 -24 -14.5 -39.5 q-14.5 -15.5 -39.5 -15.5 Z" /><glyph glyph-name="comma" unicode="," d="M124 -95 q-14 -17 -28 -15.5 q-14 1.5 -19 14.5 q-5 13 8 31 q12 15 18 31 q6 16 9 30 q-24 2 -38 17 q-14 15 -14 38 q0 24 14.5 39.5 q14.5 15.5 38.5 15.5 q26 0 41 -17.5 q15 -17.5 15 -50.5 q0 -31 -10 -66 q-10 -35 -35 -67 Z" /><glyph glyph-name="colon" unicode=":" d="M115 380 q-25 0 -40 15.5 q-15 15.5 -15 39.5 q0 25 15 40 q15 15 40 15 q25 0 39.5 -15 q14.5 -15 14.5 -40 q0 -24 -14.5 -39.5 q-14.5 -15.5 -39.5 -15.5 ZM115 -4 q-25 0 -40 15.5 q-15 15.5 -15 39.5 q0 24 15 39.5 q15 15.5 40 15.5 q25 0 39.5 -15.5 q14.5 -15.5 14.5 -39.5 q0 -24 -14.5 -39.5 q-14.5 -15.5 -39.5 -15.5 Z" /><glyph glyph-name="semicolon" unicode=";" d="M115 380 q-25 0 -40 15.5 q-15 15.5 -15 39.5 q0 25 15 40 q15 15 40 15 q25 0 39.5 -15 q14.5 -15 14.5 -40 q0 -24 -14.5 -39.5 q-14.5 -15.5 -39.5 -15.5 ZM124 -95 q-14 -17 -28 -15.5 q-14 1.5 -19 14.5 q-5 13 8 31 q12 15 18 31 q6 16 9 30 q-24 2 -38 17 q-14 15 -14 38 q0 24 14.5 39.5 q14.5 15.5 38.5 15.5 q26 0 41 -17.5 q15 -17.5 15 -50.5 q0 -31 -10 -66 q-10 -35 -35 -67 Z" /><glyph glyph-name="exclam" unicode="!" d="M115 179 q-26 0 -28 32 l-20 448 q-1 24 11.5 38.5 q12.5 14.5 36.5 14.5 q23 0 35 -14.5 q12 -14.5 11 -38.5 l-20 -448 q-1 -32 -26 -32 ZM115 -4 q-25 0 -40 15.5 q-15 15.5 -15 39.5 q0 24 15 39.5 q15 15.5 40 15.5 q25 0 39.5 -15.5 q14.5 -15.5 14.5 -39.5 q0 -24 -14.5 -39.5 q-14.5 -15.5 -39.5 -15.5 Z" /><glyph glyph-name="exclamdown" unicode="¡" d="M115 380 q-25 0 -40 15.5 q-15 15.5 -15 39.5 q0 25 15 40 q15 15 40 15 q25 0 39.5 -15 q14.5 -15 14.5 -40 q0 -24 -14.5 -39.5 q-14.5 -15.5 -39.5 -15.5 ZM115 -187 q-24 0 -36.5 14.5 q-12.5 14.5 -11.5 38.5 l20 412 q2 31 28 31 q25 0 27 -31 l19 -412 q1 -24 -11 -38.5 q-12 -14.5 -35 -14.5 Z" /><glyph glyph-name="question" unicode="?" d="M209 180 q-27 0 -27 32 q0 52 19 96.5 q19 44.5 67 100.5 q38 44 53 75 q15 31 15 66 q0 42 -30 66.5 q-30 24.5 -83 24.5 q-46 0 -84.5 -14 q-38.5 -14 -74.5 -40 q-19 -13 -33.5 -10 q-14.5 3 -21.5 14.5 q-7 11.5 -3 27 q4 15.5 22 28.5 q39 31 92 49 q53 18 107 18 q86 0 139 -43.5 q53 -43.5 53 -114.5 q0 -47 -20.5 -88 q-20.5 -41 -71.5 -95 q-47 -50 -66.5 -87 q-19.5 -37 -24.5 -79 q-2 -27 -27 -27 ZM208 -4 q-25 0 -40.5 15.5 q-15.5 15.5 -15.5 39.5 q0 24 15.5 39.5 q15.5 15.5 40.5 15.5 q25 0 39.5 -15.5 q14.5 -15.5 14.5 -39.5 q0 -24 -14.5 -39.5 q-14.5 -15.5 -39.5 -15.5 Z" /><glyph glyph-name="questiondown" unicode="¿" d="M235 380 q-25 0 -40 15.5 q-15 15.5 -15 39.5 q0 24 15 39.5 q15 15.5 40 15.5 q25 0 40 -15.5 q15 -15.5 15 -39.5 q0 -24 -15 -39.5 q-15 -15.5 -40 -15.5 ZM216 -189 q-86 0 -139 41 q-53 41 -53 108 q0 43 19.5 81 q19.5 38 72.5 88 q48 45 67 79 q19 34 24 73 q3 26 27 26 q27 0 27 -31 q0 -46 -17.5 -87 q-17.5 -41 -67.5 -92 q-40 -40 -54.5 -68.5 q-14.5 -28.5 -14.5 -57.5 q0 -40 30 -63.5 q30 -23.5 83 -23.5 q90 0 162 52 q19 12 33.5 9 q14.5 -3 21.5 -15 q7 -12 3 -27 q-4 -15 -22 -28 q-40 -28 -91 -46 q-51 -18 -111 -18 Z" /><glyph glyph-name="periodcentered" unicode="·" d="M115 211 q-25 0 -40 15.5 q-15 15.5 -15 39.5 q0 24 15 39.5 q15 15.5 40 15.5 q25 0 39.5 -15.5 q14.5 -15.5 14.5 -39.5 q0 -24 -14.5 -39.5 q-14.5 -15.5 -39.5 -15.5 Z" /><glyph glyph-name="bullet" unicode="&#x2022;" d="M262 88 q-49 0 -90 23.5 q-41 23.5 -66 63.5 q-25 40 -25 90 q0 46 23.5 86.5 q23.5 40.5 64.5 66 q41 25.5 93 25.5 q48 0 89.5 -23 q41.5 -23 66.5 -63.5 q25 -40.5 25 -91.5 q0 -49 -24.5 -89 q-24.5 -40 -65.5 -64 q-41 -24 -91 -24 Z" /><glyph glyph-name="asterisk" unicode="*" d="M128 368 q-27 16 -7 48 l59 93 l-109 -4 q-18 0 -28.5 7.5 q-10.5 7.5 -10.5 22.5 q0 14 10.5 21.5 q10.5 7.5 28.5 6.5 l110 -4 l-59 95 q-21 32 6 48 q12 7 24.5 1 q12.5 -6 20.5 -22 l52 -100 l52 100 q8 16 20.5 22 q12.5 6 25.5 -1 q25 -17 5 -49 l-59 -94 l110 4 q18 1 28.5 -6.5 q10.5 -7.5 10.5 -21.5 q0 -15 -10.5 -22.5 q-10.5 -7.5 -28.5 -7.5 l-109 4 l58 -93 q21 -32 -5 -47 q-13 -9 -25.5 -3 q-12.5 6 -20.5 22 l-52 100 l-53 -100 q-8 -16 -20 -22 q-12 -6 -24 2 Z" /><glyph glyph-name="numbersign" unicode="#" d="M120 -7 q-33 0 -25 39 l29 150 l-55 0 q-36 0 -36 29 q0 30 36 30 l66 0 l45 231 l-91 0 q-36 0 -36 30 q0 29 36 29 l101 0 l29 148 q7 33 38 33 q31 0 24 -39 l-27 -142 l159 0 l28 148 q7 33 38 33 q32 0 25 -39 l-28 -142 l55 0 q36 0 36 -29 q0 -30 -36 -30 l-66 0 l-45 -231 l91 0 q36 0 36 -30 q0 -29 -36 -29 l-101 0 l-31 -156 q-7 -33 -37 -33 q-15 0 -22 10.5 q-7 10.5 -4 28.5 l29 150 l-158 0 l-30 -156 q-6 -33 -37 -33 ZM198 241 l158 0 l46 231 l-159 0 l-45 -231 Z" /><glyph glyph-name="slash" unicode="/" d="M55 -34 q-6 -17 -18 -22.5 q-12 -5.5 -25 -1.5 q-13 4 -20 15 q-7 11 -2 28 l238 738 q6 16 18 21.5 q12 5.5 25 2 q13 -3.5 20 -15 q7 -11.5 1 -27.5 l-237 -738 Z" /><glyph glyph-name="backslash" unicode="\" d="M228 -34 l-238 738 q-5 16 2 27.5 q7 11.5 19.5 15 q12.5 3.5 25 -2 q12.5 -5.5 18.5 -21.5 l237 -738 q6 -17 -1 -28 q-7 -11 -20 -15 q-13 -4 -25.5 1.5 q-12.5 5.5 -17.5 22.5 Z" /><glyph glyph-name="parenleft" unicode="(" d="M210 -169 q-56 103 -82 211.5 q-26 108.5 -26 220.5 q0 112 26 220 q26 108 82 212 q10 17 27.5 17.5 q17.5 0.5 29 -13 q11.5 -13.5 1.5 -38.5 q-40 -100 -60 -198 q-20 -98 -20 -200 q0 -102 20.5 -200 q20.5 -98 59.5 -198 q10 -25 -1.5 -38.5 q-11.5 -13.5 -29 -12.5 q-17.5 1 -27.5 17 Z" /><glyph glyph-name="parenright" unicode=")" d="M108 -169 q-10 -16 -28 -17 q-18 -1 -29.5 12.5 q-11.5 13.5 -1.5 38.5 q80 197 80 398 q0 102 -21 199.5 q-21 97.5 -59 198.5 q-9 25 2.5 38.5 q11.5 13.5 29 13 q17.5 -0.5 27.5 -17.5 q55 -103 81 -211.5 q26 -108.5 26 -220.5 q0 -112 -26 -221 q-26 -109 -81 -211 Z" /><glyph glyph-name="braceleft" unicode="{" d="M247 -180 q-49 0 -75 26.5 q-26 26.5 -26 75.5 l0 227 q0 42 -16.5 61 q-16.5 19 -58.5 20 q-13 0 -21 10 q-8 10 -8 23 q0 13 8 22.5 q8 9.5 21 10.5 q42 1 58.5 20 q16.5 19 16.5 60 l0 227 q0 49 26 75.5 q26 26.5 75 26.5 l69 0 q15 0 25 -9 q10 -9 10 -23 q0 -14 -8.5 -23 q-8.5 -9 -22.5 -9 l-50 0 q-43 0 -43 -45 l0 -228 q0 -40 -20 -69 q-20 -29 -52 -36 q32 -7 52 -36 q20 -29 20 -69 l0 -229 q0 -45 43 -45 l50 0 q14 0 22.5 -9.5 q8.5 -9.5 8.5 -22.5 q0 -14 -10 -23 q-10 -9 -25 -9 l-69 0 Z" /><glyph glyph-name="braceright" unicode="}" d="M36 -180 q-15 0 -25 9 q-10 9 -10 23 q0 13 8.5 22.5 q8.5 9.5 22.5 9.5 l50 0 q43 0 43 45 l0 229 q0 40 20.5 69 q20.5 29 52.5 36 q-32 7 -52.5 36 q-20.5 29 -20.5 69 l0 228 q0 45 -43 45 l-50 0 q-14 0 -22.5 9 q-8.5 9 -8.5 23 q0 14 10 23 q10 9 25 9 l70 0 q48 0 74 -26.5 q26 -26.5 26 -75.5 l0 -227 q0 -41 16.5 -60.5 q16.5 -19.5 58.5 -19.5 q14 -1 21.5 -10.5 q7.5 -9.5 7.5 -22.5 q0 -14 -7.5 -23.5 q-7.5 -9.5 -21.5 -9.5 q-42 -1 -58.5 -20 q-16.5 -19 -16.5 -61 l0 -227 q0 -49 -26 -75.5 q-26 -26.5 -74 -26.5 l-70 0 Z" /><glyph glyph-name="bracketleft" unicode="[" d="M145 -180 q-15 0 -25.5 10 q-10.5 10 -10.5 25 l0 815 q0 15 10.5 25 q10.5 10 25.5 10 l136 0 q15 0 24 -9 q9 -9 9 -23 q0 -14 -9 -23 q-9 -9 -24 -9 l-91 0 l0 -757 l91 0 q15 0 24 -9.5 q9 -9.5 9 -22.5 q0 -14 -9 -23 q-9 -9 -24 -9 l-136 0 Z" /><glyph glyph-name="bracketright" unicode="]" d="M34 -180 q-15 0 -24 9 q-9 9 -9 23 q0 13 9 22.5 q9 9.5 24 9.5 l91 0 l0 757 l-91 0 q-15 0 -24 9 q-9 9 -9 23 q0 14 9 23 q9 9 24 9 l137 0 q15 0 25 -10 q10 -10 10 -25 l0 -815 q0 -15 -10 -25 q-10 -10 -25 -10 l-137 0 Z" /><glyph glyph-name="hyphen" unicode="-" d="M100 233 q-15 0 -25 9.5 q-10 9.5 -10 23.5 q0 15 10 24.5 q10 9.5 25 9.5 l225 0 q14 0 24 -9.5 q10 -9.5 10 -24.5 q0 -14 -10 -23.5 q-10 -9.5 -24 -9.5 l-225 0 Z" /><glyph glyph-name="endash" unicode="&#x2013;" d="M22 240 q-12 0 -20.5 8 q-8.5 8 -8.5 19 q0 11 8.5 18.5 q8.5 7.5 20.5 7.5 l456 0 q12 0 20.5 -7.5 q8.5 -7.5 8.5 -18.5 q0 -11 -8.5 -19 q-8.5 -8 -20.5 -8 l-456 0 Z" /><glyph glyph-name="emdash" unicode="&#x2014;" d="M22 240 q-12 0 -20.5 8 q-8.5 8 -8.5 19 q0 11 8.5 18.5 q8.5 7.5 20.5 7.5 l956 0 q12 0 20.5 -7.5 q8.5 -7.5 8.5 -18.5 q0 -11 -8.5 -19 q-8.5 -8 -20.5 -8 l-956 0 Z" /><glyph glyph-name="figuredash" unicode="&#x2012;" d="M95 240 q-13 0 -21.5 8 q-8.5 8 -8.5 19 q0 11 8.5 18.5 q8.5 7.5 21.5 7.5 l411 0 q12 0 20.5 -7.5 q8.5 -7.5 8.5 -18.5 q0 -11 -8.5 -19 q-8.5 -8 -20.5 -8 l-411 0 Z" /><glyph glyph-name="uni2015" unicode="&#x2015;" d="M22 240 q-12 0 -20.5 8 q-8.5 8 -8.5 19 q0 11 8.5 18.5 q8.5 7.5 20.5 7.5 l956 0 q12 0 20.5 -7.5 q8.5 -7.5 8.5 -18.5 q0 -11 -8.5 -19 q-8.5 -8 -20.5 -8 l-956 0 Z" /><glyph glyph-name="underscore" unicode="_" d="M42 -53 q-12 0 -20.5 7.5 q-8.5 7.5 -8.5 18.5 q0 11 8.5 19 q8.5 8 20.5 8 l416 0 q12 0 20.5 -8 q8.5 -8 8.5 -19 q0 -11 -8.5 -18.5 q-8.5 -7.5 -20.5 -7.5 l-416 0 Z" /><glyph glyph-name="quotesinglbase" unicode="&#x201a;" d="M124 -95 q-14 -17 -28 -15.5 q-14 1.5 -19 14.5 q-5 13 8 31 q12 15 18 31 q6 16 9 30 q-24 2 -38 17 q-14 15 -14 38 q0 24 14.5 39.5 q14.5 15.5 38.5 15.5 q26 0 41 -17.5 q15 -17.5 15 -50.5 q0 -31 -10 -66 q-10 -35 -35 -67 Z" /><glyph glyph-name="quoteleft" unicode="&#x2018;" d="M105 692 q13 17 27 15 q14 -2 19 -15 q5 -13 -8 -30 q-12 -15 -18 -31 q-6 -16 -9 -31 q24 -1 38.5 -16 q14.5 -15 14.5 -38 q0 -24 -15 -39.5 q-15 -15.5 -39 -15.5 q-26 0 -40.5 17.5 q-14.5 17.5 -14.5 50.5 q0 31 9.5 66 q9.5 35 35.5 67 Z" /><glyph glyph-name="quoteright" unicode="&#x2019;" d="M124 508 q-14 -17 -28 -15 q-14 2 -19 15 q-5 13 8 30 q12 15 18 31 q6 16 9 30 q-24 2 -38 17 q-14 15 -14 38 q0 24 14.5 39.5 q14.5 15.5 38.5 15.5 q26 0 41 -17.5 q15 -17.5 15 -50.5 q0 -31 -10 -66 q-10 -35 -35 -67 Z" /><glyph glyph-name="guilsinglleft" unicode="&#x2039;" d="M187 89 q-11 -5 -22.5 -1.5 q-11.5 3.5 -17.5 14.5 l-82 136 q-17 27 0 55 l81 135 q15 26 40 14 q13 -6 17.5 -19 q4.5 -13 -2.5 -28 l-65 -130 l65 -129 q7 -15 3.5 -28.5 q-3.5 -13.5 -17.5 -18.5 Z" /><glyph glyph-name="guilsinglright" unicode="&#x203a;" d="M73 89 q-14 5 -17.5 18.5 q-3.5 13.5 3.5 28.5 l65 129 l-65 130 q-7 15 -2.5 28 q4.5 13 17.5 19 q25 12 41 -14 l80 -135 q16 -28 0 -55 l-82 -136 q-6 -11 -17.5 -14.5 q-11.5 -3.5 -22.5 1.5 Z" /><glyph glyph-name="quotesingle" unicode="&#39;" d="M111 421 q-11 0 -19.5 8.5 q-8.5 8.5 -10.5 23.5 l-14 210 q-2 21 10.5 35 q12.5 14 33.5 14 q20 0 32.5 -14 q12.5 -14 11.5 -35 l-14 -210 q-1 -15 -9.5 -23.5 q-8.5 -8.5 -20.5 -8.5 Z" /><glyph glyph-name="uni27E8" unicode="&#x27e8;" d="M363 -19 q-21 -6 -28 15 l-114 339 l0 25 l113 336 q3 11 11.5 15.5 q8.5 4.5 18.5 0.5 q19 -8 12 -29 l-112 -334 l112 -337 q4 -11 0 -19.5 q-4 -8.5 -13 -11.5 Z" /><glyph glyph-name="uni27E9" unicode="&#x27e9;" d="M237 -19 q-9 3 -13 11.5 q-4 8.5 0 19.5 l112 337 l-112 334 q-7 21 13 29 q9 4 17.5 -0.5 q8.5 -4.5 11.5 -15.5 l114 -336 l0 -25 l-115 -339 q-3 -10 -11 -14 q-8 -4 -17 -1 Z" /><glyph glyph-name="uni2007" unicode="&#x2007;" d="" /><glyph glyph-name="uni200A" unicode="&#x200a;" d="" /><glyph glyph-name="uni2008" unicode="&#x2008;" d="" /><glyph glyph-name="space" unicode=" " d="" /><glyph glyph-name="nonbreakingspace" unicode=" " d="" /><glyph glyph-name="uni2009" unicode="&#x2009;" d="" /><glyph glyph-name="uni200B" unicode="&#x200b;" d="" /><glyph glyph-name="nonmarkingreturn" unicode="" d="" /><glyph glyph-name="uni20B5" unicode="&#x20b5;" d="M350 -122 q-14 0 -24 10 q-10 10 -10 25 l0 86 q-118 13 -186 106 q-68 93 -68 248 q0 154 68 247.5 q68 93.5 186 106.5 l0 85 q0 15 10 25 q10 10 24 10 q15 0 24.5 -10 q9.5 -10 9.5 -25 l0 -84 q41 -4 87.5 -21.5 q46.5 -17.5 82.5 -54.5 q11 -10 11 -24 q0 -14 -8 -25 q-8 -11 -20.5 -14 q-12.5 -3 -26.5 10 q-31 30 -68.5 42.5 q-37.5 12.5 -81.5 12.5 q-103 0 -157.5 -74 q-54.5 -74 -54.5 -207 q0 -133 54.5 -207.5 q54.5 -74.5 157.5 -74.5 q44 0 80.5 12.5 q36.5 12.5 71.5 43.5 q18 14 33.5 5.5 q15.5 -8.5 19.5 -26.5 q4 -18 -12 -34 q-34 -35 -81 -53 q-47 -18 -88 -22 l0 -84 q0 -15 -9.5 -25 q-9.5 -10 -24.5 -10 Z" /><glyph glyph-name="cent" unicode="¢" d="M318 -122 q-14 0 -24 10 q-10 10 -10 25 l0 83 q-58 9 -101.5 42.5 q-43.5 33.5 -67.5 86.5 q-24 53 -24 119 q0 64 24 115.5 q24 51.5 67.5 85.5 q43.5 34 101.5 44 l0 89 q0 15 10 25 q10 10 24 10 q15 0 24.5 -10 q9.5 -10 9.5 -25 l0 -86 q36 -3 71 -15 q35 -12 61 -32 q17 -12 15 -30 q-2 -18 -16.5 -27.5 q-14.5 -9.5 -35.5 4.5 q-24 17 -53 25.5 q-29 8.5 -59 8.5 q-74 0 -117.5 -50 q-43.5 -50 -43.5 -132 q0 -83 42.5 -133 q42.5 -50 117.5 -50 q29 0 58 8 q29 8 56 26 q17 11 29.5 7.5 q12.5 -3.5 17.5 -15 q5 -11.5 2 -24.5 q-3 -13 -15 -22 q-26 -19 -60.5 -31.5 q-34.5 -12.5 -69.5 -15.5 l0 -81 q0 -15 -9.5 -25 q-9.5 -10 -24.5 -10 Z" /><glyph glyph-name="colonmonetary" unicode="&#x20a1;" d="M110 -122 q-15 0 -22 11 q-7 11 -3 29 l50 180 q-34 44 -53.5 108 q-19.5 64 -19.5 147 q0 154 65.5 244.5 q65.5 90.5 177.5 105.5 l28 103 q5 21 28 21 q16 0 25 -11 q9 -11 4 -28 l-22 -80 q23 -1 46.5 -5.5 q23.5 -4.5 42.5 -12.5 l33 116 q5 21 27 21 q16 0 25 -11 q9 -11 5 -28 l-35 -123 q9 -6 19 -13.5 q10 -7.5 20 -17.5 q11 -10 11.5 -24 q0.5 -14 -7 -25.5 q-7.5 -11.5 -19.5 -14.5 q-12 -3 -26 9 q-32 30 -69 42.5 q-37 12.5 -81 12.5 q-103 0 -157.5 -74 q-54.5 -74 -54.5 -207 q0 -133 54.5 -207.5 q54.5 -74.5 157.5 -74.5 q47 0 83 13.5 q36 13.5 66 40.5 q18 14 34 6 q16 -8 20 -26 q4 -18 -12 -34 q-32 -33 -84.5 -54 q-52.5 -21 -112.5 -21 q-16 0 -28 1 l-28 -98 q-5 -21 -27 -21 q-16 0 -25 11 q-9 11 -5 28 l25 91 q-21 6 -43 17 q-22 11 -38 24 l-42 -148 q-6 -23 -33 -23 Z" /><glyph glyph-name="currency" unicode="¤" d="M50 -11 q-10 10 -10 22 q0 12 10 22 l59 60 q-23 31 -36.5 70.5 q-13.5 39.5 -13.5 81.5 q0 43 13 82 q13 39 37 70 l-59 61 q-20 21 0 43 q9 9 21.5 9 q12.5 0 22.5 -11 l58 -59 q30 25 68 39 q38 14 80 14 q41 0 78.5 -13.5 q37.5 -13.5 68.5 -37.5 l55 57 q10 11 23.5 11.5 q13.5 0.5 22.5 -9.5 q10 -10 10 -22.5 q0 -12.5 -11 -22.5 l-57 -58 q51 -67 51 -153 q0 -43 -13.5 -82 q-13.5 -39 -38.5 -71 l58 -59 q10 -10 10 -22 q0 -12 -10 -22 q-8 -9 -21 -8.5 q-13 0.5 -22 10.5 l-57 58 q-30 -25 -67.5 -38.5 q-37.5 -13.5 -79.5 -13.5 q-42 0 -80 14 q-38 14 -69 38 l-58 -59 q-10 -10 -21.5 -10.5 q-11.5 -0.5 -21.5 9.5 ZM300 67 q46 0 83.5 24 q37.5 24 60 64.5 q22.5 40.5 22.5 89.5 q0 49 -22.5 90 q-22.5 41 -60 64.5 q-37.5 23.5 -83.5 23.5 q-47 0 -85 -24 q-38 -24 -60.5 -64.5 q-22.5 -40.5 -22.5 -89.5 q0 -49 22.5 -89.5 q22.5 -40.5 60.5 -64.5 q38 -24 85 -24 Z" /><glyph glyph-name="dollar" unicode="$" d="M310 -122 q-15 0 -24.5 10 q-9.5 10 -9.5 24 l0 84 q-65 3 -118 21 q-53 18 -90 45 q-15 10 -17.5 25 q-2.5 15 3.5 27.5 q6 12.5 19 17 q13 4.5 31 -6.5 q33 -23 80 -40 q47 -17 117 -17 q86 0 127 33 q41 33 41 87 q0 43 -29.5 69 q-29.5 26 -99.5 41 l-100 21 q-179 38 -179 185 q0 56 26.5 100.5 q26.5 44.5 75 71.5 q48.5 27 113.5 32 l0 85 q0 14 9.5 24 q9.5 10 24.5 10 q14 0 24 -10 q10 -10 10 -24 l0 -85 q45 -4 93 -22.5 q48 -18.5 83 -50.5 q16 -14 13.5 -32.5 q-2.5 -18.5 -18 -27.5 q-15.5 -9 -38.5 6 q-34 27 -74.5 41.5 q-40.5 14.5 -96.5 14.5 q-75 0 -119.5 -36 q-44.5 -36 -44.5 -95 q0 -46 28 -73.5 q28 -27.5 91 -40.5 l101 -22 q98 -21 144 -64 q46 -43 46 -114 q0 -82 -58 -133.5 q-58 -51.5 -150 -61.5 l0 -85 q0 -14 -9.5 -24 q-9.5 -10 -24.5 -10 Z" /><glyph glyph-name="dong" unicode="&#x20ab;" d="M265 -9 q-62 0 -107.5 31.5 q-45.5 31.5 -70 88.5 q-24.5 57 -24.5 133 q0 115 53.5 183 q53.5 68 148.5 68 q108 0 152 -91 l0 148 l-124 0 q-14 0 -23.5 9 q-9.5 9 -9.5 22 q0 13 9.5 21.5 q9.5 8.5 23.5 8.5 l124 0 l0 60 q0 17 11.5 28 q11.5 11 29.5 11 q17 0 28.5 -11 q11.5 -11 11.5 -28 l0 -60 l48 0 q15 0 24.5 -8.5 q9.5 -8.5 9.5 -21.5 q0 -13 -9.5 -22 q-9.5 -9 -24.5 -9 l-48 0 l0 -521 q0 -17 -11.5 -27.5 q-11.5 -10.5 -28.5 -10.5 q-17 0 -28.5 10.5 q-11.5 10.5 -11.5 27.5 l0 54 q-44 -94 -153 -94 ZM281 56 q64 0 100.5 47.5 q36.5 47.5 36.5 139.5 q0 91 -36.5 139 q-36.5 48 -100.5 48 q-63 0 -100 -48 q-37 -48 -37 -139 q0 -92 36.5 -139.5 q36.5 -47.5 100.5 -47.5 ZM105 -140 q-14 0 -23.5 9 q-9.5 9 -9.5 22 q0 12 9.5 21 q9.5 9 23.5 9 l367 0 q14 0 23.5 -9 q9.5 -9 9.5 -21 q0 -13 -9.5 -22 q-9.5 -9 -23.5 -9 l-367 0 Z" /><glyph glyph-name="Euro" unicode="&#x20ac;" d="M387 -9 q-104 0 -173.5 66 q-69.5 66 -90.5 189 l-78 0 q-13 0 -22 9 q-9 9 -9 22 q0 12 9 21 q9 9 22 9 l70 0 q-1 22 -1 46.5 q0 24.5 2 45.5 l-71 0 q-13 0 -22 9 q-9 9 -9 21 q0 13 9 22 q9 9 22 9 l78 0 q22 122 91 188 q69 66 173 66 q52 0 99.5 -17.5 q47.5 -17.5 83.5 -55.5 q17 -15 13.5 -34 q-3.5 -19 -19.5 -26.5 q-16 -7.5 -36 9.5 q-28 28 -62.5 39.5 q-34.5 11.5 -72.5 11.5 q-71 0 -119 -45 q-48 -45 -67 -136 l143 0 q12 0 21 -9 q9 -9 9 -22 q0 -12 -9 -21 q-9 -9 -21 -9 l-151 0 q-3 -44 0 -92 l151 0 q12 0 21 -9 q9 -9 9 -21 q0 -13 -9 -22 q-9 -9 -21 -9 l-143 0 q18 -92 66.5 -137 q48.5 -45 119.5 -45 q39 0 72 11.5 q33 11.5 64 39.5 q20 16 35.5 8.5 q15.5 -7.5 19 -25 q3.5 -17.5 -12.5 -33.5 q-35 -38 -83 -56 q-48 -18 -101 -18 Z" /><glyph glyph-name="florin" unicode="&#x192;" d="M70 -189 q-16 0 -26 9.5 q-10 9.5 -10 23.5 q0 14 9.5 23.5 q9.5 9.5 24.5 9.5 l20 0 q45 0 72 23.5 q27 23.5 40 81.5 l94 441 l-92 0 q-15 0 -25.5 9 q-10.5 9 -10.5 23 q0 13 10.5 22 q10.5 9 25.5 9 l105 0 l13 60 q17 81 63 124.5 q46 43.5 126 43.5 l23 0 q15 0 23.5 -9.5 q8.5 -9.5 8.5 -23.5 q0 -15 -8 -25 q-8 -10 -21 -10 l-20 0 q-48 0 -75.5 -22.5 q-27.5 -22.5 -39.5 -81.5 l-12 -56 l95 0 q15 0 25.5 -9 q10.5 -9 10.5 -22 q0 -14 -10.5 -23 q-10.5 -9 -25.5 -9 l-108 0 l-95 -445 q-18 -80 -63.5 -123.5 q-45.5 -43.5 -123.5 -43.5 l-23 0 Z" /><glyph glyph-name="franc" unicode="&#x20a3;" d="M156 -7 q-18 0 -29.5 12 q-11.5 12 -11.5 30 l0 105 l-50 0 q-14 0 -23.5 9 q-9.5 9 -9.5 21 q0 13 9.5 22 q9.5 9 23.5 9 l50 0 l0 468 q0 16 10 26 q10 10 25 10 l369 0 q16 0 26 -9.5 q10 -9.5 10 -24.5 q0 -14 -10 -24.5 q-10 -10.5 -26 -10.5 l-322 0 l0 -236 l302 0 q15 0 25.5 -9.5 q10.5 -9.5 10.5 -24.5 q0 -14 -10.5 -24 q-10.5 -10 -25.5 -10 l-302 0 l0 -131 l187 0 q14 0 23.5 -9 q9.5 -9 9.5 -22 q0 -12 -9.5 -21 q-9.5 -9 -23.5 -9 l-187 0 l0 -105 q0 -18 -11.5 -30 q-11.5 -12 -29.5 -12 Z" /><glyph glyph-name="uni20B2" unicode="&#x20b2;" d="M340 -122 q-15 0 -24.5 10 q-9.5 10 -9.5 25 l0 86 q-119 13 -187 106 q-68 93 -68 248 q0 154 68 247.5 q68 93.5 187 106.5 l0 85 q0 15 9.5 25 q9.5 10 24.5 10 q14 0 24 -10 q10 -10 10 -25 l0 -84 q38 -3 84 -20 q46 -17 83 -54 q13 -11 13.5 -25.5 q0.5 -14.5 -7.5 -25.5 q-8 -11 -21 -13 q-13 -2 -27 10 q-32 29 -69 41.5 q-37 12.5 -81 12.5 q-103 0 -157.5 -74 q-54.5 -74 -54.5 -207 q0 -134 54.5 -208.5 q54.5 -74.5 157.5 -74.5 q29 0 63 6 q34 6 66 19 l0 207 l-114 0 q-16 0 -25.5 9.5 q-9.5 9.5 -9.5 24.5 q0 13 9.5 22 q9.5 9 25.5 9 l151 0 q15 0 25 -10 q10 -10 10 -25 l0 -263 q0 -21 -18 -29 q-69 -33 -158 -43 l0 -84 q0 -15 -9.5 -25 q-9.5 -10 -24.5 -10 Z" /><glyph glyph-name="uni20B4" unicode="&#x20b4;" d="M286 -9 q-95 0 -148 39 q-53 39 -53 108 q0 29 10.5 55.5 q10.5 26.5 34.5 52.5 l-36 0 q-15 0 -24 9 q-9 9 -9 22 q0 12 9.5 21 q9.5 9 26.5 9 l92 0 l113 92 l-208 0 q-15 0 -24 9 q-9 9 -9 21 q0 13 9 22 q9 9 24 9 l277 0 q37 32 50 55 q13 23 13 53 q0 37 -30 56 q-30 19 -87 19 q-87 0 -160 -51 q-16 -10 -29 -6.5 q-13 3.5 -20 14.5 q-7 11 -5 24 q2 13 15 22 q93 68 221 68 q85 0 132.5 -34.5 q47.5 -34.5 47.5 -97.5 q0 -33 -13 -62 q-13 -29 -44 -60 l42 0 q14 0 23.5 -9 q9.5 -9 9.5 -22 q0 -12 -9.5 -21 q-9.5 -9 -23.5 -9 l-106 0 l-111 -92 l217 0 q14 0 23.5 -9 q9.5 -9 9.5 -21 q0 -13 -9.5 -22 q-9.5 -9 -23.5 -9 l-285 0 q-51 -46 -51 -101 q0 -39 35 -61 q35 -22 101 -22 q47 0 89.5 13.5 q42.5 13.5 81.5 43.5 q22 15 37 6 q15 -9 17.5 -27 q2.5 -18 -13.5 -31 q-36 -33 -97.5 -54.5 q-61.5 -21.5 -132.5 -21.5 Z" /><glyph glyph-name="uni20AD" unicode="&#x20ad;" d="M154 -7 q-18 0 -29.5 12 q-11.5 12 -11.5 30 l0 288 l-70 0 q-14 0 -24 8.5 q-10 8.5 -10 21.5 q0 13 10 21.5 q10 8.5 24 8.5 l70 0 l0 288 q0 18 11.5 29.5 q11.5 11.5 29.5 11.5 q17 0 28.5 -11.5 q11.5 -11.5 11.5 -29.5 l0 -288 l2 0 l281 309 q14 18 34 18 q19 0 31 -16.5 q12 -16.5 -5 -37.5 l-247 -273 l230 0 q14 0 23.5 -8.5 q9.5 -8.5 9.5 -21.5 q0 -13 -9.5 -21.5 q-9.5 -8.5 -23.5 -8.5 l-230 0 l247 -274 q18 -22 6.5 -39 q-11.5 -17 -30.5 -17 q-20 0 -38 22 l-279 308 l-2 0 l0 -288 q0 -18 -11.5 -30 q-11.5 -12 -28.5 -12 Z" /><glyph glyph-name="lira" unicode="&#x20a4;" d="M76 0 q-15 0 -25 10.5 q-10 10.5 -10 25.5 q0 14 10 24 q10 10 25 10 l70 0 l0 176 l-72 0 q-14 0 -23.5 9 q-9.5 9 -9.5 22 q0 12 9.5 21 q9.5 9 23.5 9 l72 0 l0 92 l-73 0 q-14 0 -23 9 q-9 9 -9 21 q0 13 9 22 q9 9 23 9 l73 0 l0 50 q0 96 54 150 q54 54 162 54 q48 0 97 -15.5 q49 -15.5 85 -44.5 q15 -11 16.5 -25.5 q1.5 -14.5 -6 -26.5 q-7.5 -12 -20.5 -15.5 q-13 -3.5 -28 7.5 q-32 26 -67.5 38 q-35.5 12 -77.5 12 q-133 0 -133 -130 l0 -54 l154 0 q13 0 23 -9 q10 -9 10 -22 q0 -12 -10 -21 q-10 -9 -23 -9 l-154 0 l0 -92 l154 0 q13 0 23 -9 q10 -9 10 -21 q0 -13 -10 -22 q-10 -9 -23 -9 l-154 0 l0 -176 l296 0 q15 0 25 -10 q10 -10 10 -24 q0 -15 -10 -25.5 q-10 -10.5 -25 -10.5 l-448 0 Z" /><glyph glyph-name="uni20BA" unicode="&#x20ba;" d="M205 0 q-17 0 -29 12 q-12 12 -12 30 l0 205 l-63 -35 q-20 -11 -33.5 -1.5 q-13.5 9.5 -13 26 q0.5 16.5 20.5 27.5 l89 50 l0 92 l-63 -34 q-20 -11 -33 -1.5 q-13 9.5 -13 26.5 q0 17 20 29 l89 49 l0 196 q0 18 12 29.5 q12 11.5 29 11.5 q18 0 29.5 -11.5 q11.5 -11.5 11.5 -29.5 l0 -151 l142 78 q21 12 35 3 q14 -9 14 -26 q0 -17 -21 -28 l-170 -95 l0 -92 l142 79 q22 11 35 2 q13 -9 12.5 -26.5 q-0.5 -17.5 -20.5 -28.5 l-169 -94 l0 -221 l117 0 q61 0 88 24.5 q27 24.5 27 81.5 l0 31 q0 17 11 27.5 q11 10.5 28 10.5 q17 0 28 -10.5 q11 -10.5 11 -29.5 l0 -34 q0 -88 -46.5 -130 q-46.5 -42 -144.5 -42 l-160 0 Z" /><glyph glyph-name="uni20BC" unicode="&#x20bc;" d="M98 -7 q-18 0 -29.5 11.5 q-11.5 11.5 -11.5 31.5 l0 166 q0 106 21 189.5 q21 83.5 67 135.5 q46 52 121 63 l0 86 q0 36 34 36 q34 0 34 -36 l0 -86 q75 -11 121 -63 q46 -52 67 -135 q21 -83 21 -190 l0 -166 q0 -43 -40 -43 q-41 0 -41 43 l0 166 q0 142 -30 221.5 q-30 79.5 -98 92.5 l0 -327 q0 -36 -34 -36 q-34 0 -34 36 l0 327 q-68 -14 -98 -93.5 q-30 -79.5 -30 -220.5 l0 -166 q0 -43 -40 -43 Z" /><glyph glyph-name="uni20A6" unicode="&#x20a6;" d="M148 -7 q-18 0 -28 10.5 q-10 10.5 -10 29.5 l0 213 l-67 0 q-34 0 -34 31 q0 30 34 30 l67 0 l0 92 l-67 0 q-34 0 -34 30 q0 31 34 31 l67 0 l0 209 q0 20 11 31.5 q11 11.5 29 11.5 q15 0 26.5 -8 q11.5 -8 19.5 -27 l219 -494 l0 489 q0 19 10 29.5 q10 10.5 28 10.5 q37 0 37 -40 l0 -212 l67 0 q34 0 34 -31 q0 -30 -34 -30 l-67 0 l0 -92 l67 0 q34 0 34 -30 q0 -31 -34 -31 l-67 0 l0 -210 q0 -43 -39 -43 q-15 0 -27 8 q-12 8 -20 27 l-219 495 l0 -490 q0 -40 -37 -40 Z" /><glyph glyph-name="peseta" unicode="&#x20a7;" d="M151 -7 q-41 0 -41 44 l0 411 l-67 0 q-34 0 -34 30 q0 30 34 30 l67 0 l0 155 q0 42 42 42 l123 0 q103 0 162.5 -49.5 q59.5 -49.5 67.5 -147.5 l52 0 q34 0 34 -30 q0 -30 -34 -30 l-52 0 q-9 -95 -69.5 -146 q-60.5 -51 -160.5 -51 l-83 0 l0 -214 q0 -44 -41 -44 ZM192 322 l87 0 q74 0 112.5 38 q38.5 38 38.5 118 q0 81 -38 118.5 q-38 37.5 -113 37.5 l-87 0 l0 -312 Z" /><glyph glyph-name="uni20B1" unicode="&#x20b1;" d="M151 -7 q-41 0 -41 44 l0 334 l-67 0 q-34 0 -34 31 q0 30 34 30 l67 0 l0 92 l-67 0 q-34 0 -34 30 q0 31 34 31 l67 0 l0 78 q0 42 42 42 l123 0 q79 0 133 -29.5 q54 -29.5 79 -90.5 l71 0 q33 0 33 -31 q0 -30 -33 -30 l-55 0 q7 -47 -1 -92 l56 0 q33 0 33 -30 q0 -31 -33 -31 l-73 0 q-24 -60 -79 -90 q-55 -30 -131 -30 l-83 0 l0 -214 q0 -44 -41 -44 ZM192 322 l87 0 q74 0 112.5 38 q38.5 38 38.5 118 q0 81 -38 118.5 q-38 37.5 -113 37.5 l-87 0 l0 -312 Z" /><glyph glyph-name="uni20BD" unicode="&#x20bd;" d="M152 -7 q-42 0 -42 44 l0 111 l-67 0 q-34 0 -34 30 q0 30 34 30 l67 0 l0 93 l-67 0 q-34 0 -34 30 q0 30 34 30 l67 0 l0 302 q0 42 42 42 l188 0 q111 0 172.5 -55 q61.5 -55 61.5 -150 q0 -91 -62 -145 q-62 -54 -165 -54 l-154 0 l0 -93 l149 0 q33 0 33 -30 q0 -30 -33 -30 l-149 0 l0 -111 q0 -44 -41 -44 ZM192 361 l142 0 q77 0 118 33.5 q41 33.5 41 102.5 q0 137 -160 137 l-141 0 l0 -273 Z" /><glyph glyph-name="uni20B9" unicode="&#x20b9;" d="M476 -7 q-20 0 -31 9 q-11 9 -18 22 l-133 201 q-26 41 -54 57.5 q-28 16.5 -76 16.5 l-114 0 q-36 0 -36 35 q0 33 36 33 l174 0 q161 0 174 124 l-350 0 q-34 0 -34 30 q0 30 34 30 l345 0 q-26 94 -161 94 l-184 0 q-34 0 -34 30 q0 30 34 30 l504 0 q34 0 34 -30 q0 -30 -34 -30 l-134 0 q45 -35 57 -94 l77 0 q34 0 34 -30 q0 -30 -34 -30 l-73 0 q-4 -76 -51 -124 q-47 -48 -130 -60 q48 -14 89 -76 l118 -178 q13 -22 4.5 -41 q-8.5 -19 -33.5 -19 Z" /><glyph glyph-name="sterling" unicode="£" d="M76 0 q-15 0 -25 10.5 q-10 10.5 -10 25.5 q0 14 10 24 q10 10 25 10 l70 0 l0 253 l-73 0 q-14 0 -23 8.5 q-9 8.5 -9 21.5 q0 14 9 22.5 q9 8.5 23 8.5 l73 0 l0 126 q0 96 54 150 q54 54 162 54 q51 0 102 -17 q51 -17 85 -47 q15 -12 16 -26 q1 -14 -7 -25 q-8 -11 -21.5 -14 q-13.5 -3 -28.5 8 q-33 28 -69.5 39.5 q-36.5 11.5 -77.5 11.5 q-133 0 -133 -130 l0 -130 l154 0 q14 0 23.5 -8.5 q9.5 -8.5 9.5 -22.5 q0 -13 -9.5 -21.5 q-9.5 -8.5 -23.5 -8.5 l-154 0 l0 -253 l296 0 q15 0 25 -10 q10 -10 10 -24 q0 -15 -10 -25.5 q-10 -10.5 -25 -10.5 l-448 0 Z" /><glyph glyph-name="uni20B8" unicode="&#x20b8;" d="M44 645 q-34 0 -34 30 q0 30 34 30 l512 0 q34 0 34 -30 q0 -30 -34 -30 l-512 0 ZM300 -7 q-41 0 -41 44 l0 455 l-215 0 q-34 0 -34 30 q0 30 34 30 l512 0 q34 0 34 -30 q0 -30 -34 -30 l-215 0 l0 -455 q0 -44 -41 -44 Z" /><glyph glyph-name="uni20AE" unicode="&#x20ae;" d="M300 -7 q-41 0 -41 43 l0 158 l-108 -58 q-20 -10 -31.5 0 q-11.5 10 -11 26.5 q0.5 16.5 19.5 26.5 l131 70 l0 100 l-108 -58 q-19 -10 -31 0 q-12 10 -11.5 26.5 q0.5 16.5 19.5 25.5 l131 71 l0 210 l-217 0 q-38 0 -38 36 q0 35 38 35 l517 0 q37 0 37 -35 q0 -36 -37 -36 l-217 0 l0 -168 l108 58 q19 10 31 0 q12 -10 11 -26.5 q-1 -16.5 -19 -25.5 l-131 -71 l0 -100 l108 58 q19 10 31 0 q12 -10 11 -26.5 q-1 -16.5 -19 -25.5 l-131 -71 l0 -200 q0 -43 -42 -43 Z" /><glyph glyph-name="uni20A9" unicode="&#x20a9;" d="M181 -7 q-28 0 -32 32 l-30 224 l-76 0 q-34 0 -34 30 q0 30 34 30 l67 0 l-11 93 l-56 0 q-34 0 -34 30 q0 30 34 30 l47 0 l-27 212 q-3 19 5 28.5 q8 9.5 24 9.5 q31 0 35 -35 l60 -510 l85 518 q4 27 28 27 q24 0 28 -27 l85 -519 l60 511 q4 34 35 34 q16 0 24 -9.5 q8 -9.5 5 -28.5 l-27 -211 l43 0 q34 0 34 -30 q0 -30 -34 -30 l-52 0 l-12 -93 l64 0 q34 0 34 -30 q0 -30 -34 -30 l-72 0 l-30 -224 q-4 -32 -32 -32 q-28 0 -33 32 l-86 513 l-86 -513 q-5 -32 -33 -32 Z" /><glyph glyph-name="yen" unicode="¥" d="M300 -7 q-41 0 -41 44 l0 138 l-160 0 q-34 0 -34 30 q0 30 34 30 l160 0 l0 93 l-160 0 q-34 0 -34 30 q0 30 34 30 l124 0 l-193 268 q-13 19 -4 37.5 q9 18.5 32 18.5 q25 0 42 -26 l200 -281 l200 281 q17 26 43 26 q23 0 32 -18 q9 -18 -6 -39 l-191 -267 l123 0 q34 0 34 -30 q0 -30 -34 -30 l-160 0 l0 -93 l160 0 q34 0 34 -30 q0 -30 -34 -30 l-160 0 l0 -138 q0 -44 -41 -44 Z" /><glyph glyph-name="periodcentered" unicode="&#x2219;" d="M301 211 q-25 0 -40 15.5 q-15 15.5 -15 39.5 q0 24 15 39.5 q15 15.5 40 15.5 q25 0 39.5 -15.5 q14.5 -15.5 14.5 -39.5 q0 -24 -14.5 -39.5 q-14.5 -15.5 -39.5 -15.5 Z" /><glyph glyph-name="uni2052" unicode="&#x2052;" d="M191 -38 q-6 -16 -18.5 -20 q-12.5 -4 -25 1 q-12.5 5 -18 17 q-5.5 12 0.5 29 l279 738 q6 16 18.5 20 q12.5 4 25 -1 q12.5 -5 18.5 -17 q6 -12 -1 -28 l-279 -739 ZM162 557 q-25 0 -40 15.5 q-15 15.5 -15 39.5 q0 24 15 39.5 q15 15.5 40 15.5 q25 0 40 -15.5 q15 -15.5 15 -39.5 q0 -24 -15 -39.5 q-15 -15.5 -40 -15.5 ZM437 38 q-25 0 -40 15.5 q-15 15.5 -15 39.5 q0 25 15 40 q15 15 40 15 q25 0 39.5 -15 q14.5 -15 14.5 -40 q0 -24 -14.5 -39.5 q-14.5 -15.5 -39.5 -15.5 Z" /><glyph glyph-name="fraction" unicode="&#x2215;" d="M213 -34 q-5 -17 -17.5 -22.5 q-12.5 -5.5 -25 -1.5 q-12.5 4 -19.5 15 q-7 11 -2 28 l238 738 q5 16 17.5 21.5 q12.5 5.5 25 2 q12.5 -3.5 19.5 -15 q7 -11.5 2 -27.5 l-238 -738 Z" /><glyph glyph-name="plus" unicode="+" d="M300 33 q-32 0 -32 33 l0 190 l-187 0 q-32 0 -32 31 q0 31 32 31 l187 0 l0 184 q0 33 32 33 q32 0 32 -33 l0 -184 l187 0 q32 0 32 -31 q0 -31 -32 -31 l-187 0 l0 -190 q0 -33 -32 -33 Z" /><glyph glyph-name="minus" unicode="&#x2212;" d="M81 256 q-32 0 -32 31 q0 31 32 31 l438 0 q32 0 32 -31 q0 -31 -32 -31 l-438 0 Z" /><glyph glyph-name="multiply" unicode="×" d="M129 70 q-16 -16 -32 -10 q-16 6 -22 21.5 q-6 15.5 10 31.5 l171 171 l-174 174 q-16 16 -10 32.5 q6 16.5 22.5 22 q16.5 5.5 31.5 -10.5 l174 -173 l173 173 q15 16 31.5 10 q16.5 -6 22.5 -22 q6 -16 -10 -32 l-173 -174 l171 -171 q16 -16 10 -32 q-6 -16 -22 -21.5 q-16 -5.5 -32 10.5 l-171 171 l-171 -171 Z" /><glyph glyph-name="divide" unicode="÷" d="M294 441 q-44 0 -44 45 q0 44 44 44 q44 0 44 -44 q0 -45 -44 -45 ZM81 256 q-32 0 -32 31 q0 31 32 31 l438 0 q32 0 32 -31 q0 -31 -32 -31 l-438 0 ZM294 43 q-44 0 -44 45 q0 44 44 44 q44 0 44 -44 q0 -45 -44 -45 Z" /><glyph glyph-name="equal" unicode="=" d="M81 356 q-32 0 -32 31 q0 31 32 31 l438 0 q32 0 32 -31 q0 -31 -32 -31 l-438 0 ZM81 157 q-32 0 -32 31 q0 30 32 30 l438 0 q32 0 32 -30 q0 -31 -32 -31 l-438 0 Z" /><glyph glyph-name="notequal" unicode="&#x2260;" d="M226 44 q-8 -20 -25 -20.5 q-17 -0.5 -28.5 11.5 q-11.5 12 -3.5 32 l37 90 l-125 0 q-32 0 -32 31 q0 30 32 30 l150 0 l58 138 l-208 0 q-32 0 -32 31 q0 31 32 31 l233 0 l47 112 q8 20 25 21 q17 1 28.5 -11.5 q11.5 -12.5 3.5 -32.5 l-37 -89 l138 0 q32 0 32 -31 q0 -31 -32 -31 l-164 0 l-57 -138 l221 0 q32 0 32 -30 q0 -31 -32 -31 l-246 0 l-47 -113 Z" /><glyph glyph-name="greater" unicode="&gt;" d="M88 49 q-20 -9 -32.5 2.5 q-12.5 11.5 -11.5 29 q1 17.5 20 26.5 l402 180 l-402 180 q-19 9 -20 26.5 q-1 17.5 11.5 29 q12.5 11.5 32.5 2.5 l426 -193 q32 -14 32 -45 q0 -31 -32 -45 l-426 -193 Z" /><glyph glyph-name="less" unicode="&lt;" d="M512 49 l-425 193 q-33 14 -33 45 q0 31 33 45 l425 193 q21 9 33.5 -2.5 q12.5 -11.5 11.5 -29 q-1 -17.5 -21 -26.5 l-402 -180 l402 -180 q20 -9 21 -26.5 q1 -17.5 -11.5 -29 q-12.5 -11.5 -33.5 -2.5 Z" /><glyph glyph-name="greaterequal" unicode="&#x2265;" d="M92 129 q-21 -7 -33 6 q-12 13 -9.5 30.5 q2.5 17.5 23.5 24.5 l382 137 l-382 137 q-21 7 -23.5 24.5 q-2.5 17.5 9.5 30.5 q12 13 33 5 l430 -158 q29 -10 29 -39 q0 -29 -29 -40 l-430 -158 ZM81 0 q-32 0 -32 31 q0 31 32 31 l438 0 q32 0 32 -31 q0 -31 -32 -31 l-438 0 Z" /><glyph glyph-name="lessequal" unicode="&#x2264;" d="M508 129 l-430 158 q-29 11 -29 40 q0 29 29 39 l430 158 q21 8 32.5 -5 q11.5 -13 9.5 -30.5 q-2 -17.5 -23 -24.5 l-382 -137 l382 -137 q21 -7 23 -24.5 q2 -17.5 -9.5 -30.5 q-11.5 -13 -32.5 -6 ZM81 0 q-32 0 -32 31 q0 31 32 31 l437 0 q32 0 32 -31 q0 -31 -32 -31 l-437 0 Z" /><glyph glyph-name="plusminus" unicode="±" d="M300 120 q-32 0 -32 34 l0 143 l-186 0 q-33 0 -33 32 q0 30 33 30 l186 0 l0 144 q0 33 32 33 q32 0 32 -33 l0 -144 l187 0 q32 0 32 -30 q0 -32 -32 -32 l-187 0 l0 -143 q0 -34 -32 -34 ZM81 0 q-32 0 -32 31 q0 31 32 31 l438 0 q32 0 32 -31 q0 -31 -32 -31 l-438 0 Z" /><glyph glyph-name="approxequal" unicode="&#x2248;" d="M415 317 q-26 0 -55.5 10 q-29.5 10 -70.5 32 q-40 23 -61.5 30.5 q-21.5 7.5 -37.5 7.5 q-22 0 -40.5 -10 q-18.5 -10 -34.5 -35 q-10 -17 -25.5 -15.5 q-15.5 1.5 -24 14.5 q-8.5 13 1.5 30 q20 39 51 58 q31 19 68 19 q25 0 53.5 -9.5 q28.5 -9.5 68.5 -31.5 q37 -20 60 -30 q23 -10 42 -10 q22 0 41 10 q19 10 34 36 q11 17 26 15.5 q15 -1.5 23.5 -15 q8.5 -13.5 -0.5 -30.5 q-20 -38 -51 -57 q-31 -19 -68 -19 ZM415 117 q-26 0 -55.5 10 q-29.5 10 -70.5 32 q-40 23 -61.5 30.5 q-21.5 7.5 -37.5 7.5 q-22 0 -40.5 -10 q-18.5 -10 -34.5 -35 q-10 -17 -25.5 -15.5 q-15.5 1.5 -24 14.5 q-8.5 13 1.5 30 q20 39 51 58 q31 19 68 19 q25 0 53.5 -9.5 q28.5 -9.5 68.5 -31.5 q37 -20 60 -30 q23 -10 42 -10 q22 0 41 10 q19 10 34 36 q11 17 26 15.5 q15 -1.5 23.5 -15 q8.5 -13.5 -0.5 -30.5 q-20 -38 -51 -57 q-31 -19 -68 -19 Z" /><glyph glyph-name="asciitilde" unicode="~" d="M415 217 q-26 0 -55.5 10 q-29.5 10 -70.5 32 q-40 23 -61.5 30.5 q-21.5 7.5 -37.5 7.5 q-22 0 -40.5 -10 q-18.5 -10 -34.5 -35 q-10 -17 -25.5 -15.5 q-15.5 1.5 -24 14.5 q-8.5 13 1.5 30 q20 39 51 58 q31 19 68 19 q25 0 53.5 -9.5 q28.5 -9.5 68.5 -31.5 q37 -20 60 -30 q23 -10 42 -10 q22 0 41 10 q19 10 34 36 q11 17 26 15.5 q15 -1.5 23.5 -15 q8.5 -13.5 -0.5 -30.5 q-20 -38 -51 -57 q-31 -19 -68 -19 Z" /><glyph glyph-name="logicalnot" unicode="¬" d="M512 142 q-32 0 -32 33 l0 183 l-399 0 q-32 0 -32 31 q0 31 32 31 l430 0 q33 0 33 -33 l0 -212 q0 -33 -32 -33 Z" /><glyph glyph-name="asciicircum" unicode="^" d="M91 133 q-21 0 -27.5 13 q-6.5 13 1.5 32 l195 430 q11 27 40 27 q28 0 40 -27 l195 -430 q9 -20 2.5 -32.5 q-6.5 -12.5 -28.5 -12.5 q-22 0 -33 26 l-176 391 l-176 -391 q-12 -26 -33 -26 Z" /><glyph glyph-name="emptyset" unicode="&#x2205;" d="M90 -7 q-12 -16 -27.5 -13 q-15.5 3 -23 16.5 q-7.5 13.5 5.5 31.5 l62 81 q-47 38 -75 93 q-28 55 -28 120 q0 56 22.5 107.5 q22.5 51.5 62.5 91 q40 39.5 94 62.5 q54 23 118 23 q85 0 157 -43 l63 82 q13 16 28.5 12.5 q15.5 -3.5 23 -17.5 q7.5 -14 -6.5 -31 l-62 -81 q42 -38 67 -91 q25 -53 25 -115 q0 -58 -23 -109 q-23 -51 -63.5 -90 q-40.5 -39 -94 -61 q-53.5 -22 -114.5 -22 q-39 0 -76.5 10 q-37.5 10 -70.5 28 l-64 -85 ZM142 154 l281 363 q-26 15 -57 23.5 q-31 8.5 -65 8.5 q-66 0 -118.5 -29.5 q-52.5 -29.5 -83.5 -81 q-31 -51.5 -31 -116.5 q0 -50 19.5 -93.5 q19.5 -43.5 54.5 -74.5 ZM301 94 q63 0 116 29.5 q53 29.5 85 80.5 q32 51 32 118 q0 47 -17.5 88 q-17.5 41 -47.5 72 l-280 -360 q24 -13 52.5 -20.5 q28.5 -7.5 59.5 -7.5 Z" /><glyph glyph-name="infinity" unicode="&#x221e;" d="M175 144 q-62 0 -97 40 q-35 40 -35 100 q0 59 35 99.5 q35 40.5 97 40.5 q32 0 66.5 -18 q34.5 -18 58.5 -61 q24 43 58.5 61 q34.5 18 66.5 18 q62 0 97 -40.5 q35 -40.5 35 -99.5 q0 -60 -35.5 -100 q-35.5 -40 -96.5 -40 q-32 0 -66.5 18.5 q-34.5 18.5 -58.5 60.5 q-24 -42 -58.5 -60.5 q-34.5 -18.5 -66.5 -18.5 ZM177 201 q24 0 51 16 q27 16 49 68 q-22 52 -49 67 q-27 15 -51 15 q-35 0 -54 -24 q-19 -24 -19 -59 q0 -35 19 -59 q19 -24 54 -24 ZM423 201 q34 0 53.5 24.5 q19.5 24.5 19.5 58.5 q0 35 -19.5 59 q-19.5 24 -53.5 24 q-24 0 -51 -15 q-27 -15 -49 -67 q22 -52 49 -68 q27 -16 51 -16 Z" /><glyph glyph-name="integral" unicode="&#x222b;" d="M155 -189 q-21 0 -31 10 q-10 10 -10.5 23 q-0.5 13 8 23 q8.5 10 25.5 11 q47 1 71.5 13 q24.5 12 33 35 q8.5 23 8.5 57 l0 562 q0 85 44 127 q44 42 141 42 q21 0 31 -10 q10 -10 10.5 -23 q0.5 -13 -8 -23 q-8.5 -10 -25.5 -11 q-47 -1 -71.5 -13 q-24.5 -12 -32.5 -35 q-8 -23 -8 -57 l0 -562 q0 -85 -44 -127 q-44 -42 -142 -42 Z" /><glyph glyph-name="Omega" unicode="&#x2126;" d="M74 0 q-37 0 -37 35 q0 35 37 35 l105 0 q-128 117 -128 326 q0 97 28 168.5 q28 71.5 83.5 110.5 q55.5 39 137.5 39 q82 0 137.5 -39 q55.5 -39 83.5 -110.5 q28 -71.5 28 -168.5 q0 -210 -128 -326 l105 0 q38 0 38 -35 q0 -35 -38 -35 l-144 0 q-44 0 -44 36 q0 15 6 26.5 q6 11.5 17 25.5 q57 65 80.5 140.5 q23.5 75.5 23.5 162.5 q0 252 -165 252 q-82 0 -123.5 -64 q-41.5 -64 -41.5 -188 q0 -87 23.5 -162.5 q23.5 -75.5 81.5 -140.5 q11 -14 16.5 -25 q5.5 -11 5.5 -27 q0 -36 -43 -36 l-145 0 Z" /><glyph glyph-name="Delta" unicode="&#x2206;" d="M74 0 q-30 0 -40.5 17.5 q-10.5 17.5 2.5 53.5 l221 609 q12 32 43 32 q31 0 43 -32 l222 -609 q13 -35 2 -53 q-11 -18 -41 -18 l-452 0 ZM299 602 l-191 -533 l384 0 l-191 533 l-2 0 Z" /><glyph glyph-name="product" unicode="&#x220f;" d="M96 -187 q-40 0 -40 40 l0 809 q0 43 44 43 l401 0 q43 0 43 -43 l0 -809 q0 -40 -40 -40 q-18 0 -29.5 10.5 q-11.5 10.5 -11.5 29.5 l0 783 l-326 0 l0 -783 q0 -40 -41 -40 Z" /><glyph glyph-name="radical" unicode="&#x221a;" d="M281 -185 q-35 0 -48 37 l-136 398 l-56 0 q-35 0 -35 34 q0 32 35 32 l74 0 q34 0 45 -33 l120 -364 l225 811 q9 35 41 35 q19 0 27.5 -11.5 q8.5 -11.5 2.5 -31.5 l-248 -870 q-10 -37 -47 -37 Z" /><glyph glyph-name="mu" unicode="µ" d="M135 -187 q-40 0 -40 41 l0 598 q0 41 40 41 q41 0 41 -41 l0 -266 q0 -65 26 -95.5 q26 -30.5 83 -30.5 q63 0 102 41 q39 41 39 110 l0 241 q0 41 40 41 q41 0 41 -41 l0 -417 q0 -42 -39 -42 q-19 0 -29.5 10.5 q-10.5 10.5 -10.5 26.5 l0 58 q-20 -47 -58.5 -72 q-38.5 -25 -85.5 -25 q-37 0 -66 11 q-29 11 -49 40 l5 -187 q2 -42 -39 -42 Z" /><glyph glyph-name="partialdiff" unicode="&#x2202;" d="M294 -9 q-70 0 -123.5 30.5 q-53.5 30.5 -84 84.5 q-30.5 54 -30.5 125 q0 70 29.5 124.5 q29.5 54.5 82 85.5 q52.5 31 119.5 31 q59 0 103.5 -22.5 q44.5 -22.5 69.5 -67.5 q-10 132 -76 196.5 q-66 64.5 -180 68.5 q-8 1 -16.5 1 q-8.5 0 -17.5 0 q-34 2 -34 30 q0 28 29 33 q12 2 23 2.5 q11 0.5 21 0.5 q164 0 249.5 -104 q85.5 -104 85.5 -298 q0 -153 -66 -237 q-66 -84 -184 -84 ZM299 56 q72 0 115.5 53 q43.5 53 43.5 142 q0 69 -45 112.5 q-45 43.5 -115 43.5 q-71 0 -115.5 -48.5 q-44.5 -48.5 -44.5 -126.5 q0 -79 44.5 -127.5 q44.5 -48.5 116.5 -48.5 Z" /><glyph glyph-name="percent" unicode="%" d="M300 -1 q-9 -16 -22 -19 q-13 -3 -24.5 3.5 q-11.5 6.5 -15.5 19.5 q-4 13 5 29 l386 672 q9 16 22 19 q13 3 24 -3.5 q11 -6.5 15.5 -19.5 q4.5 -13 -4.5 -29 l-386 -672 ZM226 282 q-80 0 -125 57 q-45 57 -45 159 q0 102 45 158.5 q45 56.5 125 56.5 q79 0 124.5 -56.5 q45.5 -56.5 45.5 -158.5 q0 -102 -45.5 -159 q-45.5 -57 -124.5 -57 ZM226 341 q46 0 73 39.5 q27 39.5 27 117.5 q0 78 -27 117 q-27 39 -73 39 q-47 0 -73.5 -39 q-26.5 -39 -26.5 -117 q0 -78 26.5 -117.5 q26.5 -39.5 73.5 -39.5 ZM704 -9 q-79 0 -124.5 57 q-45.5 57 -45.5 159 q0 101 45.5 158 q45.5 57 124.5 57 q80 0 125 -57 q45 -57 45 -158 q0 -102 -45 -159 q-45 -57 -125 -57 ZM704 50 q47 0 73.5 39.5 q26.5 39.5 26.5 117.5 q0 78 -26.5 117 q-26.5 39 -73.5 39 q-46 0 -72.5 -39 q-26.5 -39 -26.5 -117 q0 -79 26.5 -118 q26.5 -39 72.5 -39 Z" /><glyph glyph-name="perthousand" unicode="&#x2030;" d="M300 -1 q-9 -16 -22 -19 q-13 -3 -24.5 3.5 q-11.5 6.5 -15.5 19.5 q-4 13 5 29 l386 672 q10 16 23 19 q13 3 24 -3.5 q11 -6.5 15 -19.5 q4 -13 -5 -29 l-386 -672 ZM226 282 q-80 0 -125 57 q-45 57 -45 159 q0 102 45 158.5 q45 56.5 125 56.5 q79 0 124.5 -56.5 q45.5 -56.5 45.5 -158.5 q0 -102 -45.5 -159 q-45.5 -57 -124.5 -57 ZM226 341 q46 0 73 39.5 q27 39.5 27 117.5 q0 78 -27 117 q-27 39 -73 39 q-47 0 -73.5 -39 q-26.5 -39 -26.5 -117 q0 -78 26.5 -117.5 q26.5 -39.5 73.5 -39.5 ZM1101 -9 q-80 0 -125 57 q-45 57 -45 159 q0 101 45.5 158 q45.5 57 124.5 57 q79 0 124.5 -57 q45.5 -57 45.5 -158 q0 -102 -45.5 -159 q-45.5 -57 -124.5 -57 ZM704 -9 q-79 0 -124.5 57 q-45.5 57 -45.5 159 q0 101 45.5 158 q45.5 57 124.5 57 q80 0 125 -57 q45 -57 45 -158 q0 -102 -45 -159 q-45 -57 -125 -57 ZM1101 50 q47 0 73.5 39.5 q26.5 39.5 26.5 117.5 q0 78 -26.5 117 q-26.5 39 -73.5 39 q-47 0 -73.5 -39 q-26.5 -39 -26.5 -117 q0 -79 26.5 -118 q26.5 -39 73.5 -39 ZM704 50 q47 0 73.5 39.5 q26.5 39.5 26.5 117.5 q0 78 -26.5 117 q-26.5 39 -73.5 39 q-46 0 -72.5 -39 q-26.5 -39 -26.5 -117 q0 -79 26.5 -118 q26.5 -39 72.5 -39 Z" /><glyph glyph-name="lozenge" unicode="&#x25ca;" d="M300 -207 q-28 0 -40 28 l-201 433 q-6 15 -6 25 q0 10 6 24 l201 434 q12 28 40 28 q28 0 40 -28 l201 -434 q6 -14 6 -24 q0 -10 -6 -25 l-201 -433 q-12 -28 -40 -28 ZM300 -122 l184 401 l-184 401 l-184 -401 l184 -401 Z" /><glyph glyph-name="uniF8FF" unicode="&#xf8ff;" d="M175 28 q-13 -10 -20.5 -4.5 q-7.5 5.5 -3.5 21.5 l56 180 l-153 116 q-13 10 -9.5 19 q3.5 9 19.5 9 l189 0 l59 180 q5 15 15 15 q10 0 15 -15 l62 -180 l190 0 q17 0 20 -9 q3 -9 -10 -19 l-154 -116 l57 -180 q5 -15 -2.5 -21.5 q-7.5 -6.5 -21.5 3.5 l-156 109 l-152 -108 ZM281 210 q0 -15 14 -15 q14 0 14 15 l0 60 l-5 8 l5 4 l0 -12 l43 -67 q5 -8 13 -8 q12 0 12 12 l0 109 q0 15 -14 15 q-14 0 -14 -15 l0 -60 l5 -8 l-5 -4 l0 12 l-43 67 q-5 8 -13 8 q-12 0 -12 -12 l0 -109 Z" /><glyph glyph-name="at" unicode="@" d="M485 -163 q-127 0 -222.5 53.5 q-95.5 53.5 -148.5 151.5 q-53 98 -53 231 q0 98 31.5 179 q31.5 81 90 139.5 q58.5 58.5 138.5 90.5 q80 32 177 32 q116 0 203 -46.5 q87 -46.5 135.5 -129.5 q48.5 -83 48.5 -194 q0 -87 -23.5 -151 q-23.5 -64 -66.5 -99 q-43 -35 -100 -35 q-49 0 -79 23.5 q-30 23.5 -36 65.5 q-28 -44 -67.5 -66.5 q-39.5 -22.5 -83.5 -22.5 q-77 0 -119.5 48.5 q-42.5 48.5 -42.5 133.5 q0 73 28 130.5 q28 57.5 77 90.5 q49 33 111 33 q96 0 127 -78 l7 42 q5 32 37 32 q35 0 29 -37 l-40 -227 q-4 -26 -4 -47 q0 -67 60 -67 q57 0 93 63.5 q36 63.5 36 167.5 q0 95 -41.5 165 q-41.5 70 -115.5 109 q-74 39 -174 39 q-111 0 -195 -48 q-84 -48 -131 -134.5 q-47 -86.5 -47 -201.5 q0 -119 44 -204 q44 -85 125 -130.5 q81 -45.5 192 -45.5 q73 0 132.5 21 q59.5 21 101.5 57 q18 14 33 8 q15 -6 18 -22.5 q3 -16.5 -15 -31.5 q-46 -40 -115.5 -64 q-69.5 -24 -154.5 -24 ZM438 117 q45 0 79.5 26.5 q34.5 26.5 54.5 73.5 q20 47 20 108 q0 112 -102 112 q-44 0 -79 -25.5 q-35 -25.5 -55.5 -69.5 q-20.5 -44 -20.5 -101 q0 -60 27 -92 q27 -32 76 -32 Z" /><glyph glyph-name="ampersand" unicode="&amp;" d="M287 -9 q-106 0 -165.5 49 q-59.5 49 -59.5 129 q0 68 37 117 q37 49 111 98 l15 10 q-45 49 -63 87 q-18 38 -18 77 q0 70 47 113 q47 43 126 43 q69 0 113.5 -38.5 q44.5 -38.5 44.5 -104.5 q0 -52 -30 -95.5 q-30 -43.5 -110 -93.5 l164 -185 q38 73 47 188 q4 35 37 35 q37 0 33 -39 q-5 -71 -23 -130 q-18 -59 -45 -105 l90 -99 q19 -19 9.5 -36.5 q-9.5 -17.5 -32.5 -17.5 q-15 0 -24 5 q-9 5 -20 17 l-66 74 q-41 -47 -97 -72.5 q-56 -25.5 -121 -25.5 ZM317 651 q-43 0 -70 -25 q-27 -25 -27 -66 q0 -21 6 -38.5 q6 -17.5 21.5 -39 q15.5 -21.5 42.5 -52.5 q63 40 88.5 71 q25.5 31 25.5 66 q0 39 -24 61.5 q-24 22.5 -63 22.5 ZM291 58 q103 0 168 80 l-189 206 l-12 -8 q-64 -42 -90 -77 q-26 -35 -26 -84 q0 -55 38 -86 q38 -31 111 -31 Z" /><glyph glyph-name="paragraph" unicode="¶" d="M276 -187 q-32 0 -32 33 l0 464 q-60 0 -105 25.5 q-45 25.5 -69.5 70 q-24.5 44.5 -24.5 102.5 q0 57 24.5 101.5 q24.5 44.5 69.5 70 q45 25.5 106 25.5 l214 0 q42 0 42 -41 l0 -818 q0 -33 -32 -33 q-33 0 -33 33 l0 797 l-127 0 l0 -797 q0 -33 -33 -33 Z" /><glyph glyph-name="section" unicode="§" d="M248 -189 q-113 0 -180 49 q-16 11 -15 28.5 q1 17.5 14.5 27.5 q13.5 10 33.5 -1 q30 -20 69.5 -30.5 q39.5 -10.5 78.5 -10.5 q60 0 97 28.5 q37 28.5 37 82.5 q0 38 -19.5 65.5 q-19.5 27.5 -70.5 51.5 l-110 51 q-80 38 -110.5 78 q-30.5 40 -30.5 96 q0 36 16.5 70.5 q16.5 34.5 43.5 58.5 q-9 14 -14.5 33 q-5.5 19 -5.5 45 q0 56 27.5 96 q27.5 40 75.5 61.5 q48 21.5 108 21.5 q106 0 175 -49 q17 -11 15.5 -29 q-1.5 -18 -15.5 -28 q-14 -10 -33 2 q-29 20 -67.5 31 q-38.5 11 -76.5 11 q-56 0 -92.5 -29 q-36.5 -29 -36.5 -83 q0 -38 19.5 -65 q19.5 -27 70.5 -51 l110 -52 q81 -38 111 -78 q30 -40 30 -95 q0 -37 -16 -71 q-16 -34 -44 -59 q9 -13 14.5 -32.5 q5.5 -19.5 5.5 -45.5 q0 -56 -28 -96 q-28 -40 -76.5 -61.5 q-48.5 -21.5 -110.5 -21.5 ZM116 338 q0 -36 22.5 -65 q22.5 -29 83.5 -57 l94 -44 q30 -15 51.5 -30 q21.5 -15 35.5 -30 q26 32 26 75 q0 36 -22.5 64.5 q-22.5 28.5 -83.5 56.5 l-94 45 q-30 14 -51.5 29.5 q-21.5 15.5 -35.5 29.5 q-26 -32 -26 -74 Z" /><glyph glyph-name="copyright" unicode="©" d="M408 -9 q-77 0 -143 27.5 q-66 27.5 -115 77 q-49 49.5 -76.5 115 q-27.5 65.5 -27.5 142.5 q0 77 27.5 142.5 q27.5 65.5 76.5 114.5 q49 49 115 76.5 q66 27.5 143 27.5 q77 0 142.5 -27.5 q65.5 -27.5 114.5 -76.5 q49 -49 76.5 -114.5 q27.5 -65.5 27.5 -142.5 q0 -77 -27.5 -142.5 q-27.5 -65.5 -76.5 -115 q-49 -49.5 -114.5 -77 q-65.5 -27.5 -142.5 -27.5 ZM408 35 q67 0 124.5 24 q57.5 24 100 67.5 q42.5 43.5 66.5 101 q24 57.5 24 125.5 q0 68 -24 125.5 q-24 57.5 -66.5 100.5 q-42.5 43 -100 67 q-57.5 24 -124.5 24 q-67 0 -125 -24 q-58 -24 -100.5 -67 q-42.5 -43 -66.5 -100.5 q-24 -57.5 -24 -125.5 q0 -68 24 -125.5 q24 -57.5 66.5 -101 q42.5 -43.5 100.5 -67.5 q58 -24 125 -24 ZM421 137 q-96 0 -152 59.5 q-56 59.5 -56 158.5 q0 99 56 156 q56 57 152 57 q34 0 68 -11 q34 -11 61 -31 q15 -10 14 -26 q-1 -16 -13.5 -25 q-12.5 -9 -30.5 3 q-24 16 -48.5 23 q-24.5 7 -47.5 7 q-65 0 -102 -40 q-37 -40 -37 -113 q0 -73 37 -115.5 q37 -42.5 102 -42.5 q24 0 48 7 q24 7 49 24 q18 11 30 2 q12 -9 13 -24.5 q1 -15.5 -14 -25.5 q-27 -21 -61.5 -32 q-34.5 -11 -67.5 -11 Z" /><glyph glyph-name="registered" unicode="®" d="M408 -9 q-77 0 -143 27.5 q-66 27.5 -115 77 q-49 49.5 -76.5 115 q-27.5 65.5 -27.5 142.5 q0 77 27.5 142.5 q27.5 65.5 76.5 114.5 q49 49 115 76.5 q66 27.5 143 27.5 q77 0 142.5 -27.5 q65.5 -27.5 114.5 -76.5 q49 -49 76.5 -114.5 q27.5 -65.5 27.5 -142.5 q0 -77 -27.5 -142.5 q-27.5 -65.5 -76.5 -115 q-49 -49.5 -114.5 -77 q-65.5 -27.5 -142.5 -27.5 ZM408 35 q67 0 124.5 24 q57.5 24 100 67.5 q42.5 43.5 66.5 101 q24 57.5 24 125.5 q0 68 -24 125.5 q-24 57.5 -66.5 100.5 q-42.5 43 -100 67 q-57.5 24 -124.5 24 q-67 0 -125 -24 q-58 -24 -100.5 -67 q-42.5 -43 -66.5 -100.5 q-24 -57.5 -24 -125.5 q0 -68 24 -125.5 q24 -57.5 66.5 -101 q42.5 -43.5 100.5 -67.5 q58 -24 125 -24 ZM297 136 q-33 0 -33 35 l0 353 q0 40 40 40 l131 0 q68 0 104.5 -33 q36.5 -33 36.5 -89 q0 -94 -92 -114 q16 -6 27.5 -19 q11.5 -13 20.5 -37 l35 -92 q8 -21 -2 -32.5 q-10 -11.5 -28 -11.5 q-23 0 -31 26 l-42 110 q-9 25 -27.5 33.5 q-18.5 8.5 -44.5 8.5 l-62 0 l0 -143 q0 -35 -33 -35 ZM330 368 l97 0 q84 0 84 71 q0 71 -84 71 l-97 0 l0 -142 Z" /><glyph glyph-name="trademark" unicode="&#x2122;" d="M457 279 q-34 0 -34 34 l0 363 q0 17 9.5 25.5 q9.5 8.5 23.5 8.5 q15 0 22.5 -5 q7.5 -5 14.5 -18 l141 -254 l140 254 q7 13 15 18 q8 5 23 5 q13 0 22.5 -8.5 q9.5 -8.5 9.5 -25.5 l0 -363 q0 -34 -32 -34 q-34 0 -34 34 l0 258 l-118 -212 q-9 -16 -26 -16 q-16 0 -26 16 l-118 211 l0 -257 q0 -34 -33 -34 ZM183 279 q-36 0 -36 38 l0 326 l-111 0 q-34 0 -34 31 q0 31 34 31 l296 0 q33 0 33 -31 q0 -31 -33 -31 l-111 0 l0 -326 q0 -38 -38 -38 Z" /><glyph glyph-name="degree" unicode="°" d="M186 418 q-43 0 -76.5 19.5 q-33.5 19.5 -53 53 q-19.5 33.5 -19.5 75.5 q0 42 19.5 75.5 q19.5 33.5 53 53 q33.5 19.5 76.5 19.5 q42 0 75 -19.5 q33 -19.5 52.5 -53 q19.5 -33.5 19.5 -75.5 q0 -42 -19.5 -75.5 q-19.5 -33.5 -52.5 -53 q-33 -19.5 -75 -19.5 ZM186 473 q39 0 64 26.5 q25 26.5 25 66.5 q0 41 -25 67 q-25 26 -64 26 q-40 0 -65 -26 q-25 -26 -25 -67 q0 -40 25 -66.5 q25 -26.5 65 -26.5 Z" /><glyph glyph-name="minute" unicode="&#x2032;" d="M111 421 q-26 0 -29 32 l-15 210 q-3 21 10 35 q13 14 34 14 q20 0 33 -13.5 q13 -13.5 11 -35.5 l-14 -210 q-1 -16 -9.5 -24 q-8.5 -8 -20.5 -8 Z" /><glyph glyph-name="bar" unicode="|" d="M132 -187 q-40 0 -40 41 l0 817 q0 41 40 41 q41 0 41 -41 l0 -817 q0 -41 -41 -41 Z" /><glyph glyph-name="brokenbar" unicode="¦" d="M132 365 q-40 0 -40 41 l0 265 q0 41 40 41 q41 0 41 -41 l0 -265 q0 -41 -41 -41 ZM132 -187 q-40 0 -40 41 l0 265 q0 41 40 41 q41 0 41 -41 l0 -265 q0 -41 -41 -41 Z" /><glyph glyph-name="dagger" unicode="&#x2020;" d="M162 150 q-31 0 -31 32 l0 350 l-86 0 q-32 0 -32 28 q0 27 32 27 l86 0 l0 93 q0 32 31 32 q31 0 31 -32 l0 -93 l87 0 q31 0 31 -27 q0 -28 -31 -28 l-87 0 l0 -350 q0 -32 -31 -32 Z" /><glyph glyph-name="uni2113" unicode="&#x2113;" d="M321 -9 q-57 0 -88.5 33.5 q-31.5 33.5 -31.5 93.5 l0 121 l-44 -51 q-11 -12 -23.5 -8.5 q-12.5 3.5 -17.5 15.5 q-5 12 7 26 l78 91 l0 262 q0 61 32 100.5 q32 39.5 88 39.5 q45 0 72.5 -27 q27.5 -27 27.5 -85 q0 -39 -11.5 -77 q-11.5 -38 -37 -82 q-25.5 -44 -69.5 -100 l-27 -35 l0 -175 q0 -77 57 -77 q16 0 30.5 5.5 q14.5 5.5 33.5 21.5 q16 14 30 7 q14 -7 17 -23.5 q3 -16.5 -13 -30.5 q-25 -23 -53.5 -34 q-28.5 -11 -56.5 -11 ZM276 386 q5 6 9 11.5 q4 5.5 7 11.5 q37 54 55.5 98.5 q18.5 44.5 18.5 87.5 q0 59 -38 59 q-25 0 -38.5 -20.5 q-13.5 -20.5 -13.5 -53.5 l0 -194 Z" /><glyph glyph-name="daggerdbl" unicode="&#x2021;" d="M162 150 q-31 0 -31 32 l0 93 l-86 0 q-32 0 -32 27 q0 28 32 28 l86 0 l0 202 l-86 0 q-32 0 -32 28 q0 27 32 27 l86 0 l0 93 q0 32 31 32 q31 0 31 -32 l0 -93 l87 0 q31 0 31 -27 q0 -28 -31 -28 l-87 0 l0 -202 l87 0 q31 0 31 -28 q0 -27 -31 -27 l-87 0 l0 -93 q0 -32 -31 -32 Z" /><glyph glyph-name="estimated" unicode="&#x212e;" d="M448 -5 q-95 0 -169 28 q-74 28 -125 77 q-51 49 -77.5 112 q-26.5 63 -26.5 133 q0 70 27 135.5 q27 65.5 78.5 117 q51.5 51.5 124.5 82 q73 30.5 166 30.5 q113 0 189.5 -32 q76.5 -32 122 -85.5 q45.5 -53.5 66 -119 q20.5 -65.5 20.5 -132.5 q0 -10 -10 -10 l-633 0 q-5 0 -5 -6 l0 -172 q0 -7 1.5 -15.5 q1.5 -8.5 5.5 -13.5 q40 -48 102 -72.5 q62 -24.5 140 -24.5 q81 0 141.5 25 q60.5 25 108.5 73 q9 9 22 9 l42 0 q6 0 9 -3 q3 -3 -1 -7 q-41 -41 -84.5 -70 q-43.5 -29 -99.5 -44 q-56 -15 -135 -15 ZM201 362 l492 0 q5 0 5 6 l0 188 q0 14 -10 26 q-34 41 -78 61.5 q-44 20.5 -88 28 q-44 7.5 -79 7.5 q-58 0 -121.5 -21 q-63.5 -21 -116.5 -74 q-9 -9 -9 -27 l0 -189 q0 -6 5 -6 Z" /><glyph glyph-name="uni2116" unicode="&#x2116;" d="M908 411 q-63 0 -105 41.5 q-42 41.5 -42 110.5 q0 69 42 110 q42 41 105 41 q63 0 104.5 -41 q41.5 -41 41.5 -110 q0 -69 -41.5 -110.5 q-41.5 -41.5 -104.5 -41.5 ZM126 -7 q-39 0 -39 41 l0 636 q0 42 36 42 q15 0 23 -5.5 q8 -5.5 18 -19.5 l412 -549 l0 534 q0 40 39 40 q37 0 37 -40 l0 -639 q0 -40 -33 -40 q-15 0 -24 6 q-9 6 -19 19 l-412 551 l0 -535 q0 -41 -38 -41 ZM908 457 q41 0 64.5 27.5 q23.5 27.5 23.5 78.5 q0 51 -23.5 78 q-23.5 27 -64.5 27 q-41 0 -65 -26.5 q-24 -26.5 -24 -78.5 q0 -52 24 -79 q24 -27 65 -27 ZM792 261 q-30 0 -30 28 q0 28 30 28 l233 0 q29 0 29 -28 q0 -28 -29 -28 l-233 0 Z" /><glyph glyph-name="uni02BC" unicode="&#x2bc;" d="M176 586 q-12 -14 -24.5 -13 q-12.5 1 -18 12 q-5.5 11 6.5 28 q16 24 20 52 q-23 1 -36.5 13.5 q-13.5 12.5 -13.5 33.5 q0 22 13.5 35 q13.5 13 37.5 13 q52 0 52 -58 q0 -28 -9 -60.5 q-9 -32.5 -28 -55.5 Z" /><glyph glyph-name="uni02BB" unicode="&#x2bb;" d="M251 563 q-52 0 -52 58 q0 28 9 60.5 q9 32.5 28 55.5 q12 14 24.5 13 q12.5 -1 17.5 -12.5 q5 -11.5 -6 -27.5 q-8 -13 -13 -26.5 q-5 -13.5 -7 -25.5 q23 -1 36.5 -14 q13.5 -13 13.5 -34 q0 -22 -13.5 -34.5 q-13.5 -12.5 -37.5 -12.5 Z" /><glyph glyph-name="uni02C9" unicode="&#x2c9;" d="M125 625 q-30 0 -30 27 q0 28 30 28 l251 0 q29 0 29 -28 q0 -27 -29 -27 l-251 0 Z" /><glyph glyph-name="uni02CB" unicode="&#x2cb;" d="M218 556 l-101 156 q-10 15 -5 28.5 q5 13.5 18 20.5 q13 7 27 4 q14 -3 23 -20 l84 -163 q8 -16 -0.5 -26.5 q-8.5 -10.5 -22.5 -11.5 q-14 -1 -23 12 Z" /><glyph glyph-name="uni02BF" unicode="&#x2bf;" d="M226 556 q-35 8 -56 35 q-21 27 -21 62 q0 34 21 61.5 q21 27.5 56 35.5 q15 3 23 -3 q8 -6 8 -17 q0 -11 -6.5 -16 q-6.5 -5 -19.5 -10 q-16 -5 -25 -19.5 q-9 -14.5 -9 -31.5 q0 -17 9 -31.5 q9 -14.5 25 -20.5 q13 -4 19.5 -9 q6.5 -5 6.5 -16 q0 -10 -8 -16.5 q-8 -6.5 -23 -3.5 Z" /><glyph glyph-name="uni02BE" unicode="&#x2be;" d="M274 556 q-14 -3 -22 3 q-8 6 -8 16 q0 12 6.5 17 q6.5 5 18.5 9 q16 6 25 20 q9 14 9 32 q0 17 -9 31.5 q-9 14.5 -25 19.5 q-12 5 -18.5 10 q-6.5 5 -6.5 16 q0 10 8 16.5 q8 6.5 22 3.5 q35 -8 56.5 -35.5 q21.5 -27.5 21.5 -61.5 q0 -35 -21.5 -62 q-21.5 -27 -56.5 -35 Z" /><glyph glyph-name="uni02CA" unicode="&#x2ca;" d="M283 556 q-9 -13 -23 -12 q-14 1 -22.5 11.5 q-8.5 10.5 -1.5 26.5 l84 163 q9 17 23.5 20 q14.5 3 27.5 -4 q13 -7 17.5 -20.5 q4.5 -13.5 -5.5 -28.5 l-100 -156 Z" /><glyph glyph-name="uni02CC" unicode="&#x2cc;" d="M250 -277 q-30 0 -30 31 l0 153 q0 32 30 32 q30 0 30 -32 l0 -153 q0 -31 -30 -31 Z" /><glyph glyph-name="uni02C8" unicode="&#x2c8;" d="M250 588 q-30 0 -30 32 l0 151 q0 31 30 31 q30 0 30 -31 l0 -151 q0 -32 -30 -32 Z" /><glyph glyph-name="uni0308" unicode="&#x308;" d="M88 606 q-48 0 -48 46 q0 47 48 47 q46 0 46 -47 q0 -46 -46 -46 ZM-87 606 q-47 0 -47 46 q0 47 47 47 q47 0 47 -47 q0 -46 -47 -46 Z" /><glyph glyph-name="uni0307" unicode="&#x307;" d="M0 605 q-49 0 -49 48 q0 48 49 48 q50 0 50 -48 q0 -48 -50 -48 Z" /><glyph glyph-name="gravecomb" unicode="&#x300;" d="M-32 556 l-101 156 q-10 15 -5 28.5 q5 13.5 18 20.5 q13 7 27 4 q14 -3 23 -20 l84 -163 q8 -16 -0.5 -26.5 q-8.5 -10.5 -22.5 -11.5 q-14 -1 -23 12 Z" /><glyph glyph-name="acutecomb" unicode="&#x301;" d="M33 556 q-9 -14 -23 -12.5 q-14 1.5 -22.5 12 q-8.5 10.5 -1.5 26.5 l84 163 q9 17 23.5 20 q14.5 3 27 -4 q12.5 -7 17.5 -20.5 q5 -13.5 -5 -28.5 l-100 -156 Z" /><glyph glyph-name="uni030B" unicode="&#x30b;" d="M89 558 q-6 -13 -17.5 -14.5 q-11.5 -1.5 -20.5 6 q-9 7.5 -6 21.5 l45 165 q5 19 18 25.5 q13 6.5 27 3 q14 -3.5 21 -15 q7 -11.5 0 -28.5 l-67 -163 ZM-39 558 q-5 -13 -17 -14.5 q-12 -1.5 -21 6 q-9 7.5 -5 21.5 l45 165 q5 19 18 25 q13 6 26.5 3 q13.5 -3 20.5 -14.5 q7 -11.5 0 -28.5 l-67 -163 Z" /><glyph glyph-name="uni0302" unicode="&#x302;" d="M132 582 q8 -16 0 -26.5 q-8 -10.5 -21.5 -12 q-13.5 -1.5 -21.5 12.5 l-89 143 l-89 -143 q-8 -14 -21.5 -12.5 q-13.5 1.5 -21.5 12 q-8 10.5 0 26.5 l83 152 q17 32 49 32 q32 0 49 -32 l83 -152 Z" /><glyph glyph-name="uni030C" unicode="&#x30c;" d="M0 538 q-31 0 -49 33 l-83 151 q-8 16 0 26.5 q8 10.5 21.5 12 q13.5 1.5 21.5 -12.5 l89 -143 l89 143 q8 14 21.5 12.5 q13.5 -1.5 21.5 -12 q8 -10.5 0 -26.5 l-83 -151 q-17 -33 -49 -33 Z" /><glyph glyph-name="uni0306" unicode="&#x306;" d="M0 549 q-64 0 -103.5 44.5 q-39.5 44.5 -48.5 120.5 q-2 14 5 23 q7 9 19 9 q24 1 27 -26 q8 -58 34.5 -87 q26.5 -29 66.5 -29 q40 0 67 29 q27 29 34 87 q3 27 27 26 q12 0 19 -9 q7 -9 5 -23 q-8 -76 -48 -120.5 q-40 -44.5 -104 -44.5 Z" /><glyph glyph-name="uni030A" unicode="&#x30a;" d="M0 547 q-50 0 -84.5 33.5 q-34.5 33.5 -34.5 82.5 q0 48 34.5 81.5 q34.5 33.5 84.5 33.5 q50 0 84.5 -33.5 q34.5 -33.5 34.5 -81.5 q0 -49 -34.5 -82.5 q-34.5 -33.5 -84.5 -33.5 ZM0 590 q32 0 52 21 q20 21 20 52 q0 30 -20 51 q-20 21 -52 21 q-31 0 -51.5 -21 q-20.5 -21 -20.5 -51 q0 -31 20.5 -52 q20.5 -21 51.5 -21 Z" /><glyph glyph-name="tildecomb" unicode="&#x303;" d="M-157 587 q-10 0 -16.5 7 q-6.5 7 -3.5 21 q8 47 33.5 79 q25.5 32 70.5 32 q24 0 43 -11.5 q19 -11.5 35.5 -26.5 q16.5 -15 32.5 -26.5 q16 -11.5 34 -11.5 q23 0 38 17 q15 17 21 47 q4 19 26 18 q10 0 16.5 -7 q6.5 -7 3.5 -21 q-8 -46 -33.5 -78.5 q-25.5 -32.5 -70.5 -32.5 q-24 0 -43 11.5 q-19 11.5 -35.5 26.5 q-16.5 15 -32.5 26.5 q-16 11.5 -34 11.5 q-23 0 -38 -17 q-15 -17 -21 -47 q-4 -19 -26 -18 Z" /><glyph glyph-name="uni0304" unicode="&#x304;" d="M-121 625 q-29 0 -29 27 q0 28 29 28 l242 0 q30 0 30 -28 q0 -27 -30 -27 l-242 0 Z" /><glyph glyph-name="hookabovecomb" unicode="&#x309;" d="M0 544 q-27 0 -27 23 q0 25 9 41 q9 16 21.5 27.5 q12.5 11.5 22 22 q9.5 10.5 9.5 24.5 q0 28 -46 28 q-10 0 -21.5 -1.5 q-11.5 -1.5 -22.5 -5.5 q-26 -9 -33 10 q-8 22 17 33 q16 7 35 10 q19 3 40 3 q46 0 71.5 -18 q25.5 -18 25.5 -50 q0 -25 -11 -40 q-11 -15 -25.5 -26.5 q-14.5 -11.5 -26 -24.5 q-11.5 -13 -11.5 -34 q0 -22 -27 -22 Z" /><glyph glyph-name="uni030F" unicode="&#x30f;" d="M39 558 l-67 163 q-7 17 0 28.5 q7 11.5 20.5 15 q13.5 3.5 27 -3 q13.5 -6.5 18.5 -25.5 l44 -165 q4 -14 -5 -21.5 q-9 -7.5 -21 -6 q-12 1.5 -17 14.5 ZM-88 558 l-67 163 q-8 17 -1 28.5 q7 11.5 21 15 q14 3.5 27 -3 q13 -6.5 18 -25.5 l45 -165 q4 -14 -5 -21.5 q-9 -7.5 -21 -6 q-12 1.5 -17 14.5 Z" /><glyph glyph-name="uni0311" unicode="&#x311;" d="M-128 547 q-12 0 -19 9 q-7 9 -5 23 q8 76 48 120.5 q40 44.5 104 44.5 q64 0 104 -44.5 q40 -44.5 48 -120.5 q2 -14 -5 -23 q-7 -9 -19 -9 q-24 -1 -27 26 q-7 58 -34 87 q-27 29 -67 29 q-40 0 -67 -29 q-27 -29 -34 -87 q-3 -27 -27 -26 Z" /><glyph glyph-name="uni0312" unicode="&#x312;" d="M1 563 q-52 0 -52 58 q0 28 9 60.5 q9 32.5 28 55.5 q12 14 24.5 13 q12.5 -1 17.5 -12.5 q5 -11.5 -6 -27.5 q-8 -13 -13 -26.5 q-5 -13.5 -7 -25.5 q23 -1 36.5 -14 q13.5 -13 13.5 -34 q0 -22 -13.5 -34.5 q-13.5 -12.5 -37.5 -12.5 Z" /><glyph glyph-name="uni031B" unicode="&#x31b;" d="M41 436 l-42 28 l0 22 q65 1 87.5 27 q22.5 26 22.5 76 q0 32 36 32 q36 0 36 -32 q0 -69 -37 -108.5 q-37 -39.5 -103 -44.5 Z" /><glyph glyph-name="dotbelowcomb" unicode="&#x323;" d="M0 -191 q-49 0 -49 48 q0 47 49 47 q50 0 50 -47 q0 -48 -50 -48 Z" /><glyph glyph-name="uni0324" unicode="&#x324;" d="M88 -185 q-48 0 -48 47 q0 46 48 46 q46 0 46 -46 q0 -47 -46 -47 ZM-87 -185 q-47 0 -47 47 q0 46 47 46 q47 0 47 -46 q0 -47 -47 -47 Z" /><glyph glyph-name="uni0326" unicode="&#x326;" d="M14 -250 q-12 -14 -24.5 -12.5 q-12.5 1.5 -17.5 12.5 q-5 11 6 28 q8 12 13 25.5 q5 13.5 7 25.5 q-23 1 -36.5 14 q-13.5 13 -13.5 34 q0 22 13.5 35 q13.5 13 37.5 13 q52 0 52 -58 q0 -29 -9 -61 q-9 -32 -28 -56 Z" /><glyph glyph-name="uni0327" unicode="&#x327;" d="M3 -192 q-18 0 -37.5 2.5 q-19.5 2.5 -35.5 9.5 q-15 6 -16.5 19 q-1.5 13 7 22 q8.5 9 24.5 3 q22 -9 56 -9 q26 0 42 9.5 q16 9.5 16 27.5 q0 28 -38 28 q-8 0 -15.5 -1 q-7.5 -1 -17.5 -3 q-16 -5 -24 0 q-7 6 -4 25 l12 79 l51 0 l-11 -63 q10 1 19 1 q37 0 60.5 -18 q23.5 -18 23.5 -50 q0 -37 -31 -59.5 q-31 -22.5 -81 -22.5 Z" /><glyph glyph-name="uni0328" unicode="&#x328;" d="M-19 -192 q-48 0 -76.5 26 q-28.5 26 -28.5 71 q0 40 25.5 75 q25.5 35 69.5 56 l29 -36 q-24 -10 -45 -32.5 q-21 -22.5 -21 -53.5 q0 -29 16.5 -42.5 q16.5 -13.5 41.5 -13.5 q16 0 35 6 q18 5 25.5 -5 q7.5 -10 4.5 -23.5 q-3 -13.5 -17 -18.5 q-15 -6 -30 -7.5 q-15 -1.5 -29 -1.5 Z" /><glyph glyph-name="uni032E" unicode="&#x32e;" d="M0 -215 q-61 0 -100.5 33 q-39.5 33 -50.5 92 q-4 16 2.5 24.5 q6.5 8.5 18.5 9.5 q23 3 29 -23 q8 -39 34.5 -60.5 q26.5 -21.5 66.5 -21.5 q40 0 66.5 21.5 q26.5 21.5 34.5 60.5 q6 26 29 23 q12 -1 18.5 -9.5 q6.5 -8.5 2.5 -24.5 q-11 -59 -50.5 -92 q-39.5 -33 -100.5 -33 Z" /><glyph glyph-name="uni0331" unicode="&#x331;" d="M-121 -156 q-29 0 -29 27 q0 28 29 28 l242 0 q30 0 30 -28 q0 -27 -30 -27 l-242 0 Z" /><glyph glyph-name="uni0335" unicode="&#x335;" d="M-157 526 q-32 0 -32 30 q0 31 32 31 l314 0 q33 0 33 -31 q0 -30 -33 -30 l-314 0 Z" /><glyph glyph-name="uni0337" unicode="&#x337;" d="M-91 266 q-16 -9 -29 -5 q-13 4 -19.5 15.5 q-6.5 11.5 -3.5 24.5 q3 13 19 22 l216 126 q16 9 29 5 q13 -4 19.5 -15.5 q6.5 -11.5 3.5 -24.5 q-3 -13 -19 -23 l-216 -125 Z" /><glyph glyph-name="uni0338" unicode="&#x338;" d="M-126 -28 q-10 -16 -25.5 -14.5 q-15.5 1.5 -24 14.5 q-8.5 13 2.5 31 l299 516 q10 16 25 14 q15 -2 24 -15 q9 -13 -2 -30 l-299 -516 Z" /><glyph glyph-name=".null" unicode="" d="" /></font>
</defs>
</svg>
