<svg width="84" height="84" viewBox="0 0 84 84" fill="none" xmlns="http://www.w3.org/2000/svg">
<path fill-rule="evenodd" clip-rule="evenodd" d="M0.333252 42C0.333252 19 18.9583 0.333374 41.9583 0.333374C64.9999 0.333374 83.6666 19 83.6666 42C83.6666 65 64.9999 83.6667 41.9583 83.6667C18.9583 83.6667 0.333252 65 0.333252 42ZM58.5417 25.3334H70.8333C66.8333 18.4584 60.4583 13.125 52.7917 10.5001C55.2917 15.125 57.2083 20.125 58.5417 25.3334ZM42 8.83331C45.4583 13.8333 48.1667 19.375 49.9583 25.3333H34.0417C35.8333 19.375 38.5417 13.8333 42 8.83331ZM8.66657 42C8.66657 44.875 9.08324 47.6667 9.74991 50.3334H23.8332C23.4999 47.5834 23.2499 44.8334 23.2499 42C23.2499 39.1667 23.4999 36.4167 23.8332 33.6667H9.74991C9.08324 36.3334 8.66657 39.125 8.66657 42ZM13.1666 58.6667H25.4583C26.7916 63.875 28.7083 68.875 31.2083 73.5C23.5416 70.875 17.1666 65.5834 13.1666 58.6667ZM13.1666 25.3334H25.4583C26.7916 20.125 28.7083 15.125 31.2083 10.5001C23.5416 13.125 17.1666 18.4167 13.1666 25.3334ZM42 75.1667C38.5417 70.1667 35.8333 64.625 34.0417 58.6667H49.9583C48.1667 64.625 45.4583 70.1667 42 75.1667ZM32.2499 50.3334H51.7499C52.1249 47.5834 52.4166 44.8334 52.4166 42C52.4166 39.1667 52.1249 36.375 51.7499 33.6667H32.2499C31.8749 36.375 31.5833 39.1667 31.5833 42C31.5833 44.8334 31.8749 47.5834 32.2499 50.3334ZM52.7917 73.5C55.2917 68.875 57.2083 63.875 58.5417 58.6667H70.8333C66.8333 65.5417 60.4583 70.875 52.7917 73.5ZM60.7499 42C60.7499 44.8334 60.4999 47.5834 60.1665 50.3334H74.2499C74.9165 47.6667 75.3332 44.875 75.3332 42C75.3332 39.125 74.9165 36.3334 74.2499 33.6667H60.1665C60.4999 36.4167 60.7499 39.1667 60.7499 42Z" fill="#488DCD"/>
</svg>
