<svg width="33" height="33" fill="none" xmlns="http://www.w3.org/2000/svg"><path d="M9.9 26.4a3.31 3.31 0 00-3.3 3.3A3.31 3.31 0 009.9 33a3.31 3.31 0 003.3-3.3 3.31 3.31 0 00-3.3-3.3zM0 0v3.3h3.3l5.94 12.54-2.31 3.96c-.165.495-.33 1.155-.33 1.65a3.31 3.31 0 003.3 3.3h19.8v-3.3H10.56a.355.355 0 01-.33-.33v-.165l1.485-2.805h12.21c1.32 0 2.31-.66 2.805-1.65l5.94-10.725c.33-.33.33-.495.33-.825 0-.99-.66-1.65-1.65-1.65H6.93L5.445 0H0zm26.4 26.4a3.31 3.31 0 00-3.3 3.3 3.31 3.31 0 003.3 3.3 3.31 3.31 0 003.3-3.3 3.31 3.31 0 00-3.3-3.3z" fill="#fff"/></svg>