<svg width="84" height="84" fill="none" xmlns="http://www.w3.org/2000/svg"><path fill-rule="evenodd" clip-rule="evenodd" d="M.333 42C.333 19 18.958.333 41.958.333 65 .333 83.667 19 83.667 42S65 83.667 41.958 83.667C18.958 83.667.333 65 .333 42zm58.209-16.667h12.291c-4-6.875-10.375-12.208-18.041-14.833 2.5 4.625 4.416 9.625 5.75 14.833zM42 8.833a58.694 58.694 0 017.958 16.5H34.042A58.694 58.694 0 0142 8.833zM8.667 42c0 2.875.416 5.667 1.083 8.333h14.083c-.333-2.75-.583-5.5-.583-8.333s.25-5.583.583-8.333H9.75C9.083 36.333 8.667 39.125 8.667 42zm4.5 16.667h12.291c1.334 5.208 3.25 10.208 5.75 14.833a33.278 33.278 0 01-18.041-14.833zm0-33.334h12.291c1.334-5.208 3.25-10.208 5.75-14.833a33.278 33.278 0 00-18.041 14.833zM42 75.167a58.694 58.694 0 01-7.958-16.5h15.916A58.694 58.694 0 0142 75.167zm-9.75-24.834h19.5c.375-2.75.667-5.5.667-8.333s-.292-5.625-.667-8.333h-19.5c-.375 2.708-.667 5.5-.667 8.333s.292 5.583.667 8.333zM52.792 73.5c2.5-4.625 4.416-9.625 5.75-14.833h12.291c-4 6.875-10.375 12.208-18.041 14.833zM60.75 42c0 2.833-.25 5.583-.584 8.333H74.25c.666-2.666 1.083-5.458 1.083-8.333s-.416-5.667-1.083-8.333H60.166c.334 2.75.584 5.5.584 8.333z" fill="#488DCD"/></svg>