<svg width="237" height="110" fill="none" xmlns="http://www.w3.org/2000/svg"><g clip-path="url(#clip0)" fill="#fff"><path d="M112.69 26.36c1 0 3.47.09 6.44.36V12.44l-6.44 13.92zm7.44.46a47.606 47.606 0 0111.44 2.34c-1.83-2.64-6.3-9-11.44-15.72v13.38zm-4.24-18.77l-3.16 7c.317 3.38.216 6.785-.3 10.14l6.27-13.59a329.659 329.659 0 00-2.81-3.53m-.53-.67c-1.53-1.89-3.07-3.71-4.57-5.4.29 1.33.95 4.49 1.45 8.31h1.8l1.32-2.91z"/><path d="M136.42 29.71l-.47 1.59a28.37 28.37 0 01-9.88 1.71h-5.94V13.44c5.14 6.7 9.61 13.08 11.44 15.72l.88 1.28.72-.49c-.09-.13-6.05-8.89-13-17.94v-4h-1v2.68c-3-3.79-6.07-7.56-9-10.69l-.64.59 1.26 1.38c1.5 1.69 3 3.51 4.57 5.4l-1.32 2.91h-6.72v3.51h5.11l-8.71 19.18c-1.58 0-3-.57-3-2.13a1.807 1.807 0 01.9-1.77l-.88-1.59a9.59 9.59 0 00-1.42 5.61 7.23 7.23 0 001.2 4.28h34.38c2-1.53 2.22-7.69 2.22-7.69l-.7.03zm-31.88 3.3l8.19-18 3.16-7c.94 1.173 1.877 2.35 2.81 3.53l-6.27 13.56-3.64 7.87-4.25.04zm14.59 0h-9.51l3.07-6.65 6.44-13.92v20.57z"/><path d="M136.42 29.71l-.47 1.59a28.37 28.37 0 01-9.88 1.71h-5.94V13.44c5.14 6.7 9.61 13.08 11.44 15.72l.88 1.28.72-.49c-.09-.13-6.05-8.89-13-17.94v-4h-1v2.68c-3-3.79-6.07-7.56-9-10.69l-.64.59 1.26 1.38c1.5 1.69 3 3.51 4.57 5.4l-1.32 2.91h-6.72v3.51h5.11l-8.71 19.18c-1.58 0-3-.57-3-2.13a1.807 1.807 0 01.9-1.77l-.88-1.59a9.59 9.59 0 00-1.42 5.61 7.23 7.23 0 001.2 4.28h34.38c2-1.53 2.22-7.69 2.22-7.69l-.7.03zm-31.88 3.3l8.19-18 3.16-7c.94 1.173 1.877 2.35 2.81 3.53l-6.27 13.56-3.64 7.87-4.25.04zm14.59 0h-9.51l3.07-6.65 6.44-13.92v20.57zM42.46 57.86a5.429 5.429 0 00-2-1.55 6.74 6.74 0 00-2.79-.54 7 7 0 00-2.93.61 7.08 7.08 0 00-2.34 1.71 7.9 7.9 0 00-1.55 2.61 9.92 9.92 0 000 6.57 8 8 0 001.53 2.59 7.05 7.05 0 002.28 1.71 6.6 6.6 0 002.83.61 6.34 6.34 0 003.06-.72 6.14 6.14 0 002.2-2l4.68 3.49a9.76 9.76 0 01-4.11 3.35 12.68 12.68 0 01-5.11 1.08 15.59 15.59 0 01-5.51-.94 12.541 12.541 0 01-4.35-2.68 12.1 12.1 0 01-2.87-4.23 15.58 15.58 0 010-11.09 12.29 12.29 0 012.87-4.23 12.54 12.54 0 014.35-2.68 15.81 15.81 0 015.49-.93c.754.005 1.507.071 2.25.2.786.131 1.557.342 2.3.63.77.293 1.503.68 2.18 1.15a8.448 8.448 0 011.87 1.77l-4.33 3.51z"/><path d="M42.46 57.86a5.429 5.429 0 00-2-1.55 6.74 6.74 0 00-2.79-.54 7 7 0 00-2.93.61 7.08 7.08 0 00-2.34 1.71 7.9 7.9 0 00-1.55 2.61 9.92 9.92 0 000 6.57 8 8 0 001.53 2.59 7.05 7.05 0 002.28 1.71 6.6 6.6 0 002.83.61 6.34 6.34 0 003.06-.72 6.14 6.14 0 002.2-2l4.68 3.49a9.76 9.76 0 01-4.11 3.35 12.68 12.68 0 01-5.11 1.08 15.59 15.59 0 01-5.51-.94 12.541 12.541 0 01-4.35-2.68 12.1 12.1 0 01-2.87-4.23 15.58 15.58 0 010-11.09 12.29 12.29 0 012.87-4.23 12.54 12.54 0 014.35-2.68 15.81 15.81 0 015.49-.93c.754.005 1.507.071 2.25.2.786.131 1.557.342 2.3.63.77.293 1.503.68 2.18 1.15a8.448 8.448 0 011.87 1.77l-4.33 3.51zm28.87-6.62h5.62v9.5h10.91v-9.5h5.61v25.48h-5.61V65.71H76.95v11.01h-5.62V51.24z"/><path d="M71.33 51.24h5.62v9.5h10.91v-9.5h5.61v25.48h-5.61V65.71H76.95v11.01h-5.62V51.24zm53.75 0h-5.62v25.49h5.62V51.24z"/><path d="M125.08 51.24h-5.62v25.49h5.62V51.24zm26.21 0h17.31v5.18h-11.7v4.75h11.06v5.19H156.9v5.18h12.35v5.18h-17.96V51.24z"/><path d="M151.29 51.24h17.31v5.18h-11.7v4.75h11.06v5.19H156.9v5.18h12.35v5.18h-17.96V51.24zm43.56 0h17.1v5.18h-11.49v5.18h10.62v5.19h-10.62v9.93h-5.61V51.24z"/><path d="M194.85 51.24h17.1v5.18h-11.49v5.18h10.62v5.19h-10.62v9.93h-5.61V51.24zM42.09 109.39h-2.52l6.01-14.24h2.19l6 14.24h-2.65l-4.51-11.01-4.52 11.01zm19.9 0v-14.2h4.32c3.88 0 5.16 1.93 5.16 4.38a4.117 4.117 0 01-2.74 4.06l4.44 5.8h-3l-3.98-5.35h-1.7v5.31h-2.5zm2.5-11.87v4.22h1.62c1.44 0 2.72-.73 2.72-2.19 0-1.11-.61-2.07-2.64-2.07h-1.7m14.44-2.28h11.7v2.33h-4.6v11.86h-2.5V97.53h-4.6V95.2zm19.96 0h8.21v2.33h-5.72v3.53h5.11v2.33h-5.11v3.67h5.93v2.33h-8.42V95.2zm17 0h10.79v1.72l-7.87 10.14h8.07v2.33h-11.4v-1.7l7.85-10.16h-7.44V95.2zm22.65-.01h-2.49v14.2h2.49v-14.2zm15.54 3.19l-4.52 11.01h-2.51l6-14.24h2.19l6.01 14.24h-2.66l-4.51-11.01zm25.52 11.01l-7.81-9.83v9.83h-2.33V95.2h1.99l7.81 9.87V95.2h2.33v14.19h-1.99zm14.81-14.2h-2.49v14.2h2.49v-14.2zm21.14 12.82a6.532 6.532 0 01-4.54 1.6 6.94 6.94 0 01-5.302-2.018 6.935 6.935 0 01-2.018-5.302c0-4.08 2.57-7.32 7.26-7.32a6.45 6.45 0 014.32 1.44l-1.08 1.84a5.41 5.41 0 00-3.2-.95c-2.64 0-4.63 1.91-4.63 5a4.715 4.715 0 002.984 4.677 4.726 4.726 0 001.936.323 5.523 5.523 0 003.36-1.14l.91 1.85zm9.13 1.38h-2.52l6.01-14.24h2.19l6 14.24h-2.66l-4.5-11.01-4.52 11.01zM.01 95.17h5.54a7.06 7.06 0 011.59.19 4.15 4.15 0 011.4.63c.41.292.752.67 1 1.11a3.38 3.38 0 01.38 1.65 2.921 2.921 0 01-.68 2 3.787 3.787 0 01-1.79 1.13c.431.051.85.176 1.24.37a3.248 3.248 0 011.6 1.79c.159.404.237.836.23 1.27a3.488 3.488 0 01-1.67 3.18 5.296 5.296 0 01-1.73.68 10.1 10.1 0 01-2 .2H0l.01-14.2zm2.53 5.78h2.31a3.06 3.06 0 001.9-.49 1.547 1.547 0 00.63-1.29 1.57 1.57 0 00-.65-1.38 3.81 3.81 0 00-2.1-.45H2.54v3.61zm0 6.27h2.33a9.828 9.828 0 001-.06 3.086 3.086 0 001-.28 2 2 0 00.76-.63c.216-.332.32-.724.3-1.12a1.66 1.66 0 00-.73-1.56 4.482 4.482 0 00-2.28-.45H2.49l.05 4.1zm17.56-3.91l-5.33-8.13h3.17l3.49 5.66 3.53-5.66h3.01l-5.33 8.13v6.08H20.1v-6.08z"/></g><defs><clipPath id="clip0"><path fill="#fff" d="M0 0h236.35v109.59H0z"/></clipPath></defs></svg>