<?xml version="1.0" standalone="no"?><!DOCTYPE svg PUBLIC "-//W3C//DTD SVG 1.1//EN" "http://www.w3.org/Graphics/SVG/1.1/DTD/svg11.dtd" ><svg xmlns="http://www.w3.org/2000/svg"><metadata></metadata><defs><font id="SF Pro Display Bold; 13.0d3e20; 2017-05-30" horiz-adv-x="2720"><font-face font-family="SF Pro Display" font-weight="700" font-stretch="normal" units-per-em="2048" panose-1="0 0 8 0 0 0 0 0 0 0" ascent="1950" descent="-494" x-height="0" bbox="-585 -537 2631 2178" underline-thickness="190" underline-position="-660" unicode-range="U+0020-f189" /><missing-glyph horiz-adv-x="2048" d="M100 -494 l0 206 l1848 0 l0 -206 l-1848 0 ZM100 -46 l0 206 l1848 0 l0 -206 l-1848 0 ZM100 401 l0 206 l1848 0 l0 -206 l-1848 0 ZM100 849 l0 206 l1848 0 l0 -206 l-1848 0 ZM100 1296 l0 206 l1848 0 l0 -206 l-1848 0 ZM100 1744 l0 206 l1848 0 l0 -206 l-1848 0 Z" /><glyph glyph-name="space" unicode=" " d="" /><glyph glyph-name="exclam" unicode="!" d="M174 1443 l300 0 l-24 -968 l-252 0 l-24 968 ZM439.5 20.5 q-47.5 -45.5 -115.5 -45.5 q-68 0 -115.5 45.5 q-47.5 45.5 -47.5 111.5 q0 66 47.5 111.5 q47.5 45.5 115.5 45.5 q68 0 115.5 -45.5 q47.5 -45.5 47.5 -111.5 q0 -66 -47.5 -111.5 Z" /><glyph glyph-name="quotedbl" unicode="&quot;" d="M358 880 l-250 0 l0 563 l250 0 l0 -563 ZM821 880 l-250 0 l0 563 l250 0 l0 -563 Z" /><glyph glyph-name="numbersign" unicode="#" d="M630 0 l76 380 l-259 0 l-77 -380 l-220 0 l75 380 l-225 0 l41 216 l227 0 l54 270 l-230 0 l41 214 l232 0 l74 364 l220 0 l-72 -364 l259 0 l73 364 l222 0 l-73 -364 l236 0 l-40 -214 l-239 0 l-55 -270 l241 0 l-40 -216 l-243 0 l-76 -380 l-222 0 ZM471 577 l287 0 l63 307 l-288 0 l-62 -307 Z" /><glyph glyph-name="dollar" unicode="$" d="M741 -137 l-141 0 l0 128 q-236 14 -370.5 125.5 q-134.5 111.5 -135.5 295.5 l286 0 q5 -78 65 -131 q60 -53 155 -63 l0 390 l-106 25 q-181 42 -275.5 144.5 q-94.5 102.5 -94.5 258.5 q0 184 125.5 296.5 q125.5 112.5 350.5 130.5 l0 137 l141 0 l0 -138 q210 -19 335.5 -132.5 q125.5 -113.5 128.5 -286.5 l-278 0 q-2 71 -54 124 q-52 53 -132 64 l0 -373 l107 -21 q384 -84 384 -406 q0 -190 -127.5 -304.5 q-127.5 -114.5 -363.5 -134.5 l0 -129 ZM949 399 q0 73 -51 118 q-51 45 -157 66 l0 -366 q98 6 153 54 q55 48 55 128 ZM413 1061 q0 -134 187 -174 l0 345 q-82 -5 -134.5 -52.5 q-52.5 -47.5 -52.5 -118.5 Z" /><glyph glyph-name="percent" unicode="%" d="M614 1370 q89 -101 89 -273 q0 -172 -88.5 -273 q-88.5 -101 -240.5 -101 q-151 0 -240 101 q-89 101 -89 273 q0 172 89 273 q89 101 240 101 q151 0 240 -101 ZM297 952.5 q28 -52.5 77 -52.5 q49 0 77 52.5 q28 52.5 28 145.5 q0 93 -28 146 q-28 53 -77 53 q-49 0 -77 -53 q-28 -53 -28 -146 q0 -93 28 -145.5 ZM430 0 l-242 0 l560 767 l493 676 l241 0 l-544 -746 l-508 -697 ZM1625 354 q0 -173 -89 -274 q-89 -101 -240 -101 q-151 0 -240 101.5 q-89 101.5 -89 273.5 q0 172 89 273 q89 101 240 101 q151 0 240 -101 q89 -101 89 -273 ZM1219 209.5 q28 -52.5 77 -52.5 q49 0 77 52.5 q28 52.5 28 145.5 q0 93 -28 146 q-28 53 -77 53 q-49 0 -77 -53 q-28 -53 -28 -146 q0 -93 28 -145.5 Z" /><glyph glyph-name="ampersand" unicode="&amp;" d="M1129 0 l-111 120 q-80 -69 -198 -107.5 q-118 -38.5 -249 -38.5 q-229 0 -366 110 q-137 110 -137 294 q0 123 64.5 215.5 q64.5 92.5 202.5 168.5 q6 3 22 11.5 q16 8.5 28.5 15.5 q12.5 7 14.5 8 q-98 101 -138.5 176 q-40.5 75 -40.5 154 q0 145 116.5 240 q116.5 95 292.5 95 q177 0 289.5 -92.5 q112.5 -92.5 112.5 -237.5 q0 -111 -71 -202 q-71 -91 -221 -173 l274 -296 q52 92 52 273 l0 76 l243 0 l0 -93 q0 -267 -122 -436 l269 -281 l-327 0 ZM494 623 q-82 -52 -117.5 -103.5 q-35.5 -51.5 -35.5 -118.5 q0 -97 72 -156 q72 -59 188 -59 q78 0 150 27 q72 27 114 73 l-331 358 q-12 -6 -40 -21 ZM605 893 q98 51 141 102.5 q43 51.5 43 116.5 q0 69 -44 112.5 q-44 43.5 -114 43.5 q-70 0 -115 -44 q-45 -44 -45 -112 q0 -50 30 -98.5 q30 -48.5 104 -120.5 Z" /><glyph glyph-name="quotesingle" unicode="&#39;" d="M358 880 l-250 0 l0 563 l250 0 l0 -563 Z" /><glyph glyph-name="parenleft" unicode="(" d="M182 567 q0 265 72.5 480 q72.5 215 224.5 396 l268 0 q-112 -131 -188 -379.5 q-76 -248.5 -76 -495.5 q0 -247 76 -496.5 q76 -249.5 188 -381.5 l-268 0 q-153 183 -225 398 q-72 215 -72 479 Z" /><glyph glyph-name="parenright" unicode=")" d="M600 567 q0 -286 -77 -497 q-77 -211 -219 -380 l-269 0 q102 121 183 362 q81 241 81 516 q0 274 -80.5 514.5 q-80.5 240.5 -183.5 360.5 l269 0 q141 -167 218.5 -377.5 q77.5 -210.5 77.5 -498.5 Z" /><glyph glyph-name="asterisk" unicode="*" d="M796 841 l-231 161 l25 -280 l-182 0 l25 280 l-232 -162 l-90 161 l252 115 l-252 117 l90 160 l230 -158 l-23 277 l183 0 l-24 -276 l229 158 l92 -161 l-255 -117 l255 -115 l-92 -160 Z" /><glyph glyph-name="plus" unicode="+" d="M794 451 l0 -437 l-262 0 l0 437 l-408 0 l0 255 l408 0 l0 432 l262 0 l0 -432 l408 0 l0 -255 l-408 0 Z" /><glyph glyph-name="comma" unicode="," d="M310 -316 l-219 0 l75 564 l278 0 l-134 -564 Z" /><glyph glyph-name="hyphen" unicode="-&#x2011;" d="M781 459 l-657 0 l0 255 l657 0 l0 -255 Z" /><glyph glyph-name="period" unicode="." d="M399 35 q-47 -47 -114 -47 q-67 0 -114 47 q-47 47 -47 114 q0 67 47 114 q47 47 114 47 q67 0 114 -47 q47 -47 47 -114 q0 -67 -47 -114 Z" /><glyph glyph-name="slash" unicode="/" d="M270 -310 l-270 0 l513 1753 l269 0 l-512 -1753 Z" /><glyph glyph-name="zero" unicode="0" d="M1094.5 171.5 q-155.5 -203.5 -427.5 -203.5 q-272 0 -428 202.5 q-156 202.5 -156 553.5 q0 349 156.5 550.5 q156.5 201.5 427.5 201.5 q271 0 427 -201 q156 -201 156 -550 q0 -350 -155.5 -553.5 ZM463.5 345 q73.5 -135 203.5 -135 q130 0 203 134.5 q73 134.5 73 379.5 q0 243 -73.5 376.5 q-73.5 133.5 -202.5 133.5 q-129 0 -203 -134 q-74 -134 -74 -376 q0 -244 73.5 -379 Z" /><glyph glyph-name="one" unicode="1" d="M463 0 l0 1166 l-6 0 l-368 -254 l0 272 l373 259 l300 0 l0 -1443 l-299 0 Z" /><glyph glyph-name="two" unicode="2" d="M85 1009 q0 205 148.5 335.5 q148.5 130.5 384.5 130.5 q227 0 370 -117.5 q143 -117.5 143 -299.5 q0 -65 -19.5 -125.5 q-19.5 -60.5 -62 -121 q-42.5 -60.5 -85.5 -109 q-43 -48.5 -112 -117.5 l-352 -339 l0 -6 l651 0 l0 -240 l-1049 0 l0 203 l544 524 q110 110 150.5 177 q40.5 67 40.5 142 q0 82 -65 138 q-65 56 -164 56 q-105 0 -174 -65.5 q-69 -65.5 -69 -165.5 l0 -5 l-280 0 l0 5 Z" /><glyph glyph-name="three" unicode="3" d="M453 630 l0 218 l175 0 q103 0 167 56 q64 56 64 145 q0 89 -61 141.5 q-61 52.5 -172 52.5 q-105 0 -170 -57 q-65 -57 -71 -152 l-278 0 q8 201 153 321 q145 120 379 120 q226 0 365.5 -106 q139.5 -106 139.5 -279 q0 -131 -82 -222 q-82 -91 -216 -115 l0 -6 q163 -14 258.5 -106.5 q95.5 -92.5 95.5 -241.5 q0 -193 -158.5 -312 q-158.5 -119 -409.5 -119 q-243 0 -392.5 122 q-149.5 122 -160.5 323 l289 0 q7 -92 78.5 -147 q71.5 -55 189.5 -55 q113 0 185 58 q72 58 72 149 q0 99 -70 155.5 q-70 56.5 -192 56.5 l-178 0 Z" /><glyph glyph-name="four" unicode="4" d="M790 0 l0 257 l-718 0 l0 257 q176 336 579 929 l426 0 l0 -944 l188 0 l0 -242 l-188 0 l0 -257 l-287 0 ZM337 498 l0 -8 l459 0 l0 739 l-6 0 q-167 -244 -268 -406.5 q-101 -162.5 -185 -324.5 Z" /><glyph glyph-name="five" unicode="5" d="M657 -32 q-232 0 -383.5 124.5 q-151.5 124.5 -158.5 320.5 l279 0 q13 -92 86.5 -149 q73.5 -57 178.5 -57 q118 0 192.5 74.5 q74.5 74.5 74.5 192.5 q0 120 -74 196 q-74 76 -191 76 q-82 0 -148.5 -35.5 q-66.5 -35.5 -104.5 -97.5 l-270 0 l71 830 l918 0 l0 -240 l-681 0 l-33 -395 l6 0 q45 74 128.5 116 q83.5 42 192.5 42 q207 0 340.5 -136.5 q133.5 -136.5 133.5 -347.5 q0 -229 -154.5 -371.5 q-154.5 -142.5 -402.5 -142.5 Z" /><glyph glyph-name="six" unicode="6" d="M684 -33 q-156 0 -279.5 68.5 q-123.5 68.5 -199.5 197.5 q-121 185 -121 477 q0 357 162 561.5 q162 204.5 443 204.5 q206 0 353 -111 q147 -111 177 -288 l-297 0 q-22 72 -86 116 q-64 44 -149 44 q-152 0 -236.5 -138 q-84.5 -138 -79.5 -381 l6 0 q44 107 146 171 q102 64 238 64 q206 0 341.5 -135.5 q135.5 -135.5 135.5 -340.5 q0 -223 -156 -366.5 q-156 -143.5 -398 -143.5 ZM681 208 q110 0 186.5 75.5 q76.5 75.5 76.5 184.5 q0 112 -74.5 185 q-74.5 73 -187.5 73 q-113 0 -188.5 -73 q-75.5 -73 -75.5 -182 q0 -110 76 -186.5 q76 -76.5 187 -76.5 Z" /><glyph glyph-name="seven" unicode="7" d="M177 0 l621 1197 l0 6 l-734 0 l0 240 l1032 0 l0 -243 l-602 -1200 l-317 0 Z" /><glyph glyph-name="eight" unicode="8" d="M668 -32 q-262 0 -423.5 117.5 q-161.5 117.5 -161.5 305.5 q0 142 94 243.5 q94 101.5 245 126.5 l0 6 q-126 29 -203.5 118.5 q-77.5 89.5 -77.5 208.5 q0 166 148 273.5 q148 107.5 379 107.5 q232 0 379 -107.5 q147 -107.5 147 -274.5 q0 -117 -77 -206.5 q-77 -89.5 -203 -119.5 l0 -6 q152 -26 245.5 -127.5 q93.5 -101.5 93.5 -243.5 q0 -188 -162.5 -305 q-162.5 -117 -422.5 -117 ZM473.5 251.5 q75.5 -63.5 194.5 -63.5 q119 0 194 63.5 q75 63.5 75 161.5 q0 98 -75 161.5 q-75 63.5 -194 63.5 q-119 0 -194.5 -63.5 q-75.5 -63.5 -75.5 -161.5 q0 -98 75.5 -161.5 ZM504 914 q64 -56 164 -56 q100 0 164 56.5 q64 56.5 64 142.5 q0 87 -64 143.5 q-64 56.5 -164 56.5 q-100 0 -164 -56.5 q-64 -56.5 -64 -143.5 q0 -87 64 -143 Z" /><glyph glyph-name="nine" unicode="9" d="M631 -32 q-207 0 -355 111.5 q-148 111.5 -178 288.5 l298 0 q22 -73 87.5 -117 q65.5 -44 152.5 -44 q151 0 234.5 137 q83.5 137 77.5 383 l-3 0 l-2 0 l-1 0 q-40 -108 -142 -172 q-102 -64 -242 -64 q-205 0 -342 135.5 q-137 135.5 -137 340.5 q0 222 157 365.5 q157 143.5 399 143.5 q157 0 281.5 -68 q124.5 -68 199.5 -196 q121 -186 121 -478 q0 -359 -160.5 -562.5 q-160.5 -203.5 -445.5 -203.5 ZM449 791.5 q75 -73.5 188 -73.5 q113 0 188.5 73.5 q75.5 73.5 75.5 182.5 q0 110 -76 185.5 q-76 75.5 -186 75.5 q-111 0 -188 -75 q-77 -75 -77 -184 q0 -111 75 -184.5 Z" /><glyph glyph-name="colon" unicode=":" d="M399 35 q-47 -47 -114 -47 q-67 0 -114 47 q-47 47 -47 114 q0 67 47 114 q47 47 114 47 q67 0 114 -47 q47 -47 47 -114 q0 -67 -47 -114 ZM399 750 q-47 -47 -114 -47 q-67 0 -114 47 q-47 47 -47 114 q0 68 47 114.5 q47 46.5 114 46.5 q67 0 114 -47 q47 -47 47 -114 q0 -67 -47 -114 Z" /><glyph glyph-name="semicolon" unicode=";" d="M399 750 q-47 -47 -114 -47 q-67 0 -114 47 q-47 47 -47 114 q0 68 47 114.5 q47 46.5 114 46.5 q67 0 114 -47 q47 -47 47 -114 q0 -67 -47 -114 ZM304 -316 l-219 0 l75 564 l278 0 l-134 -564 Z" /><glyph glyph-name="less" unicode="&lt;" d="M1140 906 l-657 -319 l0 -10 l657 -309 l0 -291 l-953 489 l0 225 l953 506 l0 -291 Z" /><glyph glyph-name="equal" unicode="=" d="M1187 220 l-1048 0 l0 251 l1048 0 l0 -251 ZM1187 687 l-1048 0 l0 251 l1048 0 l0 -251 Z" /><glyph glyph-name="greater" unicode="&gt;" d="M187 907 l0 290 l953 -505 l0 -226 l-953 -488 l0 291 l656 308 l0 10 l-656 320 Z" /><glyph glyph-name="question" unicode="?" d="M54 1038 q4 189 132 303.5 q128 114.5 354 114.5 q213 0 344 -107.5 q131 -107.5 131 -279.5 q0 -111 -53 -193.5 q-53 -82.5 -161 -145.5 q-100 -58 -135 -104 q-35 -46 -35 -120 l0 -53 l-265 0 l-2 58 q-10 116 32.5 191 q42.5 75 147.5 137 q97 58 132.5 104 q35.5 46 35.5 117 q0 72 -52.5 118 q-52.5 46 -137.5 46 q-86 0 -139 -50.5 q-53 -50.5 -58 -135.5 l-271 0 ZM618 20.5 q-48 -45.5 -116 -45.5 q-68 0 -115.5 45.5 q-47.5 45.5 -47.5 111.5 q0 66 47.5 111.5 q47.5 45.5 115.5 45.5 q68 0 116 -45.5 q48 -45.5 48 -111.5 q0 -66 -48 -111.5 Z" /><glyph glyph-name="at" unicode="@" d="M893 841 q-79 0 -124 -61.5 q-45 -61.5 -45 -171.5 q0 -109 44.5 -171 q44.5 -62 123.5 -62 q81 0 128 62.5 q47 62.5 47 170.5 q0 108 -47 170.5 q-47 62.5 -127 62.5 ZM926 1449 q235 0 418.5 -92.5 q183.5 -92.5 286 -262 q102.5 -169.5 102.5 -388.5 q0 -237 -105.5 -377.5 q-105.5 -140.5 -287.5 -140.5 q-94 0 -159.5 42.5 q-65.5 42.5 -81.5 114.5 l-14 0 q-63 -154 -241 -154 q-156 0 -251.5 116.5 q-95.5 116.5 -95.5 306.5 q0 182 93.5 295.5 q93.5 113.5 243.5 113.5 q81 0 144.5 -38 q63.5 -38 92.5 -104 l14 0 l0 120 l203 0 l0 -535 q0 -53 24.5 -83 q24.5 -30 70.5 -30 q75 0 120.5 90.5 q45.5 90.5 45.5 247.5 q0 272 -172.5 435.5 q-172.5 163.5 -457.5 163.5 q-289 0 -472 -189.5 q-183 -189.5 -183 -490.5 q0 -311 189.5 -489 q189.5 -178 503.5 -178 q178 0 273 35 l0 -160 q-125 -37 -288 -37 q-189 0 -348 58 q-159 58 -273 164.5 q-114 106.5 -177.5 263.5 q-63.5 157 -63.5 348 q0 245 107 435 q107 190 299.5 294.5 q192.5 104.5 439.5 104.5 Z" /><glyph glyph-name="A" unicode="a" d="M1065 0 l-110 350 l-507 0 l-110 -350 l-310 0 l501 1443 l355 0 l502 -1443 l-321 0 ZM698 1167 l-185 -591 l377 0 l-185 591 l-7 0 Z" /><glyph glyph-name="B" unicode="b" d="M759 0 l-639 0 l0 1443 l628 0 q203 0 322 -97 q119 -97 119 -263 q0 -118 -77.5 -207 q-77.5 -89 -193.5 -106 l0 -8 q148 -11 244 -109 q96 -98 96 -240 q0 -191 -134 -302 q-134 -111 -365 -111 ZM422 1218 l0 -375 l217 0 q121 0 187 50.5 q66 50.5 66 142.5 q0 87 -58 134.5 q-58 47.5 -164 47.5 l-248 0 ZM422 225 l260 0 q131 0 199.5 54.5 q68.5 54.5 68.5 157.5 q0 101 -70.5 154 q-70.5 53 -204.5 53 l-253 0 l0 -419 Z" /><glyph glyph-name="C" unicode="c" d="M758 -25 q-316 0 -499.5 199.5 q-183.5 199.5 -183.5 547.5 q0 347 184 546.5 q184 199.5 499 199.5 q172 0 312.5 -68 q140.5 -68 225.5 -192 q85 -124 96 -283 l-294 0 q-21 133 -114.5 213 q-93.5 80 -225.5 80 q-171 0 -273 -134 q-102 -134 -102 -361 q0 -231 101 -364.5 q101 -133.5 275 -133.5 q134 0 225 74 q91 74 115 202 l294 0 q-25 -241 -197 -383.5 q-172 -142.5 -438 -142.5 Z" /><glyph glyph-name="D" unicode="d" d="M120 1443 l551 0 q326 0 507 -187 q181 -187 181 -529 q0 -343 -181.5 -535 q-181.5 -192 -506.5 -192 l-551 0 l0 1443 ZM422 1194 l0 -944 l213 0 q203 0 309.5 121.5 q106.5 121.5 106.5 354.5 q0 226 -108 347 q-108 121 -308 121 l-213 0 Z" /><glyph glyph-name="E" unicode="e" d="M1076 250 l0 -250 l-956 0 l0 1443 l956 0 l0 -249 l-654 0 l0 -348 l617 0 l0 -232 l-617 0 l0 -364 l654 0 Z" /><glyph glyph-name="F" unicode="f" d="M422 0 l-302 0 l0 1443 l945 0 l0 -249 l-643 0 l0 -387 l587 0 l0 -239 l-587 0 l0 -568 Z" /><glyph glyph-name="G" unicode="g" d="M1410 606 q0 -295 -169.5 -463 q-169.5 -168 -470.5 -168 q-324 0 -509.5 200 q-185.5 200 -185.5 551 q0 346 184.5 544 q184.5 198 503.5 198 q252 0 427 -136 q175 -136 207 -355 l-303 0 q-33 113 -120.5 177 q-87.5 64 -209.5 64 q-179 0 -280 -129 q-101 -129 -101 -359 q0 -234 105.5 -369 q105.5 -135 286.5 -135 q148 0 241.5 83 q93.5 83 98.5 217 l1 23 l-314 0 l0 220 l608 0 l0 -163 Z" /><glyph glyph-name="H" unicode="h" d="M1374 0 l-302 0 l0 608 l-650 0 l0 -608 l-302 0 l0 1443 l302 0 l0 -586 l650 0 l0 586 l302 0 l0 -1443 Z" /><glyph glyph-name="I" unicode="i" d="M422 0 l-302 0 l0 1443 l302 0 l0 -1443 Z" /><glyph glyph-name="J" unicode="j" d="M31 425 l293 0 q2 -88 54.5 -141 q52.5 -53 137.5 -53 q95 0 144.5 57 q49.5 57 49.5 166 l0 989 l302 0 l0 -991 q0 -229 -130 -355.5 q-130 -126.5 -363 -126.5 q-221 0 -354.5 124 q-133.5 124 -133.5 331 Z" /><glyph glyph-name="K" unicode="k" d="M422 0 l-302 0 l0 1443 l302 0 l0 -658 l9 0 l542 658 l336 0 l-534 -640 l571 -803 l-361 0 l-428 603 l-135 -162 l0 -441 Z" /><glyph glyph-name="L" unicode="l" d="M1053 250 l0 -250 l-933 0 l0 1443 l302 0 l0 -1193 l631 0 Z" /><glyph glyph-name="M" unicode="m" d="M1648 0 l-269 0 l0 974 l-8 0 l-392 -960 l-190 0 l-392 960 l-8 0 l0 -974 l-269 0 l0 1443 l350 0 l410 -1023 l8 0 l410 1023 l350 0 l0 -1443 Z" /><glyph glyph-name="N" unicode="n" d="M409 0 l-289 0 l0 1443 l252 0 l674 -940 l8 0 l0 940 l289 0 l0 -1443 l-250 0 l-675 945 l-9 0 l0 -945 Z" /><glyph glyph-name="O" unicode="o" d="M262.5 1267 q187.5 201 508.5 201 q321 0 508.5 -201 q187.5 -201 187.5 -546 q0 -344 -188 -545 q-188 -201 -508 -201 q-321 0 -508.5 201 q-187.5 201 -187.5 545 q0 345 187.5 546 ZM1053 1082 q-105 134 -282 134 q-177 0 -282.5 -134 q-105.5 -134 -105.5 -361 q0 -226 105 -359.5 q105 -133.5 283 -133.5 q177 0 282 133.5 q105 133.5 105 359.5 q0 227 -105 361 Z" /><glyph glyph-name="P" unicode="p" d="M120 1443 l587 0 q223 0 361.5 -136 q138.5 -136 138.5 -358 q0 -221 -143 -357.5 q-143 -136.5 -372 -136.5 l-270 0 l0 -455 l-302 0 l0 1443 ZM422 1204 l0 -513 l204 0 q130 0 202 67 q72 67 72 190 q0 123 -71.5 189.5 q-71.5 66.5 -201.5 66.5 l-205 0 Z" /><glyph glyph-name="Q" unicode="q" d="M771 -25 q-322 0 -509 200 q-187 200 -187 546 q0 344 187.5 545.5 q187.5 201.5 508.5 201.5 q320 0 507.5 -201.5 q187.5 -201.5 187.5 -545.5 q0 -190 -59 -339.5 q-59 -149.5 -171 -241.5 l183 -276 l-293 0 l-103 151 q-114 -40 -252 -40 ZM771 225 q53 0 103 14 l-158 236 l273 0 l63 -86 q106 122 106 332 q0 227 -105 362.5 q-105 135.5 -282 135.5 q-178 0 -283 -135.5 q-105 -135.5 -105 -362.5 q0 -227 105 -361.5 q105 -134.5 283 -134.5 Z" /><glyph glyph-name="R" unicode="r" d="M422 1207 l0 -460 l260 0 q114 0 177.5 61 q63.5 61 63.5 169 q0 105 -66 167.5 q-66 62.5 -178 62.5 l-257 0 ZM422 528 l0 -528 l-302 0 l0 1443 l591 0 q247 0 384.5 -122.5 q137.5 -122.5 137.5 -337.5 q0 -141 -69.5 -251.5 q-69.5 -110.5 -192.5 -158.5 l304 -573 l-342 0 l-269 528 l-242 0 Z" /><glyph glyph-name="S" unicode="s" d="M66 411 l291 0 q10 -88 93.5 -142.5 q83.5 -54.5 204.5 -54.5 q120 0 195.5 51.5 q75.5 51.5 75.5 131.5 q0 70 -56 113 q-56 43 -187 72 l-188 41 q-397 85 -397 403 q0 198 154.5 320 q154.5 122 397.5 122 q250 0 399 -118.5 q149 -118.5 153 -315.5 l-283 0 q-7 91 -80.5 143.5 q-73.5 52.5 -187.5 52.5 q-112 0 -180.5 -49 q-68.5 -49 -68.5 -129 q0 -66 55.5 -107 q55.5 -41 180.5 -70 l175 -37 q217 -46 316 -143.5 q99 -97.5 99 -262.5 q0 -210 -158 -333.5 q-158 -123.5 -427 -123.5 q-261 0 -415.5 116.5 q-154.5 116.5 -161.5 319.5 Z" /><glyph glyph-name="T" unicode="t" d="M767 0 l-302 0 l0 1194 l-417 0 l0 249 l1137 0 l0 -249 l-418 0 l0 -1194 Z" /><glyph glyph-name="U" unicode="u" d="M422 1443 l0 -903 q0 -141 79.5 -223.5 q79.5 -82.5 223.5 -82.5 q143 0 222.5 82.5 q79.5 82.5 79.5 223.5 l0 903 l302 0 l0 -933 q0 -240 -164.5 -387.5 q-164.5 -147.5 -439.5 -147.5 q-276 0 -440.5 147.5 q-164.5 147.5 -164.5 387.5 l0 933 l302 0 Z" /><glyph glyph-name="V" unicode="v" d="M877 0 l-364 0 l-485 1443 l338 0 l330 -1132 l7 0 l330 1132 l329 0 l-485 -1443 Z" /><glyph glyph-name="W" unicode="w" d="M984 986 l-274 -986 l-285 0 l-382 1443 l313 0 l227 -1045 l8 0 l270 1045 l255 0 l270 -1045 l8 0 l228 1045 l313 0 l-383 -1443 l-285 0 l-274 986 l-9 0 Z" /><glyph glyph-name="X" unicode="x" d="M43 0 l458 723 l0 8 l-455 712 l355 0 l306 -520 l8 0 l309 520 l337 0 l-472 -718 l0 -7 l466 -718 l-344 0 l-316 505 l-8 0 l-318 -505 l-326 0 Z" /><glyph glyph-name="Y" unicode="y" d="M832 0 l-302 0 l0 539 l-502 904 l329 0 l323 -616 l7 0 l324 616 l324 0 l-503 -904 l0 -539 Z" /><glyph glyph-name="Z" unicode="z" d="M89 0 l0 197 l733 989 l0 8 l-716 0 l0 249 l1077 0 l0 -196 l-730 -990 l0 -7 l750 0 l0 -250 l-1114 0 Z" /><glyph glyph-name="bracketleft" unicode="[" d="M203 1443 l554 0 l0 -215 l-273 0 l0 -1324 l273 0 l0 -214 l-554 0 l0 1753 Z" /><glyph glyph-name="backslash" unicode="\" d="M508 -310 l-508 1753 l275 0 l507 -1753 l-274 0 Z" /><glyph glyph-name="bracketright" unicode="]" d="M579 1443 l0 -1753 l-554 0 l0 214 l274 0 l0 1324 l-274 0 l0 215 l554 0 Z" /><glyph glyph-name="asciicircum" unicode="^" d="M480 1193 l-184 -382 l-251 0 l316 612 l259 0 l314 -612 l-258 0 l-179 382 l-17 0 Z" /><glyph glyph-name="underscore" unicode="_" d="M903 -325 l-949 0 l0 218 l949 0 l0 -218 Z" /><glyph glyph-name="grave" unicode="`" d="M751 1282 l-233 0 l-256 310 l268 0 l221 -310 Z" /><glyph glyph-name="a" unicode="a" d="M509 194 q97 0 164.5 56.5 q67.5 56.5 67.5 142.5 l0 78 l-226 -14 q-82 -6 -126.5 -41 q-44.5 -35 -44.5 -92 q0 -60 45 -95 q45 -35 120 -35 ZM413 -17 q-155 0 -257 91 q-102 91 -102 234 q0 146 108 229 q108 83 309 95 l270 16 l0 71 q0 74 -48.5 116 q-48.5 42 -131.5 42 q-80 0 -130.5 -36 q-50.5 -36 -61.5 -97 l-267 0 q8 158 135 254.5 q127 96.5 337 96.5 q206 0 330 -98 q124 -98 124 -260 l0 -737 l-282 0 l0 164 l-6 0 q-44 -84 -134 -132.5 q-90 -48.5 -193 -48.5 Z" /><glyph glyph-name="b" unicode="b" d="M732 -17 q-116 0 -203.5 53 q-87.5 53 -132.5 148 l-6 0 l0 -184 l-288 0 l0 1443 l292 0 l0 -557 l6 0 q45 96 131 149.5 q86 53.5 200 53.5 q203 0 319.5 -147 q116.5 -147 116.5 -406 q0 -258 -116 -405.5 q-116 -147.5 -319 -147.5 ZM631 855 q-106 0 -172 -88 q-66 -88 -66 -231 q0 -145 65.5 -231.5 q65.5 -86.5 172.5 -86.5 q110 0 173.5 85.5 q63.5 85.5 63.5 232.5 q0 146 -64 232.5 q-64 86.5 -173 86.5 Z" /><glyph glyph-name="c" unicode="c" d="M1069 673 l-271 0 q-13 87 -68.5 140 q-55.5 53 -143.5 53 q-109 0 -171.5 -87.5 q-62.5 -87.5 -62.5 -241.5 q0 -157 62.5 -244 q62.5 -87 172.5 -87 q87 0 142 49.5 q55 49.5 69 137.5 l272 0 q-11 -190 -143 -303 q-132 -113 -343 -113 q-244 0 -386 149.5 q-142 149.5 -142 410.5 q0 257 142.5 407.5 q142.5 150.5 383.5 150.5 q214 0 345.5 -118 q131.5 -118 141.5 -304 Z" /><glyph glyph-name="d" unicode="d" d="M493 -17 q-201 0 -319 149 q-118 149 -118 406 q0 255 118.5 403 q118.5 148 320.5 148 q114 0 200.5 -55 q86.5 -55 126.5 -146 l6 0 l0 555 l292 0 l0 -1443 l-288 0 l0 184 l-5 0 q-40 -91 -129 -146 q-89 -55 -205 -55 ZM592 855 q-110 0 -173.5 -86 q-63.5 -86 -63.5 -233 q0 -148 63.5 -233 q63.5 -85 173.5 -85 q109 0 173.5 85.5 q64.5 85.5 64.5 232.5 q0 146 -64.5 232.5 q-64.5 86.5 -173.5 86.5 Z" /><glyph glyph-name="e" unicode="e" d="M576 879 q-95 0 -158.5 -65 q-63.5 -65 -71.5 -166 l455 0 q-5 103 -66.5 167 q-61.5 64 -158.5 64 ZM805 328 l268 0 q-24 -158 -157.5 -254.5 q-133.5 -96.5 -331.5 -96.5 q-247 0 -387.5 148 q-140.5 148 -140.5 406 q0 257 140 410.5 q140 153.5 377 153.5 q233 0 371 -146 q138 -146 138 -391 l0 -89 l-739 0 l0 -18 q0 -115 67.5 -186.5 q67.5 -71.5 178.5 -71.5 q80 0 138 36.5 q58 36.5 78 98.5 Z" /><glyph glyph-name="f" unicode="f" d="M173 0 l0 852 l-146 0 l0 215 l146 0 l0 81 q0 160 82.5 234 q82.5 74 270.5 74 q86 0 149 -13 l0 -193 q-32 6 -79 6 q-138 0 -138 -118 l0 -71 l213 0 l0 -215 l-206 0 l0 -852 l-292 0 Z" /><glyph glyph-name="g" unicode="g" d="M590 228 q110 0 174.5 82.5 q64.5 82.5 64.5 227.5 q0 145 -65 231 q-65 86 -174 86 q-108 0 -171.5 -85.5 q-63.5 -85.5 -63.5 -231.5 q0 -146 63 -228 q63 -82 172 -82 ZM585 -404 q-209 0 -343.5 91.5 q-134.5 91.5 -152.5 236.5 l286 0 q17 -56 76.5 -90.5 q59.5 -34.5 141.5 -34.5 q111 0 173 56.5 q62 56.5 62 151.5 l0 188 l-6 0 q-38 -87 -127 -139.5 q-89 -52.5 -204 -52.5 q-198 0 -316.5 144 q-118.5 144 -118.5 393 q0 255 118 402 q118 147 322 147 q114 0 201 -55 q87 -55 130 -149 l5 0 l0 187 l288 0 l0 -1057 q0 -191 -146.5 -305 q-146.5 -114 -388.5 -114 Z" /><glyph glyph-name="h" unicode="h" d="M102 0 l0 1443 l287 0 l0 -562 l6 0 q43 102 129.5 156.5 q86.5 54.5 207.5 54.5 q177 0 275.5 -107.5 q98.5 -107.5 98.5 -294.5 l0 -690 l-292 0 l0 628 q0 105 -51.5 163.5 q-51.5 58.5 -149.5 58.5 q-102 0 -160.5 -65.5 q-58.5 -65.5 -58.5 -172.5 l0 -612 l-292 0 Z" /><glyph glyph-name="i" unicode="i" d="M100 0 l0 1072 l292 0 l0 -1072 l-292 0 ZM357 1234 q-45 -44 -111 -44 q-66 0 -111 44 q-45 44 -45 107 q0 64 45 107.5 q45 43.5 111 43.5 q66 0 111 -43.5 q45 -43.5 45 -107.5 q0 -63 -45 -107 Z" /><glyph glyph-name="j" unicode="j" d="M392 1072 l0 -1122 q0 -163 -98 -247 q-98 -84 -286 -84 q-54 0 -80 4 l0 215 q14 -2 37 -2 q73 0 104 28.5 q31 28.5 31 93.5 l0 1114 l292 0 ZM357 1234 q-45 -44 -111 -44 q-66 0 -111 44 q-45 44 -45 107 q0 64 45 107.5 q45 43.5 111 43.5 q66 0 111 -43.5 q45 -43.5 45 -107.5 q0 -63 -45 -107 Z" /><glyph glyph-name="k" unicode="k" d="M398 642 l364 430 l331 0 l-409 -460 l429 -612 l-336 0 l-307 436 l-76 -82 l0 -354 l-292 0 l0 1443 l292 0 l0 -801 l4 0 Z" /><glyph glyph-name="l" unicode="l" d="M102 0 l0 1443 l292 0 l0 -1443 l-292 0 Z" /><glyph glyph-name="m" unicode="m" d="M95 0 l0 1072 l282 0 l0 -194 l6 0 q34 98 116 156 q82 58 190 58 q116 0 194 -57.5 q78 -57.5 105 -162.5 l6 0 q36 101 125.5 160.5 q89.5 59.5 207.5 59.5 q158 0 254.5 -99 q96.5 -99 96.5 -261 l0 -732 l-292 0 l0 659 q0 93 -45 142.5 q-45 49.5 -130 49.5 q-83 0 -133.5 -55 q-50.5 -55 -50.5 -145 l0 -651 l-281 0 l0 668 q0 86 -46 134.5 q-46 48.5 -127 48.5 q-83 0 -134.5 -57 q-51.5 -57 -51.5 -147 l0 -647 l-292 0 Z" /><glyph glyph-name="n" unicode="n" d="M95 0 l0 1072 l282 0 l0 -191 l6 0 q44 102 128.5 156.5 q84.5 54.5 206.5 54.5 q178 0 275 -106 q97 -106 97 -295 l0 -691 l-292 0 l0 630 q0 106 -50 163 q-50 57 -147 57 q-97 0 -155.5 -65 q-58.5 -65 -58.5 -170 l0 -615 l-292 0 Z" /><glyph glyph-name="o" unicode="o" d="M975 125.5 q-143 -148.5 -388 -148.5 q-245 0 -388 149 q-143 149 -143 411 q0 259 144.5 408.5 q144.5 149.5 386.5 149.5 q243 0 387 -149.5 q144 -149.5 144 -408.5 q0 -263 -143 -411.5 ZM587 200 q108 0 171 88 q63 88 63 248 q0 158 -63 247 q-63 89 -171 89 q-108 0 -171.5 -89 q-63.5 -89 -63.5 -247 q0 -160 63 -248 q63 -88 172 -88 Z" /><glyph glyph-name="p" unicode="p" d="M721 1089 q204 0 321.5 -147 q117.5 -147 117.5 -406 q0 -258 -116 -405.5 q-116 -147.5 -318 -147.5 q-115 0 -202.5 52.5 q-87.5 52.5 -130.5 144.5 l-6 0 l0 -530 l-292 0 l0 1422 l288 0 l0 -187 l6 0 q44 96 130.5 150 q86.5 54 201.5 54 ZM623 218 q109 0 173.5 86 q64.5 86 64.5 232 q0 146 -64.5 232.5 q-64.5 86.5 -173.5 86.5 q-107 0 -172 -87.5 q-65 -87.5 -65 -231.5 q0 -145 64.5 -231.5 q64.5 -86.5 172.5 -86.5 Z" /><glyph glyph-name="q" unicode="q" d="M496 1089 q115 0 201.5 -55 q86.5 -55 128.5 -149 l6 0 l0 187 l288 0 l0 -1422 l-292 0 l0 533 l-6 0 q-38 -90 -127 -145 q-89 -55 -204 -55 q-201 0 -318 149 q-117 149 -117 406 q0 255 118.5 403 q118.5 148 321.5 148 ZM418 303 q63 -85 172 -85 q109 0 174 86 q65 86 65 232 q0 146 -65.5 232.5 q-65.5 86.5 -173.5 86.5 q-109 0 -172 -85.5 q-63 -85.5 -63 -233.5 q0 -148 63 -233 Z" /><glyph glyph-name="r" unicode="r" d="M95 0 l0 1072 l282 0 l0 -193 l6 0 q28 102 94 156 q66 54 161 54 q46 0 83 -11 l0 -257 q-41 17 -106 17 q-108 0 -168 -63 q-60 -63 -60 -176 l0 -599 l-292 0 Z" /><glyph glyph-name="s" unicode="s" d="M77 757 q0 153 123 245.5 q123 92.5 329 92.5 q201 0 323 -94 q122 -94 125 -250 l-269 0 q-5 65 -53.5 102 q-48.5 37 -129.5 37 q-76 0 -121.5 -31.5 q-45.5 -31.5 -45.5 -83.5 q0 -78 140 -111 l205 -44 q161 -36 231.5 -104.5 q70.5 -68.5 70.5 -188.5 q0 -158 -132 -254 q-132 -96 -345 -96 q-212 0 -339 94 q-127 94 -139 253 l285 0 q11 -68 62.5 -105 q51.5 -37 138.5 -37 q83 0 130.5 30.5 q47.5 30.5 47.5 83.5 q0 41 -30 65.5 q-30 24.5 -102 41.5 l-198 44 q-307 70 -307 310 Z" /><glyph glyph-name="t" unicode="t" d="M173 1319 l292 0 l0 -247 l198 0 l0 -220 l-198 0 l0 -513 q0 -121 126 -121 q41 0 71 5 l0 -215 q-51 -12 -139 -12 q-189 0 -269.5 68 q-80.5 68 -80.5 225 l0 563 l-151 0 l0 220 l151 0 l0 247 Z" /><glyph glyph-name="u" unicode="u" d="M1085 1072 l0 -1072 l-282 0 l0 193 l-6 0 q-84 -213 -321 -213 q-176 0 -281 107.5 q-105 107.5 -105 293.5 l0 691 l292 0 l0 -630 q0 -107 51.5 -163 q51.5 -56 148.5 -56 q97 0 154 64 q57 64 57 171 l0 614 l292 0 Z" /><glyph glyph-name="v" unicode="v" d="M1075 1072 l-368 -1072 l-330 0 l-371 1072 l313 0 l223 -814 l6 0 l222 814 l305 0 Z" /><glyph glyph-name="w" unicode="w" d="M1599 1072 l-284 -1072 l-311 0 l-194 758 l-6 0 l-193 -758 l-307 0 l-285 1072 l294 0 l162 -795 l6 0 l190 795 l280 0 l191 -795 l6 0 l163 795 l288 0 Z" /><glyph glyph-name="x" unicode="x" d="M536 372 l-6 0 l-201 -372 l-307 0 l336 534 l-334 538 l329 0 l193 -362 l6 0 l190 362 l318 0 l-335 -530 l332 -542 l-317 0 l-204 372 Z" /><glyph glyph-name="y" unicode="y" d="M232 -397 q-96 0 -110 3 l0 225 q9 -2 73 -2 q81 0 123 27.5 q42 27.5 57 91.5 q0 1 5 25 q5 24 4 26 l-373 1073 l321 0 l228 -838 l5 0 l228 838 l308 0 l-369 -1096 q-69 -206 -181.5 -289.5 q-112.5 -83.5 -318.5 -83.5 Z" /><glyph glyph-name="z" unicode="z" d="M75 0 l0 166 l534 677 l0 6 l-526 0 l0 223 l865 0 l0 -185 l-502 -658 l0 -5 l514 0 l0 -224 l-885 0 Z" /><glyph glyph-name="braceleft" unicode="{" d="M277 551 q128 -14 195 -77.5 q67 -63.5 67 -171.5 l0 -205 q0 -106 39.5 -150.5 q39.5 -44.5 134.5 -44.5 l44 0 l0 -212 l-74 0 q-222 0 -322 90 q-100 90 -100 288 l0 156 q0 110 -54 156.5 q-54 46.5 -182 47.5 l0 278 q128 1 182 47.5 q54 46.5 54 156.5 l0 160 q0 196 100 284.5 q100 88.5 322 88.5 l74 0 l0 -212 l-44 0 q-95 0 -134.5 -44.5 q-39.5 -44.5 -39.5 -150.5 l0 -204 q0 -108 -67 -171.5 q-67 -63.5 -195 -77.5 l0 -32 Z" /><glyph glyph-name="bar" unicode="|" d="M528 -310 l-273 0 l0 1753 l273 0 l0 -1753 Z" /><glyph glyph-name="braceright" unicode="}" d="M505 551 l0 32 q-128 14 -195 77.5 q-67 63.5 -67 171.5 l0 204 q0 106 -39.5 150.5 q-39.5 44.5 -134.5 44.5 l-44 0 l0 212 l74 0 q223 0 323 -88.5 q100 -88.5 100 -284.5 l0 -160 q0 -110 53.5 -156.5 q53.5 -46.5 181.5 -47.5 l0 -278 q-129 -1 -182 -47 q-53 -46 -53 -156 l0 -153 q0 -200 -100.5 -291 q-100.5 -91 -322.5 -91 l-74 0 l0 212 l44 0 q94 0 134 44.5 q40 44.5 40 149.5 l0 205 q0 109 67.5 172.5 q67.5 63.5 194.5 77.5 Z" /><glyph glyph-name="asciitilde" unicode="~" d="M616 624 q-45 45 -76 63.5 q-31 18.5 -64 18.5 q-110 0 -116 -178 l-228 0 q-9 195 77.5 309.5 q86.5 114.5 243.5 114.5 q68 0 130 -31 q62 -31 130 -99 q44 -45 74 -63 q30 -18 63 -18 q111 0 117 178 l227 0 q9 -195 -77 -309.5 q-86 -114.5 -243 -114.5 q-68 0 -129 30.5 q-61 30.5 -129 98.5 Z" /><glyph glyph-name="nonbreakingspace" unicode=" " d="" /><glyph glyph-name="exclamdown" unicode="¡" d="M174 -324 l24 969 l252 0 l24 -969 l-300 0 ZM439.5 878.5 q-47.5 -45.5 -115.5 -45.5 q-68 0 -115.5 45.5 q-47.5 45.5 -47.5 110.5 q0 67 47.5 112 q47.5 45 115.5 45 q68 0 115.5 -45 q47.5 -45 47.5 -112 q0 -65 -47.5 -110.5 Z" /><glyph glyph-name="cent" unicode="¢" d="M1212 542 q-14 -162 -127.5 -271.5 q-113.5 -109.5 -288.5 -135.5 l0 -182 l-242 0 l0 187 q-202 38 -320.5 188 q-118.5 150 -118.5 375 q0 222 119 371.5 q119 149.5 320 186.5 l0 187 l242 0 l0 -183 q174 -26 289.5 -140 q115.5 -114 126.5 -273 l-272 0 q-17 86 -85.5 138.5 q-68.5 52.5 -165.5 52.5 q-124 0 -202.5 -93 q-78.5 -93 -78.5 -247 q0 -156 78.5 -250.5 q78.5 -94.5 201.5 -94.5 q103 0 168.5 46.5 q65.5 46.5 83.5 137.5 l272 0 Z" /><glyph glyph-name="sterling" unicode="£" d="M516 248 l714 0 l0 -248 l-1124 0 l0 232 q134 20 218.5 111 q84.5 91 84.5 215 q0 32 -7 76 l-292 0 l0 207 l224 0 q-59 148 -59 244 q0 187 146.5 291 q146.5 104 411.5 104 q90 0 184 -14.5 q94 -14.5 146 -35.5 l0 -236 q-49 22 -131.5 36.5 q-82.5 14.5 -160.5 14.5 q-139 0 -216 -53.5 q-77 -53.5 -77 -150.5 q0 -76 45 -200 l414 0 l0 -207 l-349 0 q4 -38 4 -57 q0 -102 -50 -188 q-50 -86 -126 -133 l0 -8 Z" /><glyph glyph-name="currency" unicode="¤" d="M499 815 q-69 -70 -69 -166 q0 -96 69 -165.5 q69 -69.5 165 -69.5 q96 0 165 69.5 q69 69.5 69 165.5 q0 96 -69 166 q-69 70 -165 70 q-96 0 -165 -70 ZM1203 1023 l-149 -149 q60 -104 60 -225 q0 -121 -60 -225 l149 -149 l-166 -166 l-150 150 q-103 -60 -223 -60 q-120 0 -224 60 l-150 -150 l-166 166 l150 150 q-60 104 -60 224 q0 120 60 224 l-150 150 l166 166 l149 -149 q106 60 225 60 q120 0 224 -60 l149 149 l166 -166 Z" /><glyph glyph-name="yen" unicode="¥" d="M1086 212 l-271 0 l0 -212 l-302 0 l0 212 l-271 0 l0 166 l271 0 l0 136 l-271 0 l0 166 l195 0 l-427 763 l327 0 l323 -613 l9 0 l320 613 l327 0 l-425 -763 l195 0 l0 -166 l-271 0 l0 -136 l271 0 l0 -166 Z" /><glyph glyph-name="brokenbar" unicode="¦" d="M528 743 l-273 0 l0 700 l273 0 l0 -700 ZM528 -310 l-273 0 l0 700 l273 0 l0 -700 Z" /><glyph glyph-name="section" unicode="§" d="M445 449 l109 -36 q59 8 99 49 q40 41 40 94 q0 49 -36.5 85.5 q-36.5 36.5 -104.5 55.5 l-109 37 q-58 -8 -99 -50 q-41 -42 -41 -93 q0 -48 37.5 -85.5 q37.5 -37.5 104.5 -56.5 ZM496 -284 q-187 0 -308 92 q-121 92 -128 240 l253 0 q7 -57 59.5 -92 q52.5 -35 127.5 -35 q78 0 126 36 q48 36 48 94 q0 43 -35 73 q-35 30 -114 54 l-175 58 q-158 51 -229.5 122 q-71.5 71 -71.5 178 q0 94 57.5 165 q57.5 71 157.5 102 l0 18 q-107 49 -156 114.5 q-49 65.5 -49 159.5 q0 151 120 243 q120 92 318 92 q184 0 301.5 -89 q117.5 -89 128.5 -237 l-251 0 q-7 55 -57 88.5 q-50 33.5 -124 33.5 q-77 0 -124 -35.5 q-47 -35.5 -47 -93.5 q0 -43 34 -72.5 q34 -29.5 113 -55.5 l171 -58 q160 -53 232 -123 q72 -70 72 -173 q0 -98 -63.5 -174 q-63.5 -76 -167.5 -104 l0 -18 q116 -43 169.5 -106.5 q53.5 -63.5 53.5 -159.5 q0 -151 -122 -244 q-122 -93 -320 -93 Z" /><glyph glyph-name="dieresis" unicode="¨" d="M396.5 1317 q-38.5 -38 -95.5 -38 q-57 0 -95.5 38 q-38.5 38 -38.5 92 q0 54 38.5 92 q38.5 38 95.5 38 q57 0 95.5 -38 q38.5 -38 38.5 -92 q0 -54 -38.5 -92 ZM804.5 1317 q-38.5 -38 -95.5 -38 q-57 0 -95.5 38 q-38.5 38 -38.5 92 q0 54 38.5 92 q38.5 38 95.5 38 q57 0 95.5 -38 q38.5 -38 38.5 -92 q0 -54 -38.5 -92 Z" /><glyph glyph-name="copyright" unicode="©" d="M1157 -77.5 q-146 -61.5 -308 -61.5 q-162 0 -308 62 q-146 62 -251.5 167 q-105.5 105 -167.5 251.5 q-62 146.5 -62 308.5 q0 163 62 309.5 q62 146.5 167.5 251.5 q105.5 105 251.5 166.5 q146 61.5 308 61.5 q216 0 397 -104 q181 -104 286 -285.5 q105 -181.5 105 -399.5 q0 -163 -62 -309 q-62 -146 -167 -251.5 q-105 -105.5 -251 -167 ZM534.5 107.5 q143.5 -82.5 314.5 -82.5 q171 0 314.5 82.5 q143.5 82.5 226.5 226 q83 143.5 83 316.5 q0 130 -49 246.5 q-49 116.5 -132.5 199.5 q-83.5 83 -199 131.5 q-115.5 48.5 -243.5 48.5 q-171 0 -314.5 -82 q-143.5 -82 -227 -226.5 q-83.5 -144.5 -83.5 -317.5 q0 -173 83.5 -316.5 q83.5 -143.5 227 -226 ZM1216 760 l-188 0 q-12 58 -54.5 93.5 q-42.5 35.5 -107.5 35.5 q-84 0 -133 -63 q-49 -63 -49 -174 q0 -113 48.5 -176.5 q48.5 -63.5 133.5 -63.5 q65 0 107.5 32 q42.5 32 54.5 90 l188 0 q-14 -129 -107.5 -205.5 q-93.5 -76.5 -243.5 -76.5 q-177 0 -280 107 q-103 107 -103 293 q0 183 103 290 q103 107 278 107 q149 0 243.5 -80 q94.5 -80 109.5 -209 Z" /><glyph glyph-name="ordfeminine" unicode="ª" d="M366 858 q60 0 100.5 32.5 q40.5 32.5 40.5 81.5 l0 51 l-137 -9 q-104 -8 -104 -79 q0 -35 27 -56 q27 -21 73 -21 ZM284 697 q-108 0 -178 63 q-70 63 -70 160 q0 101 76 158.5 q76 57.5 222 66.5 l173 10 l0 43 q0 44 -29.5 69 q-29.5 25 -80.5 25 q-46 0 -77.5 -22 q-31.5 -22 -36.5 -58 l-210 0 q5 112 96 179.5 q91 67.5 239 67.5 q147 0 236.5 -68 q89.5 -68 89.5 -180 l0 -505 l-226 0 l0 107 l-4 0 q-28 -54 -88 -85 q-60 -31 -132 -31 Z" /><glyph glyph-name="guillemotleft" unicode="«" d="M386 572 l0 -10 l346 -411 l-275 0 l-344 411 l0 8 l348 411 l271 0 l-346 -409 ZM897 572 l0 -10 l346 -411 l-275 0 l-344 411 l0 8 l348 411 l271 0 l-346 -409 Z" /><glyph glyph-name="logicalnot" unicode="¬" d="M1185 708 l0 -642 l-255 0 l0 394 l-789 0 l0 248 l1044 0 Z" /><glyph glyph-name="registered" unicode="®" d="M589 565 q-215 0 -362 145.5 q-147 145.5 -147 358.5 q0 213 147 358.5 q147 145.5 362 145.5 q141 0 258 -66 q117 -66 184 -182 q67 -116 67 -256 q0 -140 -67 -256 q-67 -116 -184 -182 q-117 -66 -258 -66 ZM325 801 q106 -108 264 -108 q158 0 264.5 108 q106.5 108 106.5 268 q0 160 -106.5 267.5 q-106.5 107.5 -264.5 107.5 q-158 0 -264 -107.5 q-106 -107.5 -106 -267.5 q0 -160 106 -268 ZM513 844 l-123 0 l0 463 l242 0 q77 0 124.5 -41 q47.5 -41 47.5 -107 q0 -52 -26.5 -89.5 q-26.5 -37.5 -71.5 -49.5 l122 -176 l-148 0 l-101 158 l-66 0 l0 -158 ZM513 1209 l0 -117 l91 0 q33 0 51.5 15.5 q18.5 15.5 18.5 43.5 q0 58 -68 58 l-93 0 Z" /><glyph glyph-name="macron" unicode="¯" d="M820 1462 l0 -148 l-639 0 l0 148 l639 0 Z" /><glyph glyph-name="degree" unicode="°" d="M376 820 q-135 0 -226.5 92 q-91.5 92 -91.5 227 q0 134 91.5 226 q91.5 92 226.5 92 q135 0 226.5 -92 q91.5 -92 91.5 -226 q0 -135 -92 -227 q-92 -92 -226 -92 ZM376 992 q61 0 102.5 43.5 q41.5 43.5 41.5 103.5 q0 61 -41.5 103.5 q-41.5 42.5 -102.5 42.5 q-58 0 -101 -43 q-43 -43 -43 -103 q0 -59 43 -103 q43 -44 101 -44 Z" /><glyph glyph-name="plusminus" unicode="±" d="M1160 75 l-996 0 l0 218 l996 0 l0 -218 ZM787 651 l0 -239 l-248 0 l0 239 l-375 0 l0 216 l375 0 l0 240 l248 0 l0 -240 l375 0 l0 -216 l-375 0 Z" /><glyph glyph-name="twosuperior" unicode="²" d="M31 1574 q0 112 81 178.5 q81 66.5 217 66.5 q129 0 207.5 -58.5 q78.5 -58.5 78.5 -153.5 q0 -57 -28.5 -104 q-28.5 -47 -99.5 -107 l-146 -125 l0 -4 l282 0 l0 -172 l-578 0 l0 153 l290 248 q57 53 57 92 q0 28 -20.5 45.5 q-20.5 17.5 -53.5 17.5 q-33 0 -55 -22 q-22 -22 -22 -55 l0 -5 l-210 0 l0 5 Z" /><glyph glyph-name="threesuperior" unicode="³" d="M255 1379 l0 148 l87 0 q34 0 55.5 17.5 q21.5 17.5 21.5 45.5 q0 29 -21.5 46 q-21.5 17 -58.5 17 q-37 0 -59.5 -21 q-22.5 -21 -24.5 -55 l-205 0 q-2 110 78.5 176 q80.5 66 215.5 66 q129 0 208 -54 q79 -54 79 -142 q0 -61 -40.5 -105 q-40.5 -44 -106.5 -55 l0 -5 q79 -9 124.5 -53.5 q45.5 -44.5 45.5 -113.5 q0 -100 -84.5 -158.5 q-84.5 -58.5 -227.5 -58.5 q-133 0 -216.5 67 q-83.5 67 -88.5 177 l219 0 q1 -31 24 -48.5 q23 -17.5 61 -17.5 q37 0 59.5 17.5 q22.5 17.5 22.5 45.5 q0 30 -22.5 47 q-22.5 17 -61.5 17 l-84 0 Z" /><glyph glyph-name="acute" unicode="´" d="M492 1282 l-233 0 l221 310 l268 0 l-256 -310 Z" /><glyph glyph-name="mu" unicode="µ&#x3bc;" d="M95 -350 l0 1422 l290 0 l0 -624 q0 -225 199 -225 q102 0 159.5 64 q57.5 64 57.5 171 l0 614 l289 0 l0 -742 q0 -66 19 -93.5 q19 -27.5 64 -27.5 q38 0 56 10 l5 -210 q-59 -18 -143 -18 q-105 0 -167 37 q-62 37 -96 121 q-2 6 -5.5 17 q-3.5 11 -5.5 15 l-5 0 q-35 -94 -100.5 -147.5 q-65.5 -53.5 -150.5 -53.5 q-55 0 -101 22 q-46 22 -68 57 l-5 0 l0 -409 l-292 0 Z" /><glyph glyph-name="paragraph" unicode="¶" d="M914 -255 l-280 0 l0 710 l-20 0 q-225 0 -374.5 141.5 q-149.5 141.5 -149.5 348.5 q0 216 147 357 q147 141 378 141 l299 0 l0 -1698 ZM1083 -255 l0 1698 l280 0 l0 -1698 l-280 0 Z" /><glyph glyph-name="periodcentered" unicode="·" d="M432 513 q-48 -48 -116 -48 q-68 0 -116 48 q-48 48 -48 116 q0 69 48 116.5 q48 47.5 116 47.5 q68 0 116 -47.5 q48 -47.5 48 -116.5 q0 -68 -48 -116 Z" /><glyph glyph-name="cedilla" unicode="¸" d="M366 -227 l0 98 l64 141 l152 0 l0 -12 l-51 -110 q86 -1 137 -44.5 q51 -43.5 51 -119.5 q0 -89 -66 -137 q-66 -48 -182 -49 q-97 -2 -142 14 l0 122 q41 -12 112 -12 q111 0 111 54 q0 30 -28 42.5 q-28 12.5 -95 12.5 l-63 0 Z" /><glyph glyph-name="onesuperior" unicode="¹" d="M230 1095 l0 511 l-4 0 l-172 -112 l0 190 l174 114 l230 0 l0 -703 l-228 0 Z" /><glyph glyph-name="ordmasculine" unicode="º" d="M691 792 q-100 -101 -275 -101 q-175 0 -275 101.5 q-100 101.5 -100 282.5 q0 178 101 281 q101 103 274 103 q173 0 274 -102.5 q101 -102.5 101 -281.5 q0 -182 -100 -283 ZM416 862 q65 0 102 56 q37 56 37 157 q0 99 -37 155.5 q-37 56.5 -102 56.5 q-65 0 -102 -56.5 q-37 -56.5 -37 -155.5 q0 -102 36.5 -157.5 q36.5 -55.5 102.5 -55.5 Z" /><glyph glyph-name="guillemotright" unicode="»" d="M459 572 l-346 409 l271 0 l348 -411 l0 -8 l-344 -411 l-275 0 l346 411 l0 10 ZM970 572 l-346 409 l271 0 l348 -411 l0 -8 l-344 -411 l-275 0 l346 411 l0 10 Z" /><glyph glyph-name="onequarter" unicode="¼" d="M240 743 l0 511 l-4 0 l-172 -112 l0 190 l174 114 l230 0 l0 -703 l-228 0 ZM363 0 l-242 0 l560 767 l494 676 l241 0 l-545 -747 l-508 -696 ZM1289 0 l0 96 l-344 0 l0 190 q88 173 244 417 l318 0 l0 -432 l80 0 l0 -175 l-80 0 l0 -96 l-218 0 ZM1133 265 l0 -4 l163 0 l0 294 l-4 0 q-103 -176 -159 -290 Z" /><glyph glyph-name="onehalf" unicode="½" d="M240 743 l0 511 l-4 0 l-172 -112 l0 190 l174 114 l230 0 l0 -703 l-228 0 ZM363 0 l-242 0 l560 767 l494 676 l241 0 l-545 -747 l-508 -696 ZM994 479 q0 112 81 178.5 q81 66.5 217 66.5 q129 0 207.5 -58.5 q78.5 -58.5 78.5 -153.5 q0 -57 -28.5 -104 q-28.5 -47 -99.5 -107 l-146 -125 l0 -4 l282 0 l0 -172 l-578 0 l0 153 l290 248 q57 53 57 92 q0 28 -20.5 45.5 q-20.5 17.5 -53.5 17.5 q-33 0 -55 -22 q-22 -22 -22 -55 l0 -5 l-210 0 l0 5 Z" /><glyph glyph-name="threequarters" unicode="¾" d="M255 1027 l0 148 l87 0 q34 0 55.5 17.5 q21.5 17.5 21.5 45.5 q0 29 -21.5 46 q-21.5 17 -58.5 17 q-37 0 -59.5 -21 q-22.5 -21 -24.5 -55 l-205 0 q-2 110 78.5 176 q80.5 66 215.5 66 q129 0 208 -54 q79 -54 79 -142 q0 -61 -40.5 -105 q-40.5 -44 -106.5 -55 l0 -5 q79 -9 124.5 -53.5 q45.5 -44.5 45.5 -113.5 q0 -100 -84.5 -158.5 q-84.5 -58.5 -227.5 -58.5 q-133 0 -216.5 67 q-83.5 67 -88.5 177 l219 0 q1 -31 24 -48.5 q23 -17.5 61 -17.5 q37 0 59.5 17.5 q22.5 17.5 22.5 45.5 q0 30 -22.5 47 q-22.5 17 -61.5 17 l-84 0 ZM468 0 l-242 0 l560 767 l494 676 l241 0 l-545 -747 l-508 -696 ZM1379 0 l0 96 l-344 0 l0 190 q88 173 244 417 l318 0 l0 -432 l80 0 l0 -175 l-80 0 l0 -96 l-218 0 ZM1223 265 l0 -4 l163 0 l0 294 l-4 0 q-103 -176 -159 -290 Z" /><glyph glyph-name="questiondown" unicode="¿" d="M1040 80 q-4 -189 -132 -303.5 q-128 -114.5 -353 -114.5 q-214 0 -345 107.5 q-131 107.5 -131 280.5 q0 110 53.5 192 q53.5 82 160.5 146 q100 59 135 105 q35 46 35 119 l0 53 l264 0 l2 -58 q10 -116 -32 -191 q-42 -75 -148 -137 q-97 -58 -132.5 -104 q-35.5 -46 -35.5 -116 q0 -73 53 -119 q53 -46 138 -46 q85 0 138 50.5 q53 50.5 58 135.5 l272 0 ZM700.5 878.5 q-47.5 -45.5 -115.5 -45.5 q-68 0 -116 45.5 q-48 45.5 -48 110.5 q0 66 47.5 111.5 q47.5 45.5 116.5 45.5 q68 0 115.5 -45.5 q47.5 -45.5 47.5 -111.5 q0 -65 -47.5 -110.5 Z" /><glyph glyph-name="Agrave" unicode="à" d="M1065 0 l-110 350 l-507 0 l-110 -350 l-310 0 l501 1443 l355 0 l502 -1443 l-321 0 ZM698 1167 l-185 -591 l377 0 l-185 591 l-7 0 ZM589 1563 l-267 305 l271 0 l226 -305 l-230 0 Z" /><glyph glyph-name="Aacute" unicode="á" d="M1065 0 l-110 350 l-507 0 l-110 -350 l-310 0 l501 1443 l355 0 l502 -1443 l-321 0 ZM698 1167 l-185 -591 l377 0 l-185 591 l-7 0 ZM822 1558 l-230 0 l226 305 l271 0 l-267 -305 Z" /><glyph glyph-name="Acircumflex" unicode="â" d="M1065 0 l-110 350 l-507 0 l-110 -350 l-310 0 l501 1443 l355 0 l502 -1443 l-321 0 ZM698 1167 l-185 -591 l377 0 l-185 591 l-7 0 ZM595 1855 l224 0 l269 -317 l-221 0 l-156 192 l-8 0 l-156 -192 l-221 0 l269 317 Z" /><glyph glyph-name="Atilde" unicode="ã" d="M1065 0 l-110 350 l-507 0 l-110 -350 l-310 0 l501 1443 l355 0 l502 -1443 l-321 0 ZM698 1167 l-185 -591 l377 0 l-185 591 l-7 0 ZM849 1563 q-47 0 -89.5 21.5 q-42.5 21.5 -67.5 46.5 q-25 25 -54.5 46.5 q-29.5 21.5 -53.5 21.5 q-34 0 -52 -33 q-18 -33 -18 -89 l-159 0 q0 128 62 201 q62 73 158 73 q40 0 75.5 -14 q35.5 -14 60 -33.5 q24.5 -19.5 46 -39.5 q21.5 -20 43 -34 q21.5 -14 40.5 -14 q66 0 69 124 l159 0 q0 -126 -62.5 -201.5 q-62.5 -75.5 -156.5 -75.5 Z" /><glyph glyph-name="Adieresis" unicode="ä" d="M1065 0 l-110 350 l-507 0 l-110 -350 l-310 0 l501 1443 l355 0 l502 -1443 l-321 0 ZM698 1167 l-185 -591 l377 0 l-185 591 l-7 0 ZM598.5 1609 q-38.5 -38 -95.5 -38 q-57 0 -95.5 38 q-38.5 38 -38.5 92 q0 54 38.5 92 q38.5 38 95.5 38 q57 0 95.5 -38 q38.5 -38 38.5 -92 q0 -54 -38.5 -92 ZM1006.5 1609 q-38.5 -38 -95.5 -38 q-57 0 -95.5 38 q-38.5 38 -38.5 92 q0 54 38.5 92 q38.5 38 95.5 38 q57 0 95.5 -38 q38.5 -38 38.5 -92 q0 -54 -38.5 -92 Z" /><glyph glyph-name="Aring" unicode="å" d="M1065 0 l-110 350 l-507 0 l-110 -350 l-310 0 l501 1443 l355 0 l502 -1443 l-321 0 ZM698 1167 l-185 -591 l377 0 l-185 591 l-7 0 ZM852 1577.5 q-61 -59.5 -145 -59.5 q-84 0 -145 59.5 q-61 59.5 -61 142.5 q0 84 61 143 q61 59 145 59 q84 0 145 -59 q61 -59 61 -143 q0 -83 -61 -142.5 ZM642 1656.5 q27 -26.5 65 -26.5 q38 0 65 26.5 q27 26.5 27 63.5 q0 37 -27 63.5 q-27 26.5 -65 26.5 q-38 0 -65 -26.5 q-27 -26.5 -27 -63.5 q0 -37 27 -63.5 Z" /><glyph glyph-name="AE" unicode="æ" d="M830 1211 l-255 -612 l391 0 l0 612 l-136 0 ZM966 0 l0 373 l-479 0 l-158 -373 l-301 0 l613 1443 l1270 0 l0 -249 l-669 0 l0 -353 l632 0 l0 -232 l-632 0 l0 -360 l669 0 l0 -249 l-945 0 Z" /><glyph glyph-name="Ccedilla" unicode="ç" d="M1099 501 l294 0 q-24 -224 -174 -363.5 q-150 -139.5 -386 -159.5 l-41 -88 q86 -1 137 -44.5 q51 -43.5 51 -119.5 q0 -89 -66 -137 q-66 -48 -182 -49 q-97 -2 -142 14 l0 122 q41 -12 112 -12 q111 0 111 54 q0 30 -28 42.5 q-28 12.5 -95 12.5 l-63 0 l0 98 l49 108 q-280 26 -440.5 222 q-160.5 196 -160.5 521 q0 347 184 546.5 q184 199.5 499 199.5 q172 0 312.5 -68 q140.5 -68 225.5 -192 q85 -124 96 -283 l-294 0 q-21 133 -114.5 213 q-93.5 80 -225.5 80 q-171 0 -273 -134 q-102 -134 -102 -361 q0 -231 101 -364.5 q101 -133.5 275 -133.5 q134 0 225 74 q91 74 115 202 Z" /><glyph glyph-name="Egrave" unicode="è" d="M1076 250 l0 -250 l-956 0 l0 1443 l956 0 l0 -249 l-654 0 l0 -348 l617 0 l0 -232 l-617 0 l0 -364 l654 0 ZM480 1563 l-267 305 l271 0 l226 -305 l-230 0 Z" /><glyph glyph-name="Eacute" unicode="é" d="M1076 250 l0 -250 l-956 0 l0 1443 l956 0 l0 -249 l-654 0 l0 -348 l617 0 l0 -232 l-617 0 l0 -364 l654 0 ZM713 1558 l-230 0 l226 305 l271 0 l-267 -305 Z" /><glyph glyph-name="Ecircumflex" unicode="ê" d="M1076 250 l0 -250 l-956 0 l0 1443 l956 0 l0 -249 l-654 0 l0 -348 l617 0 l0 -232 l-617 0 l0 -364 l654 0 ZM486 1855 l224 0 l269 -317 l-221 0 l-156 192 l-8 0 l-156 -192 l-221 0 l269 317 Z" /><glyph glyph-name="Edieresis" unicode="ë" d="M1076 250 l0 -250 l-956 0 l0 1443 l956 0 l0 -249 l-654 0 l0 -348 l617 0 l0 -232 l-617 0 l0 -364 l654 0 ZM489.5 1609 q-38.5 -38 -95.5 -38 q-57 0 -95.5 38 q-38.5 38 -38.5 92 q0 54 38.5 92 q38.5 38 95.5 38 q57 0 95.5 -38 q38.5 -38 38.5 -92 q0 -54 -38.5 -92 ZM897.5 1609 q-38.5 -38 -95.5 -38 q-57 0 -95.5 38 q-38.5 38 -38.5 92 q0 54 38.5 92 q38.5 38 95.5 38 q57 0 95.5 -38 q38.5 -38 38.5 -92 q0 -54 -38.5 -92 Z" /><glyph glyph-name="Igrave" unicode="ì" d="M422 0 l-302 0 l0 1443 l302 0 l0 -1443 ZM153 1563 l-267 305 l271 0 l226 -305 l-230 0 Z" /><glyph glyph-name="Iacute" unicode="í" d="M422 0 l-302 0 l0 1443 l302 0 l0 -1443 ZM386 1558 l-230 0 l226 305 l271 0 l-267 -305 Z" /><glyph glyph-name="Icircumflex" unicode="î" d="M422 0 l-302 0 l0 1443 l302 0 l0 -1443 ZM159 1855 l224 0 l269 -317 l-221 0 l-156 192 l-8 0 l-156 -192 l-221 0 l269 317 Z" /><glyph glyph-name="Idieresis" unicode="ï" d="M422 0 l-302 0 l0 1443 l302 0 l0 -1443 ZM162.5 1609 q-38.5 -38 -95.5 -38 q-57 0 -95.5 38 q-38.5 38 -38.5 92 q0 54 38.5 92 q38.5 38 95.5 38 q57 0 95.5 -38 q38.5 -38 38.5 -92 q0 -54 -38.5 -92 ZM570.5 1609 q-38.5 -38 -95.5 -38 q-57 0 -95.5 38 q-38.5 38 -38.5 92 q0 54 38.5 92 q38.5 38 95.5 38 q57 0 95.5 -38 q38.5 -38 38.5 -92 q0 -54 -38.5 -92 Z" /><glyph glyph-name="Eth" unicode="ð" d="M442 250 l213 0 q203 0 309.5 121.5 q106.5 121.5 106.5 354.5 q0 226 -108 347 q-108 121 -308 121 l-213 0 l0 -351 l255 0 l0 -221 l-255 0 l0 -372 ZM140 1443 l551 0 q326 0 507 -187 q181 -187 181 -529 q0 -343 -181.5 -535 q-181.5 -192 -506.5 -192 l-551 0 l0 622 l-98 0 l0 221 l98 0 l0 600 Z" /><glyph glyph-name="Ntilde" unicode="ñ" d="M409 0 l-289 0 l0 1443 l252 0 l674 -940 l8 0 l0 940 l289 0 l0 -1443 l-250 0 l-675 945 l-9 0 l0 -945 ZM874 1563 q-47 0 -89.5 21.5 q-42.5 21.5 -67.5 46.5 q-25 25 -54.5 46.5 q-29.5 21.5 -53.5 21.5 q-34 0 -52 -33 q-18 -33 -18 -89 l-159 0 q0 128 62 201 q62 73 158 73 q40 0 75.5 -14 q35.5 -14 60 -33.5 q24.5 -19.5 46 -39.5 q21.5 -20 43 -34 q21.5 -14 40.5 -14 q66 0 69 124 l159 0 q0 -126 -62.5 -201.5 q-62.5 -75.5 -156.5 -75.5 Z" /><glyph glyph-name="Ograve" unicode="ò" d="M262.5 1267 q187.5 201 508.5 201 q321 0 508.5 -201 q187.5 -201 187.5 -546 q0 -344 -188 -545 q-188 -201 -508 -201 q-321 0 -508.5 201 q-187.5 201 -187.5 545 q0 345 187.5 546 ZM1053 1082 q-105 134 -282 134 q-177 0 -282.5 -134 q-105.5 -134 -105.5 -361 q0 -226 105 -359.5 q105 -133.5 283 -133.5 q177 0 282 133.5 q105 133.5 105 359.5 q0 227 -105 361 ZM653 1563 l-267 305 l271 0 l226 -305 l-230 0 Z" /><glyph glyph-name="Oacute" unicode="ó" d="M262.5 1267 q187.5 201 508.5 201 q321 0 508.5 -201 q187.5 -201 187.5 -546 q0 -344 -188 -545 q-188 -201 -508 -201 q-321 0 -508.5 201 q-187.5 201 -187.5 545 q0 345 187.5 546 ZM1053 1082 q-105 134 -282 134 q-177 0 -282.5 -134 q-105.5 -134 -105.5 -361 q0 -226 105 -359.5 q105 -133.5 283 -133.5 q177 0 282 133.5 q105 133.5 105 359.5 q0 227 -105 361 ZM886 1558 l-230 0 l226 305 l271 0 l-267 -305 Z" /><glyph glyph-name="Ocircumflex" unicode="ô" d="M262.5 1267 q187.5 201 508.5 201 q321 0 508.5 -201 q187.5 -201 187.5 -546 q0 -344 -188 -545 q-188 -201 -508 -201 q-321 0 -508.5 201 q-187.5 201 -187.5 545 q0 345 187.5 546 ZM1053 1082 q-105 134 -282 134 q-177 0 -282.5 -134 q-105.5 -134 -105.5 -361 q0 -226 105 -359.5 q105 -133.5 283 -133.5 q177 0 282 133.5 q105 133.5 105 359.5 q0 227 -105 361 ZM659 1855 l224 0 l269 -317 l-221 0 l-156 192 l-8 0 l-156 -192 l-221 0 l269 317 Z" /><glyph glyph-name="Otilde" unicode="õ" d="M262.5 1267 q187.5 201 508.5 201 q321 0 508.5 -201 q187.5 -201 187.5 -546 q0 -344 -188 -545 q-188 -201 -508 -201 q-321 0 -508.5 201 q-187.5 201 -187.5 545 q0 345 187.5 546 ZM1053 1082 q-105 134 -282 134 q-177 0 -282.5 -134 q-105.5 -134 -105.5 -361 q0 -226 105 -359.5 q105 -133.5 283 -133.5 q177 0 282 133.5 q105 133.5 105 359.5 q0 227 -105 361 ZM913 1563 q-47 0 -89.5 21.5 q-42.5 21.5 -67.5 46.5 q-25 25 -54.5 46.5 q-29.5 21.5 -53.5 21.5 q-34 0 -52 -33 q-18 -33 -18 -89 l-159 0 q0 128 62 201 q62 73 158 73 q40 0 75.5 -14 q35.5 -14 60 -33.5 q24.5 -19.5 46 -39.5 q21.5 -20 43 -34 q21.5 -14 40.5 -14 q66 0 69 124 l159 0 q0 -126 -62.5 -201.5 q-62.5 -75.5 -156.5 -75.5 Z" /><glyph glyph-name="Odieresis" unicode="ö" d="M262.5 1267 q187.5 201 508.5 201 q321 0 508.5 -201 q187.5 -201 187.5 -546 q0 -344 -188 -545 q-188 -201 -508 -201 q-321 0 -508.5 201 q-187.5 201 -187.5 545 q0 345 187.5 546 ZM1053 1082 q-105 134 -282 134 q-177 0 -282.5 -134 q-105.5 -134 -105.5 -361 q0 -226 105 -359.5 q105 -133.5 283 -133.5 q177 0 282 133.5 q105 133.5 105 359.5 q0 227 -105 361 ZM662.5 1609 q-38.5 -38 -95.5 -38 q-57 0 -95.5 38 q-38.5 38 -38.5 92 q0 54 38.5 92 q38.5 38 95.5 38 q57 0 95.5 -38 q38.5 -38 38.5 -92 q0 -54 -38.5 -92 ZM1070.5 1609 q-38.5 -38 -95.5 -38 q-57 0 -95.5 38 q-38.5 38 -38.5 92 q0 54 38.5 92 q38.5 38 95.5 38 q57 0 95.5 -38 q38.5 -38 38.5 -92 q0 -54 -38.5 -92 Z" /><glyph glyph-name="multiply" unicode="×" d="M664 409 l-305 -304 l-175 175 l304 304 l-304 305 l175 175 l305 -304 l304 304 l175 -175 l-304 -305 l304 -304 l-175 -175 l-304 304 Z" /><glyph glyph-name="Oslash" unicode="ø" d="M1081 1041 l-505 -759 q85 -54 195 -54 q177 0 282 133.5 q105 133.5 105 359.5 q0 194 -77 320 ZM484 366 l514 773 q-94 77 -227 77 q-177 0 -282.5 -134 q-105.5 -134 -105.5 -361 q0 -223 101 -355 ZM1350 1446 l-100 -150 q217 -203 217 -575 q0 -344 -188 -545 q-188 -201 -508 -201 q-197 0 -347 78 l-80 -120 l-102 68 l80 120 q-120 97 -183.5 250 q-63.5 153 -63.5 350 q0 345 187.5 546 q187.5 201 508.5 201 q220 0 381 -98 l90 136 l108 -60 Z" /><glyph glyph-name="Ugrave" unicode="ù" d="M422 1443 l0 -903 q0 -141 79.5 -223.5 q79.5 -82.5 223.5 -82.5 q143 0 222.5 82.5 q79.5 82.5 79.5 223.5 l0 903 l302 0 l0 -933 q0 -240 -164.5 -387.5 q-164.5 -147.5 -439.5 -147.5 q-276 0 -440.5 147.5 q-164.5 147.5 -164.5 387.5 l0 933 l302 0 ZM607 1563 l-267 305 l271 0 l226 -305 l-230 0 Z" /><glyph glyph-name="Uacute" unicode="ú" d="M422 1443 l0 -903 q0 -141 79.5 -223.5 q79.5 -82.5 223.5 -82.5 q143 0 222.5 82.5 q79.5 82.5 79.5 223.5 l0 903 l302 0 l0 -933 q0 -240 -164.5 -387.5 q-164.5 -147.5 -439.5 -147.5 q-276 0 -440.5 147.5 q-164.5 147.5 -164.5 387.5 l0 933 l302 0 ZM840 1558 l-230 0 l226 305 l271 0 l-267 -305 Z" /><glyph glyph-name="Ucircumflex" unicode="û" d="M422 1443 l0 -903 q0 -141 79.5 -223.5 q79.5 -82.5 223.5 -82.5 q143 0 222.5 82.5 q79.5 82.5 79.5 223.5 l0 903 l302 0 l0 -933 q0 -240 -164.5 -387.5 q-164.5 -147.5 -439.5 -147.5 q-276 0 -440.5 147.5 q-164.5 147.5 -164.5 387.5 l0 933 l302 0 ZM613 1855 l224 0 l269 -317 l-221 0 l-156 192 l-8 0 l-156 -192 l-221 0 l269 317 Z" /><glyph glyph-name="Udieresis" unicode="ü" d="M422 1443 l0 -903 q0 -141 79.5 -223.5 q79.5 -82.5 223.5 -82.5 q143 0 222.5 82.5 q79.5 82.5 79.5 223.5 l0 903 l302 0 l0 -933 q0 -240 -164.5 -387.5 q-164.5 -147.5 -439.5 -147.5 q-276 0 -440.5 147.5 q-164.5 147.5 -164.5 387.5 l0 933 l302 0 ZM616.5 1609 q-38.5 -38 -95.5 -38 q-57 0 -95.5 38 q-38.5 38 -38.5 92 q0 54 38.5 92 q38.5 38 95.5 38 q57 0 95.5 -38 q38.5 -38 38.5 -92 q0 -54 -38.5 -92 ZM1024.5 1609 q-38.5 -38 -95.5 -38 q-57 0 -95.5 38 q-38.5 38 -38.5 92 q0 54 38.5 92 q38.5 38 95.5 38 q57 0 95.5 -38 q38.5 -38 38.5 -92 q0 -54 -38.5 -92 Z" /><glyph glyph-name="Yacute" unicode="ý" d="M832 0 l-302 0 l0 539 l-502 904 l329 0 l323 -616 l7 0 l324 616 l324 0 l-503 -904 l0 -539 ZM796 1558 l-230 0 l226 305 l271 0 l-267 -305 Z" /><glyph glyph-name="Thorn" unicode="þ" d="M151 1443 l304 0 l0 -235 l307 0 q209 0 342 -123.5 q133 -123.5 133 -333.5 q0 -139 -64.5 -244 q-64.5 -105 -175 -159 q-110.5 -54 -250.5 -54 l-294 0 l0 -294 l-302 0 l0 1443 ZM453 968 l0 -437 l226 0 q117 0 184 56 q67 56 67 163 q0 107 -66.5 162.5 q-66.5 55.5 -183.5 55.5 l-227 0 Z" /><glyph glyph-name="germandbls" unicode="ß" d="M433 0 l-291 0 l0 1062 q0 180 132.5 285.5 q132.5 105.5 359.5 105.5 q215 0 350 -102 q135 -102 135 -265 q0 -118 -57.5 -205.5 q-57.5 -87.5 -153.5 -115.5 l0 -12 q148 -13 236.5 -114 q88.5 -101 88.5 -252 q0 -185 -127 -293.5 q-127 -108.5 -346 -108.5 q-114 0 -178 16 l0 232 q50 -17 125 -17 q107 0 168.5 52.5 q61.5 52.5 61.5 141.5 q0 92 -70 146 q-70 54 -192 54 l-71 0 l0 236 l49 0 q85 0 134.5 52 q49.5 52 49.5 139 q0 83 -54 132.5 q-54 49.5 -144 49.5 q-100 0 -153 -55.5 q-53 -55.5 -53 -160.5 l0 -1003 Z" /><glyph glyph-name="agrave" unicode="à" d="M509 194 q97 0 164.5 56.5 q67.5 56.5 67.5 142.5 l0 78 l-226 -14 q-82 -6 -126.5 -41 q-44.5 -35 -44.5 -92 q0 -60 45 -95 q45 -35 120 -35 ZM413 -17 q-155 0 -257 91 q-102 91 -102 234 q0 146 108 229 q108 83 309 95 l270 16 l0 71 q0 74 -48.5 116 q-48.5 42 -131.5 42 q-80 0 -130.5 -36 q-50.5 -36 -61.5 -97 l-267 0 q8 158 135 254.5 q127 96.5 337 96.5 q206 0 330 -98 q124 -98 124 -260 l0 -737 l-282 0 l0 164 l-6 0 q-44 -84 -134 -132.5 q-90 -48.5 -193 -48.5 ZM685 1223 l-233 0 l-256 310 l268 0 l221 -310 Z" /><glyph glyph-name="aacute" unicode="á" d="M509 194 q97 0 164.5 56.5 q67.5 56.5 67.5 142.5 l0 78 l-226 -14 q-82 -6 -126.5 -41 q-44.5 -35 -44.5 -92 q0 -60 45 -95 q45 -35 120 -35 ZM413 -17 q-155 0 -257 91 q-102 91 -102 234 q0 146 108 229 q108 83 309 95 l270 16 l0 71 q0 74 -48.5 116 q-48.5 42 -131.5 42 q-80 0 -130.5 -36 q-50.5 -36 -61.5 -97 l-267 0 q8 158 135 254.5 q127 96.5 337 96.5 q206 0 330 -98 q124 -98 124 -260 l0 -737 l-282 0 l0 164 l-6 0 q-44 -84 -134 -132.5 q-90 -48.5 -193 -48.5 ZM680 1223 l-233 0 l221 310 l268 0 l-256 -310 Z" /><glyph glyph-name="acircumflex" unicode="â" d="M509 194 q97 0 164.5 56.5 q67.5 56.5 67.5 142.5 l0 78 l-226 -14 q-82 -6 -126.5 -41 q-44.5 -35 -44.5 -92 q0 -60 45 -95 q45 -35 120 -35 ZM413 -17 q-155 0 -257 91 q-102 91 -102 234 q0 146 108 229 q108 83 309 95 l270 16 l0 71 q0 74 -48.5 116 q-48.5 42 -131.5 42 q-80 0 -130.5 -36 q-50.5 -36 -61.5 -97 l-267 0 q8 158 135 254.5 q127 96.5 337 96.5 q206 0 330 -98 q124 -98 124 -260 l0 -737 l-282 0 l0 164 l-6 0 q-44 -84 -134 -132.5 q-90 -48.5 -193 -48.5 ZM678 1531 l263 -318 l-223 0 l-149 186 l-7 0 l-148 -186 l-224 0 l264 318 l224 0 Z" /><glyph glyph-name="atilde" unicode="ã" d="M509 194 q97 0 164.5 56.5 q67.5 56.5 67.5 142.5 l0 78 l-226 -14 q-82 -6 -126.5 -41 q-44.5 -35 -44.5 -92 q0 -60 45 -95 q45 -35 120 -35 ZM413 -17 q-155 0 -257 91 q-102 91 -102 234 q0 146 108 229 q108 83 309 95 l270 16 l0 71 q0 74 -48.5 116 q-48.5 42 -131.5 42 q-80 0 -130.5 -36 q-50.5 -36 -61.5 -97 l-267 0 q8 158 135 254.5 q127 96.5 337 96.5 q206 0 330 -98 q124 -98 124 -260 l0 -737 l-282 0 l0 164 l-6 0 q-44 -84 -134 -132.5 q-90 -48.5 -193 -48.5 ZM710 1218 q-39 0 -73.5 14 q-34.5 14 -59 34 q-24.5 20 -46.5 40 q-22 20 -44 34 q-22 14 -42 14 q-34 0 -52 -33 q-18 -33 -18 -89 l-159 0 q0 128 62 201 q62 73 158 73 q40 0 75.5 -14 q35.5 -14 60 -34 q24.5 -20 46 -39.5 q21.5 -19.5 43 -33.5 q21.5 -14 40.5 -14 q66 0 69 124 l159 0 q0 -126 -62.5 -201.5 q-62.5 -75.5 -156.5 -75.5 Z" /><glyph glyph-name="adieresis" unicode="ä" d="M509 194 q97 0 164.5 56.5 q67.5 56.5 67.5 142.5 l0 78 l-226 -14 q-82 -6 -126.5 -41 q-44.5 -35 -44.5 -92 q0 -60 45 -95 q45 -35 120 -35 ZM413 -17 q-155 0 -257 91 q-102 91 -102 234 q0 146 108 229 q108 83 309 95 l270 16 l0 71 q0 74 -48.5 116 q-48.5 42 -131.5 42 q-80 0 -130.5 -36 q-50.5 -36 -61.5 -97 l-267 0 q8 158 135 254.5 q127 96.5 337 96.5 q206 0 330 -98 q124 -98 124 -260 l0 -737 l-282 0 l0 164 l-6 0 q-44 -84 -134 -132.5 q-90 -48.5 -193 -48.5 ZM457.5 1258 q-38.5 -38 -95.5 -38 q-57 0 -95.5 38 q-38.5 38 -38.5 92 q0 54 38.5 92 q38.5 38 95.5 38 q57 0 95.5 -38 q38.5 -38 38.5 -92 q0 -54 -38.5 -92 ZM865.5 1258 q-38.5 -38 -95.5 -38 q-57 0 -95.5 38 q-38.5 38 -38.5 92 q0 54 38.5 92 q38.5 38 95.5 38 q57 0 95.5 -38 q38.5 -38 38.5 -92 q0 -54 -38.5 -92 Z" /><glyph glyph-name="aring" unicode="å" d="M509 194 q97 0 164.5 56.5 q67.5 56.5 67.5 142.5 l0 78 l-226 -14 q-82 -6 -126.5 -41 q-44.5 -35 -44.5 -92 q0 -60 45 -95 q45 -35 120 -35 ZM413 -17 q-155 0 -257 91 q-102 91 -102 234 q0 146 108 229 q108 83 309 95 l270 16 l0 71 q0 74 -48.5 116 q-48.5 42 -131.5 42 q-80 0 -130.5 -36 q-50.5 -36 -61.5 -97 l-267 0 q8 158 135 254.5 q127 96.5 337 96.5 q206 0 330 -98 q124 -98 124 -260 l0 -737 l-282 0 l0 164 l-6 0 q-44 -84 -134 -132.5 q-90 -48.5 -193 -48.5 ZM719 1236.5 q-64 -62.5 -153 -62.5 q-89 0 -153 62.5 q-64 62.5 -64 150.5 q0 88 64 150.5 q64 62.5 153 62.5 q89 0 153 -62.5 q64 -62.5 64 -150.5 q0 -88 -64 -150.5 ZM499 1320.5 q28 -27.5 67 -27.5 q39 0 67.5 27.5 q28.5 27.5 28.5 66.5 q0 39 -28.5 66.5 q-28.5 27.5 -67.5 27.5 q-39 0 -67 -27.5 q-28 -27.5 -28 -66.5 q0 -39 28 -66.5 Z" /><glyph glyph-name="ae" unicode="æ" d="M1252 -23 q-133 0 -237.5 54.5 q-104.5 54.5 -155.5 149.5 l-9 0 q-57 -94 -157 -146 q-100 -52 -233 -52 q-188 0 -298.5 89.5 q-110.5 89.5 -110.5 235.5 q0 145 109 228 q109 83 315 94 l266 15 l0 59 q0 74 -54.5 123.5 q-54.5 49.5 -137.5 49.5 q-79 0 -131.5 -37.5 q-52.5 -37.5 -59.5 -96.5 l-263 0 q8 157 130.5 254.5 q122.5 97.5 316.5 97.5 q126 0 219.5 -43 q93.5 -43 137.5 -118 l8 0 q114 161 353 161 q218 0 350 -145 q132 -145 132 -392 l0 -88 l-730 0 l0 -19 q0 -114 67.5 -186 q67.5 -72 176.5 -72 q77 0 133 36.5 q56 36.5 77 98.5 l268 0 q-24 -158 -156 -254.5 q-132 -96.5 -326 -96.5 ZM1398 816 q-59 63 -154 63 q-95 0 -158 -64.5 q-63 -64.5 -71 -166.5 l446 0 q-4 105 -63 168 ZM501 190 q99 0 169.5 60 q70.5 60 70.5 143 l0 75 l-231 -15 q-85 -6 -132.5 -40 q-47.5 -34 -47.5 -90 q0 -58 48.5 -95.5 q48.5 -37.5 122.5 -37.5 Z" /><glyph glyph-name="ccedilla" unicode="ç" d="M798 393 l272 0 q-10 -172 -121 -282 q-111 -110 -292 -130 l-42 -91 q86 -1 137 -44.5 q51 -43.5 51 -119.5 q0 -89 -66 -137 q-66 -48 -182 -49 q-97 -2 -142 14 l0 122 q41 -12 112 -12 q111 0 111 54 q0 30 -28 42.5 q-28 12.5 -95 12.5 l-63 0 l0 98 l50 111 q-207 26 -325.5 172 q-118.5 146 -118.5 383 q0 257 142.5 407.5 q142.5 150.5 383.5 150.5 q214 0 345.5 -118 q131.5 -118 141.5 -304 l-271 0 q-13 87 -68.5 140 q-55.5 53 -143.5 53 q-109 0 -171.5 -87.5 q-62.5 -87.5 -62.5 -241.5 q0 -157 62.5 -244 q62.5 -87 172.5 -87 q87 0 142 49.5 q55 49.5 69 137.5 Z" /><glyph glyph-name="egrave" unicode="è" d="M576 879 q-95 0 -158.5 -65 q-63.5 -65 -71.5 -166 l455 0 q-5 103 -66.5 167 q-61.5 64 -158.5 64 ZM805 328 l268 0 q-24 -158 -157.5 -254.5 q-133.5 -96.5 -331.5 -96.5 q-247 0 -387.5 148 q-140.5 148 -140.5 406 q0 257 140 410.5 q140 153.5 377 153.5 q233 0 371 -146 q138 -146 138 -391 l0 -89 l-739 0 l0 -18 q0 -115 67.5 -186.5 q67.5 -71.5 178.5 -71.5 q80 0 138 36.5 q58 36.5 78 98.5 ZM692 1223 l-233 0 l-256 310 l268 0 l221 -310 Z" /><glyph glyph-name="eacute" unicode="é" d="M576 879 q-95 0 -158.5 -65 q-63.5 -65 -71.5 -166 l455 0 q-5 103 -66.5 167 q-61.5 64 -158.5 64 ZM805 328 l268 0 q-24 -158 -157.5 -254.5 q-133.5 -96.5 -331.5 -96.5 q-247 0 -387.5 148 q-140.5 148 -140.5 406 q0 257 140 410.5 q140 153.5 377 153.5 q233 0 371 -146 q138 -146 138 -391 l0 -89 l-739 0 l0 -18 q0 -115 67.5 -186.5 q67.5 -71.5 178.5 -71.5 q80 0 138 36.5 q58 36.5 78 98.5 ZM687 1223 l-233 0 l221 310 l268 0 l-256 -310 Z" /><glyph glyph-name="ecircumflex" unicode="ê" d="M576 879 q-95 0 -158.5 -65 q-63.5 -65 -71.5 -166 l455 0 q-5 103 -66.5 167 q-61.5 64 -158.5 64 ZM805 328 l268 0 q-24 -158 -157.5 -254.5 q-133.5 -96.5 -331.5 -96.5 q-247 0 -387.5 148 q-140.5 148 -140.5 406 q0 257 140 410.5 q140 153.5 377 153.5 q233 0 371 -146 q138 -146 138 -391 l0 -89 l-739 0 l0 -18 q0 -115 67.5 -186.5 q67.5 -71.5 178.5 -71.5 q80 0 138 36.5 q58 36.5 78 98.5 ZM685 1531 l263 -318 l-223 0 l-149 186 l-7 0 l-148 -186 l-224 0 l264 318 l224 0 Z" /><glyph glyph-name="edieresis" unicode="ë" d="M576 879 q-95 0 -158.5 -65 q-63.5 -65 -71.5 -166 l455 0 q-5 103 -66.5 167 q-61.5 64 -158.5 64 ZM805 328 l268 0 q-24 -158 -157.5 -254.5 q-133.5 -96.5 -331.5 -96.5 q-247 0 -387.5 148 q-140.5 148 -140.5 406 q0 257 140 410.5 q140 153.5 377 153.5 q233 0 371 -146 q138 -146 138 -391 l0 -89 l-739 0 l0 -18 q0 -115 67.5 -186.5 q67.5 -71.5 178.5 -71.5 q80 0 138 36.5 q58 36.5 78 98.5 ZM464.5 1258 q-38.5 -38 -95.5 -38 q-57 0 -95.5 38 q-38.5 38 -38.5 92 q0 54 38.5 92 q38.5 38 95.5 38 q57 0 95.5 -38 q38.5 -38 38.5 -92 q0 -54 -38.5 -92 ZM872.5 1258 q-38.5 -38 -95.5 -38 q-57 0 -95.5 38 q-38.5 38 -38.5 92 q0 54 38.5 92 q38.5 38 95.5 38 q57 0 95.5 -38 q38.5 -38 38.5 -92 q0 -54 -38.5 -92 Z" /><glyph glyph-name="igrave" unicode="ì" d="M100 0 l0 1072 l292 0 l0 -1072 l-292 0 ZM365 1223 l-233 0 l-256 310 l268 0 l221 -310 Z" /><glyph glyph-name="iacute" unicode="í" d="M100 0 l0 1072 l292 0 l0 -1072 l-292 0 ZM360 1223 l-233 0 l221 310 l268 0 l-256 -310 Z" /><glyph glyph-name="icircumflex" unicode="î" d="M100 0 l0 1072 l292 0 l0 -1072 l-292 0 ZM358 1531 l263 -318 l-223 0 l-149 186 l-7 0 l-148 -186 l-224 0 l264 318 l224 0 Z" /><glyph glyph-name="idieresis" unicode="ï" d="M100 0 l0 1072 l292 0 l0 -1072 l-292 0 ZM137.5 1258 q-38.5 -38 -95.5 -38 q-57 0 -95.5 38 q-38.5 38 -38.5 92 q0 54 38.5 92 q38.5 38 95.5 38 q57 0 95.5 -38 q38.5 -38 38.5 -92 q0 -54 -38.5 -92 ZM545.5 1258 q-38.5 -38 -95.5 -38 q-57 0 -95.5 38 q-38.5 38 -38.5 92 q0 54 38.5 92 q38.5 38 95.5 38 q57 0 95.5 -38 q38.5 -38 38.5 -92 q0 -54 -38.5 -92 Z" /><glyph glyph-name="eth" unicode="ð" d="M591 -17 q-241 0 -384 143.5 q-143 143.5 -143 394.5 q0 233 125 368 q125 135 326 135 q84 0 155.5 -33.5 q71.5 -33.5 109.5 -89.5 l17 0 q-20 65 -67.5 142 q-47.5 77 -98.5 133 l-277 -92 l-56 138 l222 74 q-73 65 -238 179 l364 0 q63 -49 113 -99 l259 87 l57 -139 l-196 -65 q243 -283 243 -672 q0 -284 -144.5 -444 q-144.5 -160 -386.5 -160 ZM598 821 q-110 0 -172.5 -80.5 q-62.5 -80.5 -62.5 -221.5 q0 -139 63 -220 q63 -81 172 -81 q109 0 172.5 80.5 q63.5 80.5 63.5 220.5 q0 139 -64 220.5 q-64 81.5 -172 81.5 Z" /><glyph glyph-name="ntilde" unicode="ñ" d="M95 0 l0 1072 l282 0 l0 -191 l6 0 q44 102 128.5 156.5 q84.5 54.5 206.5 54.5 q178 0 275 -106 q97 -106 97 -295 l0 -691 l-292 0 l0 630 q0 106 -50 163 q-50 57 -147 57 q-97 0 -155.5 -65 q-58.5 -65 -58.5 -170 l0 -615 l-292 0 ZM736 1218 q-39 0 -73.5 14 q-34.5 14 -59 34 q-24.5 20 -46.5 40 q-22 20 -44 34 q-22 14 -42 14 q-34 0 -52 -33 q-18 -33 -18 -89 l-159 0 q0 128 62 201 q62 73 158 73 q40 0 75.5 -14 q35.5 -14 60 -34 q24.5 -20 46 -39.5 q21.5 -19.5 43 -33.5 q21.5 -14 40.5 -14 q66 0 69 124 l159 0 q0 -126 -62.5 -201.5 q-62.5 -75.5 -156.5 -75.5 Z" /><glyph glyph-name="ograve" unicode="ò" d="M975 125.5 q-143 -148.5 -388 -148.5 q-245 0 -388 149 q-143 149 -143 411 q0 259 144.5 408.5 q144.5 149.5 386.5 149.5 q243 0 387 -149.5 q144 -149.5 144 -408.5 q0 -263 -143 -411.5 ZM587 200 q108 0 171 88 q63 88 63 248 q0 158 -63 247 q-63 89 -171 89 q-108 0 -171.5 -89 q-63.5 -89 -63.5 -247 q0 -160 63 -248 q63 -88 172 -88 ZM706 1223 l-233 0 l-256 310 l268 0 l221 -310 Z" /><glyph glyph-name="oacute" unicode="ó" d="M975 125.5 q-143 -148.5 -388 -148.5 q-245 0 -388 149 q-143 149 -143 411 q0 259 144.5 408.5 q144.5 149.5 386.5 149.5 q243 0 387 -149.5 q144 -149.5 144 -408.5 q0 -263 -143 -411.5 ZM587 200 q108 0 171 88 q63 88 63 248 q0 158 -63 247 q-63 89 -171 89 q-108 0 -171.5 -89 q-63.5 -89 -63.5 -247 q0 -160 63 -248 q63 -88 172 -88 ZM701 1223 l-233 0 l221 310 l268 0 l-256 -310 Z" /><glyph glyph-name="ocircumflex" unicode="ô" d="M975 125.5 q-143 -148.5 -388 -148.5 q-245 0 -388 149 q-143 149 -143 411 q0 259 144.5 408.5 q144.5 149.5 386.5 149.5 q243 0 387 -149.5 q144 -149.5 144 -408.5 q0 -263 -143 -411.5 ZM587 200 q108 0 171 88 q63 88 63 248 q0 158 -63 247 q-63 89 -171 89 q-108 0 -171.5 -89 q-63.5 -89 -63.5 -247 q0 -160 63 -248 q63 -88 172 -88 ZM699 1531 l263 -318 l-223 0 l-149 186 l-7 0 l-148 -186 l-224 0 l264 318 l224 0 Z" /><glyph glyph-name="otilde" unicode="õ" d="M975 125.5 q-143 -148.5 -388 -148.5 q-245 0 -388 149 q-143 149 -143 411 q0 259 144.5 408.5 q144.5 149.5 386.5 149.5 q243 0 387 -149.5 q144 -149.5 144 -408.5 q0 -263 -143 -411.5 ZM587 200 q108 0 171 88 q63 88 63 248 q0 158 -63 247 q-63 89 -171 89 q-108 0 -171.5 -89 q-63.5 -89 -63.5 -247 q0 -160 63 -248 q63 -88 172 -88 ZM731 1218 q-39 0 -73.5 14 q-34.5 14 -59 34 q-24.5 20 -46.5 40 q-22 20 -44 34 q-22 14 -42 14 q-34 0 -52 -33 q-18 -33 -18 -89 l-159 0 q0 128 62 201 q62 73 158 73 q40 0 75.5 -14 q35.5 -14 60 -34 q24.5 -20 46 -39.5 q21.5 -19.5 43 -33.5 q21.5 -14 40.5 -14 q66 0 69 124 l159 0 q0 -126 -62.5 -201.5 q-62.5 -75.5 -156.5 -75.5 Z" /><glyph glyph-name="odieresis" unicode="ö" d="M975 125.5 q-143 -148.5 -388 -148.5 q-245 0 -388 149 q-143 149 -143 411 q0 259 144.5 408.5 q144.5 149.5 386.5 149.5 q243 0 387 -149.5 q144 -149.5 144 -408.5 q0 -263 -143 -411.5 ZM587 200 q108 0 171 88 q63 88 63 248 q0 158 -63 247 q-63 89 -171 89 q-108 0 -171.5 -89 q-63.5 -89 -63.5 -247 q0 -160 63 -248 q63 -88 172 -88 ZM478.5 1258 q-38.5 -38 -95.5 -38 q-57 0 -95.5 38 q-38.5 38 -38.5 92 q0 54 38.5 92 q38.5 38 95.5 38 q57 0 95.5 -38 q38.5 -38 38.5 -92 q0 -54 -38.5 -92 ZM886.5 1258 q-38.5 -38 -95.5 -38 q-57 0 -95.5 38 q-38.5 38 -38.5 92 q0 54 38.5 92 q38.5 38 95.5 38 q57 0 95.5 -38 q38.5 -38 38.5 -92 q0 -54 -38.5 -92 Z" /><glyph glyph-name="divide" unicode="÷" d="M784.5 854 q-46.5 -44 -120.5 -44 q-74 0 -120.5 44 q-46.5 44 -46.5 114 q0 71 46.5 115 q46.5 44 120.5 44 q74 0 120.5 -44 q46.5 -44 46.5 -115 q0 -70 -46.5 -114 ZM784.5 76 q-46.5 -44 -120.5 -44 q-74 0 -120.5 44 q-46.5 44 -46.5 114 q0 71 46.5 115 q46.5 44 120.5 44 q74 0 120.5 -44 q46.5 -44 46.5 -115 q0 -70 -46.5 -114 ZM1203 470 l-1079 0 l0 218 l1079 0 l0 -218 Z" /><glyph glyph-name="oslash" unicode="ø" d="M786 733 l-313 -501 q50 -32 114 -32 q108 0 171 88 q63 88 63 248 q0 116 -35 197 ZM393 325 l317 508 q-51 39 -123 39 q-108 0 -171.5 -89 q-63.5 -89 -63.5 -247 q0 -126 41 -211 ZM1004 1082 l-65 -104 q179 -151 179 -441 q0 -263 -143 -411.5 q-143 -148.5 -388 -148.5 q-137 0 -243 48 l-59 -95 l-100 61 l59 94 q-188 149 -188 452 q0 259 144.5 408.5 q144.5 149.5 386.5 149.5 q142 0 253 -53 l61 97 l103 -57 Z" /><glyph glyph-name="ugrave" unicode="ù" d="M1085 1072 l0 -1072 l-282 0 l0 193 l-6 0 q-84 -213 -321 -213 q-176 0 -281 107.5 q-105 107.5 -105 293.5 l0 691 l292 0 l0 -630 q0 -107 51.5 -163 q51.5 -56 148.5 -56 q97 0 154 64 q57 64 57 171 l0 614 l292 0 ZM708 1223 l-233 0 l-256 310 l268 0 l221 -310 Z" /><glyph glyph-name="uacute" unicode="ú" d="M1085 1072 l0 -1072 l-282 0 l0 193 l-6 0 q-84 -213 -321 -213 q-176 0 -281 107.5 q-105 107.5 -105 293.5 l0 691 l292 0 l0 -630 q0 -107 51.5 -163 q51.5 -56 148.5 -56 q97 0 154 64 q57 64 57 171 l0 614 l292 0 ZM703 1223 l-233 0 l221 310 l268 0 l-256 -310 Z" /><glyph glyph-name="ucircumflex" unicode="û" d="M1085 1072 l0 -1072 l-282 0 l0 193 l-6 0 q-84 -213 -321 -213 q-176 0 -281 107.5 q-105 107.5 -105 293.5 l0 691 l292 0 l0 -630 q0 -107 51.5 -163 q51.5 -56 148.5 -56 q97 0 154 64 q57 64 57 171 l0 614 l292 0 ZM701 1531 l263 -318 l-223 0 l-149 186 l-7 0 l-148 -186 l-224 0 l264 318 l224 0 Z" /><glyph glyph-name="udieresis" unicode="ü" d="M1085 1072 l0 -1072 l-282 0 l0 193 l-6 0 q-84 -213 -321 -213 q-176 0 -281 107.5 q-105 107.5 -105 293.5 l0 691 l292 0 l0 -630 q0 -107 51.5 -163 q51.5 -56 148.5 -56 q97 0 154 64 q57 64 57 171 l0 614 l292 0 ZM480.5 1258 q-38.5 -38 -95.5 -38 q-57 0 -95.5 38 q-38.5 38 -38.5 92 q0 54 38.5 92 q38.5 38 95.5 38 q57 0 95.5 -38 q38.5 -38 38.5 -92 q0 -54 -38.5 -92 ZM888.5 1258 q-38.5 -38 -95.5 -38 q-57 0 -95.5 38 q-38.5 38 -38.5 92 q0 54 38.5 92 q38.5 38 95.5 38 q57 0 95.5 -38 q38.5 -38 38.5 -92 q0 -54 -38.5 -92 Z" /><glyph glyph-name="yacute" unicode="ý" d="M232 -397 q-96 0 -110 3 l0 225 q9 -2 73 -2 q81 0 123 27.5 q42 27.5 57 91.5 q0 1 5 25 q5 24 4 26 l-373 1073 l321 0 l228 -838 l5 0 l228 838 l308 0 l-369 -1096 q-69 -206 -181.5 -289.5 q-112.5 -83.5 -318.5 -83.5 ZM671 1223 l-233 0 l221 310 l268 0 l-256 -310 Z" /><glyph glyph-name="thorn" unicode="þ" d="M731 1089 q204 0 319.5 -146.5 q115.5 -146.5 115.5 -406.5 q0 -259 -115 -406 q-115 -147 -317 -147 q-115 0 -199.5 47.5 q-84.5 47.5 -123.5 133.5 l-18 0 l0 -500 l-291 0 l0 1779 l288 0 l0 -547 l17 0 q44 91 129 142 q85 51 195 51 ZM629 218 q112 0 175 84.5 q63 84.5 63 233.5 q0 149 -63 234 q-63 85 -175 85 q-110 0 -174 -85.5 q-64 -85.5 -65 -233.5 q1 -148 65 -233 q64 -85 174 -85 Z" /><glyph glyph-name="ydieresis" unicode="ÿ" d="M232 -397 q-96 0 -110 3 l0 225 q9 -2 73 -2 q81 0 123 27.5 q42 27.5 57 91.5 q0 1 5 25 q5 24 4 26 l-373 1073 l321 0 l228 -838 l5 0 l228 838 l308 0 l-369 -1096 q-69 -206 -181.5 -289.5 q-112.5 -83.5 -318.5 -83.5 ZM448.5 1258 q-38.5 -38 -95.5 -38 q-57 0 -95.5 38 q-38.5 38 -38.5 92 q0 54 38.5 92 q38.5 38 95.5 38 q57 0 95.5 -38 q38.5 -38 38.5 -92 q0 -54 -38.5 -92 ZM856.5 1258 q-38.5 -38 -95.5 -38 q-57 0 -95.5 38 q-38.5 38 -38.5 92 q0 54 38.5 92 q38.5 38 95.5 38 q57 0 95.5 -38 q38.5 -38 38.5 -92 q0 -54 -38.5 -92 Z" /><glyph glyph-name="Amacron" unicode="&#x100;" d="M1065 0 l-110 350 l-507 0 l-110 -350 l-310 0 l501 1443 l355 0 l502 -1443 l-321 0 ZM698 1167 l-185 -591 l377 0 l-185 591 l-7 0 ZM1053 1768 l0 -148 l-692 0 l0 148 l692 0 Z" /><glyph glyph-name="amacron" unicode="&#x101;" d="M509 194 q97 0 164.5 56.5 q67.5 56.5 67.5 142.5 l0 78 l-226 -14 q-82 -6 -126.5 -41 q-44.5 -35 -44.5 -92 q0 -60 45 -95 q45 -35 120 -35 ZM413 -17 q-155 0 -257 91 q-102 91 -102 234 q0 146 108 229 q108 83 309 95 l270 16 l0 71 q0 74 -48.5 116 q-48.5 42 -131.5 42 q-80 0 -130.5 -36 q-50.5 -36 -61.5 -97 l-267 0 q8 158 135 254.5 q127 96.5 337 96.5 q206 0 330 -98 q124 -98 124 -260 l0 -737 l-282 0 l0 164 l-6 0 q-44 -84 -134 -132.5 q-90 -48.5 -193 -48.5 ZM886 1403 l0 -148 l-639 0 l0 148 l639 0 Z" /><glyph glyph-name="Abreve" unicode="&#x102;" d="M1065 0 l-110 350 l-507 0 l-110 -350 l-310 0 l501 1443 l355 0 l502 -1443 l-321 0 ZM698 1167 l-185 -591 l377 0 l-185 591 l-7 0 ZM349 1859 l181 0 q6 -78 53.5 -124.5 q47.5 -46.5 123.5 -46.5 q76 0 123.5 46.5 q47.5 46.5 53.5 124.5 l181 0 q-7 -136 -102.5 -228 q-95.5 -92 -255.5 -92 q-160 0 -255.5 92 q-95.5 92 -102.5 228 Z" /><glyph glyph-name="abreve" unicode="&#x103;" d="M509 194 q97 0 164.5 56.5 q67.5 56.5 67.5 142.5 l0 78 l-226 -14 q-82 -6 -126.5 -41 q-44.5 -35 -44.5 -92 q0 -60 45 -95 q45 -35 120 -35 ZM413 -17 q-155 0 -257 91 q-102 91 -102 234 q0 146 108 229 q108 83 309 95 l270 16 l0 71 q0 74 -48.5 116 q-48.5 42 -131.5 42 q-80 0 -130.5 -36 q-50.5 -36 -61.5 -97 l-267 0 q8 158 135 254.5 q127 96.5 337 96.5 q206 0 330 -98 q124 -98 124 -260 l0 -737 l-282 0 l0 164 l-6 0 q-44 -84 -134 -132.5 q-90 -48.5 -193 -48.5 ZM207 1530 l181 0 q2 -79 49.5 -127 q47.5 -48 127.5 -48 q80 0 128 48 q48 48 50 127 l181 0 q-2 -140 -98.5 -231 q-96.5 -91 -260.5 -91 q-164 0 -260 91 q-96 91 -98 231 Z" /><glyph glyph-name="Aogonek" unicode="&#x104;" d="M698 1167 l-185 -591 l377 0 l-185 591 l-7 0 ZM1317 -441 q-47 -21 -145 -21 q-118 0 -192.5 59.5 q-74.5 59.5 -74.5 154.5 q0 146 160 248 l-110 350 l-507 0 l-110 -350 l-310 0 l501 1443 l355 0 l501 -1441 l-49 -6 q-94 -25 -155.5 -80 q-61.5 -55 -61.5 -113 q0 -46 33 -71 q33 -25 88 -25 q46 0 77 9 l0 -157 Z" /><glyph glyph-name="aogonek" unicode="&#x105;" d="M509 194 q97 0 164.5 56.5 q67.5 56.5 67.5 142.5 l0 77 l-226 -14 q-82 -6 -126.5 -40.5 q-44.5 -34.5 -44.5 -91.5 q0 -60 45 -95 q45 -35 120 -35 ZM993 -428 q-44 -22 -143 -22 q-117 0 -190 58 q-73 58 -73 152 q0 74 46 137.5 q46 63.5 113 103.5 l0 163 l-6 0 q-44 -84 -134.5 -133 q-90.5 -49 -192.5 -49 q-155 0 -257 91.5 q-102 91.5 -102 234.5 q0 145 108 228 q108 83 309 95 l270 16 l0 70 q0 74 -48 115 q-48 41 -131 41 q-78 0 -129.5 -35.5 q-51.5 -35.5 -61.5 -94.5 l-266 0 q6 156 135 252 q129 96 335 96 q204 0 328.5 -98 q124.5 -98 124.5 -258 l0 -736 l-34 -6 q-79 -19 -136.5 -69 q-57.5 -50 -57.5 -112 q0 -45 31 -69.5 q31 -24.5 87 -24.5 q46 0 75 9 l0 -155 Z" /><glyph glyph-name="Cacute" unicode="&#x106;" d="M758 -25 q-316 0 -499.5 199.5 q-183.5 199.5 -183.5 547.5 q0 347 184 546.5 q184 199.5 499 199.5 q172 0 312.5 -68 q140.5 -68 225.5 -192 q85 -124 96 -283 l-294 0 q-21 133 -114.5 213 q-93.5 80 -225.5 80 q-171 0 -273 -134 q-102 -134 -102 -361 q0 -231 101 -364.5 q101 -133.5 275 -133.5 q134 0 225 74 q91 74 115 202 l294 0 q-25 -241 -197 -383.5 q-172 -142.5 -438 -142.5 ZM860 1559 l-230 0 l226 305 l271 0 l-267 -305 Z" /><glyph glyph-name="cacute" unicode="&#x107;" d="M1069 673 l-271 0 q-13 87 -68.5 140 q-55.5 53 -143.5 53 q-109 0 -171.5 -87.5 q-62.5 -87.5 -62.5 -241.5 q0 -157 62.5 -244 q62.5 -87 172.5 -87 q87 0 142 49.5 q55 49.5 69 137.5 l272 0 q-11 -190 -143 -303 q-132 -113 -343 -113 q-244 0 -386 149.5 q-142 149.5 -142 410.5 q0 257 142.5 407.5 q142.5 150.5 383.5 150.5 q214 0 345.5 -118 q131.5 -118 141.5 -304 ZM682 1223 l-233 0 l221 310 l268 0 l-256 -310 Z" /><glyph glyph-name="Ccircumflex" unicode="&#x108;" d="M758 -25 q-316 0 -499.5 199.5 q-183.5 199.5 -183.5 547.5 q0 347 184 546.5 q184 199.5 499 199.5 q172 0 312.5 -68 q140.5 -68 225.5 -192 q85 -124 96 -283 l-294 0 q-21 133 -114.5 213 q-93.5 80 -225.5 80 q-171 0 -273 -134 q-102 -134 -102 -361 q0 -231 101 -364.5 q101 -133.5 275 -133.5 q134 0 225 74 q91 74 115 202 l294 0 q-25 -241 -197 -383.5 q-172 -142.5 -438 -142.5 ZM633 1856 l224 0 l269 -317 l-221 0 l-156 192 l-8 0 l-156 -192 l-221 0 l269 317 Z" /><glyph glyph-name="ccircumflex" unicode="&#x109;" d="M1069 673 l-271 0 q-13 87 -68.5 140 q-55.5 53 -143.5 53 q-109 0 -171.5 -87.5 q-62.5 -87.5 -62.5 -241.5 q0 -157 62.5 -244 q62.5 -87 172.5 -87 q87 0 142 49.5 q55 49.5 69 137.5 l272 0 q-11 -190 -143 -303 q-132 -113 -343 -113 q-244 0 -386 149.5 q-142 149.5 -142 410.5 q0 257 142.5 407.5 q142.5 150.5 383.5 150.5 q214 0 345.5 -118 q131.5 -118 141.5 -304 ZM680 1531 l263 -318 l-223 0 l-149 186 l-7 0 l-148 -186 l-224 0 l264 318 l224 0 Z" /><glyph glyph-name="Cdotaccent" unicode="&#x10a;" d="M758 -25 q-316 0 -499.5 199.5 q-183.5 199.5 -183.5 547.5 q0 347 184 546.5 q184 199.5 499 199.5 q172 0 312.5 -68 q140.5 -68 225.5 -192 q85 -124 96 -283 l-294 0 q-21 133 -114.5 213 q-93.5 80 -225.5 80 q-171 0 -273 -134 q-102 -134 -102 -361 q0 -231 101 -364.5 q101 -133.5 275 -133.5 q134 0 225 74 q91 74 115 202 l294 0 q-25 -241 -197 -383.5 q-172 -142.5 -438 -142.5 ZM851 1605.5 q-43 -43.5 -106 -43.5 q-63 0 -106 43.5 q-43 43.5 -43 105.5 q0 62 43 105.5 q43 43.5 106 43.5 q63 0 106 -43.5 q43 -43.5 43 -105.5 q0 -62 -43 -105.5 Z" /><glyph glyph-name="cdotaccent" unicode="&#x10b;" d="M1069 673 l-271 0 q-13 87 -68.5 140 q-55.5 53 -143.5 53 q-109 0 -171.5 -87.5 q-62.5 -87.5 -62.5 -241.5 q0 -157 62.5 -244 q62.5 -87 172.5 -87 q87 0 142 49.5 q55 49.5 69 137.5 l272 0 q-11 -190 -143 -303 q-132 -113 -343 -113 q-244 0 -386 149.5 q-142 149.5 -142 410.5 q0 257 142.5 407.5 q142.5 150.5 383.5 150.5 q214 0 345.5 -118 q131.5 -118 141.5 -304 ZM673.5 1266.5 q-43.5 -43.5 -106.5 -43.5 q-63 0 -107 43.5 q-44 43.5 -44 104.5 q0 62 44 105.5 q44 43.5 107 43.5 q63 0 106.5 -43.5 q43.5 -43.5 43.5 -105.5 q0 -61 -43.5 -104.5 Z" /><glyph glyph-name="Ccaron" unicode="&#x10c;" d="M758 -25 q-316 0 -499.5 199.5 q-183.5 199.5 -183.5 547.5 q0 347 184 546.5 q184 199.5 499 199.5 q172 0 312.5 -68 q140.5 -68 225.5 -192 q85 -124 96 -283 l-294 0 q-21 133 -114.5 213 q-93.5 80 -225.5 80 q-171 0 -273 -134 q-102 -134 -102 -361 q0 -231 101 -364.5 q101 -133.5 275 -133.5 q134 0 225 74 q91 74 115 202 l294 0 q-25 -241 -197 -383.5 q-172 -142.5 -438 -142.5 ZM633 1544 l-269 317 l221 0 l156 -192 l8 0 l156 192 l221 0 l-269 -317 l-224 0 Z" /><glyph glyph-name="ccaron" unicode="&#x10d;" d="M1069 673 l-271 0 q-13 87 -68.5 140 q-55.5 53 -143.5 53 q-109 0 -171.5 -87.5 q-62.5 -87.5 -62.5 -241.5 q0 -157 62.5 -244 q62.5 -87 172.5 -87 q87 0 142 49.5 q55 49.5 69 137.5 l272 0 q-11 -190 -143 -303 q-132 -113 -343 -113 q-244 0 -386 149.5 q-142 149.5 -142 410.5 q0 257 142.5 407.5 q142.5 150.5 383.5 150.5 q214 0 345.5 -118 q131.5 -118 141.5 -304 ZM680 1213 l-224 0 l-264 318 l224 0 l148 -188 l7 0 l149 188 l223 0 l-263 -318 Z" /><glyph glyph-name="Dcaron" unicode="&#x10e;" d="M120 1443 l551 0 q326 0 507 -187 q181 -187 181 -529 q0 -343 -181.5 -535 q-181.5 -192 -506.5 -192 l-551 0 l0 1443 ZM422 1194 l0 -944 l213 0 q203 0 309.5 121.5 q106.5 121.5 106.5 354.5 q0 226 -108 347 q-108 121 -308 121 l-213 0 ZM532 1543 l-269 317 l221 0 l156 -192 l8 0 l156 192 l221 0 l-269 -317 l-224 0 Z" /><glyph glyph-name="dcaron" unicode="&#x10f;" d="M1268 1443 l216 0 l-40 -490 l-176 0 l0 490 ZM493 -17 q-201 0 -319 149 q-118 149 -118 406 q0 255 118.5 403 q118.5 148 320.5 148 q114 0 200.5 -55 q86.5 -55 126.5 -146 l6 0 l0 555 l292 0 l0 -1443 l-288 0 l0 184 l-5 0 q-40 -91 -129 -146 q-89 -55 -205 -55 ZM592 855 q-110 0 -173.5 -86 q-63.5 -86 -63.5 -233 q0 -148 63.5 -233 q63.5 -85 173.5 -85 q109 0 173.5 85.5 q64.5 85.5 64.5 232.5 q0 146 -64.5 232.5 q-64.5 86.5 -173.5 86.5 Z" /><glyph glyph-name="Dcroat" unicode="&#x110;" d="M442 250 l213 0 q203 0 309.5 121.5 q106.5 121.5 106.5 354.5 q0 226 -108 347 q-108 121 -308 121 l-213 0 l0 -351 l255 0 l0 -221 l-255 0 l0 -372 ZM140 1443 l551 0 q326 0 507 -187 q181 -187 181 -529 q0 -343 -181.5 -535 q-181.5 -192 -506.5 -192 l-551 0 l0 622 l-98 0 l0 221 l98 0 l0 600 Z" /><glyph glyph-name="dcroat" unicode="&#x111;" d="M419 306.5 q64 -84.5 173 -84.5 q109 0 173.5 85 q64.5 85 64.5 229 q0 143 -64.5 228.5 q-64.5 85.5 -173.5 85.5 q-109 0 -173 -85 q-64 -85 -64 -229 q0 -145 64 -229.5 ZM1218 1341 l0 -148 l-98 0 l0 -1193 l-288 0 l0 184 l-5 0 q-40 -90 -128.5 -143.5 q-88.5 -53.5 -205.5 -53.5 q-200 0 -318.5 148.5 q-118.5 148.5 -118.5 402.5 q0 251 119 399 q119 148 320 148 q114 0 200.5 -53 q86.5 -53 126.5 -144 l6 0 l0 305 l-204 0 l0 148 l204 0 l0 102 l292 0 l0 -102 l98 0 Z" /><glyph glyph-name="Emacron" unicode="&#x112;" d="M1076 250 l0 -250 l-956 0 l0 1443 l956 0 l0 -249 l-654 0 l0 -348 l617 0 l0 -232 l-617 0 l0 -364 l654 0 ZM944 1768 l0 -148 l-692 0 l0 148 l692 0 Z" /><glyph glyph-name="emacron" unicode="&#x113;" d="M576 879 q-95 0 -158.5 -65 q-63.5 -65 -71.5 -166 l455 0 q-5 103 -66.5 167 q-61.5 64 -158.5 64 ZM805 328 l268 0 q-24 -158 -157.5 -254.5 q-133.5 -96.5 -331.5 -96.5 q-247 0 -387.5 148 q-140.5 148 -140.5 406 q0 257 140 410.5 q140 153.5 377 153.5 q233 0 371 -146 q138 -146 138 -391 l0 -89 l-739 0 l0 -18 q0 -115 67.5 -186.5 q67.5 -71.5 178.5 -71.5 q80 0 138 36.5 q58 36.5 78 98.5 ZM893 1403 l0 -148 l-639 0 l0 148 l639 0 Z" /><glyph glyph-name="Ebreve" unicode="&#x114;" d="M1076 250 l0 -250 l-956 0 l0 1443 l956 0 l0 -249 l-654 0 l0 -348 l617 0 l0 -232 l-617 0 l0 -364 l654 0 ZM240 1859 l181 0 q6 -78 53.5 -124.5 q47.5 -46.5 123.5 -46.5 q76 0 123.5 46.5 q47.5 46.5 53.5 124.5 l181 0 q-7 -136 -102.5 -228 q-95.5 -92 -255.5 -92 q-160 0 -255.5 92 q-95.5 92 -102.5 228 Z" /><glyph glyph-name="ebreve" unicode="&#x115;" d="M576 879 q-95 0 -158.5 -65 q-63.5 -65 -71.5 -166 l455 0 q-5 103 -66.5 167 q-61.5 64 -158.5 64 ZM805 328 l268 0 q-24 -158 -157.5 -254.5 q-133.5 -96.5 -331.5 -96.5 q-247 0 -387.5 148 q-140.5 148 -140.5 406 q0 257 140 410.5 q140 153.5 377 153.5 q233 0 371 -146 q138 -146 138 -391 l0 -89 l-739 0 l0 -18 q0 -115 67.5 -186.5 q67.5 -71.5 178.5 -71.5 q80 0 138 36.5 q58 36.5 78 98.5 ZM214 1530 l181 0 q2 -79 49.5 -127 q47.5 -48 127.5 -48 q80 0 128 48 q48 48 50 127 l181 0 q-2 -140 -98.5 -231 q-96.5 -91 -260.5 -91 q-164 0 -260 91 q-96 91 -98 231 Z" /><glyph glyph-name="Edotaccent" unicode="&#x116;" d="M1076 250 l0 -250 l-956 0 l0 1443 l956 0 l0 -249 l-654 0 l0 -348 l617 0 l0 -232 l-617 0 l0 -364 l654 0 ZM704 1604.5 q-43 -43.5 -106 -43.5 q-63 0 -106 43.5 q-43 43.5 -43 105.5 q0 62 43 105.5 q43 43.5 106 43.5 q63 0 106 -43.5 q43 -43.5 43 -105.5 q0 -62 -43 -105.5 Z" /><glyph glyph-name="edotaccent" unicode="&#x117;" d="M576 879 q-95 0 -158.5 -65 q-63.5 -65 -71.5 -166 l455 0 q-5 103 -66.5 167 q-61.5 64 -158.5 64 ZM805 328 l268 0 q-24 -158 -157.5 -254.5 q-133.5 -96.5 -331.5 -96.5 q-247 0 -387.5 148 q-140.5 148 -140.5 406 q0 257 140 410.5 q140 153.5 377 153.5 q233 0 371 -146 q138 -146 138 -391 l0 -89 l-739 0 l0 -18 q0 -115 67.5 -186.5 q67.5 -71.5 178.5 -71.5 q80 0 138 36.5 q58 36.5 78 98.5 ZM678.5 1266.5 q-43.5 -43.5 -106.5 -43.5 q-63 0 -107 43.5 q-44 43.5 -44 104.5 q0 62 44 105.5 q44 43.5 107 43.5 q63 0 106.5 -43.5 q43.5 -43.5 43.5 -105.5 q0 -61 -43.5 -104.5 Z" /><glyph glyph-name="Eogonek" unicode="&#x118;" d="M120 0 l0 1443 l956 0 l0 -249 l-654 0 l0 -348 l617 0 l0 -232 l-617 0 l0 -364 l654 0 l0 -243 l-35 -8 q-92 -28 -151.5 -84 q-59.5 -56 -59.5 -112 q0 -46 33 -71 q33 -25 89 -25 q47 0 76 9 l0 -157 q-45 -21 -145 -21 q-117 0 -191.5 59 q-74.5 59 -74.5 154 q0 71 41.5 135.5 q41.5 64.5 114.5 109.5 l0 4 l-653 0 Z" /><glyph glyph-name="eogonek" unicode="&#x119;" d="M777 -450 q-116 0 -189.5 58 q-73.5 58 -73.5 151 q0 63 36 119.5 q36 56.5 103 97.5 l0 6 q-21 -5 -69 -5 q-247 0 -387.5 148 q-140.5 148 -140.5 406 q0 257 140 410.5 q140 153.5 377 153.5 q233 0 371 -146 q138 -146 138 -391 l0 -89 l-739 0 l0 -18 q0 -115 67.5 -186.5 q67.5 -71.5 178.5 -71.5 q80 0 137.5 36.5 q57.5 36.5 78.5 98.5 l268 0 q-23 -145 -163 -258 q-93 -76 -138.5 -137 q-45.5 -61 -45.5 -116 q0 -48 32 -73.5 q32 -25.5 87 -25.5 q46 0 75 9 l0 -155 q-47 -22 -143 -22 ZM576 879 q-95 0 -158.5 -65 q-63.5 -65 -71.5 -166 l455 0 q-5 103 -66.5 167 q-61.5 64 -158.5 64 Z" /><glyph glyph-name="Ecaron" unicode="&#x11a;" d="M1076 250 l0 -250 l-956 0 l0 1443 l956 0 l0 -249 l-654 0 l0 -348 l617 0 l0 -232 l-617 0 l0 -364 l654 0 ZM486 1543 l-269 317 l221 0 l156 -192 l8 0 l156 192 l221 0 l-269 -317 l-224 0 Z" /><glyph glyph-name="ecaron" unicode="&#x11b;" d="M576 879 q-95 0 -158.5 -65 q-63.5 -65 -71.5 -166 l455 0 q-5 103 -66.5 167 q-61.5 64 -158.5 64 ZM805 328 l268 0 q-24 -158 -157.5 -254.5 q-133.5 -96.5 -331.5 -96.5 q-247 0 -387.5 148 q-140.5 148 -140.5 406 q0 257 140 410.5 q140 153.5 377 153.5 q233 0 371 -146 q138 -146 138 -391 l0 -89 l-739 0 l0 -18 q0 -115 67.5 -186.5 q67.5 -71.5 178.5 -71.5 q80 0 138 36.5 q58 36.5 78 98.5 ZM685 1213 l-224 0 l-264 318 l224 0 l148 -188 l7 0 l149 188 l223 0 l-263 -318 Z" /><glyph glyph-name="Gcircumflex" unicode="&#x11c;" d="M1410 606 q0 -295 -169.5 -463 q-169.5 -168 -470.5 -168 q-324 0 -509.5 200 q-185.5 200 -185.5 551 q0 346 184.5 544 q184.5 198 503.5 198 q252 0 427 -136 q175 -136 207 -355 l-303 0 q-33 113 -120.5 177 q-87.5 64 -209.5 64 q-179 0 -280 -129 q-101 -129 -101 -359 q0 -234 105.5 -369 q105.5 -135 286.5 -135 q148 0 241.5 83 q93.5 83 98.5 217 l1 23 l-314 0 l0 220 l608 0 l0 -163 ZM639 1855 l224 0 l269 -317 l-221 0 l-156 192 l-8 0 l-156 -192 l-221 0 l269 317 Z" /><glyph glyph-name="gcircumflex" unicode="&#x11d;" d="M590 228 q110 0 174.5 82.5 q64.5 82.5 64.5 227.5 q0 145 -65 231 q-65 86 -174 86 q-108 0 -171.5 -85.5 q-63.5 -85.5 -63.5 -231.5 q0 -146 63 -228 q63 -82 172 -82 ZM585 -404 q-209 0 -343.5 91.5 q-134.5 91.5 -152.5 236.5 l286 0 q17 -56 76.5 -90.5 q59.5 -34.5 141.5 -34.5 q111 0 173 56.5 q62 56.5 62 151.5 l0 188 l-6 0 q-38 -87 -127 -139.5 q-89 -52.5 -204 -52.5 q-198 0 -316.5 144 q-118.5 144 -118.5 393 q0 255 118 402 q118 147 322 147 q114 0 201 -55 q87 -55 130 -149 l5 0 l0 187 l288 0 l0 -1057 q0 -191 -146.5 -305 q-146.5 -114 -388.5 -114 ZM708 1531 l263 -318 l-223 0 l-149 186 l-7 0 l-148 -186 l-224 0 l264 318 l224 0 Z" /><glyph glyph-name="Gbreve" unicode="&#x11e;" d="M1410 606 q0 -295 -169.5 -463 q-169.5 -168 -470.5 -168 q-324 0 -509.5 200 q-185.5 200 -185.5 551 q0 346 184.5 544 q184.5 198 503.5 198 q252 0 427 -136 q175 -136 207 -355 l-303 0 q-33 113 -120.5 177 q-87.5 64 -209.5 64 q-179 0 -280 -129 q-101 -129 -101 -359 q0 -234 105.5 -369 q105.5 -135 286.5 -135 q148 0 241.5 83 q93.5 83 98.5 217 l1 23 l-314 0 l0 220 l608 0 l0 -163 ZM393 1859 l181 0 q6 -78 53.5 -124.5 q47.5 -46.5 123.5 -46.5 q76 0 123.5 46.5 q47.5 46.5 53.5 124.5 l181 0 q-7 -136 -102.5 -228 q-95.5 -92 -255.5 -92 q-160 0 -255.5 92 q-95.5 92 -102.5 228 Z" /><glyph glyph-name="gbreve" unicode="&#x11f;" d="M590 228 q110 0 174.5 82.5 q64.5 82.5 64.5 227.5 q0 145 -65 231 q-65 86 -174 86 q-108 0 -171.5 -85.5 q-63.5 -85.5 -63.5 -231.5 q0 -146 63 -228 q63 -82 172 -82 ZM585 -404 q-209 0 -343.5 91.5 q-134.5 91.5 -152.5 236.5 l286 0 q17 -56 76.5 -90.5 q59.5 -34.5 141.5 -34.5 q111 0 173 56.5 q62 56.5 62 151.5 l0 188 l-6 0 q-38 -87 -127 -139.5 q-89 -52.5 -204 -52.5 q-198 0 -316.5 144 q-118.5 144 -118.5 393 q0 255 118 402 q118 147 322 147 q114 0 201 -55 q87 -55 130 -149 l5 0 l0 187 l288 0 l0 -1057 q0 -191 -146.5 -305 q-146.5 -114 -388.5 -114 ZM237 1530 l181 0 q2 -79 49.5 -127 q47.5 -48 127.5 -48 q80 0 128 48 q48 48 50 127 l181 0 q-2 -140 -98.5 -231 q-96.5 -91 -260.5 -91 q-164 0 -260 91 q-96 91 -98 231 Z" /><glyph glyph-name="Gdotaccent" unicode="&#x120;" d="M1410 606 q0 -295 -169.5 -463 q-169.5 -168 -470.5 -168 q-324 0 -509.5 200 q-185.5 200 -185.5 551 q0 346 184.5 544 q184.5 198 503.5 198 q252 0 427 -136 q175 -136 207 -355 l-303 0 q-33 113 -120.5 177 q-87.5 64 -209.5 64 q-179 0 -280 -129 q-101 -129 -101 -359 q0 -234 105.5 -369 q105.5 -135 286.5 -135 q148 0 241.5 83 q93.5 83 98.5 217 l1 23 l-314 0 l0 220 l608 0 l0 -163 ZM857 1604.5 q-43 -43.5 -106 -43.5 q-63 0 -106 43.5 q-43 43.5 -43 105.5 q0 62 43 105.5 q43 43.5 106 43.5 q63 0 106 -43.5 q43 -43.5 43 -105.5 q0 -62 -43 -105.5 Z" /><glyph glyph-name="gdotaccent" unicode="&#x121;" d="M590 228 q110 0 174.5 82.5 q64.5 82.5 64.5 227.5 q0 145 -65 231 q-65 86 -174 86 q-108 0 -171.5 -85.5 q-63.5 -85.5 -63.5 -231.5 q0 -146 63 -228 q63 -82 172 -82 ZM585 -404 q-209 0 -343.5 91.5 q-134.5 91.5 -152.5 236.5 l286 0 q17 -56 76.5 -90.5 q59.5 -34.5 141.5 -34.5 q111 0 173 56.5 q62 56.5 62 151.5 l0 188 l-6 0 q-38 -87 -127 -139.5 q-89 -52.5 -204 -52.5 q-198 0 -316.5 144 q-118.5 144 -118.5 393 q0 255 118 402 q118 147 322 147 q114 0 201 -55 q87 -55 130 -149 l5 0 l0 187 l288 0 l0 -1057 q0 -191 -146.5 -305 q-146.5 -114 -388.5 -114 ZM701.5 1266.5 q-43.5 -43.5 -106.5 -43.5 q-63 0 -107 43.5 q-44 43.5 -44 104.5 q0 62 44 105.5 q44 43.5 107 43.5 q63 0 106.5 -43.5 q43.5 -43.5 43.5 -105.5 q0 -61 -43.5 -104.5 Z" /><glyph glyph-name="Gcommaaccent" unicode="&#x122;" d="M1410 606 q0 -295 -169.5 -463 q-169.5 -168 -470.5 -168 q-324 0 -509.5 200 q-185.5 200 -185.5 551 q0 346 184.5 544 q184.5 198 503.5 198 q252 0 427 -136 q175 -136 207 -355 l-303 0 q-33 113 -120.5 177 q-87.5 64 -209.5 64 q-179 0 -280 -129 q-101 -129 -101 -359 q0 -234 105.5 -369 q105.5 -135 286.5 -135 q148 0 241.5 83 q93.5 83 98.5 217 l1 23 l-314 0 l0 220 l608 0 l0 -163 ZM722 -472 l-217 0 l130 340 l256 0 l-169 -340 Z" /><glyph glyph-name="gcommaaccent" unicode="&#x123;" d="M590 228 q110 0 174.5 82.5 q64.5 82.5 64.5 227.5 q0 145 -65 231 q-65 86 -174 86 q-108 0 -171.5 -85.5 q-63.5 -85.5 -63.5 -231.5 q0 -146 63 -228 q63 -82 172 -82 ZM585 -404 q-209 0 -343.5 91.5 q-134.5 91.5 -152.5 236.5 l286 0 q17 -56 76.5 -90.5 q59.5 -34.5 141.5 -34.5 q111 0 173 56.5 q62 56.5 62 151.5 l0 188 l-6 0 q-38 -87 -127 -139.5 q-89 -52.5 -204 -52.5 q-198 0 -316.5 144 q-118.5 144 -118.5 393 q0 255 118 402 q118 147 322 147 q114 0 201 -55 q87 -55 130 -149 l5 0 l0 187 l288 0 l0 -1057 q0 -191 -146.5 -305 q-146.5 -114 -388.5 -114 ZM625 1544 l217 0 l-130 -340 l-256 0 l169 340 Z" /><glyph glyph-name="Hcircumflex" unicode="&#x124;" d="M1374 0 l-302 0 l0 608 l-650 0 l0 -608 l-302 0 l0 1443 l302 0 l0 -586 l650 0 l0 586 l302 0 l0 -1443 ZM635 1855 l224 0 l269 -317 l-221 0 l-156 192 l-8 0 l-156 -192 l-221 0 l269 317 Z" /><glyph glyph-name="hcircumflex" unicode="&#x125;" d="M102 0 l0 1443 l287 0 l0 -562 l6 0 q43 102 129.5 156.5 q86.5 54.5 207.5 54.5 q177 0 275.5 -107.5 q98.5 -107.5 98.5 -294.5 l0 -690 l-292 0 l0 628 q0 105 -51.5 163.5 q-51.5 58.5 -149.5 58.5 q-102 0 -160.5 -65.5 q-58.5 -65.5 -58.5 -172.5 l0 -612 l-292 0 ZM136 1855 l224 0 l269 -317 l-221 0 l-156 192 l-8 0 l-156 -192 l-221 0 l269 317 Z" /><glyph glyph-name="Hbar" unicode="&#x126;" d="M1085 857 l0 195 l-650 0 l0 -195 l650 0 ZM1493 1263 l0 -211 l-106 0 l0 -1052 l-302 0 l0 608 l-650 0 l0 -608 l-302 0 l0 1052 l-105 0 l0 211 l105 0 l0 180 l302 0 l0 -180 l650 0 l0 180 l302 0 l0 -180 l106 0 Z" /><glyph glyph-name="hbar" unicode="&#x127;" d="M402 881 l6 0 q42 102 128.5 156.5 q86.5 54.5 208.5 54.5 q177 0 275.5 -107.5 q98.5 -107.5 98.5 -294.5 l0 -690 l-292 0 l0 628 q0 105 -52 163.5 q-52 58.5 -150 58.5 q-101 0 -159.5 -65.5 q-58.5 -65.5 -58.5 -172.5 l0 -612 l-292 0 l0 1193 l-89 0 l0 148 l89 0 l0 102 l287 0 l0 -102 l213 0 l0 -148 l-213 0 l0 -312 Z" /><glyph glyph-name="Itilde" unicode="&#x128;" d="M422 0 l-302 0 l0 1443 l302 0 l0 -1443 ZM413 1563 q-47 0 -89.5 21.5 q-42.5 21.5 -67.5 46.5 q-25 25 -54.5 46.5 q-29.5 21.5 -53.5 21.5 q-34 0 -52 -33 q-18 -33 -18 -89 l-159 0 q0 128 62 201 q62 73 158 73 q40 0 75.5 -14 q35.5 -14 60 -33.5 q24.5 -19.5 46 -39.5 q21.5 -20 43 -34 q21.5 -14 40.5 -14 q66 0 69 124 l159 0 q0 -126 -62.5 -201.5 q-62.5 -75.5 -156.5 -75.5 Z" /><glyph glyph-name="itilde" unicode="&#x129;" d="M100 0 l0 1072 l292 0 l0 -1072 l-292 0 ZM390 1218 q-39 0 -73.5 14 q-34.5 14 -59 34 q-24.5 20 -46.5 40 q-22 20 -44 34 q-22 14 -42 14 q-34 0 -52 -33 q-18 -33 -18 -89 l-159 0 q0 128 62 201 q62 73 158 73 q40 0 75.5 -14 q35.5 -14 60 -34 q24.5 -20 46 -39.5 q21.5 -19.5 43 -33.5 q21.5 -14 40.5 -14 q66 0 69 124 l159 0 q0 -126 -62.5 -201.5 q-62.5 -75.5 -156.5 -75.5 Z" /><glyph glyph-name="Imacron" unicode="&#x12a;" d="M422 0 l-302 0 l0 1443 l302 0 l0 -1443 ZM617 1768 l0 -148 l-692 0 l0 148 l692 0 Z" /><glyph glyph-name="imacron" unicode="&#x12b;" d="M100 0 l0 1072 l292 0 l0 -1072 l-292 0 ZM518 1403 l0 -148 l-543 0 l0 148 l543 0 Z" /><glyph glyph-name="Ibreve" unicode="&#x12c;" d="M422 0 l-302 0 l0 1443 l302 0 l0 -1443 ZM-87 1859 l181 0 q6 -78 53.5 -124.5 q47.5 -46.5 123.5 -46.5 q76 0 123.5 46.5 q47.5 46.5 53.5 124.5 l181 0 q-7 -136 -102.5 -228 q-95.5 -92 -255.5 -92 q-160 0 -255.5 92 q-95.5 92 -102.5 228 Z" /><glyph glyph-name="ibreve" unicode="&#x12d;" d="M100 0 l0 1072 l292 0 l0 -1072 l-292 0 ZM-113 1530 l181 0 q2 -79 49.5 -127 q47.5 -48 127.5 -48 q80 0 128 48 q48 48 50 127 l181 0 q-2 -140 -98.5 -231 q-96.5 -91 -260.5 -91 q-164 0 -260 91 q-96 91 -98 231 Z" /><glyph glyph-name="Iogonek" unicode="&#x12e;" d="M120 -31 l0 1474 l302 0 l0 -1441 l-23 -6 q-76 -34 -129 -84 q-53 -50 -53 -105 q0 -48 34.5 -74 q34.5 -26 94.5 -26 q38 0 76 9 l0 -157 q-48 -21 -150 -21 q-116 0 -190 59.5 q-74 59.5 -74 154.5 q0 119 112 217 Z" /><glyph glyph-name="iogonek" unicode="&#x12f;" d="M356.5 1229 q-45.5 -44 -110.5 -44 q-65 0 -110.5 44 q-45.5 44 -45.5 107 q0 65 45.5 108 q45.5 43 110.5 43 q65 0 110.5 -43 q45.5 -43 45.5 -108 q0 -63 -45.5 -107 ZM100 -23 l0 1095 l292 0 l0 -1068 l-37 -8 q-161 -68 -161 -180 q0 -47 33 -72.5 q33 -25.5 91 -25.5 q30 0 75 7 l0 -153 q-46 -22 -140 -22 q-120 0 -194.5 59 q-74.5 59 -74.5 156 q0 57 30 113 q30 56 86 99 Z" /><glyph glyph-name="Idotaccent" unicode="&#x130;" d="M422 0 l-302 0 l0 1443 l302 0 l0 -1443 ZM377 1604.5 q-43 -43.5 -106 -43.5 q-63 0 -106 43.5 q-43 43.5 -43 105.5 q0 62 43 105.5 q43 43.5 106 43.5 q63 0 106 -43.5 q43 -43.5 43 -105.5 q0 -62 -43 -105.5 Z" /><glyph glyph-name="dotlessi" unicode="&#x131;" d="M100 0 l0 1072 l292 0 l0 -1072 l-292 0 Z" /><glyph glyph-name="IJ" unicode="&#x132;" d="M422 0 l-302 0 l0 1443 l302 0 l0 -1443 ZM573 425 l293 0 q2 -88 54.5 -141 q52.5 -53 137.5 -53 q95 0 144.5 57 q49.5 57 49.5 166 l0 989 l302 0 l0 -991 q0 -229 -130 -355.5 q-130 -126.5 -363 -126.5 q-221 0 -354.5 124 q-133.5 124 -133.5 331 Z" /><glyph glyph-name="ij" unicode="&#x133;" d="M100 0 l0 1072 l292 0 l0 -1072 l-292 0 ZM357 1234 q-45 -44 -111 -44 q-66 0 -111 44 q-45 44 -45 107 q0 64 45 107.5 q45 43.5 111 43.5 q66 0 111 -43.5 q45 -43.5 45 -107.5 q0 -63 -45 -107 ZM889 1072 l0 -1122 q0 -163 -98 -247 q-98 -84 -286 -84 q-54 0 -80 4 l0 215 q14 -2 37 -2 q73 0 104 28.5 q31 28.5 31 93.5 l0 1114 l292 0 ZM854 1234 q-45 -44 -111 -44 q-66 0 -111 44 q-45 44 -45 107 q0 64 45 107.5 q45 43.5 111 43.5 q66 0 111 -43.5 q45 -43.5 45 -107.5 q0 -63 -45 -107 Z" /><glyph glyph-name="Jcircumflex" unicode="&#x134;" d="M31 425 l293 0 q2 -88 54.5 -141 q52.5 -53 137.5 -53 q95 0 144.5 57 q49.5 57 49.5 166 l0 989 l302 0 l0 -991 q0 -229 -130 -355.5 q-130 -126.5 -363 -126.5 q-221 0 -354.5 124 q-133.5 124 -133.5 331 ZM753 1855 l224 0 l269 -317 l-221 0 l-156 192 l-8 0 l-156 -192 l-221 0 l269 317 Z" /><glyph glyph-name="jcircumflex" unicode="&#x135;" d="M392 1072 l0 -1122 q0 -163 -98 -247 q-98 -84 -286 -84 q-54 0 -80 4 l0 215 q14 -2 37 -2 q73 0 104 28.5 q31 28.5 31 93.5 l0 1114 l292 0 ZM357 1531 l263 -318 l-223 0 l-149 186 l-7 0 l-148 -186 l-224 0 l264 318 l224 0 Z" /><glyph glyph-name="Kcommaaccent" unicode="&#x136;" d="M422 0 l-302 0 l0 1443 l302 0 l0 -658 l9 0 l542 658 l336 0 l-534 -640 l571 -803 l-361 0 l-428 603 l-135 -162 l0 -441 ZM637 -472 l-217 0 l130 340 l256 0 l-169 -340 Z" /><glyph glyph-name="kcommaaccent" unicode="&#x137;" d="M398 642 l364 430 l331 0 l-409 -460 l429 -612 l-336 0 l-307 436 l-76 -82 l0 -354 l-292 0 l0 1443 l292 0 l0 -801 l4 0 ZM541 -472 l-217 0 l130 340 l256 0 l-169 -340 Z" /><glyph glyph-name="Lacute" unicode="&#x139;" d="M1053 250 l0 -250 l-933 0 l0 1443 l302 0 l0 -1193 l631 0 ZM386 1558 l-230 0 l226 305 l271 0 l-267 -305 Z" /><glyph glyph-name="lacute" unicode="&#x13a;" d="M102 0 l0 1443 l292 0 l0 -1443 l-292 0 ZM363 1558 l-230 0 l226 305 l271 0 l-267 -305 Z" /><glyph glyph-name="Lcommaaccent" unicode="&#x13b;" d="M1053 250 l0 -250 l-933 0 l0 1443 l302 0 l0 -1193 l631 0 ZM548 -472 l-217 0 l130 340 l256 0 l-169 -340 Z" /><glyph glyph-name="lcommaaccent" unicode="&#x13c;" d="M102 0 l0 1443 l292 0 l0 -1443 l-292 0 ZM219 -472 l-217 0 l130 340 l256 0 l-169 -340 Z" /><glyph glyph-name="Lcaron" unicode="&#x13d;" d="M675 1443 l246 0 l-50 -503 l-196 0 l0 503 ZM1053 250 l0 -250 l-933 0 l0 1443 l302 0 l0 -1193 l631 0 Z" /><glyph glyph-name="lcaron" unicode="&#x13e;" d="M543 1447 l216 0 l-40 -490 l-176 0 l0 490 ZM102 0 l0 1443 l292 0 l0 -1443 l-292 0 Z" /><glyph glyph-name="Lslash" unicode="&#x141;" d="M435 250 l631 0 l0 -250 l-933 0 l0 638 l-97 -49 l0 199 l97 49 l0 606 l302 0 l0 -454 l293 148 l0 -200 l-293 -147 l0 -540 Z" /><glyph glyph-name="lslash" unicode="&#x142;" d="M517 1037 l0 -197 l-104 -57 l0 -783 l-292 0 l0 623 l-104 -57 l0 198 l104 57 l0 622 l292 0 l0 -463 l104 57 Z" /><glyph glyph-name="Nacute" unicode="&#x143;" d="M409 0 l-289 0 l0 1443 l252 0 l674 -940 l8 0 l0 940 l289 0 l0 -1443 l-250 0 l-675 945 l-9 0 l0 -945 ZM847 1558 l-230 0 l226 305 l271 0 l-267 -305 Z" /><glyph glyph-name="nacute" unicode="&#x144;" d="M95 0 l0 1072 l282 0 l0 -191 l6 0 q44 102 128.5 156.5 q84.5 54.5 206.5 54.5 q178 0 275 -106 q97 -106 97 -295 l0 -691 l-292 0 l0 630 q0 106 -50 163 q-50 57 -147 57 q-97 0 -155.5 -65 q-58.5 -65 -58.5 -170 l0 -615 l-292 0 ZM706 1223 l-233 0 l221 310 l268 0 l-256 -310 Z" /><glyph glyph-name="Ncommaaccent" unicode="&#x145;" d="M409 0 l-289 0 l0 1443 l252 0 l674 -940 l8 0 l0 940 l289 0 l0 -1443 l-250 0 l-675 945 l-9 0 l0 -945 ZM703 -472 l-217 0 l130 340 l256 0 l-169 -340 Z" /><glyph glyph-name="ncommaaccent" unicode="&#x146;" d="M95 0 l0 1072 l282 0 l0 -191 l6 0 q44 102 128.5 156.5 q84.5 54.5 206.5 54.5 q178 0 275 -106 q97 -106 97 -295 l0 -691 l-292 0 l0 630 q0 106 -50 163 q-50 57 -147 57 q-97 0 -155.5 -65 q-58.5 -65 -58.5 -170 l0 -615 l-292 0 ZM568 -472 l-217 0 l130 340 l256 0 l-169 -340 Z" /><glyph glyph-name="Ncaron" unicode="&#x147;" d="M409 0 l-289 0 l0 1443 l252 0 l674 -940 l8 0 l0 940 l289 0 l0 -1443 l-250 0 l-675 945 l-9 0 l0 -945 ZM620 1543 l-269 317 l221 0 l156 -192 l8 0 l156 192 l221 0 l-269 -317 l-224 0 Z" /><glyph glyph-name="ncaron" unicode="&#x148;" d="M95 0 l0 1072 l282 0 l0 -191 l6 0 q44 102 128.5 156.5 q84.5 54.5 206.5 54.5 q178 0 275 -106 q97 -106 97 -295 l0 -691 l-292 0 l0 630 q0 106 -50 163 q-50 57 -147 57 q-97 0 -155.5 -65 q-58.5 -65 -58.5 -170 l0 -615 l-292 0 ZM704 1213 l-224 0 l-264 318 l224 0 l148 -188 l7 0 l149 188 l223 0 l-263 -318 Z" /><glyph glyph-name="Omacron" unicode="&#x14c;" d="M262.5 1267 q187.5 201 508.5 201 q321 0 508.5 -201 q187.5 -201 187.5 -546 q0 -344 -188 -545 q-188 -201 -508 -201 q-321 0 -508.5 201 q-187.5 201 -187.5 545 q0 345 187.5 546 ZM1053 1082 q-105 134 -282 134 q-177 0 -282.5 -134 q-105.5 -134 -105.5 -361 q0 -226 105 -359.5 q105 -133.5 283 -133.5 q177 0 282 133.5 q105 133.5 105 359.5 q0 227 -105 361 ZM1117 1768 l0 -148 l-692 0 l0 148 l692 0 Z" /><glyph glyph-name="omacron" unicode="&#x14d;" d="M975 125.5 q-143 -148.5 -388 -148.5 q-245 0 -388 149 q-143 149 -143 411 q0 259 144.5 408.5 q144.5 149.5 386.5 149.5 q243 0 387 -149.5 q144 -149.5 144 -408.5 q0 -263 -143 -411.5 ZM587 200 q108 0 171 88 q63 88 63 248 q0 158 -63 247 q-63 89 -171 89 q-108 0 -171.5 -89 q-63.5 -89 -63.5 -247 q0 -160 63 -248 q63 -88 172 -88 ZM907 1403 l0 -148 l-639 0 l0 148 l639 0 Z" /><glyph glyph-name="Obreve" unicode="&#x14e;" d="M262.5 1267 q187.5 201 508.5 201 q321 0 508.5 -201 q187.5 -201 187.5 -546 q0 -344 -188 -545 q-188 -201 -508 -201 q-321 0 -508.5 201 q-187.5 201 -187.5 545 q0 345 187.5 546 ZM1053 1082 q-105 134 -282 134 q-177 0 -282.5 -134 q-105.5 -134 -105.5 -361 q0 -226 105 -359.5 q105 -133.5 283 -133.5 q177 0 282 133.5 q105 133.5 105 359.5 q0 227 -105 361 ZM413 1859 l181 0 q6 -78 53.5 -124.5 q47.5 -46.5 123.5 -46.5 q76 0 123.5 46.5 q47.5 46.5 53.5 124.5 l181 0 q-7 -136 -102.5 -228 q-95.5 -92 -255.5 -92 q-160 0 -255.5 92 q-95.5 92 -102.5 228 Z" /><glyph glyph-name="obreve" unicode="&#x14f;" d="M975 125.5 q-143 -148.5 -388 -148.5 q-245 0 -388 149 q-143 149 -143 411 q0 259 144.5 408.5 q144.5 149.5 386.5 149.5 q243 0 387 -149.5 q144 -149.5 144 -408.5 q0 -263 -143 -411.5 ZM587 200 q108 0 171 88 q63 88 63 248 q0 158 -63 247 q-63 89 -171 89 q-108 0 -171.5 -89 q-63.5 -89 -63.5 -247 q0 -160 63 -248 q63 -88 172 -88 ZM228 1530 l181 0 q2 -79 49.5 -127 q47.5 -48 127.5 -48 q80 0 128 48 q48 48 50 127 l181 0 q-2 -140 -98.5 -231 q-96.5 -91 -260.5 -91 q-164 0 -260 91 q-96 91 -98 231 Z" /><glyph glyph-name="Ohungarumlaut" unicode="&#x150;" d="M262.5 1267 q187.5 201 508.5 201 q321 0 508.5 -201 q187.5 -201 187.5 -546 q0 -344 -188 -545 q-188 -201 -508 -201 q-321 0 -508.5 201 q-187.5 201 -187.5 545 q0 345 187.5 546 ZM1053 1082 q-105 134 -282 134 q-177 0 -282.5 -134 q-105.5 -134 -105.5 -361 q0 -226 105 -359.5 q105 -133.5 283 -133.5 q177 0 282 133.5 q105 133.5 105 359.5 q0 227 -105 361 ZM1089 1558 l-230 0 l226 305 l271 0 l-267 -305 ZM689 1558 l-230 0 l226 305 l271 0 l-267 -305 Z" /><glyph glyph-name="ohungarumlaut" unicode="&#x151;" d="M975 125.5 q-143 -148.5 -388 -148.5 q-245 0 -388 149 q-143 149 -143 411 q0 259 144.5 408.5 q144.5 149.5 386.5 149.5 q243 0 387 -149.5 q144 -149.5 144 -408.5 q0 -263 -143 -411.5 ZM587 200 q108 0 171 88 q63 88 63 248 q0 158 -63 247 q-63 89 -171 89 q-108 0 -171.5 -89 q-63.5 -89 -63.5 -247 q0 -160 63 -248 q63 -88 172 -88 ZM662 1223 l189 310 l246 0 l-226 -310 l-209 0 ZM291 1223 l190 310 l246 0 l-227 -310 l-209 0 Z" /><glyph glyph-name="OE" unicode="&#x152;" d="M1063.5 1083.5 q-106.5 135.5 -284.5 135.5 q-178 0 -284.5 -135.5 q-106.5 -135.5 -106.5 -362.5 q0 -226 106 -361 q106 -135 285 -135 q179 0 285 135 q106 135 106 361 q0 227 -106.5 362.5 ZM1203 0 l0 236 q-54 -121 -183.5 -194.5 q-129.5 -73.5 -288.5 -73.5 q-143 0 -264 54.5 q-121 54.5 -206 152.5 q-85 98 -133 238.5 q-48 140.5 -48 307.5 q0 224 82.5 395.5 q82.5 171.5 231.5 265 q149 93.5 341 93.5 q159 0 282 -71 q123 -71 186 -200 l0 239 l916 0 l0 -249 l-644 0 l0 -348 l606 0 l0 -232 l-606 0 l0 -364 l644 0 l0 -250 l-916 0 Z" /><glyph glyph-name="oe" unicode="&#x153;" d="M1364 -23 q-128 0 -232.5 51.5 q-104.5 51.5 -157.5 138.5 l-14 0 q-129 -190 -383 -190 q-238 0 -379.5 151.5 q-141.5 151.5 -141.5 405.5 q0 255 141.5 408 q141.5 153 376.5 153 q257 0 386 -194 l14 0 q53 89 153.5 141.5 q100.5 52.5 223.5 52.5 q220 0 353.5 -147.5 q133.5 -147.5 133.5 -389.5 l0 -89 l-727 0 l0 -27 q0 -110 68 -179.5 q68 -69.5 177 -69.5 q77 0 132.5 34.5 q55.5 34.5 72.5 90.5 l269 0 q-23 -148 -153.5 -244.5 q-130.5 -96.5 -312.5 -96.5 ZM1554 648 q-4 104 -63.5 167.5 q-59.5 63.5 -153.5 63.5 q-95 0 -158 -64.5 q-63 -64.5 -68 -166.5 l443 0 ZM406 778 q-62 -88 -62 -243 q0 -155 62 -242 q62 -87 171 -87 q109 0 170.5 87 q61.5 87 61.5 242 q0 155 -61.5 243 q-61.5 88 -170.5 88 q-109 0 -171 -88 Z" /><glyph glyph-name="Racute" unicode="&#x154;" d="M422 1207 l0 -460 l260 0 q114 0 177.5 61 q63.5 61 63.5 169 q0 105 -66 167.5 q-66 62.5 -178 62.5 l-257 0 ZM422 528 l0 -528 l-302 0 l0 1443 l591 0 q247 0 384.5 -122.5 q137.5 -122.5 137.5 -337.5 q0 -141 -69.5 -251.5 q-69.5 -110.5 -192.5 -158.5 l304 -573 l-342 0 l-269 528 l-242 0 ZM731 1558 l-230 0 l226 305 l271 0 l-267 -305 Z" /><glyph glyph-name="racute" unicode="&#x155;" d="M95 0 l0 1072 l282 0 l0 -193 l6 0 q28 102 94 156 q66 54 161 54 q46 0 83 -11 l0 -257 q-41 17 -106 17 q-108 0 -168 -63 q-60 -63 -60 -176 l0 -599 l-292 0 ZM509 1223 l-233 0 l221 310 l268 0 l-256 -310 Z" /><glyph glyph-name="Rcommaaccent" unicode="&#x156;" d="M422 1207 l0 -460 l260 0 q114 0 177.5 61 q63.5 61 63.5 169 q0 105 -66 167.5 q-66 62.5 -178 62.5 l-257 0 ZM422 528 l0 -528 l-302 0 l0 1443 l591 0 q247 0 384.5 -122.5 q137.5 -122.5 137.5 -337.5 q0 -141 -69.5 -251.5 q-69.5 -110.5 -192.5 -158.5 l304 -573 l-342 0 l-269 528 l-242 0 ZM587 -472 l-217 0 l130 340 l256 0 l-169 -340 Z" /><glyph glyph-name="rcommaaccent" unicode="&#x157;" d="M95 0 l0 1072 l282 0 l0 -193 l6 0 q28 102 94 156 q66 54 161 54 q46 0 83 -11 l0 -257 q-41 17 -106 17 q-108 0 -168 -63 q-60 -63 -60 -176 l0 -599 l-292 0 ZM214 -472 l-217 0 l130 340 l256 0 l-169 -340 Z" /><glyph glyph-name="Rcaron" unicode="&#x158;" d="M422 1207 l0 -460 l260 0 q114 0 177.5 61 q63.5 61 63.5 169 q0 105 -66 167.5 q-66 62.5 -178 62.5 l-257 0 ZM422 528 l0 -528 l-302 0 l0 1443 l591 0 q247 0 384.5 -122.5 q137.5 -122.5 137.5 -337.5 q0 -141 -69.5 -251.5 q-69.5 -110.5 -192.5 -158.5 l304 -573 l-342 0 l-269 528 l-242 0 ZM504 1543 l-269 317 l221 0 l156 -192 l8 0 l156 192 l221 0 l-269 -317 l-224 0 Z" /><glyph glyph-name="rcaron" unicode="&#x159;" d="M95 0 l0 1072 l282 0 l0 -193 l6 0 q28 102 94 156 q66 54 161 54 q46 0 83 -11 l0 -257 q-41 17 -106 17 q-108 0 -168 -63 q-60 -63 -60 -176 l0 -599 l-292 0 ZM507 1213 l-224 0 l-264 318 l224 0 l148 -188 l7 0 l149 188 l223 0 l-263 -318 Z" /><glyph glyph-name="Sacute" unicode="&#x15a;" d="M66 411 l291 0 q10 -88 93.5 -142.5 q83.5 -54.5 204.5 -54.5 q120 0 195.5 51.5 q75.5 51.5 75.5 131.5 q0 70 -56 113 q-56 43 -187 72 l-188 41 q-397 85 -397 403 q0 198 154.5 320 q154.5 122 397.5 122 q250 0 399 -118.5 q149 -118.5 153 -315.5 l-283 0 q-7 91 -80.5 143.5 q-73.5 52.5 -187.5 52.5 q-112 0 -180.5 -49 q-68.5 -49 -68.5 -129 q0 -66 55.5 -107 q55.5 -41 180.5 -70 l175 -37 q217 -46 316 -143.5 q99 -97.5 99 -262.5 q0 -210 -158 -333.5 q-158 -123.5 -427 -123.5 q-261 0 -415.5 116.5 q-154.5 116.5 -161.5 319.5 ZM769 1558 l-230 0 l226 305 l271 0 l-267 -305 Z" /><glyph glyph-name="sacute" unicode="&#x15b;" d="M77 757 q0 153 123 245.5 q123 92.5 329 92.5 q201 0 323 -94 q122 -94 125 -250 l-269 0 q-5 65 -53.5 102 q-48.5 37 -129.5 37 q-76 0 -121.5 -31.5 q-45.5 -31.5 -45.5 -83.5 q0 -78 140 -111 l205 -44 q161 -36 231.5 -104.5 q70.5 -68.5 70.5 -188.5 q0 -158 -132 -254 q-132 -96 -345 -96 q-212 0 -339 94 q-127 94 -139 253 l285 0 q11 -68 62.5 -105 q51.5 -37 138.5 -37 q83 0 130.5 30.5 q47.5 30.5 47.5 83.5 q0 41 -30 65.5 q-30 24.5 -102 41.5 l-198 44 q-307 70 -307 310 ZM645 1223 l-233 0 l221 310 l268 0 l-256 -310 Z" /><glyph glyph-name="Scircumflex" unicode="&#x15c;" d="M66 411 l291 0 q10 -88 93.5 -142.5 q83.5 -54.5 204.5 -54.5 q120 0 195.5 51.5 q75.5 51.5 75.5 131.5 q0 70 -56 113 q-56 43 -187 72 l-188 41 q-397 85 -397 403 q0 198 154.5 320 q154.5 122 397.5 122 q250 0 399 -118.5 q149 -118.5 153 -315.5 l-283 0 q-7 91 -80.5 143.5 q-73.5 52.5 -187.5 52.5 q-112 0 -180.5 -49 q-68.5 -49 -68.5 -129 q0 -66 55.5 -107 q55.5 -41 180.5 -70 l175 -37 q217 -46 316 -143.5 q99 -97.5 99 -262.5 q0 -210 -158 -333.5 q-158 -123.5 -427 -123.5 q-261 0 -415.5 116.5 q-154.5 116.5 -161.5 319.5 ZM542 1855 l224 0 l269 -317 l-221 0 l-156 192 l-8 0 l-156 -192 l-221 0 l269 317 Z" /><glyph glyph-name="scircumflex" unicode="&#x15d;" d="M77 757 q0 153 123 245.5 q123 92.5 329 92.5 q201 0 323 -94 q122 -94 125 -250 l-269 0 q-5 65 -53.5 102 q-48.5 37 -129.5 37 q-76 0 -121.5 -31.5 q-45.5 -31.5 -45.5 -83.5 q0 -78 140 -111 l205 -44 q161 -36 231.5 -104.5 q70.5 -68.5 70.5 -188.5 q0 -158 -132 -254 q-132 -96 -345 -96 q-212 0 -339 94 q-127 94 -139 253 l285 0 q11 -68 62.5 -105 q51.5 -37 138.5 -37 q83 0 130.5 30.5 q47.5 30.5 47.5 83.5 q0 41 -30 65.5 q-30 24.5 -102 41.5 l-198 44 q-307 70 -307 310 ZM643 1531 l263 -318 l-223 0 l-149 186 l-7 0 l-148 -186 l-224 0 l264 318 l224 0 Z" /><glyph glyph-name="Scedilla" unicode="&#x15e;" d="M638 875 l175 -37 q217 -46 316 -143.5 q99 -97.5 99 -262.5 q0 -191 -132.5 -311.5 q-132.5 -120.5 -361.5 -141.5 l-41 -89 q86 -1 137 -44.5 q51 -43.5 51 -119.5 q0 -89 -66 -137 q-66 -48 -182 -49 q-97 -2 -142 14 l0 122 q41 -12 112 -12 q111 0 111 54 q0 30 -28 42.5 q-28 12.5 -95 12.5 l-63 0 l0 98 l48 106 q-232 15 -368 130 q-136 115 -142 304 l291 0 q10 -88 93.5 -142.5 q83.5 -54.5 204.5 -54.5 q120 0 195.5 51.5 q75.5 51.5 75.5 131.5 q0 70 -56 113 q-56 43 -187 72 l-188 41 q-397 85 -397 403 q0 198 154.5 320 q154.5 122 397.5 122 q250 0 399 -118.5 q149 -118.5 153 -315.5 l-283 0 q-7 91 -80.5 143.5 q-73.5 52.5 -187.5 52.5 q-112 0 -180.5 -49 q-68.5 -49 -68.5 -129 q0 -66 55.5 -107 q55.5 -41 180.5 -70 Z" /><glyph glyph-name="scedilla" unicode="&#x15f;" d="M498 664 l205 -44 q161 -36 231.5 -104.5 q70.5 -68.5 70.5 -188.5 q0 -141 -106.5 -233.5 q-106.5 -92.5 -284.5 -111.5 l-42 -92 q86 -1 137 -44.5 q51 -43.5 51 -119.5 q0 -89 -66 -137 q-66 -48 -182 -49 q-97 -2 -142 14 l0 122 q41 -12 112 -12 q111 0 111 54 q0 30 -28 42.5 q-28 12.5 -95 12.5 l-63 0 l0 98 l49 109 q-181 16 -288 107.5 q-107 91.5 -118 236.5 l285 0 q11 -68 62.5 -105 q51.5 -37 138.5 -37 q83 0 130.5 30.5 q47.5 30.5 47.5 83.5 q0 41 -30 65.5 q-30 24.5 -102 41.5 l-198 44 q-307 70 -307 310 q0 153 123 245.5 q123 92.5 329 92.5 q201 0 323 -94 q122 -94 125 -250 l-269 0 q-5 65 -53.5 102 q-48.5 37 -129.5 37 q-76 0 -121.5 -31.5 q-45.5 -31.5 -45.5 -83.5 q0 -78 140 -111 Z" /><glyph glyph-name="Scaron" unicode="&#x160;" d="M66 411 l291 0 q10 -88 93.5 -142.5 q83.5 -54.5 204.5 -54.5 q120 0 195.5 51.5 q75.5 51.5 75.5 131.5 q0 70 -56 113 q-56 43 -187 72 l-188 41 q-397 85 -397 403 q0 198 154.5 320 q154.5 122 397.5 122 q250 0 399 -118.5 q149 -118.5 153 -315.5 l-283 0 q-7 91 -80.5 143.5 q-73.5 52.5 -187.5 52.5 q-112 0 -180.5 -49 q-68.5 -49 -68.5 -129 q0 -66 55.5 -107 q55.5 -41 180.5 -70 l175 -37 q217 -46 316 -143.5 q99 -97.5 99 -262.5 q0 -210 -158 -333.5 q-158 -123.5 -427 -123.5 q-261 0 -415.5 116.5 q-154.5 116.5 -161.5 319.5 ZM542 1543 l-269 317 l221 0 l156 -192 l8 0 l156 192 l221 0 l-269 -317 l-224 0 Z" /><glyph glyph-name="scaron" unicode="&#x161;" d="M77 757 q0 153 123 245.5 q123 92.5 329 92.5 q201 0 323 -94 q122 -94 125 -250 l-269 0 q-5 65 -53.5 102 q-48.5 37 -129.5 37 q-76 0 -121.5 -31.5 q-45.5 -31.5 -45.5 -83.5 q0 -78 140 -111 l205 -44 q161 -36 231.5 -104.5 q70.5 -68.5 70.5 -188.5 q0 -158 -132 -254 q-132 -96 -345 -96 q-212 0 -339 94 q-127 94 -139 253 l285 0 q11 -68 62.5 -105 q51.5 -37 138.5 -37 q83 0 130.5 30.5 q47.5 30.5 47.5 83.5 q0 41 -30 65.5 q-30 24.5 -102 41.5 l-198 44 q-307 70 -307 310 ZM643 1213 l-224 0 l-264 318 l224 0 l148 -188 l7 0 l149 188 l223 0 l-263 -318 Z" /><glyph glyph-name="Tcedilla" unicode="&#x162;" d="M767 0 l-48 0 l-51 -110 q86 -1 137 -44.5 q51 -43.5 51 -119.5 q0 -89 -66 -137 q-66 -48 -182 -49 q-97 -2 -142 14 l0 122 q41 -12 112 -12 q111 0 111 54 q0 30 -28 42.5 q-28 12.5 -95 12.5 l-63 0 l0 98 l59 129 l-97 0 l0 1194 l-417 0 l0 249 l1137 0 l0 -249 l-418 0 l0 -1194 Z" /><glyph glyph-name="tcedilla" unicode="&#x163;" d="M663 852 l-198 0 l0 -513 q0 -121 126 -121 q41 0 71 5 l0 -215 q-51 -12 -139 -12 l-10 0 l-49 -106 q86 -1 137 -44.5 q51 -43.5 51 -119.5 q0 -89 -66 -137 q-66 -48 -182 -49 q-97 -2 -142 14 l0 122 q41 -12 112 -12 q111 0 111 54 q0 30 -28 42.5 q-28 12.5 -95 12.5 l-63 0 l0 98 l64 141 l1 0 q-100 25 -145.5 91.5 q-45.5 66.5 -45.5 185.5 l0 563 l-151 0 l0 220 l151 0 l0 247 l292 0 l0 -247 l198 0 l0 -220 Z" /><glyph glyph-name="Tcaron" unicode="&#x164;" d="M767 0 l-302 0 l0 1194 l-417 0 l0 249 l1137 0 l0 -249 l-418 0 l0 -1194 ZM504 1543 l-269 317 l221 0 l156 -192 l8 0 l156 192 l221 0 l-269 -317 l-224 0 Z" /><glyph glyph-name="tcaron" unicode="&#x165;" d="M609 1698 l216 0 l-39 -490 l-177 0 l0 490 ZM173 1319 l292 0 l0 -247 l198 0 l0 -220 l-198 0 l0 -513 q0 -121 126 -121 q41 0 71 5 l0 -215 q-51 -12 -139 -12 q-189 0 -269.5 68 q-80.5 68 -80.5 225 l0 563 l-151 0 l0 220 l151 0 l0 247 Z" /><glyph glyph-name="Tbar" unicode="&#x166;" d="M1195 1194 l-418 0 l0 -394 l291 0 l0 -211 l-291 0 l0 -589 l-302 0 l0 589 l-275 0 l0 211 l275 0 l0 394 l-417 0 l0 249 l1137 0 l0 -249 Z" /><glyph glyph-name="tbar" unicode="&#x167;" d="M690 479 l-225 0 l0 -140 q0 -121 126 -121 q41 0 71 5 l0 -215 q-51 -12 -139 -12 q-189 0 -269.5 68 q-80.5 68 -80.5 225 l0 190 l-140 0 l0 156 l140 0 l0 217 l-151 0 l0 220 l151 0 l0 247 l292 0 l0 -247 l198 0 l0 -220 l-198 0 l0 -217 l225 0 l0 -156 Z" /><glyph glyph-name="Utilde" unicode="&#x168;" d="M422 1443 l0 -903 q0 -141 79.5 -223.5 q79.5 -82.5 223.5 -82.5 q143 0 222.5 82.5 q79.5 82.5 79.5 223.5 l0 903 l302 0 l0 -933 q0 -240 -164.5 -387.5 q-164.5 -147.5 -439.5 -147.5 q-276 0 -440.5 147.5 q-164.5 147.5 -164.5 387.5 l0 933 l302 0 ZM867 1563 q-47 0 -89.5 21.5 q-42.5 21.5 -67.5 46.5 q-25 25 -54.5 46.5 q-29.5 21.5 -53.5 21.5 q-34 0 -52 -33 q-18 -33 -18 -89 l-159 0 q0 128 62 201 q62 73 158 73 q40 0 75.5 -14 q35.5 -14 60 -33.5 q24.5 -19.5 46 -39.5 q21.5 -20 43 -34 q21.5 -14 40.5 -14 q66 0 69 124 l159 0 q0 -126 -62.5 -201.5 q-62.5 -75.5 -156.5 -75.5 Z" /><glyph glyph-name="utilde" unicode="&#x169;" d="M1085 1072 l0 -1072 l-282 0 l0 193 l-6 0 q-84 -213 -321 -213 q-176 0 -281 107.5 q-105 107.5 -105 293.5 l0 691 l292 0 l0 -630 q0 -107 51.5 -163 q51.5 -56 148.5 -56 q97 0 154 64 q57 64 57 171 l0 614 l292 0 ZM733 1218 q-39 0 -73.5 14 q-34.5 14 -59 34 q-24.5 20 -46.5 40 q-22 20 -44 34 q-22 14 -42 14 q-34 0 -52 -33 q-18 -33 -18 -89 l-159 0 q0 128 62 201 q62 73 158 73 q40 0 75.5 -14 q35.5 -14 60 -34 q24.5 -20 46 -39.5 q21.5 -19.5 43 -33.5 q21.5 -14 40.5 -14 q66 0 69 124 l159 0 q0 -126 -62.5 -201.5 q-62.5 -75.5 -156.5 -75.5 Z" /><glyph glyph-name="Umacron" unicode="&#x16a;" d="M422 1443 l0 -903 q0 -141 79.5 -223.5 q79.5 -82.5 223.5 -82.5 q143 0 222.5 82.5 q79.5 82.5 79.5 223.5 l0 903 l302 0 l0 -933 q0 -240 -164.5 -387.5 q-164.5 -147.5 -439.5 -147.5 q-276 0 -440.5 147.5 q-164.5 147.5 -164.5 387.5 l0 933 l302 0 ZM1071 1768 l0 -148 l-692 0 l0 148 l692 0 Z" /><glyph glyph-name="umacron" unicode="&#x16b;" d="M1085 1072 l0 -1072 l-282 0 l0 193 l-6 0 q-84 -213 -321 -213 q-176 0 -281 107.5 q-105 107.5 -105 293.5 l0 691 l292 0 l0 -630 q0 -107 51.5 -163 q51.5 -56 148.5 -56 q97 0 154 64 q57 64 57 171 l0 614 l292 0 ZM909 1403 l0 -148 l-639 0 l0 148 l639 0 Z" /><glyph glyph-name="Ubreve" unicode="&#x16c;" d="M422 1443 l0 -903 q0 -141 79.5 -223.5 q79.5 -82.5 223.5 -82.5 q143 0 222.5 82.5 q79.5 82.5 79.5 223.5 l0 903 l302 0 l0 -933 q0 -240 -164.5 -387.5 q-164.5 -147.5 -439.5 -147.5 q-276 0 -440.5 147.5 q-164.5 147.5 -164.5 387.5 l0 933 l302 0 ZM367 1859 l181 0 q6 -78 53.5 -124.5 q47.5 -46.5 123.5 -46.5 q76 0 123.5 46.5 q47.5 46.5 53.5 124.5 l181 0 q-7 -136 -102.5 -228 q-95.5 -92 -255.5 -92 q-160 0 -255.5 92 q-95.5 92 -102.5 228 Z" /><glyph glyph-name="ubreve" unicode="&#x16d;" d="M1085 1072 l0 -1072 l-282 0 l0 193 l-6 0 q-84 -213 -321 -213 q-176 0 -281 107.5 q-105 107.5 -105 293.5 l0 691 l292 0 l0 -630 q0 -107 51.5 -163 q51.5 -56 148.5 -56 q97 0 154 64 q57 64 57 171 l0 614 l292 0 ZM230 1530 l181 0 q2 -79 49.5 -127 q47.5 -48 127.5 -48 q80 0 128 48 q48 48 50 127 l181 0 q-2 -140 -98.5 -231 q-96.5 -91 -260.5 -91 q-164 0 -260 91 q-96 91 -98 231 Z" /><glyph glyph-name="Uring" unicode="&#x16e;" d="M422 1443 l0 -903 q0 -141 79.5 -223.5 q79.5 -82.5 223.5 -82.5 q143 0 222.5 82.5 q79.5 82.5 79.5 223.5 l0 903 l302 0 l0 -933 q0 -240 -164.5 -387.5 q-164.5 -147.5 -439.5 -147.5 q-276 0 -440.5 147.5 q-164.5 147.5 -164.5 387.5 l0 933 l302 0 ZM870 1577.5 q-61 -59.5 -145 -59.5 q-84 0 -145 59.5 q-61 59.5 -61 142.5 q0 84 61 143 q61 59 145 59 q84 0 145 -59 q61 -59 61 -143 q0 -83 -61 -142.5 ZM660 1656.5 q27 -26.5 65 -26.5 q38 0 65 26.5 q27 26.5 27 63.5 q0 37 -27 63.5 q-27 26.5 -65 26.5 q-38 0 -65 -26.5 q-27 -26.5 -27 -63.5 q0 -37 27 -63.5 Z" /><glyph glyph-name="uring" unicode="&#x16f;" d="M1085 1072 l0 -1072 l-282 0 l0 193 l-6 0 q-84 -213 -321 -213 q-176 0 -281 107.5 q-105 107.5 -105 293.5 l0 691 l292 0 l0 -630 q0 -107 51.5 -163 q51.5 -56 148.5 -56 q97 0 154 64 q57 64 57 171 l0 614 l292 0 ZM742 1236.5 q-64 -62.5 -153 -62.5 q-89 0 -153 62.5 q-64 62.5 -64 150.5 q0 88 64 150.5 q64 62.5 153 62.5 q89 0 153 -62.5 q64 -62.5 64 -150.5 q0 -88 -64 -150.5 ZM522 1320.5 q28 -27.5 67 -27.5 q39 0 67.5 27.5 q28.5 27.5 28.5 66.5 q0 39 -28.5 66.5 q-28.5 27.5 -67.5 27.5 q-39 0 -67 -27.5 q-28 -27.5 -28 -66.5 q0 -39 28 -66.5 Z" /><glyph glyph-name="Uhungarumlaut" unicode="&#x170;" d="M422 1443 l0 -903 q0 -141 79.5 -223.5 q79.5 -82.5 223.5 -82.5 q143 0 222.5 82.5 q79.5 82.5 79.5 223.5 l0 903 l302 0 l0 -933 q0 -240 -164.5 -387.5 q-164.5 -147.5 -439.5 -147.5 q-276 0 -440.5 147.5 q-164.5 147.5 -164.5 387.5 l0 933 l302 0 ZM1043 1558 l-230 0 l226 305 l271 0 l-267 -305 ZM643 1558 l-230 0 l226 305 l271 0 l-267 -305 Z" /><glyph glyph-name="uhungarumlaut" unicode="&#x171;" d="M1085 1072 l0 -1072 l-282 0 l0 193 l-6 0 q-84 -213 -321 -213 q-176 0 -281 107.5 q-105 107.5 -105 293.5 l0 691 l292 0 l0 -630 q0 -107 51.5 -163 q51.5 -56 148.5 -56 q97 0 154 64 q57 64 57 171 l0 614 l292 0 ZM664 1223 l189 310 l246 0 l-226 -310 l-209 0 ZM293 1223 l190 310 l246 0 l-227 -310 l-209 0 Z" /><glyph glyph-name="Uogonek" unicode="&#x172;" d="M954 -462 q-117 0 -192 58 q-75 58 -75 151 q0 66 41.5 129.5 q41.5 63.5 109.5 107.5 l0 6 q-53 -15 -113 -15 q-274 0 -439.5 146.5 q-165.5 146.5 -165.5 388.5 l0 933 l302 0 l0 -903 q0 -143 81 -224.5 q81 -81.5 222 -81.5 q141 0 221.5 81.5 q80.5 81.5 80.5 224.5 l0 903 l302 0 l0 -933 q0 -266 -233 -450 q-99 -76 -147 -136 q-48 -60 -48 -116 q0 -48 33.5 -74.5 q33.5 -26.5 88.5 -26.5 q47 0 76 9 l0 -157 q-45 -21 -145 -21 Z" /><glyph glyph-name="uogonek" unicode="&#x173;" d="M1050 -428 q-44 -22 -143 -22 q-116 0 -189.5 58.5 q-73.5 58.5 -73.5 151.5 q0 74 45.5 138 q45.5 64 113.5 103 l0 192 l-6 0 q-84 -213 -321 -213 q-176 0 -281 107.5 q-105 107.5 -105 293.5 l0 691 l292 0 l0 -630 q0 -107 51.5 -163 q51.5 -56 148.5 -56 q97 0 154 64 q57 64 57 171 l0 614 l292 0 l0 -1073 l-34 -6 q-78 -19 -135.5 -69 q-57.5 -50 -57.5 -112 q0 -45 30.5 -69.5 q30.5 -24.5 86.5 -24.5 q46 0 75 9 l0 -155 Z" /><glyph glyph-name="Wcircumflex" unicode="&#x174;" d="M984 986 l-274 -986 l-285 0 l-382 1443 l313 0 l227 -1045 l8 0 l270 1045 l255 0 l270 -1045 l8 0 l228 1045 l313 0 l-383 -1443 l-285 0 l-274 986 l-9 0 ZM877 1855 l224 0 l269 -317 l-221 0 l-156 192 l-8 0 l-156 -192 l-221 0 l269 317 Z" /><glyph glyph-name="wcircumflex" unicode="&#x175;" d="M1599 1072 l-284 -1072 l-311 0 l-194 758 l-6 0 l-193 -758 l-307 0 l-285 1072 l294 0 l162 -795 l6 0 l190 795 l280 0 l191 -795 l6 0 l163 795 l288 0 ZM921 1531 l263 -318 l-223 0 l-149 186 l-7 0 l-148 -186 l-224 0 l264 318 l224 0 Z" /><glyph glyph-name="Ycircumflex" unicode="&#x176;" d="M832 0 l-302 0 l0 539 l-502 904 l329 0 l323 -616 l7 0 l324 616 l324 0 l-503 -904 l0 -539 ZM569 1855 l224 0 l269 -317 l-221 0 l-156 192 l-8 0 l-156 -192 l-221 0 l269 317 Z" /><glyph glyph-name="ycircumflex" unicode="&#x177;" d="M232 -397 q-96 0 -110 3 l0 225 q9 -2 73 -2 q81 0 123 27.5 q42 27.5 57 91.5 q0 1 5 25 q5 24 4 26 l-373 1073 l321 0 l228 -838 l5 0 l228 838 l308 0 l-369 -1096 q-69 -206 -181.5 -289.5 q-112.5 -83.5 -318.5 -83.5 ZM669 1531 l263 -318 l-223 0 l-149 186 l-7 0 l-148 -186 l-224 0 l264 318 l224 0 Z" /><glyph glyph-name="Ydieresis" unicode="&#x178;" d="M832 0 l-302 0 l0 539 l-502 904 l329 0 l323 -616 l7 0 l324 616 l324 0 l-503 -904 l0 -539 ZM572.5 1609 q-38.5 -38 -95.5 -38 q-57 0 -95.5 38 q-38.5 38 -38.5 92 q0 54 38.5 92 q38.5 38 95.5 38 q57 0 95.5 -38 q38.5 -38 38.5 -92 q0 -54 -38.5 -92 ZM980.5 1609 q-38.5 -38 -95.5 -38 q-57 0 -95.5 38 q-38.5 38 -38.5 92 q0 54 38.5 92 q38.5 38 95.5 38 q57 0 95.5 -38 q38.5 -38 38.5 -92 q0 -54 -38.5 -92 Z" /><glyph glyph-name="Zacute" unicode="&#x179;" d="M89 0 l0 197 l733 989 l0 8 l-716 0 l0 249 l1077 0 l0 -196 l-730 -990 l0 -7 l750 0 l0 -250 l-1114 0 ZM761 1558 l-230 0 l226 305 l271 0 l-267 -305 Z" /><glyph glyph-name="zacute" unicode="&#x17a;" d="M75 0 l0 166 l534 677 l0 6 l-526 0 l0 223 l865 0 l0 -185 l-502 -658 l0 -5 l514 0 l0 -224 l-885 0 ZM631 1223 l-233 0 l221 310 l268 0 l-256 -310 Z" /><glyph glyph-name="Zdotaccent" unicode="&#x17b;" d="M89 0 l0 197 l733 989 l0 8 l-716 0 l0 249 l1077 0 l0 -196 l-730 -990 l0 -7 l750 0 l0 -250 l-1114 0 ZM752 1604.5 q-43 -43.5 -106 -43.5 q-63 0 -106 43.5 q-43 43.5 -43 105.5 q0 62 43 105.5 q43 43.5 106 43.5 q63 0 106 -43.5 q43 -43.5 43 -105.5 q0 -62 -43 -105.5 Z" /><glyph glyph-name="zdotaccent" unicode="&#x17c;" d="M75 0 l0 166 l534 677 l0 6 l-526 0 l0 223 l865 0 l0 -185 l-502 -658 l0 -5 l514 0 l0 -224 l-885 0 ZM622.5 1266.5 q-43.5 -43.5 -106.5 -43.5 q-63 0 -107 43.5 q-44 43.5 -44 104.5 q0 62 44 105.5 q44 43.5 107 43.5 q63 0 106.5 -43.5 q43.5 -43.5 43.5 -105.5 q0 -61 -43.5 -104.5 Z" /><glyph glyph-name="Zcaron" unicode="&#x17d;" d="M89 0 l0 197 l733 989 l0 8 l-716 0 l0 249 l1077 0 l0 -196 l-730 -990 l0 -7 l750 0 l0 -250 l-1114 0 ZM534 1543 l-269 317 l221 0 l156 -192 l8 0 l156 192 l221 0 l-269 -317 l-224 0 Z" /><glyph glyph-name="zcaron" unicode="&#x17e;" d="M75 0 l0 166 l534 677 l0 6 l-526 0 l0 223 l865 0 l0 -185 l-502 -658 l0 -5 l514 0 l0 -224 l-885 0 ZM629 1213 l-224 0 l-264 318 l224 0 l148 -188 l7 0 l149 188 l223 0 l-263 -318 Z" /><glyph glyph-name="uni04D8" unicode="&#x18f;&#x4d8;" d="M744 -37 q-307 0 -482 197 q-175 197 -177 527 l2 107 l1000 0 l0 16 q1 183 -101.5 300.5 q-102.5 117.5 -260.5 117.5 q-237 0 -318 -199 l-306 0 q55 210 222.5 330.5 q167.5 120.5 402.5 120.5 q308 0 492.5 -207 q184.5 -207 184.5 -553 q0 -225 -82 -397 q-82 -172 -232 -266 q-150 -94 -345 -94 ZM746 216 q136 0 229 97.5 q93 97.5 109 259.5 l-681 0 q12 -165 104.5 -261 q92.5 -96 238.5 -96 Z" /><glyph glyph-name="florin" unicode="&#x192;" d="M1260 1424 l0 -234 q-74 36 -169 36 q-102 0 -158 -48.5 q-56 -48.5 -72 -149.5 l-24 -156 l350 0 l0 -210 l-382 0 l-43 -278 q-33 -209 -151.5 -308.5 q-118.5 -99.5 -327.5 -99.5 q-134 0 -216 40 l0 239 q79 -43 179 -43 q100 0 151 48 q51 48 68 157 l38 245 l-318 0 l0 210 l350 0 l29 187 q32 205 152.5 303 q120.5 98 340.5 98 q54 0 111.5 -10 q57.5 -10 91.5 -26 Z" /><glyph glyph-name="Ohorn" unicode="&#x1a0;" d="M771 -25 q-322 0 -509 201 q-187 201 -187 545 q0 344 187.5 545.5 q187.5 201.5 508.5 201.5 q88 0 220.5 -25 q132.5 -25 210.5 -25 q56 0 82.5 21.5 q26.5 21.5 26.5 67.5 l0 163 l231 0 l0 -231 q0 -97 -54.5 -151.5 q-54.5 -54.5 -152.5 -54.5 l-61 0 l0 -7 q82 -63 137.5 -208.5 q55.5 -145.5 55.5 -296.5 q0 -344 -187.5 -545 q-187.5 -201 -508.5 -201 ZM488 361.5 q105 -133.5 283 -133.5 q178 0 282.5 133.5 q104.5 133.5 104.5 359.5 q0 227 -104.5 361 q-104.5 134 -282.5 134 q-178 0 -283 -134 q-105 -134 -105 -361 q0 -226 105 -359.5 Z" /><glyph glyph-name="ohorn" unicode="&#x1a1;" d="M415 288.5 q63 -88.5 172 -88.5 q109 0 171.5 88.5 q62.5 88.5 62.5 247.5 q0 158 -63 247 q-63 89 -171 89 q-108 0 -171.5 -89 q-63.5 -89 -63.5 -247 q0 -159 63 -247.5 ZM1117 518 q0 -244 -144.5 -392.5 q-144.5 -148.5 -380.5 -148.5 q-250 0 -393 149 q-143 149 -143 411 q0 258 143.5 408 q143.5 150 387.5 150 q78 0 162.5 -20 q84.5 -20 124.5 -20 q58 0 82.5 19 q24.5 19 24.5 64 l0 141 l229 0 l0 -216 q0 -89 -46.5 -137.5 q-46.5 -48.5 -131.5 -48.5 l-34 0 l0 -6 q119 -128 119 -353 Z" /><glyph glyph-name="Uhorn" unicode="&#x1af;" d="M1164 121.5 q-165 -146.5 -439 -146.5 q-274 0 -439.5 146.5 q-165.5 146.5 -165.5 388.5 l0 933 l302 0 l0 -904 q0 -142 81 -223.5 q81 -81.5 222 -81.5 q141 0 221.5 81.5 q80.5 81.5 80.5 223.5 l0 904 l313 0 q80 0 80 77 l0 182 l231 0 l0 -239 q0 -101 -60.5 -157 q-60.5 -56 -166.5 -56 l-95 0 l0 -740 q0 -242 -165 -388.5 Z" /><glyph glyph-name="uhorn" unicode="&#x1b0;" d="M797 193 q-84 -213 -321 -213 q-176 0 -281 107.5 q-105 107.5 -105 293.5 l0 691 l292 0 l0 -630 q0 -107 51.5 -163 q51.5 -56 148.5 -56 q97 0 154 64 q57 64 57 171 l0 614 l293 0 q77 0 77 74 l0 155 l229 0 l0 -212 q0 -98 -58.5 -153.5 q-58.5 -55.5 -163.5 -55.5 l-85 0 l0 -880 l-282 0 l0 193 l-6 0 Z" /><glyph glyph-name="uni01C4" unicode="&#x1c4;" d="M120 1443 l551 0 q326 0 507 -187 q181 -187 181 -529 q0 -343 -181.5 -535 q-181.5 -192 -506.5 -192 l-551 0 l0 1443 ZM422 1194 l0 -944 l213 0 q203 0 309.5 121.5 q106.5 121.5 106.5 354.5 q0 226 -108 347 q-108 121 -308 121 l-213 0 ZM1517 0 l0 197 l733 989 l0 8 l-716 0 l0 249 l1077 0 l0 -196 l-730 -990 l0 -7 l750 0 l0 -250 l-1114 0 ZM1962 1543 l-269 317 l221 0 l156 -192 l8 0 l156 192 l221 0 l-269 -317 l-224 0 Z" /><glyph glyph-name="uni01C5" unicode="&#x1c5;" d="M120 1443 l551 0 q326 0 507 -187 q181 -187 181 -529 q0 -343 -181.5 -535 q-181.5 -192 -506.5 -192 l-551 0 l0 1443 ZM422 1194 l0 -944 l213 0 q203 0 309.5 121.5 q106.5 121.5 106.5 354.5 q0 226 -108 347 q-108 121 -308 121 l-213 0 ZM1505 0 l0 166 l534 677 l0 6 l-526 0 l0 223 l865 0 l0 -185 l-502 -658 l0 -5 l514 0 l0 -224 l-885 0 ZM2059 1213 l-224 0 l-264 318 l224 0 l148 -188 l7 0 l149 188 l223 0 l-263 -318 Z" /><glyph glyph-name="uni01C6" unicode="&#x1c6;" d="M493 -17 q-201 0 -319 149 q-118 149 -118 406 q0 255 118.5 403 q118.5 148 320.5 148 q114 0 200.5 -55 q86.5 -55 126.5 -146 l6 0 l0 555 l292 0 l0 -1443 l-288 0 l0 184 l-5 0 q-40 -91 -129 -146 q-89 -55 -205 -55 ZM592 855 q-110 0 -173.5 -86 q-63.5 -86 -63.5 -233 q0 -148 63.5 -233 q63.5 -85 173.5 -85 q109 0 173.5 85.5 q64.5 85.5 64.5 232.5 q0 146 -64.5 232.5 q-64.5 86.5 -173.5 86.5 ZM1306 0 l0 166 l534 677 l0 6 l-526 0 l0 223 l865 0 l0 -185 l-502 -658 l0 -5 l514 0 l0 -224 l-885 0 ZM1860 1213 l-224 0 l-264 318 l224 0 l148 -188 l7 0 l149 188 l223 0 l-263 -318 Z" /><glyph glyph-name="uni01C7" unicode="&#x1c7;" d="M1053 250 l0 -250 l-933 0 l0 1443 l302 0 l0 -1193 l631 0 ZM1143 425 l293 0 q2 -88 54.5 -141 q52.5 -53 137.5 -53 q95 0 144.5 57 q49.5 57 49.5 166 l0 989 l302 0 l0 -991 q0 -229 -130 -355.5 q-130 -126.5 -363 -126.5 q-221 0 -354.5 124 q-133.5 124 -133.5 331 Z" /><glyph glyph-name="uni01C8" unicode="&#x1c8;" d="M1053 250 l0 -250 l-933 0 l0 1443 l302 0 l0 -1193 l631 0 ZM1504 1072 l0 -1122 q0 -163 -98 -247 q-98 -84 -286 -84 q-54 0 -80 4 l0 215 q14 -2 37 -2 q73 0 104 28.5 q31 28.5 31 93.5 l0 1114 l292 0 ZM1469 1234 q-45 -44 -111 -44 q-66 0 -111 44 q-45 44 -45 107 q0 64 45 107.5 q45 43.5 111 43.5 q66 0 111 -43.5 q45 -43.5 45 -107.5 q0 -63 -45 -107 Z" /><glyph glyph-name="uni01C9" unicode="&#x1c9;" d="M102 0 l0 1443 l292 0 l0 -1443 l-292 0 ZM894 1072 l0 -1122 q0 -163 -98 -247 q-98 -84 -286 -84 q-54 0 -80 4 l0 215 q14 -2 37 -2 q73 0 104 28.5 q31 28.5 31 93.5 l0 1114 l292 0 ZM859 1234 q-45 -44 -111 -44 q-66 0 -111 44 q-45 44 -45 107 q0 64 45 107.5 q45 43.5 111 43.5 q66 0 111 -43.5 q45 -43.5 45 -107.5 q0 -63 -45 -107 Z" /><glyph glyph-name="uni01CA" unicode="&#x1ca;" d="M409 0 l-289 0 l0 1443 l252 0 l674 -940 l8 0 l0 940 l289 0 l0 -1443 l-250 0 l-675 945 l-9 0 l0 -945 ZM1494 425 l293 0 q2 -88 54.5 -141 q52.5 -53 137.5 -53 q95 0 144.5 57 q49.5 57 49.5 166 l0 989 l302 0 l0 -991 q0 -229 -130 -355.5 q-130 -126.5 -363 -126.5 q-221 0 -354.5 124 q-133.5 124 -133.5 331 Z" /><glyph glyph-name="uni01CB" unicode="&#x1cb;" d="M409 0 l-289 0 l0 1443 l252 0 l674 -940 l8 0 l0 940 l289 0 l0 -1443 l-250 0 l-675 945 l-9 0 l0 -945 ZM1855 1072 l0 -1122 q0 -163 -98 -247 q-98 -84 -286 -84 q-54 0 -80 4 l0 215 q14 -2 37 -2 q73 0 104 28.5 q31 28.5 31 93.5 l0 1114 l292 0 ZM1820 1234 q-45 -44 -111 -44 q-66 0 -111 44 q-45 44 -45 107 q0 64 45 107.5 q45 43.5 111 43.5 q66 0 111 -43.5 q45 -43.5 45 -107.5 q0 -63 -45 -107 Z" /><glyph glyph-name="uni01CC" unicode="&#x1cc;" d="M95 0 l0 1072 l282 0 l0 -191 l6 0 q44 102 128.5 156.5 q84.5 54.5 206.5 54.5 q178 0 275 -106 q97 -106 97 -295 l0 -691 l-292 0 l0 630 q0 106 -50 163 q-50 57 -147 57 q-97 0 -155.5 -65 q-58.5 -65 -58.5 -170 l0 -615 l-292 0 ZM1590 1072 l0 -1122 q0 -163 -98 -247 q-98 -84 -286 -84 q-54 0 -80 4 l0 215 q14 -2 37 -2 q73 0 104 28.5 q31 28.5 31 93.5 l0 1114 l292 0 ZM1555 1234 q-45 -44 -111 -44 q-66 0 -111 44 q-45 44 -45 107 q0 64 45 107.5 q45 43.5 111 43.5 q66 0 111 -43.5 q45 -43.5 45 -107.5 q0 -63 -45 -107 Z" /><glyph glyph-name="Acaron" unicode="&#x1cd;" d="M1065 0 l-110 350 l-507 0 l-110 -350 l-310 0 l501 1443 l355 0 l502 -1443 l-321 0 ZM698 1167 l-185 -591 l377 0 l-185 591 l-7 0 ZM595 1543 l-269 317 l221 0 l156 -192 l8 0 l156 192 l221 0 l-269 -317 l-224 0 Z" /><glyph glyph-name="acaron" unicode="&#x1ce;" d="M509 194 q97 0 164.5 56.5 q67.5 56.5 67.5 142.5 l0 78 l-226 -14 q-82 -6 -126.5 -41 q-44.5 -35 -44.5 -92 q0 -60 45 -95 q45 -35 120 -35 ZM413 -17 q-155 0 -257 91 q-102 91 -102 234 q0 146 108 229 q108 83 309 95 l270 16 l0 71 q0 74 -48.5 116 q-48.5 42 -131.5 42 q-80 0 -130.5 -36 q-50.5 -36 -61.5 -97 l-267 0 q8 158 135 254.5 q127 96.5 337 96.5 q206 0 330 -98 q124 -98 124 -260 l0 -737 l-282 0 l0 164 l-6 0 q-44 -84 -134 -132.5 q-90 -48.5 -193 -48.5 ZM678 1213 l-224 0 l-264 318 l224 0 l148 -188 l7 0 l149 188 l223 0 l-263 -318 Z" /><glyph glyph-name="Icaron" unicode="&#x1cf;" d="M422 0 l-302 0 l0 1443 l302 0 l0 -1443 ZM159 1543 l-269 317 l221 0 l156 -192 l8 0 l156 192 l221 0 l-269 -317 l-224 0 Z" /><glyph glyph-name="icaron" unicode="&#x1d0;" d="M100 0 l0 1072 l292 0 l0 -1072 l-292 0 ZM358 1213 l-224 0 l-264 318 l224 0 l148 -188 l7 0 l149 188 l223 0 l-263 -318 Z" /><glyph glyph-name="Ocaron" unicode="&#x1d1;" d="M262.5 1267 q187.5 201 508.5 201 q321 0 508.5 -201 q187.5 -201 187.5 -546 q0 -344 -188 -545 q-188 -201 -508 -201 q-321 0 -508.5 201 q-187.5 201 -187.5 545 q0 345 187.5 546 ZM1053 1082 q-105 134 -282 134 q-177 0 -282.5 -134 q-105.5 -134 -105.5 -361 q0 -226 105 -359.5 q105 -133.5 283 -133.5 q177 0 282 133.5 q105 133.5 105 359.5 q0 227 -105 361 ZM659 1543 l-269 317 l221 0 l156 -192 l8 0 l156 192 l221 0 l-269 -317 l-224 0 Z" /><glyph glyph-name="ocaron" unicode="&#x1d2;" d="M975 125.5 q-143 -148.5 -388 -148.5 q-245 0 -388 149 q-143 149 -143 411 q0 259 144.5 408.5 q144.5 149.5 386.5 149.5 q243 0 387 -149.5 q144 -149.5 144 -408.5 q0 -263 -143 -411.5 ZM587 200 q108 0 171 88 q63 88 63 248 q0 158 -63 247 q-63 89 -171 89 q-108 0 -171.5 -89 q-63.5 -89 -63.5 -247 q0 -160 63 -248 q63 -88 172 -88 ZM699 1213 l-224 0 l-264 318 l224 0 l148 -188 l7 0 l149 188 l223 0 l-263 -318 Z" /><glyph glyph-name="Ucaron" unicode="&#x1d3;" d="M422 1443 l0 -903 q0 -141 79.5 -223.5 q79.5 -82.5 223.5 -82.5 q143 0 222.5 82.5 q79.5 82.5 79.5 223.5 l0 903 l302 0 l0 -933 q0 -240 -164.5 -387.5 q-164.5 -147.5 -439.5 -147.5 q-276 0 -440.5 147.5 q-164.5 147.5 -164.5 387.5 l0 933 l302 0 ZM613 1543 l-269 317 l221 0 l156 -192 l8 0 l156 192 l221 0 l-269 -317 l-224 0 Z" /><glyph glyph-name="ucaron" unicode="&#x1d4;" d="M1085 1072 l0 -1072 l-282 0 l0 193 l-6 0 q-84 -213 -321 -213 q-176 0 -281 107.5 q-105 107.5 -105 293.5 l0 691 l292 0 l0 -630 q0 -107 51.5 -163 q51.5 -56 148.5 -56 q97 0 154 64 q57 64 57 171 l0 614 l292 0 ZM701 1213 l-224 0 l-264 318 l224 0 l148 -188 l7 0 l149 188 l223 0 l-263 -318 Z" /><glyph glyph-name="Udieresismacron" unicode="&#x1d5;" d="M422 1443 l0 -903 q0 -141 79.5 -223.5 q79.5 -82.5 223.5 -82.5 q143 0 222.5 82.5 q79.5 82.5 79.5 223.5 l0 903 l302 0 l0 -933 q0 -240 -164.5 -387.5 q-164.5 -147.5 -439.5 -147.5 q-276 0 -440.5 147.5 q-164.5 147.5 -164.5 387.5 l0 933 l302 0 ZM431.5 1764 q37.5 37 93.5 37 q56 0 93.5 -37 q37.5 -37 37.5 -91 q0 -53 -37.5 -90.5 q-37.5 -37.5 -93.5 -37.5 q-56 0 -93.5 37.5 q-37.5 37.5 -37.5 90.5 q0 54 37.5 91 ZM379 2073 l692 0 l0 -148 l-692 0 l0 148 ZM831.5 1764 q37.5 37 93.5 37 q56 0 93.5 -37 q37.5 -37 37.5 -91 q0 -53 -37.5 -90.5 q-37.5 -37.5 -93.5 -37.5 q-56 0 -93.5 37.5 q-37.5 37.5 -37.5 90.5 q0 54 37.5 91 Z" /><glyph glyph-name="udieresismacron" unicode="&#x1d6;" d="M1085 1072 l0 -1072 l-282 0 l0 193 l-6 0 q-84 -213 -321 -213 q-176 0 -281 107.5 q-105 107.5 -105 293.5 l0 691 l292 0 l0 -630 q0 -107 51.5 -163 q51.5 -56 148.5 -56 q97 0 154 64 q57 64 57 171 l0 614 l292 0 ZM389 1194 q-54 0 -92 37 q-38 37 -38 89 q0 53 37.5 90 q37.5 37 92.5 37 q55 0 93 -37 q38 -37 38 -90 q0 -52 -38 -89 q-38 -37 -93 -37 ZM789 1194 q-55 0 -93 37 q-38 37 -38 89 q0 53 38 90 q38 37 93 37 q55 0 92.5 -37 q37.5 -37 37.5 -90 q0 -52 -38 -89 q-38 -37 -92 -37 ZM909 1729 l0 -148 l-639 0 l0 148 l639 0 Z" /><glyph glyph-name="Udieresisacute" unicode="&#x1d7;" d="M422 1443 l0 -903 q0 -141 79.5 -223.5 q79.5 -82.5 223.5 -82.5 q143 0 222.5 82.5 q79.5 82.5 79.5 223.5 l0 903 l302 0 l0 -933 q0 -240 -164.5 -387.5 q-164.5 -147.5 -439.5 -147.5 q-276 0 -440.5 147.5 q-164.5 147.5 -164.5 387.5 l0 933 l302 0 ZM606 1878 l185 248 l246 0 l-215 -248 l-216 0 ZM618.5 1582.5 q-37.5 -37.5 -93.5 -37.5 q-56 0 -93.5 37.5 q-37.5 37.5 -37.5 90.5 q0 54 37.5 91 q37.5 37 93.5 37 q56 0 93.5 -37 q37.5 -37 37.5 -91 q0 -53 -37.5 -90.5 ZM1018.5 1582.5 q-37.5 -37.5 -93.5 -37.5 q-56 0 -93.5 37.5 q-37.5 37.5 -37.5 90.5 q0 54 37.5 91 q37.5 37 93.5 37 q56 0 93.5 -37 q37.5 -37 37.5 -91 q0 -53 -37.5 -90.5 Z" /><glyph glyph-name="udieresisacute" unicode="&#x1d8;" d="M1085 1072 l0 -1072 l-282 0 l0 193 l-6 0 q-84 -213 -321 -213 q-176 0 -281 107.5 q-105 107.5 -105 293.5 l0 691 l292 0 l0 -630 q0 -107 51.5 -163 q51.5 -56 148.5 -56 q97 0 154 64 q57 64 57 171 l0 614 l292 0 ZM473 1562 l206 288 l243 0 l-235 -288 l-214 0 ZM480.5 1233 q-38.5 -38 -95.5 -38 q-57 0 -95.5 38 q-38.5 38 -38.5 92 q0 54 38.5 92 q38.5 38 95.5 38 q57 0 95.5 -38 q38.5 -38 38.5 -92 q0 -54 -38.5 -92 ZM888.5 1233 q-38.5 -38 -95.5 -38 q-57 0 -95.5 38 q-38.5 38 -38.5 92 q0 54 38.5 92 q38.5 38 95.5 38 q57 0 95.5 -38 q38.5 -38 38.5 -92 q0 -54 -38.5 -92 Z" /><glyph glyph-name="Udieresiscaron" unicode="&#x1d9;" d="M422 1443 l0 -903 q0 -141 79.5 -223.5 q79.5 -82.5 223.5 -82.5 q143 0 222.5 82.5 q79.5 82.5 79.5 223.5 l0 903 l302 0 l0 -933 q0 -240 -164.5 -387.5 q-164.5 -147.5 -439.5 -147.5 q-276 0 -440.5 147.5 q-164.5 147.5 -164.5 387.5 l0 933 l302 0 ZM616 1871 l-256 269 l221 0 l137 -149 l14 0 l137 149 l221 0 l-256 -269 l-218 0 ZM431.5 1764 q37.5 37 93.5 37 q56 0 93.5 -37 q37.5 -37 37.5 -91 q0 -53 -37.5 -90.5 q-37.5 -37.5 -93.5 -37.5 q-56 0 -93.5 37.5 q-37.5 37.5 -37.5 90.5 q0 54 37.5 91 ZM831.5 1764 q37.5 37 93.5 37 q56 0 93.5 -37 q37.5 -37 37.5 -91 q0 -53 -37.5 -90.5 q-37.5 -37.5 -93.5 -37.5 q-56 0 -93.5 37.5 q-37.5 37.5 -37.5 90.5 q0 54 37.5 91 Z" /><glyph glyph-name="udieresiscaron" unicode="&#x1da;" d="M1085 1072 l0 -1072 l-282 0 l0 193 l-6 0 q-84 -213 -321 -213 q-176 0 -281 107.5 q-105 107.5 -105 293.5 l0 691 l292 0 l0 -630 q0 -107 51.5 -163 q51.5 -56 148.5 -56 q97 0 154 64 q57 64 57 171 l0 614 l292 0 ZM389 1194 q-54 0 -92 37 q-38 37 -38 89 q0 53 37.5 90 q37.5 37 92.5 37 q55 0 93 -37 q38 -37 38 -90 q0 -52 -38 -89 q-38 -37 -93 -37 ZM789 1194 q-55 0 -93 37 q-38 37 -38 89 q0 53 38 90 q38 37 93 37 q55 0 92.5 -37 q37.5 -37 37.5 -90 q0 -52 -38 -89 q-38 -37 -92 -37 ZM702 1531 l-226 0 l-263 308 l224 0 l148 -179 l8 0 l148 179 l224 0 l-263 -308 Z" /><glyph glyph-name="Udieresisgrave" unicode="&#x1db;" d="M422 1443 l0 -903 q0 -141 79.5 -223.5 q79.5 -82.5 223.5 -82.5 q143 0 222.5 82.5 q79.5 82.5 79.5 223.5 l0 903 l302 0 l0 -933 q0 -240 -164.5 -387.5 q-164.5 -147.5 -439.5 -147.5 q-276 0 -440.5 147.5 q-164.5 147.5 -164.5 387.5 l0 933 l302 0 ZM839 1878 l-216 0 l-215 248 l246 0 l185 -248 ZM618.5 1582.5 q-37.5 -37.5 -93.5 -37.5 q-56 0 -93.5 37.5 q-37.5 37.5 -37.5 90.5 q0 54 37.5 91 q37.5 37 93.5 37 q56 0 93.5 -37 q37.5 -37 37.5 -91 q0 -53 -37.5 -90.5 ZM1018.5 1582.5 q-37.5 -37.5 -93.5 -37.5 q-56 0 -93.5 37.5 q-37.5 37.5 -37.5 90.5 q0 54 37.5 91 q37.5 37 93.5 37 q56 0 93.5 -37 q37.5 -37 37.5 -91 q0 -53 -37.5 -90.5 Z" /><glyph glyph-name="udieresisgrave" unicode="&#x1dc;" d="M1085 1072 l0 -1072 l-282 0 l0 193 l-6 0 q-84 -213 -321 -213 q-176 0 -281 107.5 q-105 107.5 -105 293.5 l0 691 l292 0 l0 -630 q0 -107 51.5 -163 q51.5 -56 148.5 -56 q97 0 154 64 q57 64 57 171 l0 614 l292 0 ZM702 1559 l-202 0 l-232 291 l243 0 l191 -291 ZM480.5 1233 q-38.5 -38 -95.5 -38 q-57 0 -95.5 38 q-38.5 38 -38.5 92 q0 54 38.5 92 q38.5 38 95.5 38 q57 0 95.5 -38 q38.5 -38 38.5 -92 q0 -54 -38.5 -92 ZM888.5 1233 q-38.5 -38 -95.5 -38 q-57 0 -95.5 38 q-38.5 38 -38.5 92 q0 54 38.5 92 q38.5 38 95.5 38 q57 0 95.5 -38 q38.5 -38 38.5 -92 q0 -54 -38.5 -92 Z" /><glyph glyph-name="uni04D9" unicode="&#x1dd;&#x259;&#x4d9;" d="M570 193 q96 0 160.5 64.5 q64.5 64.5 70.5 167.5 l-454 0 q2 -105 63.5 -168.5 q61.5 -63.5 159.5 -63.5 ZM342 757 l-268 0 q36 158 166 248 q130 90 329 90 q243 0 382.5 -148.5 q139.5 -148.5 139.5 -406.5 q0 -258 -141 -410.5 q-141 -152.5 -381 -152.5 q-231 0 -367.5 146 q-136.5 146 -136.5 393 l2 88 l737 0 l0 17 q0 115 -65 187 q-65 72 -173 72 q-166 0 -224 -123 Z" /><glyph glyph-name="Adieresismacron" unicode="&#x1de;" d="M1065 0 l-110 350 l-507 0 l-110 -350 l-310 0 l501 1443 l355 0 l502 -1443 l-321 0 ZM698 1167 l-185 -591 l377 0 l-185 591 l-7 0 ZM413.5 1764 q37.5 37 93.5 37 q56 0 93.5 -37 q37.5 -37 37.5 -91 q0 -53 -37.5 -90.5 q-37.5 -37.5 -93.5 -37.5 q-56 0 -93.5 37.5 q-37.5 37.5 -37.5 90.5 q0 54 37.5 91 ZM361 2073 l692 0 l0 -148 l-692 0 l0 148 ZM813.5 1764 q37.5 37 93.5 37 q56 0 93.5 -37 q37.5 -37 37.5 -91 q0 -53 -37.5 -90.5 q-37.5 -37.5 -93.5 -37.5 q-56 0 -93.5 37.5 q-37.5 37.5 -37.5 90.5 q0 54 37.5 91 Z" /><glyph glyph-name="adieresismacron" unicode="&#x1df;" d="M509 194 q97 0 164.5 56.5 q67.5 56.5 67.5 142.5 l0 78 l-226 -14 q-82 -6 -126.5 -41 q-44.5 -35 -44.5 -92 q0 -60 45 -95 q45 -35 120 -35 ZM413 -17 q-155 0 -257 91 q-102 91 -102 234 q0 146 108 229 q108 83 309 95 l270 16 l0 71 q0 74 -48.5 116 q-48.5 42 -131.5 42 q-80 0 -130.5 -36 q-50.5 -36 -61.5 -97 l-267 0 q8 158 135 254.5 q127 96.5 337 96.5 q206 0 330 -98 q124 -98 124 -260 l0 -737 l-282 0 l0 164 l-6 0 q-44 -84 -134 -132.5 q-90 -48.5 -193 -48.5 ZM366 1194 q-54 0 -92 37 q-38 37 -38 89 q0 53 37.5 90 q37.5 37 92.5 37 q55 0 93 -37 q38 -37 38 -90 q0 -52 -38 -89 q-38 -37 -93 -37 ZM766 1194 q-55 0 -93 37 q-38 37 -38 89 q0 53 38 90 q38 37 93 37 q55 0 92.5 -37 q37.5 -37 37.5 -90 q0 -52 -38 -89 q-38 -37 -92 -37 ZM886 1729 l0 -148 l-639 0 l0 148 l639 0 Z" /><glyph glyph-name="Adotmacron" unicode="&#x1e0;" d="M1065 0 l-110 350 l-507 0 l-110 -350 l-310 0 l501 1443 l355 0 l502 -1443 l-321 0 ZM698 1167 l-185 -591 l377 0 l-185 591 l-7 0 ZM805.5 1594 q-39.5 -39 -98.5 -39 q-59 0 -98.5 39 q-39.5 39 -39.5 95 q0 55 39.5 93.5 q39.5 38.5 98.5 38.5 q59 0 98.5 -38.5 q39.5 -38.5 39.5 -93.5 q0 -56 -39.5 -95 ZM1053 2073 l0 -148 l-692 0 l0 148 l692 0 Z" /><glyph glyph-name="adotmacron" unicode="&#x1e1;" d="M509 194 q97 0 164.5 56.5 q67.5 56.5 67.5 142.5 l0 78 l-226 -14 q-82 -6 -126.5 -41 q-44.5 -35 -44.5 -92 q0 -60 45 -95 q45 -35 120 -35 ZM413 -17 q-155 0 -257 91 q-102 91 -102 234 q0 146 108 229 q108 83 309 95 l270 16 l0 71 q0 74 -48.5 116 q-48.5 42 -131.5 42 q-80 0 -130.5 -36 q-50.5 -36 -61.5 -97 l-267 0 q8 158 135 254.5 q127 96.5 337 96.5 q206 0 330 -98 q124 -98 124 -260 l0 -737 l-282 0 l0 164 l-6 0 q-44 -84 -134 -132.5 q-90 -48.5 -193 -48.5 ZM672 1240 q-44 -43 -106 -43 q-62 0 -106 43 q-44 43 -44 104 q0 61 44 104.5 q44 43.5 106 43.5 q62 0 106 -43.5 q44 -43.5 44 -104.5 q0 -61 -44 -104 ZM886 1734 l0 -148 l-639 0 l0 148 l639 0 Z" /><glyph glyph-name="AEmacron" unicode="&#x1e2;" d="M830 1211 l-255 -612 l391 0 l0 612 l-136 0 ZM966 0 l0 373 l-479 0 l-158 -373 l-301 0 l613 1443 l1270 0 l0 -249 l-669 0 l0 -353 l632 0 l0 -232 l-632 0 l0 -360 l669 0 l0 -249 l-945 0 ZM1674 1768 l0 -148 l-692 0 l0 148 l692 0 Z" /><glyph glyph-name="aemacron" unicode="&#x1e3;" d="M1252 -23 q-133 0 -237.5 54.5 q-104.5 54.5 -155.5 149.5 l-9 0 q-57 -94 -157 -146 q-100 -52 -233 -52 q-188 0 -298.5 89.5 q-110.5 89.5 -110.5 235.5 q0 145 109 228 q109 83 315 94 l266 15 l0 59 q0 74 -54.5 123.5 q-54.5 49.5 -137.5 49.5 q-79 0 -131.5 -37.5 q-52.5 -37.5 -59.5 -96.5 l-263 0 q8 157 130.5 254.5 q122.5 97.5 316.5 97.5 q126 0 219.5 -43 q93.5 -43 137.5 -118 l8 0 q114 161 353 161 q218 0 350 -145 q132 -145 132 -392 l0 -88 l-730 0 l0 -19 q0 -114 67.5 -186 q67.5 -72 176.5 -72 q77 0 133 36.5 q56 36.5 77 98.5 l268 0 q-24 -158 -156 -254.5 q-132 -96.5 -326 -96.5 ZM1398 816 q-59 63 -154 63 q-95 0 -158 -64.5 q-63 -64.5 -71 -166.5 l446 0 q-4 105 -63 168 ZM501 190 q99 0 169.5 60 q70.5 60 70.5 143 l0 75 l-231 -15 q-85 -6 -132.5 -40 q-47.5 -34 -47.5 -90 q0 -58 48.5 -95.5 q48.5 -37.5 122.5 -37.5 ZM1216 1403 l0 -148 l-639 0 l0 148 l639 0 Z" /><glyph glyph-name="Gcaron" unicode="&#x1e6;" d="M1410 606 q0 -295 -169.5 -463 q-169.5 -168 -470.5 -168 q-324 0 -509.5 200 q-185.5 200 -185.5 551 q0 346 184.5 544 q184.5 198 503.5 198 q252 0 427 -136 q175 -136 207 -355 l-303 0 q-33 113 -120.5 177 q-87.5 64 -209.5 64 q-179 0 -280 -129 q-101 -129 -101 -359 q0 -234 105.5 -369 q105.5 -135 286.5 -135 q148 0 241.5 83 q93.5 83 98.5 217 l1 23 l-314 0 l0 220 l608 0 l0 -163 ZM639 1543 l-269 317 l221 0 l156 -192 l8 0 l156 192 l221 0 l-269 -317 l-224 0 Z" /><glyph glyph-name="gcaron" unicode="&#x1e7;" d="M590 228 q110 0 174.5 82.5 q64.5 82.5 64.5 227.5 q0 145 -65 231 q-65 86 -174 86 q-108 0 -171.5 -85.5 q-63.5 -85.5 -63.5 -231.5 q0 -146 63 -228 q63 -82 172 -82 ZM585 -404 q-209 0 -343.5 91.5 q-134.5 91.5 -152.5 236.5 l286 0 q17 -56 76.5 -90.5 q59.5 -34.5 141.5 -34.5 q111 0 173 56.5 q62 56.5 62 151.5 l0 188 l-6 0 q-38 -87 -127 -139.5 q-89 -52.5 -204 -52.5 q-198 0 -316.5 144 q-118.5 144 -118.5 393 q0 255 118 402 q118 147 322 147 q114 0 201 -55 q87 -55 130 -149 l5 0 l0 187 l288 0 l0 -1057 q0 -191 -146.5 -305 q-146.5 -114 -388.5 -114 ZM708 1213 l-224 0 l-264 318 l224 0 l148 -188 l7 0 l149 188 l223 0 l-263 -318 Z" /><glyph glyph-name="Kcaron" unicode="&#x1e8;" d="M422 0 l-302 0 l0 1443 l302 0 l0 -658 l9 0 l542 658 l336 0 l-534 -640 l571 -803 l-361 0 l-428 603 l-135 -162 l0 -441 ZM554 1543 l-269 317 l221 0 l156 -192 l8 0 l156 192 l221 0 l-269 -317 l-224 0 Z" /><glyph glyph-name="kcaron" unicode="&#x1e9;" d="M398 642 l364 430 l331 0 l-409 -460 l429 -612 l-336 0 l-307 436 l-76 -82 l0 -354 l-292 0 l0 1443 l292 0 l0 -801 l4 0 ZM135 1543 l-269 317 l221 0 l156 -192 l8 0 l156 192 l221 0 l-269 -317 l-224 0 Z" /><glyph glyph-name="Oogonek" unicode="&#x1ea;" d="M1010 -462 q-118 0 -192.5 58 q-74.5 58 -74.5 151 q0 67 41.5 131 q41.5 64 109.5 103 l0 6 q-70 -12 -123 -12 q-322 0 -509 201 q-187 201 -187 545 q0 344 187.5 545.5 q187.5 201.5 508.5 201.5 q321 0 508.5 -201.5 q187.5 -201.5 187.5 -545.5 q0 -413 -302 -659 q-109 -87 -158.5 -145.5 q-49.5 -58.5 -49.5 -109.5 q0 -48 33 -74 q33 -26 88 -26 q46 0 77 9 l0 -157 q-47 -21 -145 -21 ZM1053.5 1082 q-104.5 134 -282.5 134 q-178 0 -283 -134 q-105 -134 -105 -361 q0 -226 105 -359.5 q105 -133.5 283 -133.5 q178 0 282.5 133.5 q104.5 133.5 104.5 359.5 q0 227 -104.5 361 Z" /><glyph glyph-name="oogonek" unicode="&#x1eb;" d="M780 -450 q-115 0 -186.5 58 q-71.5 58 -71.5 152 q0 64 33.5 120.5 q33.5 56.5 98.5 94.5 l0 6 q-32 -4 -67 -4 q-245 0 -388 149 q-143 149 -143 411 q0 259 144.5 408.5 q144.5 149.5 386.5 149.5 q243 0 387 -149.5 q144 -149.5 144 -408.5 q0 -298 -211 -472 q-178 -144 -178 -248 q0 -49 31.5 -74 q31.5 -25 87.5 -25 q46 0 75 9 l0 -155 q-47 -22 -143 -22 ZM587 200 q108 0 171 88 q63 88 63 248 q0 158 -63 247 q-63 89 -171 89 q-108 0 -171.5 -89 q-63.5 -89 -63.5 -247 q0 -160 63 -248 q63 -88 172 -88 Z" /><glyph glyph-name="Oogonekmacron" unicode="&#x1ec;" d="M1010 -462 q-118 0 -192.5 58 q-74.5 58 -74.5 151 q0 67 41.5 131 q41.5 64 109.5 103 l0 6 q-70 -12 -123 -12 q-322 0 -509 201 q-187 201 -187 545 q0 344 187.5 545.5 q187.5 201.5 508.5 201.5 q321 0 508.5 -201.5 q187.5 -201.5 187.5 -545.5 q0 -413 -302 -659 q-109 -87 -158.5 -145.5 q-49.5 -58.5 -49.5 -109.5 q0 -48 33 -74 q33 -26 88 -26 q46 0 77 9 l0 -157 q-47 -21 -145 -21 ZM1053.5 1082 q-104.5 134 -282.5 134 q-178 0 -283 -134 q-105 -134 -105 -361 q0 -226 105 -359.5 q105 -133.5 283 -133.5 q178 0 282.5 133.5 q104.5 133.5 104.5 359.5 q0 227 -104.5 361 ZM1117 1768 l0 -148 l-692 0 l0 148 l692 0 Z" /><glyph glyph-name="oogonekmacron" unicode="&#x1ed;" d="M780 -450 q-115 0 -186.5 58 q-71.5 58 -71.5 152 q0 64 33.5 120.5 q33.5 56.5 98.5 94.5 l0 6 q-32 -4 -67 -4 q-245 0 -388 149 q-143 149 -143 411 q0 259 144.5 408.5 q144.5 149.5 386.5 149.5 q243 0 387 -149.5 q144 -149.5 144 -408.5 q0 -298 -211 -472 q-178 -144 -178 -248 q0 -49 31.5 -74 q31.5 -25 87.5 -25 q46 0 75 9 l0 -155 q-47 -22 -143 -22 ZM587 200 q108 0 171 88 q63 88 63 248 q0 158 -63 247 q-63 89 -171 89 q-108 0 -171.5 -89 q-63.5 -89 -63.5 -247 q0 -160 63 -248 q63 -88 172 -88 ZM907 1403 l0 -148 l-639 0 l0 148 l639 0 Z" /><glyph glyph-name="uni01F1" unicode="&#x1f1;" d="M120 1443 l551 0 q326 0 507 -187 q181 -187 181 -529 q0 -343 -181.5 -535 q-181.5 -192 -506.5 -192 l-551 0 l0 1443 ZM422 1194 l0 -944 l213 0 q203 0 309.5 121.5 q106.5 121.5 106.5 354.5 q0 226 -108 347 q-108 121 -308 121 l-213 0 ZM1517 0 l0 197 l733 989 l0 8 l-716 0 l0 249 l1077 0 l0 -196 l-730 -990 l0 -7 l750 0 l0 -250 l-1114 0 Z" /><glyph glyph-name="uni01F2" unicode="&#x1f2;" d="M120 1443 l551 0 q326 0 507 -187 q181 -187 181 -529 q0 -343 -181.5 -535 q-181.5 -192 -506.5 -192 l-551 0 l0 1443 ZM422 1194 l0 -944 l213 0 q203 0 309.5 121.5 q106.5 121.5 106.5 354.5 q0 226 -108 347 q-108 121 -308 121 l-213 0 ZM1505 0 l0 166 l534 677 l0 6 l-526 0 l0 223 l865 0 l0 -185 l-502 -658 l0 -5 l514 0 l0 -224 l-885 0 Z" /><glyph glyph-name="uni01F3" unicode="&#x1f3;" d="M493 -17 q-201 0 -319 149 q-118 149 -118 406 q0 255 118.5 403 q118.5 148 320.5 148 q114 0 200.5 -55 q86.5 -55 126.5 -146 l6 0 l0 555 l292 0 l0 -1443 l-288 0 l0 184 l-5 0 q-40 -91 -129 -146 q-89 -55 -205 -55 ZM592 855 q-110 0 -173.5 -86 q-63.5 -86 -63.5 -233 q0 -148 63.5 -233 q63.5 -85 173.5 -85 q109 0 173.5 85.5 q64.5 85.5 64.5 232.5 q0 146 -64.5 232.5 q-64.5 86.5 -173.5 86.5 ZM1306 0 l0 166 l534 677 l0 6 l-526 0 l0 223 l865 0 l0 -185 l-502 -658 l0 -5 l514 0 l0 -224 l-885 0 Z" /><glyph glyph-name="Gacute" unicode="&#x1f4;" d="M1410 606 q0 -295 -169.5 -463 q-169.5 -168 -470.5 -168 q-324 0 -509.5 200 q-185.5 200 -185.5 551 q0 346 184.5 544 q184.5 198 503.5 198 q252 0 427 -136 q175 -136 207 -355 l-303 0 q-33 113 -120.5 177 q-87.5 64 -209.5 64 q-179 0 -280 -129 q-101 -129 -101 -359 q0 -234 105.5 -369 q105.5 -135 286.5 -135 q148 0 241.5 83 q93.5 83 98.5 217 l1 23 l-314 0 l0 220 l608 0 l0 -163 ZM866 1558 l-230 0 l226 305 l271 0 l-267 -305 Z" /><glyph glyph-name="gacute" unicode="&#x1f5;" d="M590 228 q110 0 174.5 82.5 q64.5 82.5 64.5 227.5 q0 145 -65 231 q-65 86 -174 86 q-108 0 -171.5 -85.5 q-63.5 -85.5 -63.5 -231.5 q0 -146 63 -228 q63 -82 172 -82 ZM585 -404 q-209 0 -343.5 91.5 q-134.5 91.5 -152.5 236.5 l286 0 q17 -56 76.5 -90.5 q59.5 -34.5 141.5 -34.5 q111 0 173 56.5 q62 56.5 62 151.5 l0 188 l-6 0 q-38 -87 -127 -139.5 q-89 -52.5 -204 -52.5 q-198 0 -316.5 144 q-118.5 144 -118.5 393 q0 255 118 402 q118 147 322 147 q114 0 201 -55 q87 -55 130 -149 l5 0 l0 187 l288 0 l0 -1057 q0 -191 -146.5 -305 q-146.5 -114 -388.5 -114 ZM710 1223 l-233 0 l221 310 l268 0 l-256 -310 Z" /><glyph glyph-name="Ngrave" unicode="&#x1f8;" d="M409 0 l-289 0 l0 1443 l252 0 l674 -940 l8 0 l0 940 l289 0 l0 -1443 l-250 0 l-675 945 l-9 0 l0 -945 ZM614 1563 l-267 305 l271 0 l226 -305 l-230 0 Z" /><glyph glyph-name="ngrave" unicode="&#x1f9;" d="M95 0 l0 1072 l282 0 l0 -191 l6 0 q44 102 128.5 156.5 q84.5 54.5 206.5 54.5 q178 0 275 -106 q97 -106 97 -295 l0 -691 l-292 0 l0 630 q0 106 -50 163 q-50 57 -147 57 q-97 0 -155.5 -65 q-58.5 -65 -58.5 -170 l0 -615 l-292 0 ZM711 1223 l-233 0 l-256 310 l268 0 l221 -310 Z" /><glyph glyph-name="Aringacute" unicode="&#x1fa;" d="M1065 0 l-110 350 l-507 0 l-110 -350 l-310 0 l501 1443 l355 0 l502 -1443 l-321 0 ZM698 1167 l-185 -591 l377 0 l-185 591 l-7 0 ZM849.5 1560 q-57.5 -56 -142.5 -56 q-85 0 -142.5 56 q-57.5 56 -57.5 139 q0 83 57.5 139 q57.5 56 142.5 56 q85 0 142.5 -56 q57.5 -56 57.5 -139 q0 -83 -57.5 -139 ZM646 1638.5 q25 -24.5 61 -24.5 q36 0 61 24.5 q25 24.5 25 60.5 q0 36 -25 61 q-25 25 -61 25 q-36 0 -61 -25 q-25 -25 -25 -61 q0 -36 25 -60.5 ZM727 2149 l240 0 l-154 -194 l-208 0 l122 194 Z" /><glyph glyph-name="aringacute" unicode="&#x1fb;" d="M509 194 q97 0 164.5 56.5 q67.5 56.5 67.5 142.5 l0 78 l-226 -14 q-82 -6 -126.5 -41 q-44.5 -35 -44.5 -92 q0 -60 45 -95 q45 -35 120 -35 ZM413 -17 q-155 0 -257 91 q-102 91 -102 234 q0 146 108 229 q108 83 309 95 l270 16 l0 71 q0 74 -48.5 116 q-48.5 42 -131.5 42 q-80 0 -130.5 -36 q-50.5 -36 -61.5 -97 l-267 0 q8 158 135 254.5 q127 96.5 337 96.5 q206 0 330 -98 q124 -98 124 -260 l0 -737 l-282 0 l0 164 l-6 0 q-44 -84 -134 -132.5 q-90 -48.5 -193 -48.5 ZM568 1174 q-92 0 -153.5 60.5 q-61.5 60.5 -61.5 149.5 q0 89 61.5 149 q61.5 60 153.5 60 q91 0 152.5 -60 q61.5 -60 61.5 -149 q0 -89 -61.5 -149.5 q-61.5 -60.5 -152.5 -60.5 ZM503 1448 q-26 -26 -26 -64 q0 -38 26 -64.5 q26 -26.5 65 -26.5 q38 0 64 26.5 q26 26.5 26 64.5 q0 38 -26 64 q-26 26 -64 26 q-39 0 -65 -26 ZM473 1672 l133 213 l235 0 l-165 -213 l-203 0 Z" /><glyph glyph-name="AEacute" unicode="&#x1fc;" d="M830 1211 l-255 -612 l391 0 l0 612 l-136 0 ZM966 0 l0 373 l-479 0 l-158 -373 l-301 0 l613 1443 l1270 0 l0 -249 l-669 0 l0 -353 l632 0 l0 -232 l-632 0 l0 -360 l669 0 l0 -249 l-945 0 ZM1343 1558 l-230 0 l226 305 l271 0 l-267 -305 Z" /><glyph glyph-name="aeacute" unicode="&#x1fd;" d="M1252 -23 q-133 0 -237.5 54.5 q-104.5 54.5 -155.5 149.5 l-9 0 q-57 -94 -157 -146 q-100 -52 -233 -52 q-188 0 -298.5 89.5 q-110.5 89.5 -110.5 235.5 q0 145 109 228 q109 83 315 94 l266 15 l0 59 q0 74 -54.5 123.5 q-54.5 49.5 -137.5 49.5 q-79 0 -131.5 -37.5 q-52.5 -37.5 -59.5 -96.5 l-263 0 q8 157 130.5 254.5 q122.5 97.5 316.5 97.5 q126 0 219.5 -43 q93.5 -43 137.5 -118 l8 0 q114 161 353 161 q218 0 350 -145 q132 -145 132 -392 l0 -88 l-730 0 l0 -19 q0 -114 67.5 -186 q67.5 -72 176.5 -72 q77 0 133 36.5 q56 36.5 77 98.5 l268 0 q-24 -158 -156 -254.5 q-132 -96.5 -326 -96.5 ZM1398 816 q-59 63 -154 63 q-95 0 -158 -64.5 q-63 -64.5 -71 -166.5 l446 0 q-4 105 -63 168 ZM501 190 q99 0 169.5 60 q70.5 60 70.5 143 l0 75 l-231 -15 q-85 -6 -132.5 -40 q-47.5 -34 -47.5 -90 q0 -58 48.5 -95.5 q48.5 -37.5 122.5 -37.5 ZM1010 1223 l-233 0 l221 310 l268 0 l-256 -310 Z" /><glyph glyph-name="Oslashacute" unicode="&#x1fe;" d="M1166 1863 l-267 -305 l-230 0 l226 305 l271 0 ZM1081 1041 l-505 -759 q85 -54 195 -54 q177 0 282 133.5 q105 133.5 105 359.5 q0 194 -77 320 ZM484 366 l514 773 q-94 77 -227 77 q-177 0 -282.5 -134 q-105.5 -134 -105.5 -361 q0 -223 101 -355 ZM1350 1446 l-100 -150 q217 -203 217 -575 q0 -344 -188 -545 q-188 -201 -508 -201 q-197 0 -347 78 l-80 -120 l-102 68 l80 120 q-120 97 -183.5 250 q-63.5 153 -63.5 350 q0 345 187.5 546 q187.5 201 508.5 201 q220 0 381 -98 l90 136 l108 -60 Z" /><glyph glyph-name="oslashacute" unicode="&#x1ff;" d="M957 1533 l-256 -310 l-233 0 l221 310 l268 0 ZM786 733 l-313 -501 q50 -32 114 -32 q108 0 171 88 q63 88 63 248 q0 116 -35 197 ZM393 325 l317 508 q-51 39 -123 39 q-108 0 -171.5 -89 q-63.5 -89 -63.5 -247 q0 -126 41 -211 ZM1004 1082 l-65 -104 q179 -151 179 -441 q0 -263 -143 -411.5 q-143 -148.5 -388 -148.5 q-137 0 -243 48 l-59 -95 l-100 61 l59 94 q-188 149 -188 452 q0 259 144.5 408.5 q144.5 149.5 386.5 149.5 q142 0 253 -53 l61 97 l103 -57 Z" /><glyph glyph-name="Adblgrave" unicode="&#x200;" d="M1065 0 l-110 350 l-507 0 l-110 -350 l-310 0 l501 1443 l355 0 l502 -1443 l-321 0 ZM698 1167 l-185 -591 l377 0 l-185 591 l-7 0 ZM789 1558 l-267 305 l271 0 l226 -305 l-230 0 ZM389 1558 l-267 305 l271 0 l226 -305 l-230 0 Z" /><glyph glyph-name="adblgrave" unicode="&#x201;" d="M509 194 q97 0 164.5 56.5 q67.5 56.5 67.5 142.5 l0 78 l-226 -14 q-82 -6 -126.5 -41 q-44.5 -35 -44.5 -92 q0 -60 45 -95 q45 -35 120 -35 ZM413 -17 q-155 0 -257 91 q-102 91 -102 234 q0 146 108 229 q108 83 309 95 l270 16 l0 71 q0 74 -48.5 116 q-48.5 42 -131.5 42 q-80 0 -130.5 -36 q-50.5 -36 -61.5 -97 l-267 0 q8 158 135 254.5 q127 96.5 337 96.5 q206 0 330 -98 q124 -98 124 -260 l0 -737 l-282 0 l0 164 l-6 0 q-44 -84 -134 -132.5 q-90 -48.5 -193 -48.5 ZM491 1223 l-210 0 l-226 310 l247 0 l189 -310 ZM861 1223 l-209 0 l-227 310 l247 0 l189 -310 Z" /><glyph glyph-name="Ainvertedbreve" unicode="&#x202;" d="M1065 0 l-110 350 l-507 0 l-110 -350 l-310 0 l501 1443 l355 0 l502 -1443 l-321 0 ZM698 1167 l-185 -591 l377 0 l-185 591 l-7 0 ZM349 1539 q7 136 102.5 228 q95.5 92 255.5 92 q160 0 255.5 -92 q95.5 -92 102.5 -228 l-181 0 q-6 79 -53 125 q-47 46 -124 46 q-77 0 -124 -46 q-47 -46 -53 -125 l-181 0 Z" /><glyph glyph-name="ainvertedbreve" unicode="&#x203;" d="M509 194 q97 0 164.5 56.5 q67.5 56.5 67.5 142.5 l0 78 l-226 -14 q-82 -6 -126.5 -41 q-44.5 -35 -44.5 -92 q0 -60 45 -95 q45 -35 120 -35 ZM413 -17 q-155 0 -257 91 q-102 91 -102 234 q0 146 108 229 q108 83 309 95 l270 16 l0 71 q0 74 -48.5 116 q-48.5 42 -131.5 42 q-80 0 -130.5 -36 q-50.5 -36 -61.5 -97 l-267 0 q8 158 135 254.5 q127 96.5 337 96.5 q206 0 330 -98 q124 -98 124 -260 l0 -737 l-282 0 l0 164 l-6 0 q-44 -84 -134 -132.5 q-90 -48.5 -193 -48.5 ZM207 1213 q2 141 98.5 231.5 q96.5 90.5 260.5 90.5 q164 0 260.5 -90.5 q96.5 -90.5 98.5 -231.5 l-181 0 q-2 78 -50 126 q-48 48 -128 48 q-80 0 -128 -48 q-48 -48 -50 -126 l-181 0 Z" /><glyph glyph-name="Edblgrave" unicode="&#x204;" d="M1076 250 l0 -250 l-956 0 l0 1443 l956 0 l0 -249 l-654 0 l0 -348 l617 0 l0 -232 l-617 0 l0 -364 l654 0 ZM680 1558 l-267 305 l271 0 l226 -305 l-230 0 ZM280 1558 l-267 305 l271 0 l226 -305 l-230 0 Z" /><glyph glyph-name="edblgrave" unicode="&#x205;" d="M576 879 q-95 0 -158.5 -65 q-63.5 -65 -71.5 -166 l455 0 q-5 103 -66.5 167 q-61.5 64 -158.5 64 ZM805 328 l268 0 q-24 -158 -157.5 -254.5 q-133.5 -96.5 -331.5 -96.5 q-247 0 -387.5 148 q-140.5 148 -140.5 406 q0 257 140 410.5 q140 153.5 377 153.5 q233 0 371 -146 q138 -146 138 -391 l0 -89 l-739 0 l0 -18 q0 -115 67.5 -186.5 q67.5 -71.5 178.5 -71.5 q80 0 138 36.5 q58 36.5 78 98.5 ZM498 1223 l-210 0 l-226 310 l247 0 l189 -310 ZM868 1223 l-209 0 l-227 310 l247 0 l189 -310 Z" /><glyph glyph-name="Einvertedbreve" unicode="&#x206;" d="M1076 250 l0 -250 l-956 0 l0 1443 l956 0 l0 -249 l-654 0 l0 -348 l617 0 l0 -232 l-617 0 l0 -364 l654 0 ZM240 1539 q7 136 102.5 228 q95.5 92 255.5 92 q160 0 255.5 -92 q95.5 -92 102.5 -228 l-181 0 q-6 79 -53 125 q-47 46 -124 46 q-77 0 -124 -46 q-47 -46 -53 -125 l-181 0 Z" /><glyph glyph-name="einvertedbreve" unicode="&#x207;" d="M576 879 q-95 0 -158.5 -65 q-63.5 -65 -71.5 -166 l455 0 q-5 103 -66.5 167 q-61.5 64 -158.5 64 ZM805 328 l268 0 q-24 -158 -157.5 -254.5 q-133.5 -96.5 -331.5 -96.5 q-247 0 -387.5 148 q-140.5 148 -140.5 406 q0 257 140 410.5 q140 153.5 377 153.5 q233 0 371 -146 q138 -146 138 -391 l0 -89 l-739 0 l0 -18 q0 -115 67.5 -186.5 q67.5 -71.5 178.5 -71.5 q80 0 138 36.5 q58 36.5 78 98.5 ZM214 1213 q2 141 98.5 231.5 q96.5 90.5 260.5 90.5 q164 0 260.5 -90.5 q96.5 -90.5 98.5 -231.5 l-181 0 q-2 78 -50 126 q-48 48 -128 48 q-80 0 -128 -48 q-48 -48 -50 -126 l-181 0 Z" /><glyph glyph-name="Idblgrave" unicode="&#x208;" d="M422 0 l-302 0 l0 1443 l302 0 l0 -1443 ZM353 1558 l-267 305 l271 0 l226 -305 l-230 0 ZM-47 1558 l-267 305 l271 0 l226 -305 l-230 0 Z" /><glyph glyph-name="idblgrave" unicode="&#x209;" d="M100 0 l0 1072 l292 0 l0 -1072 l-292 0 ZM171 1223 l-210 0 l-226 310 l247 0 l189 -310 ZM541 1223 l-209 0 l-227 310 l247 0 l189 -310 Z" /><glyph glyph-name="Iinvertedbreve" unicode="&#x20a;" d="M422 0 l-302 0 l0 1443 l302 0 l0 -1443 ZM-87 1539 q7 136 102.5 228 q95.5 92 255.5 92 q160 0 255.5 -92 q95.5 -92 102.5 -228 l-181 0 q-6 79 -53 125 q-47 46 -124 46 q-77 0 -124 -46 q-47 -46 -53 -125 l-181 0 Z" /><glyph glyph-name="iinvertedbreve" unicode="&#x20b;" d="M100 0 l0 1072 l292 0 l0 -1072 l-292 0 ZM-113 1213 q2 141 98.5 231.5 q96.5 90.5 260.5 90.5 q164 0 260.5 -90.5 q96.5 -90.5 98.5 -231.5 l-181 0 q-2 78 -50 126 q-48 48 -128 48 q-80 0 -128 -48 q-48 -48 -50 -126 l-181 0 Z" /><glyph glyph-name="Odblgrave" unicode="&#x20c;" d="M262.5 1267 q187.5 201 508.5 201 q321 0 508.5 -201 q187.5 -201 187.5 -546 q0 -344 -188 -545 q-188 -201 -508 -201 q-321 0 -508.5 201 q-187.5 201 -187.5 545 q0 345 187.5 546 ZM1053 1082 q-105 134 -282 134 q-177 0 -282.5 -134 q-105.5 -134 -105.5 -361 q0 -226 105 -359.5 q105 -133.5 283 -133.5 q177 0 282 133.5 q105 133.5 105 359.5 q0 227 -105 361 ZM853 1558 l-267 305 l271 0 l226 -305 l-230 0 ZM453 1558 l-267 305 l271 0 l226 -305 l-230 0 Z" /><glyph glyph-name="odblgrave" unicode="&#x20d;" d="M975 125.5 q-143 -148.5 -388 -148.5 q-245 0 -388 149 q-143 149 -143 411 q0 259 144.5 408.5 q144.5 149.5 386.5 149.5 q243 0 387 -149.5 q144 -149.5 144 -408.5 q0 -263 -143 -411.5 ZM587 200 q108 0 171 88 q63 88 63 248 q0 158 -63 247 q-63 89 -171 89 q-108 0 -171.5 -89 q-63.5 -89 -63.5 -247 q0 -160 63 -248 q63 -88 172 -88 ZM512 1223 l-210 0 l-226 310 l247 0 l189 -310 ZM882 1223 l-209 0 l-227 310 l247 0 l189 -310 Z" /><glyph glyph-name="Oinvertedbreve" unicode="&#x20e;" d="M262.5 1267 q187.5 201 508.5 201 q321 0 508.5 -201 q187.5 -201 187.5 -546 q0 -344 -188 -545 q-188 -201 -508 -201 q-321 0 -508.5 201 q-187.5 201 -187.5 545 q0 345 187.5 546 ZM1053 1082 q-105 134 -282 134 q-177 0 -282.5 -134 q-105.5 -134 -105.5 -361 q0 -226 105 -359.5 q105 -133.5 283 -133.5 q177 0 282 133.5 q105 133.5 105 359.5 q0 227 -105 361 ZM413 1539 q7 136 102.5 228 q95.5 92 255.5 92 q160 0 255.5 -92 q95.5 -92 102.5 -228 l-181 0 q-6 79 -53 125 q-47 46 -124 46 q-77 0 -124 -46 q-47 -46 -53 -125 l-181 0 Z" /><glyph glyph-name="oinvertedbreve" unicode="&#x20f;" d="M975 125.5 q-143 -148.5 -388 -148.5 q-245 0 -388 149 q-143 149 -143 411 q0 259 144.5 408.5 q144.5 149.5 386.5 149.5 q243 0 387 -149.5 q144 -149.5 144 -408.5 q0 -263 -143 -411.5 ZM587 200 q108 0 171 88 q63 88 63 248 q0 158 -63 247 q-63 89 -171 89 q-108 0 -171.5 -89 q-63.5 -89 -63.5 -247 q0 -160 63 -248 q63 -88 172 -88 ZM228 1213 q2 141 98.5 231.5 q96.5 90.5 260.5 90.5 q164 0 260.5 -90.5 q96.5 -90.5 98.5 -231.5 l-181 0 q-2 78 -50 126 q-48 48 -128 48 q-80 0 -128 -48 q-48 -48 -50 -126 l-181 0 Z" /><glyph glyph-name="Rdblgrave" unicode="&#x210;" d="M422 1207 l0 -460 l260 0 q114 0 177.5 61 q63.5 61 63.5 169 q0 105 -66 167.5 q-66 62.5 -178 62.5 l-257 0 ZM422 528 l0 -528 l-302 0 l0 1443 l591 0 q247 0 384.5 -122.5 q137.5 -122.5 137.5 -337.5 q0 -141 -69.5 -251.5 q-69.5 -110.5 -192.5 -158.5 l304 -573 l-342 0 l-269 528 l-242 0 ZM698 1558 l-267 305 l271 0 l226 -305 l-230 0 ZM298 1558 l-267 305 l271 0 l226 -305 l-230 0 Z" /><glyph glyph-name="rdblgrave" unicode="&#x211;" d="M95 0 l0 1072 l282 0 l0 -193 l6 0 q28 102 94 156 q66 54 161 54 q46 0 83 -11 l0 -257 q-41 17 -106 17 q-108 0 -168 -63 q-60 -63 -60 -176 l0 -599 l-292 0 ZM320 1223 l-210 0 l-226 310 l247 0 l189 -310 ZM690 1223 l-209 0 l-227 310 l247 0 l189 -310 Z" /><glyph glyph-name="Rinvertedbreve" unicode="&#x212;" d="M422 1207 l0 -460 l260 0 q114 0 177.5 61 q63.5 61 63.5 169 q0 105 -66 167.5 q-66 62.5 -178 62.5 l-257 0 ZM422 528 l0 -528 l-302 0 l0 1443 l591 0 q247 0 384.5 -122.5 q137.5 -122.5 137.5 -337.5 q0 -141 -69.5 -251.5 q-69.5 -110.5 -192.5 -158.5 l304 -573 l-342 0 l-269 528 l-242 0 ZM258 1539 q7 136 102.5 228 q95.5 92 255.5 92 q160 0 255.5 -92 q95.5 -92 102.5 -228 l-181 0 q-6 79 -53 125 q-47 46 -124 46 q-77 0 -124 -46 q-47 -46 -53 -125 l-181 0 Z" /><glyph glyph-name="rinvertedbreve" unicode="&#x213;" d="M95 0 l0 1072 l282 0 l0 -193 l6 0 q28 102 94 156 q66 54 161 54 q46 0 83 -11 l0 -257 q-41 17 -106 17 q-108 0 -168 -63 q-60 -63 -60 -176 l0 -599 l-292 0 ZM36 1213 q2 141 98.5 231.5 q96.5 90.5 260.5 90.5 q164 0 260.5 -90.5 q96.5 -90.5 98.5 -231.5 l-181 0 q-2 78 -50 126 q-48 48 -128 48 q-80 0 -128 -48 q-48 -48 -50 -126 l-181 0 Z" /><glyph glyph-name="Udblgrave" unicode="&#x214;" d="M422 1443 l0 -903 q0 -141 79.5 -223.5 q79.5 -82.5 223.5 -82.5 q143 0 222.5 82.5 q79.5 82.5 79.5 223.5 l0 903 l302 0 l0 -933 q0 -240 -164.5 -387.5 q-164.5 -147.5 -439.5 -147.5 q-276 0 -440.5 147.5 q-164.5 147.5 -164.5 387.5 l0 933 l302 0 ZM807 1558 l-267 305 l271 0 l226 -305 l-230 0 ZM407 1558 l-267 305 l271 0 l226 -305 l-230 0 Z" /><glyph glyph-name="udblgrave" unicode="&#x215;" d="M1085 1072 l0 -1072 l-282 0 l0 193 l-6 0 q-84 -213 -321 -213 q-176 0 -281 107.5 q-105 107.5 -105 293.5 l0 691 l292 0 l0 -630 q0 -107 51.5 -163 q51.5 -56 148.5 -56 q97 0 154 64 q57 64 57 171 l0 614 l292 0 ZM514 1223 l-210 0 l-226 310 l247 0 l189 -310 ZM884 1223 l-209 0 l-227 310 l247 0 l189 -310 Z" /><glyph glyph-name="Uinvertedbreve" unicode="&#x216;" d="M422 1443 l0 -903 q0 -141 79.5 -223.5 q79.5 -82.5 223.5 -82.5 q143 0 222.5 82.5 q79.5 82.5 79.5 223.5 l0 903 l302 0 l0 -933 q0 -240 -164.5 -387.5 q-164.5 -147.5 -439.5 -147.5 q-276 0 -440.5 147.5 q-164.5 147.5 -164.5 387.5 l0 933 l302 0 ZM367 1539 q7 136 102.5 228 q95.5 92 255.5 92 q160 0 255.5 -92 q95.5 -92 102.5 -228 l-181 0 q-6 79 -53 125 q-47 46 -124 46 q-77 0 -124 -46 q-47 -46 -53 -125 l-181 0 Z" /><glyph glyph-name="uinvertedbreve" unicode="&#x217;" d="M1085 1072 l0 -1072 l-282 0 l0 193 l-6 0 q-84 -213 -321 -213 q-176 0 -281 107.5 q-105 107.5 -105 293.5 l0 691 l292 0 l0 -630 q0 -107 51.5 -163 q51.5 -56 148.5 -56 q97 0 154 64 q57 64 57 171 l0 614 l292 0 ZM230 1213 q2 141 98.5 231.5 q96.5 90.5 260.5 90.5 q164 0 260.5 -90.5 q96.5 -90.5 98.5 -231.5 l-181 0 q-2 78 -50 126 q-48 48 -128 48 q-80 0 -128 -48 q-48 -48 -50 -126 l-181 0 Z" /><glyph glyph-name="Scommaaccent" unicode="&#x218;" d="M66 411 l291 0 q10 -88 93.5 -142.5 q83.5 -54.5 204.5 -54.5 q120 0 195.5 51.5 q75.5 51.5 75.5 131.5 q0 70 -56 113 q-56 43 -187 72 l-188 41 q-397 85 -397 403 q0 198 154.5 320 q154.5 122 397.5 122 q250 0 399 -118.5 q149 -118.5 153 -315.5 l-283 0 q-7 91 -80.5 143.5 q-73.5 52.5 -187.5 52.5 q-112 0 -180.5 -49 q-68.5 -49 -68.5 -129 q0 -66 55.5 -107 q55.5 -41 180.5 -70 l175 -37 q217 -46 316 -143.5 q99 -97.5 99 -262.5 q0 -210 -158 -333.5 q-158 -123.5 -427 -123.5 q-261 0 -415.5 116.5 q-154.5 116.5 -161.5 319.5 ZM617 -472 l-217 0 l130 340 l256 0 l-169 -340 Z" /><glyph glyph-name="scommaaccent" unicode="&#x219;" d="M77 757 q0 153 123 245.5 q123 92.5 329 92.5 q201 0 323 -94 q122 -94 125 -250 l-269 0 q-5 65 -53.5 102 q-48.5 37 -129.5 37 q-76 0 -121.5 -31.5 q-45.5 -31.5 -45.5 -83.5 q0 -78 140 -111 l205 -44 q161 -36 231.5 -104.5 q70.5 -68.5 70.5 -188.5 q0 -158 -132 -254 q-132 -96 -345 -96 q-212 0 -339 94 q-127 94 -139 253 l285 0 q11 -68 62.5 -105 q51.5 -37 138.5 -37 q83 0 130.5 30.5 q47.5 30.5 47.5 83.5 q0 41 -30 65.5 q-30 24.5 -102 41.5 l-198 44 q-307 70 -307 310 ZM496 -472 l-217 0 l130 340 l256 0 l-169 -340 Z" /><glyph glyph-name="Tcommaaccent" unicode="&#x21a;" d="M767 0 l-302 0 l0 1194 l-417 0 l0 249 l1137 0 l0 -249 l-418 0 l0 -1194 ZM573 -472 l-217 0 l130 340 l256 0 l-169 -340 Z" /><glyph glyph-name="tcommaaccent" unicode="&#x21b;" d="M173 1319 l292 0 l0 -247 l198 0 l0 -220 l-198 0 l0 -513 q0 -121 126 -121 q41 0 71 5 l0 -215 q-51 -12 -139 -12 q-189 0 -269.5 68 q-80.5 68 -80.5 225 l0 563 l-151 0 l0 220 l151 0 l0 247 ZM388 -472 l-217 0 l130 340 l256 0 l-169 -340 Z" /><glyph glyph-name="Hcaron" unicode="&#x21e;" d="M1374 0 l-302 0 l0 608 l-650 0 l0 -608 l-302 0 l0 1443 l302 0 l0 -586 l650 0 l0 586 l302 0 l0 -1443 ZM635 1543 l-269 317 l221 0 l156 -192 l8 0 l156 192 l221 0 l-269 -317 l-224 0 Z" /><glyph glyph-name="hcaron" unicode="&#x21f;" d="M102 0 l0 1443 l287 0 l0 -562 l6 0 q43 102 129.5 156.5 q86.5 54.5 207.5 54.5 q177 0 275.5 -107.5 q98.5 -107.5 98.5 -294.5 l0 -690 l-292 0 l0 628 q0 105 -51.5 163.5 q-51.5 58.5 -149.5 58.5 q-102 0 -160.5 -65.5 q-58.5 -65.5 -58.5 -172.5 l0 -612 l-292 0 ZM136 1543 l-269 317 l221 0 l156 -192 l8 0 l156 192 l221 0 l-269 -317 l-224 0 Z" /><glyph glyph-name="Adotaccent" unicode="&#x226;" d="M1065 0 l-110 350 l-507 0 l-110 -350 l-310 0 l501 1443 l355 0 l502 -1443 l-321 0 ZM698 1167 l-185 -591 l377 0 l-185 591 l-7 0 ZM813 1604.5 q-43 -43.5 -106 -43.5 q-63 0 -106 43.5 q-43 43.5 -43 105.5 q0 62 43 105.5 q43 43.5 106 43.5 q63 0 106 -43.5 q43 -43.5 43 -105.5 q0 -62 -43 -105.5 Z" /><glyph glyph-name="adotaccent" unicode="&#x227;" d="M509 194 q97 0 164.5 56.5 q67.5 56.5 67.5 142.5 l0 78 l-226 -14 q-82 -6 -126.5 -41 q-44.5 -35 -44.5 -92 q0 -60 45 -95 q45 -35 120 -35 ZM413 -17 q-155 0 -257 91 q-102 91 -102 234 q0 146 108 229 q108 83 309 95 l270 16 l0 71 q0 74 -48.5 116 q-48.5 42 -131.5 42 q-80 0 -130.5 -36 q-50.5 -36 -61.5 -97 l-267 0 q8 158 135 254.5 q127 96.5 337 96.5 q206 0 330 -98 q124 -98 124 -260 l0 -737 l-282 0 l0 164 l-6 0 q-44 -84 -134 -132.5 q-90 -48.5 -193 -48.5 ZM671.5 1266.5 q-43.5 -43.5 -106.5 -43.5 q-63 0 -107 43.5 q-44 43.5 -44 104.5 q0 62 44 105.5 q44 43.5 107 43.5 q63 0 106.5 -43.5 q43.5 -43.5 43.5 -105.5 q0 -61 -43.5 -104.5 Z" /><glyph glyph-name="Ecedilla" unicode="&#x228;" d="M1076 1194 l-654 0 l0 -348 l617 0 l0 -232 l-617 0 l0 -364 l654 0 l0 -250 l-380 0 l-51 -110 q86 -1 137 -44.5 q51 -43.5 51 -119.5 q0 -89 -66 -137 q-66 -48 -182 -49 q-97 -2 -142 14 l0 122 q41 -12 112 -12 q111 0 111 54 q0 30 -28 42.5 q-28 12.5 -95 12.5 l-63 0 l0 98 l59 129 l-419 0 l0 1443 l956 0 l0 -249 Z" /><glyph glyph-name="ecedilla" unicode="&#x229;" d="M346 648 l455 0 q-5 103 -66.5 167 q-61.5 64 -158.5 64 q-95 0 -158.5 -65 q-63.5 -65 -71.5 -166 ZM1082 469 l-739 0 l0 -18 q0 -115 67.5 -186.5 q67.5 -71.5 178.5 -71.5 q80 0 138 36.5 q58 36.5 78 98.5 l268 0 q-22 -141 -131.5 -233.5 q-109.5 -92.5 -276.5 -112.5 l-42 -92 q86 -1 137 -44.5 q51 -43.5 51 -119.5 q0 -89 -66 -137 q-66 -48 -182 -49 q-97 -2 -142 14 l0 122 q41 -12 112 -12 q111 0 111 54 q0 30 -28 42.5 q-28 12.5 -95 12.5 l-63 0 l0 98 l50 110 q-213 23 -332.5 168 q-119.5 145 -119.5 382 q0 257 140 410.5 q140 153.5 377 153.5 q233 0 371 -146 q138 -146 138 -391 l0 -89 Z" /><glyph glyph-name="Odieresismacron" unicode="&#x22a;" d="M262.5 1267 q187.5 201 508.5 201 q321 0 508.5 -201 q187.5 -201 187.5 -546 q0 -344 -188 -545 q-188 -201 -508 -201 q-321 0 -508.5 201 q-187.5 201 -187.5 545 q0 345 187.5 546 ZM1053 1082 q-105 134 -282 134 q-177 0 -282.5 -134 q-105.5 -134 -105.5 -361 q0 -226 105 -359.5 q105 -133.5 283 -133.5 q177 0 282 133.5 q105 133.5 105 359.5 q0 227 -105 361 ZM477.5 1764 q37.5 37 93.5 37 q56 0 93.5 -37 q37.5 -37 37.5 -91 q0 -53 -37.5 -90.5 q-37.5 -37.5 -93.5 -37.5 q-56 0 -93.5 37.5 q-37.5 37.5 -37.5 90.5 q0 54 37.5 91 ZM425 2073 l692 0 l0 -148 l-692 0 l0 148 ZM877.5 1764 q37.5 37 93.5 37 q56 0 93.5 -37 q37.5 -37 37.5 -91 q0 -53 -37.5 -90.5 q-37.5 -37.5 -93.5 -37.5 q-56 0 -93.5 37.5 q-37.5 37.5 -37.5 90.5 q0 54 37.5 91 Z" /><glyph glyph-name="odieresismacron" unicode="&#x22b;" d="M975 125.5 q-143 -148.5 -388 -148.5 q-245 0 -388 149 q-143 149 -143 411 q0 259 144.5 408.5 q144.5 149.5 386.5 149.5 q243 0 387 -149.5 q144 -149.5 144 -408.5 q0 -263 -143 -411.5 ZM587 200 q108 0 171 88 q63 88 63 248 q0 158 -63 247 q-63 89 -171 89 q-108 0 -171.5 -89 q-63.5 -89 -63.5 -247 q0 -160 63 -248 q63 -88 172 -88 ZM387 1194 q-54 0 -92 37 q-38 37 -38 89 q0 53 37.5 90 q37.5 37 92.5 37 q55 0 93 -37 q38 -37 38 -90 q0 -52 -38 -89 q-38 -37 -93 -37 ZM787 1194 q-55 0 -93 37 q-38 37 -38 89 q0 53 38 90 q38 37 93 37 q55 0 92.5 -37 q37.5 -37 37.5 -90 q0 -52 -38 -89 q-38 -37 -92 -37 ZM907 1729 l0 -148 l-639 0 l0 148 l639 0 Z" /><glyph glyph-name="Otildemacron" unicode="&#x22c;" d="M262.5 1267 q187.5 201 508.5 201 q321 0 508.5 -201 q187.5 -201 187.5 -546 q0 -344 -188 -545 q-188 -201 -508 -201 q-321 0 -508.5 201 q-187.5 201 -187.5 545 q0 345 187.5 546 ZM1053 1082 q-105 134 -282 134 q-177 0 -282.5 -134 q-105.5 -134 -105.5 -361 q0 -226 105 -359.5 q105 -133.5 283 -133.5 q177 0 282 133.5 q105 133.5 105 359.5 q0 227 -105 361 ZM907 1539 q-46 0 -88 21 q-42 21 -67 46.5 q-25 25.5 -54 46.5 q-29 21 -52 21 q-33 0 -51.5 -32 q-18.5 -32 -17.5 -83 l-156 0 q0 123 60 194 q60 71 155 71 q46 0 87.5 -21 q41.5 -21 66.5 -46 q25 -25 54 -46 q29 -21 53 -21 q66 0 68 118 l156 0 q0 -122 -61 -195.5 q-61 -73.5 -153 -73.5 ZM1117 2073 l0 -148 l-692 0 l0 148 l692 0 Z" /><glyph glyph-name="otildemacron" unicode="&#x22d;" d="M975 125.5 q-143 -148.5 -388 -148.5 q-245 0 -388 149 q-143 149 -143 411 q0 259 144.5 408.5 q144.5 149.5 386.5 149.5 q243 0 387 -149.5 q144 -149.5 144 -408.5 q0 -263 -143 -411.5 ZM587 200 q108 0 171 88 q63 88 63 248 q0 158 -63 247 q-63 89 -171 89 q-108 0 -171.5 -89 q-63.5 -89 -63.5 -247 q0 -160 63 -248 q63 -88 172 -88 ZM731 1192 q-39 0 -73.5 14 q-34.5 14 -59 34 q-24.5 20 -46.5 40 q-22 20 -44 34 q-22 14 -42 14 q-34 0 -52 -33 q-18 -33 -18 -89 l-159 0 q0 128 62 201 q62 73 158 73 q40 0 75.5 -14 q35.5 -14 60 -34 q24.5 -20 46 -39.5 q21.5 -19.5 43 -33.5 q21.5 -14 40.5 -14 q66 0 69 124 l159 0 q0 -126 -62.5 -201.5 q-62.5 -75.5 -156.5 -75.5 ZM907 1729 l0 -148 l-639 0 l0 148 l639 0 Z" /><glyph glyph-name="Odotaccent" unicode="&#x22e;" d="M262.5 1267 q187.5 201 508.5 201 q321 0 508.5 -201 q187.5 -201 187.5 -546 q0 -344 -188 -545 q-188 -201 -508 -201 q-321 0 -508.5 201 q-187.5 201 -187.5 545 q0 345 187.5 546 ZM1053 1082 q-105 134 -282 134 q-177 0 -282.5 -134 q-105.5 -134 -105.5 -361 q0 -226 105 -359.5 q105 -133.5 283 -133.5 q177 0 282 133.5 q105 133.5 105 359.5 q0 227 -105 361 ZM877 1604.5 q-43 -43.5 -106 -43.5 q-63 0 -106 43.5 q-43 43.5 -43 105.5 q0 62 43 105.5 q43 43.5 106 43.5 q63 0 106 -43.5 q43 -43.5 43 -105.5 q0 -62 -43 -105.5 Z" /><glyph glyph-name="odotaccent" unicode="&#x22f;" d="M975 125.5 q-143 -148.5 -388 -148.5 q-245 0 -388 149 q-143 149 -143 411 q0 259 144.5 408.5 q144.5 149.5 386.5 149.5 q243 0 387 -149.5 q144 -149.5 144 -408.5 q0 -263 -143 -411.5 ZM587 200 q108 0 171 88 q63 88 63 248 q0 158 -63 247 q-63 89 -171 89 q-108 0 -171.5 -89 q-63.5 -89 -63.5 -247 q0 -160 63 -248 q63 -88 172 -88 ZM692.5 1266.5 q-43.5 -43.5 -106.5 -43.5 q-63 0 -107 43.5 q-44 43.5 -44 104.5 q0 62 44 105.5 q44 43.5 107 43.5 q63 0 106.5 -43.5 q43.5 -43.5 43.5 -105.5 q0 -61 -43.5 -104.5 Z" /><glyph glyph-name="Odotaccentmacron" unicode="&#x230;" d="M262.5 1267 q187.5 201 508.5 201 q321 0 508.5 -201 q187.5 -201 187.5 -546 q0 -344 -188 -545 q-188 -201 -508 -201 q-321 0 -508.5 201 q-187.5 201 -187.5 545 q0 345 187.5 546 ZM1053 1082 q-105 134 -282 134 q-177 0 -282.5 -134 q-105.5 -134 -105.5 -361 q0 -226 105 -359.5 q105 -133.5 283 -133.5 q177 0 282 133.5 q105 133.5 105 359.5 q0 227 -105 361 ZM869.5 1594 q-39.5 -39 -98.5 -39 q-59 0 -98.5 39 q-39.5 39 -39.5 95 q0 55 39.5 93.5 q39.5 38.5 98.5 38.5 q59 0 98.5 -38.5 q39.5 -38.5 39.5 -93.5 q0 -56 -39.5 -95 ZM1117 2073 l0 -148 l-692 0 l0 148 l692 0 Z" /><glyph glyph-name="odotaccentmacron" unicode="&#x231;" d="M975 125.5 q-143 -148.5 -388 -148.5 q-245 0 -388 149 q-143 149 -143 411 q0 259 144.5 408.5 q144.5 149.5 386.5 149.5 q243 0 387 -149.5 q144 -149.5 144 -408.5 q0 -263 -143 -411.5 ZM587 200 q108 0 171 88 q63 88 63 248 q0 158 -63 247 q-63 89 -171 89 q-108 0 -171.5 -89 q-63.5 -89 -63.5 -247 q0 -160 63 -248 q63 -88 172 -88 ZM693 1240 q-44 -43 -106 -43 q-62 0 -106 43 q-44 43 -44 104 q0 61 44 104.5 q44 43.5 106 43.5 q62 0 106 -43.5 q44 -43.5 44 -104.5 q0 -61 -44 -104 ZM907 1734 l0 -148 l-639 0 l0 148 l639 0 Z" /><glyph glyph-name="Ymacron" unicode="&#x232;" d="M832 0 l-302 0 l0 539 l-502 904 l329 0 l323 -616 l7 0 l324 616 l324 0 l-503 -904 l0 -539 ZM1027 1768 l0 -148 l-692 0 l0 148 l692 0 Z" /><glyph glyph-name="ymacron" unicode="&#x233;" d="M232 -397 q-96 0 -110 3 l0 225 q9 -2 73 -2 q81 0 123 27.5 q42 27.5 57 91.5 q0 1 5 25 q5 24 4 26 l-373 1073 l321 0 l228 -838 l5 0 l228 838 l308 0 l-369 -1096 q-69 -206 -181.5 -289.5 q-112.5 -83.5 -318.5 -83.5 ZM877 1403 l0 -148 l-639 0 l0 148 l639 0 Z" /><glyph glyph-name="dotlessj" unicode="&#x237;" d="M392 1072 l0 -1122 q0 -163 -98 -247 q-98 -84 -286 -84 q-54 0 -80 4 l0 215 q14 -2 37 -2 q73 0 104 28.5 q31 28.5 31 93.5 l0 1114 l292 0 Z" /><glyph glyph-name="quoteright" unicode="&#x2bc;&#x2019;" d="M339 880 l-218 0 l75 563 l277 0 l-134 -563 Z" /><glyph glyph-name="circumflex" unicode="&#x2c6;" d="M618 1590 l263 -318 l-223 0 l-149 186 l-7 0 l-148 -186 l-224 0 l264 318 l224 0 Z" /><glyph glyph-name="caron" unicode="&#x2c7;" d="M618 1272 l-224 0 l-264 318 l224 0 l148 -188 l7 0 l149 188 l223 0 l-263 -318 Z" /><glyph glyph-name="breve" unicode="&#x2d8;" d="M142 1589 l181 0 q2 -79 49.5 -127 q47.5 -48 127.5 -48 q80 0 128 48 q48 48 50 127 l181 0 q-2 -140 -98.5 -231 q-96.5 -91 -260.5 -91 q-164 0 -260 91 q-96 91 -98 231 Z" /><glyph glyph-name="dotaccent" unicode="&#x2d9;" d="M580.5 1325.5 q-43.5 -43.5 -106.5 -43.5 q-63 0 -107 43.5 q-44 43.5 -44 104.5 q0 62 44 105.5 q44 43.5 107 43.5 q63 0 106.5 -43.5 q43.5 -43.5 43.5 -105.5 q0 -61 -43.5 -104.5 Z" /><glyph glyph-name="ring" unicode="&#x2da;" d="M669 1296.5 q-64 -62.5 -153 -62.5 q-89 0 -153 62.5 q-64 62.5 -64 150.5 q0 88 64 150.5 q64 62.5 153 62.5 q89 0 153 -62.5 q64 -62.5 64 -150.5 q0 -88 -64 -150.5 ZM449 1380.5 q28 -27.5 67 -27.5 q39 0 67.5 27.5 q28.5 27.5 28.5 66.5 q0 39 -28.5 66.5 q-28.5 27.5 -67.5 27.5 q-39 0 -67 -27.5 q-28 -27.5 -28 -66.5 q0 -39 28 -66.5 Z" /><glyph glyph-name="ogonek" unicode="&#x2db;" d="M694 -296 l0 -154 q-57 -20 -138 -20 q-106 0 -172 57.5 q-66 57.5 -66 149.5 q0 154 168 263 l155 0 q-69 -50 -101 -98.5 q-32 -48.5 -32 -103.5 q0 -46 31.5 -74.5 q31.5 -28.5 83.5 -28.5 q37 0 71 9 Z" /><glyph glyph-name="tilde" unicode="&#x2dc;" d="M643 1277 q-47 0 -89.5 21.5 q-42.5 21.5 -67.5 46.5 q-25 25 -54.5 46.5 q-29.5 21.5 -53.5 21.5 q-34 0 -52 -33 q-18 -33 -18 -89 l-159 0 q0 128 62 201 q62 73 158 73 q40 0 75.5 -14 q35.5 -14 60 -33.5 q24.5 -19.5 46 -39.5 q21.5 -20 43 -34 q21.5 -14 40.5 -14 q66 0 69 124 l159 0 q0 -126 -62.5 -201.5 q-62.5 -75.5 -156.5 -75.5 Z" /><glyph glyph-name="hungarumlaut" unicode="&#x2dd;" d="M469 1282 l189 310 l246 0 l-226 -310 l-209 0 ZM98 1282 l190 310 l246 0 l-227 -310 l-209 0 Z" /><glyph glyph-name="gravecmb" unicode="&#x300;" d="M119 1252 l-233 0 l-256 310 l268 0 l221 -310 Z" /><glyph glyph-name="acutecmb" unicode="&#x301;" d="M114 1252 l-233 0 l221 310 l268 0 l-256 -310 Z" /><glyph glyph-name="circumflexcmb" unicode="&#x302;" d="M112 1560 l263 -318 l-223 0 l-149 186 l-7 0 l-148 -186 l-224 0 l264 318 l224 0 Z" /><glyph glyph-name="tildecmb" unicode="&#x303;" d="M144 1247 q-47 0 -89.5 21.5 q-42.5 21.5 -67.5 46.5 q-25 25 -54.5 46.5 q-29.5 21.5 -53.5 21.5 q-34 0 -52 -33 q-18 -33 -18 -89 l-159 0 q0 128 62 201 q62 73 158 73 q40 0 75.5 -14 q35.5 -14 60 -33.5 q24.5 -19.5 46 -39.5 q21.5 -20 43 -34 q21.5 -14 40.5 -14 q66 0 69 124 l159 0 q0 -126 -62.5 -201.5 q-62.5 -75.5 -156.5 -75.5 Z" /><glyph glyph-name="macroncmb" unicode="&#x304;" d="M320 1432 l0 -148 l-639 0 l0 148 l639 0 Z" /><glyph glyph-name="brevecmb" unicode="&#x306;" d="M-359 1559 l181 0 q2 -79 49.5 -127 q47.5 -48 127.5 -48 q80 0 128 48 q48 48 50 127 l181 0 q-2 -140 -98.5 -231 q-96.5 -91 -260.5 -91 q-164 0 -260 91 q-96 91 -98 231 Z" /><glyph glyph-name="dotaccentcmb" unicode="&#x307;" d="M105.5 1295.5 q-43.5 -43.5 -106.5 -43.5 q-63 0 -107 43.5 q-44 43.5 -44 104.5 q0 62 44 105.5 q44 43.5 107 43.5 q63 0 106.5 -43.5 q43.5 -43.5 43.5 -105.5 q0 -61 -43.5 -104.5 Z" /><glyph glyph-name="dieresiscmb" unicode="&#x308;" d="M-108.5 1287 q-38.5 -38 -95.5 -38 q-57 0 -95.5 38 q-38.5 38 -38.5 92 q0 54 38.5 92 q38.5 38 95.5 38 q57 0 95.5 -38 q38.5 -38 38.5 -92 q0 -54 -38.5 -92 ZM299.5 1287 q-38.5 -38 -95.5 -38 q-57 0 -95.5 38 q-38.5 38 -38.5 92 q0 54 38.5 92 q38.5 38 95.5 38 q57 0 95.5 -38 q38.5 -38 38.5 -92 q0 -54 -38.5 -92 Z" /><glyph glyph-name="hookabovecmb" unicode="&#x309;" d="M-153 1483 l0 135 q64 27 149 27 q106 0 169.5 -56 q63.5 -56 63.5 -150 q0 -70 -50 -132 q-50 -62 -139 -100 l-85 104 q52 23 74 49 q22 26 22 65 q0 35 -28.5 57 q-28.5 22 -73.5 22 q-52 0 -102 -21 Z" /><glyph glyph-name="ringcmb" unicode="&#x30a;" d="M153 1265.5 q-64 -62.5 -153 -62.5 q-89 0 -153 62.5 q-64 62.5 -64 150.5 q0 88 64 150.5 q64 62.5 153 62.5 q89 0 153 -62.5 q64 -62.5 64 -150.5 q0 -88 -64 -150.5 ZM-67 1349.5 q28 -27.5 67 -27.5 q39 0 67.5 27.5 q28.5 27.5 28.5 66.5 q0 39 -28.5 66.5 q-28.5 27.5 -67.5 27.5 q-39 0 -67 -27.5 q-28 -27.5 -28 -66.5 q0 -39 28 -66.5 Z" /><glyph glyph-name="hungarumlautcmb" unicode="&#x30b;" d="M75 1252 l189 310 l246 0 l-226 -310 l-209 0 ZM-296 1252 l190 310 l246 0 l-227 -310 l-209 0 Z" /><glyph glyph-name="caroncmb" unicode="&#x30c;" d="M112 1242 l-224 0 l-264 318 l224 0 l148 -188 l7 0 l149 188 l223 0 l-263 -318 Z" /><glyph glyph-name="dblgravecmb" unicode="&#x30f;" d="M-75 1252 l-210 0 l-226 310 l247 0 l189 -310 ZM295 1252 l-209 0 l-227 310 l247 0 l189 -310 Z" /><glyph glyph-name="invertedbrevecmb" unicode="&#x311;" d="M-359 1242 q2 141 98.5 231.5 q96.5 90.5 260.5 90.5 q164 0 260.5 -90.5 q96.5 -90.5 98.5 -231.5 l-181 0 q-2 78 -50 126 q-48 48 -128 48 q-80 0 -128 -48 q-48 -48 -50 -126 l-181 0 Z" /><glyph glyph-name="horncmb" unicode="&#x31b;" d="M0 894 l0 193 q32 -23 71 -21 q43 2 62 32 q19 30 19 94 l0 152 l222 0 l0 -207 q0 -125 -66 -198.5 q-66 -73.5 -178 -73.5 q-85 0 -130 29 Z" /><glyph glyph-name="dotbelowcmb" unicode="&#x323;" d="M106 -412.5 q-43 -43.5 -106 -43.5 q-63 0 -106 43.5 q-43 43.5 -43 105.5 q0 62 43 105.5 q43 43.5 106 43.5 q63 0 106 -43.5 q43 -43.5 43 -105.5 q0 -62 -43 -105.5 Z" /><glyph glyph-name="dieresisbelowcmb" unicode="&#x324;" d="M-108.5 -369 q-38.5 -38 -95.5 -38 q-57 0 -95.5 38 q-38.5 38 -38.5 92 q0 54 38.5 92 q38.5 38 95.5 38 q57 0 95.5 -38 q38.5 -38 38.5 -92 q0 -54 -38.5 -92 ZM299.5 -369 q-38.5 -38 -95.5 -38 q-57 0 -95.5 38 q-38.5 38 -38.5 92 q0 54 38.5 92 q38.5 38 95.5 38 q57 0 95.5 -38 q38.5 -38 38.5 -92 q0 -54 -38.5 -92 Z" /><glyph glyph-name="ringbelowcmb" unicode="&#x325;" d="M153 -474.5 q-64 -62.5 -153 -62.5 q-89 0 -153 62.5 q-64 62.5 -64 150.5 q0 88 64 150.5 q64 62.5 153 62.5 q89 0 153 -62.5 q64 -62.5 64 -150.5 q0 -88 -64 -150.5 ZM-67 -390.5 q28 -27.5 67 -27.5 q39 0 67.5 27.5 q28.5 27.5 28.5 66.5 q0 39 -28.5 66.5 q-28.5 27.5 -67.5 27.5 q-39 0 -67 -27.5 q-28 -27.5 -28 -66.5 q0 -39 28 -66.5 Z" /><glyph glyph-name="commabelowcmb" unicode="&#x326;" d="M-29 -472 l-217 0 l130 340 l256 0 l-169 -340 Z" /><glyph glyph-name="cedillacmb" unicode="&#x327;" d="M-118 -227 l0 98 l64 141 l152 0 l0 -12 l-51 -110 q86 -1 137 -44.5 q51 -43.5 51 -119.5 q0 -89 -66 -137 q-66 -48 -182 -49 q-97 -2 -142 14 l0 122 q41 -12 112 -12 q111 0 111 54 q0 30 -28 42.5 q-28 12.5 -95 12.5 l-63 0 Z" /><glyph glyph-name="ogonekcmb" unicode="&#x328;" d="M176 -296 l0 -154 q-57 -20 -138 -20 q-106 0 -172 57.5 q-66 57.5 -66 149.5 q0 154 168 263 l155 0 q-69 -50 -101 -98.5 q-32 -48.5 -32 -103.5 q0 -46 31.5 -74.5 q31.5 -28.5 83.5 -28.5 q37 0 71 9 Z" /><glyph glyph-name="circumflexbelowcmb" unicode="&#x32d;" d="M-112 -141 l224 0 l269 -317 l-221 0 l-156 192 l-8 0 l-156 -192 l-221 0 l269 317 Z" /><glyph glyph-name="brevebelowcmb" unicode="&#x32e;" d="M-358 -128 l181 0 q6 -78 53.5 -124.5 q47.5 -46.5 123.5 -46.5 q76 0 123.5 46.5 q47.5 46.5 53.5 124.5 l181 0 q-7 -136 -102.5 -228 q-95.5 -92 -255.5 -92 q-160 0 -255.5 92 q-95.5 92 -102.5 228 Z" /><glyph glyph-name="tildebelowcmb" unicode="&#x330;" d="M142 -400 q-39 0 -73.5 14 q-34.5 14 -59 34 q-24.5 20 -46.5 40 q-22 20 -44 34 q-22 14 -42 14 q-34 0 -52 -33 q-18 -33 -18 -89 l-159 0 q0 128 62 201 q62 73 158 73 q40 0 75.5 -14 q35.5 -14 60 -33.5 q24.5 -19.5 46 -39.5 q21.5 -20 43 -34 q21.5 -14 40.5 -14 q66 0 69 124 l159 0 q0 -126 -62.5 -201.5 q-62.5 -75.5 -156.5 -75.5 Z" /><glyph glyph-name="macronbelowcmb" unicode="&#x331;&#x332;" d="M346 -229 l0 -148 l-692 0 l0 148 l692 0 Z" /><glyph glyph-name="greekquestionmark" unicode="&#x37e;" d="M399 750 q-47 -47 -114 -47 q-67 0 -114 47 q-47 47 -47 114 q0 68 47 114.5 q47 46.5 114 46.5 q67 0 114 -47 q47 -47 47 -114 q0 -67 -47 -114 ZM304 -316 l-219 0 l75 564 l278 0 l-134 -564 Z" /><glyph glyph-name="tonosgreek" unicode="&#x384;" d="M249 1221 l79 318 l304 0 l-152 -318 l-231 0 Z" /><glyph glyph-name="dieresistonosgreek" unicode="&#x385;" d="M407 1267.5 q-39 -38.5 -96 -38.5 q-57 0 -96 38.5 q-39 38.5 -39 92.5 q0 54 39 92.5 q39 38.5 96 38.5 q57 0 96 -38.5 q39 -38.5 39 -92.5 q0 -54 -39 -92.5 ZM1089 1267.5 q-39 -38.5 -96 -38.5 q-57 0 -96 38.5 q-39 38.5 -39 92.5 q0 54 39 92.5 q39 38.5 96 38.5 q57 0 96 -38.5 q39 -38.5 39 -92.5 q0 -54 -39 -92.5 ZM516 1233 l26 325 l292 0 l-126 -325 l-192 0 Z" /><glyph glyph-name="Alphatonosgreek" unicode="&#x386;" d="M1153 0 l-110 350 l-507 0 l-110 -350 l-310 0 l501 1443 l355 0 l502 -1443 l-321 0 ZM786 1167 l-185 -591 l377 0 l-185 591 l-7 0 ZM78 1125 l79 318 l304 0 l-152 -318 l-231 0 Z" /><glyph glyph-name="anoteleia" unicode="&#x387;" d="M431 830 q-47 -47 -114 -47 q-67 0 -114 47 q-47 47 -47 114 q0 68 47 114.5 q47 46.5 114 46.5 q67 0 114 -47 q47 -47 47 -114 q0 -67 -47 -114 Z" /><glyph glyph-name="Epsilontonosgreek" unicode="&#x388;" d="M30 1125 l79 318 l304 0 l-152 -318 l-231 0 ZM1504 250 l0 -250 l-956 0 l0 1443 l956 0 l0 -249 l-654 0 l0 -348 l617 0 l0 -232 l-617 0 l0 -364 l654 0 Z" /><glyph glyph-name="Etatonosgreek" unicode="&#x389;" d="M30 1101 l79 318 l304 0 l-152 -318 l-231 0 ZM1802 0 l-302 0 l0 608 l-650 0 l0 -608 l-302 0 l0 1443 l302 0 l0 -586 l650 0 l0 586 l302 0 l0 -1443 Z" /><glyph glyph-name="Iotatonosgreek" unicode="&#x38a;" d="M30 1101 l79 318 l304 0 l-152 -318 l-231 0 ZM850 0 l-302 0 l0 1443 l302 0 l0 -1443 Z" /><glyph glyph-name="Omicrontonosgreek" unicode="&#x38c;" d="M18 1101 l79 318 l304 0 l-152 -318 l-231 0 ZM515.5 1267 q187.5 201 508.5 201 q321 0 508.5 -201 q187.5 -201 187.5 -546 q0 -344 -188 -545 q-188 -201 -508 -201 q-321 0 -508.5 201 q-187.5 201 -187.5 545 q0 345 187.5 546 ZM1306 1082 q-105 134 -282 134 q-177 0 -282.5 -134 q-105.5 -134 -105.5 -361 q0 -226 105 -359.5 q105 -133.5 283 -133.5 q177 0 282 133.5 q105 133.5 105 359.5 q0 227 -105 361 Z" /><glyph glyph-name="Upsilontonosgreek" unicode="&#x38e;" d="M20 1101 l79 318 l304 0 l-152 -318 l-231 0 ZM1280 0 l-302 0 l0 539 l-502 904 l329 0 l323 -616 l7 0 l324 616 l324 0 l-503 -904 l0 -539 Z" /><glyph glyph-name="Omegatonosgreek" unicode="&#x38f;" d="M33 1101 l79 318 l304 0 l-152 -318 l-231 0 ZM1440 788 q0 199 -107 313.5 q-107 114.5 -288 114.5 q-181 0 -288 -114.5 q-107 -114.5 -107 -313.5 q0 -167 68 -285 q68 -118 206 -204 l0 -299 l-577 0 l0 239 l292 0 l0 8 q-136 82 -214 230 q-78 148 -78 333 q0 293 193.5 475.5 q193.5 182.5 504.5 182.5 q312 0 505.5 -182.5 q193.5 -182.5 193.5 -475.5 q0 -185 -78.5 -332.5 q-78.5 -147.5 -213.5 -230.5 l0 -8 l292 0 l0 -239 l-577 0 l0 299 q138 86 205.5 204 q67.5 118 67.5 285 Z" /><glyph glyph-name="iotadieresistonosgreek" unicode="&#x390;" d="M99 1072 l292 0 l0 -733 q0 -121 127 -121 q37 0 70 5 l5 -213 q-61 -14 -144 -14 q-187 0 -268.5 68 q-81.5 68 -81.5 225 l0 783 ZM43 1267.5 q-39 -38.5 -96 -38.5 q-57 0 -96 38.5 q-39 38.5 -39 92.5 q0 54 39 92.5 q39 38.5 96 38.5 q57 0 96 -38.5 q39 -38.5 39 -92.5 q0 -54 -39 -92.5 ZM725 1267.5 q-39 -38.5 -96 -38.5 q-57 0 -96 38.5 q-39 38.5 -39 92.5 q0 54 39 92.5 q39 38.5 96 38.5 q57 0 96 -38.5 q39 -38.5 39 -92.5 q0 -54 -39 -92.5 ZM152 1233 l26 325 l292 0 l-126 -325 l-192 0 Z" /><glyph glyph-name="Alphagreek" unicode="&#x391;" d="M1065 0 l-110 350 l-507 0 l-110 -350 l-310 0 l501 1443 l355 0 l502 -1443 l-321 0 ZM698 1167 l-185 -591 l377 0 l-185 591 l-7 0 Z" /><glyph glyph-name="Betagreek" unicode="&#x392;" d="M759 0 l-639 0 l0 1443 l628 0 q203 0 322 -97 q119 -97 119 -263 q0 -118 -77.5 -207 q-77.5 -89 -193.5 -106 l0 -8 q148 -11 244 -109 q96 -98 96 -240 q0 -191 -134 -302 q-134 -111 -365 -111 ZM422 1218 l0 -375 l217 0 q121 0 187 50.5 q66 50.5 66 142.5 q0 87 -58 134.5 q-58 47.5 -164 47.5 l-248 0 ZM422 225 l260 0 q131 0 199.5 54.5 q68.5 54.5 68.5 157.5 q0 101 -70.5 154 q-70.5 53 -204.5 53 l-253 0 l0 -419 Z" /><glyph glyph-name="Gammagreek" unicode="&#x393;" d="M422 0 l-302 0 l0 1443 l925 0 l0 -249 l-623 0 l0 -1194 Z" /><glyph glyph-name="Deltagreek" unicode="&#x394;" d="M1342 0 l-1289 0 l0 172 l467 1271 l355 0 l467 -1271 l0 -172 ZM370 257 l0 -8 l633 0 l0 8 l-311 920 l-7 0 l-315 -920 Z" /><glyph glyph-name="Epsilongreek" unicode="&#x395;" d="M1076 250 l0 -250 l-956 0 l0 1443 l956 0 l0 -249 l-654 0 l0 -348 l617 0 l0 -232 l-617 0 l0 -364 l654 0 Z" /><glyph glyph-name="Zetagreek" unicode="&#x396;" d="M89 0 l0 197 l733 989 l0 8 l-716 0 l0 249 l1077 0 l0 -196 l-730 -990 l0 -7 l750 0 l0 -250 l-1114 0 Z" /><glyph glyph-name="Etagreek" unicode="&#x397;" d="M1374 0 l-302 0 l0 608 l-650 0 l0 -608 l-302 0 l0 1443 l302 0 l0 -586 l650 0 l0 586 l302 0 l0 -1443 Z" /><glyph glyph-name="Thetagreek" unicode="&#x398;" d="M1048 603 l-511 0 l0 228 l511 0 l0 -228 ZM264.5 1267 q189.5 201 528.5 201 q339 0 528.5 -201 q189.5 -201 189.5 -545 q0 -344 -191.5 -545.5 q-191.5 -201.5 -526.5 -201.5 q-335 0 -526.5 201.5 q-191.5 201.5 -191.5 545.5 q0 344 189.5 545 ZM1098 1084.5 q-110 131.5 -305 131.5 q-195 0 -304.5 -131.5 q-109.5 -131.5 -109.5 -362.5 q0 -231 109.5 -362.5 q109.5 -131.5 304.5 -131.5 q195 0 305 131.5 q110 131.5 110 362.5 q0 231 -110 362.5 Z" /><glyph glyph-name="Iotagreek" unicode="&#x399;" d="M422 0 l-302 0 l0 1443 l302 0 l0 -1443 Z" /><glyph glyph-name="Kappagreek" unicode="&#x39a;" d="M422 0 l-302 0 l0 1443 l302 0 l0 -658 l9 0 l542 658 l336 0 l-534 -640 l571 -803 l-361 0 l-428 603 l-135 -162 l0 -441 Z" /><glyph glyph-name="Lambdagreek" unicode="&#x39b;" d="M1035 0 l-345 1152 l-7 0 l-345 -1152 l-310 0 l486 1443 l355 0 l486 -1443 l-320 0 Z" /><glyph glyph-name="Mugreek" unicode="&#x39c;" d="M1648 0 l-269 0 l0 974 l-8 0 l-392 -960 l-190 0 l-392 960 l-8 0 l0 -974 l-269 0 l0 1443 l350 0 l410 -1023 l8 0 l410 1023 l350 0 l0 -1443 Z" /><glyph glyph-name="Nugreek" unicode="&#x39d;" d="M409 0 l-289 0 l0 1443 l252 0 l674 -940 l8 0 l0 940 l289 0 l0 -1443 l-250 0 l-675 945 l-9 0 l0 -945 Z" /><glyph glyph-name="Xigreek" unicode="&#x39e;" d="M98 1443 l1087 0 l0 -255 l-1087 0 l0 255 ZM1098 609 l-913 0 l0 238 l913 0 l0 -238 ZM98 255 l1087 0 l0 -255 l-1087 0 l0 255 Z" /><glyph glyph-name="Omicrongreek" unicode="&#x39f;" d="M262.5 1267 q187.5 201 508.5 201 q321 0 508.5 -201 q187.5 -201 187.5 -546 q0 -344 -188 -545 q-188 -201 -508 -201 q-321 0 -508.5 201 q-187.5 201 -187.5 545 q0 345 187.5 546 ZM1053 1082 q-105 134 -282 134 q-177 0 -282.5 -134 q-105.5 -134 -105.5 -361 q0 -226 105 -359.5 q105 -133.5 283 -133.5 q177 0 282 133.5 q105 133.5 105 359.5 q0 227 -105 361 Z" /><glyph glyph-name="Pigreek" unicode="&#x3a0;" d="M1354 0 l-302 0 l0 1194 l-630 0 l0 -1194 l-302 0 l0 1443 l1234 0 l0 -1443 Z" /><glyph glyph-name="Rhogreek" unicode="&#x3a1;" d="M120 1443 l587 0 q223 0 361.5 -136 q138.5 -136 138.5 -358 q0 -221 -143 -357.5 q-143 -136.5 -372 -136.5 l-270 0 l0 -455 l-302 0 l0 1443 ZM422 1204 l0 -513 l204 0 q130 0 202 67 q72 67 72 190 q0 123 -71.5 189.5 q-71.5 66.5 -201.5 66.5 l-205 0 Z" /><glyph glyph-name="Sigmagreek" unicode="&#x3a3;" d="M459 257 l0 -7 l719 0 l0 -250 l-1089 0 l0 184 l382 540 l-361 506 l0 213 l1042 0 l0 -249 l-665 0 l0 -8 l312 -448 l0 -7 l-340 -474 Z" /><glyph glyph-name="Taugreek" unicode="&#x3a4;" d="M767 0 l-302 0 l0 1194 l-417 0 l0 249 l1137 0 l0 -249 l-418 0 l0 -1194 Z" /><glyph glyph-name="Upsilongreek" unicode="&#x3a5;" d="M832 0 l-302 0 l0 539 l-502 904 l329 0 l323 -616 l7 0 l324 616 l324 0 l-503 -904 l0 -539 Z" /><glyph glyph-name="Phigreek" unicode="&#x3a6;" d="M1324.5 411 q104.5 113 104.5 303 q0 190 -104.5 303 q-104.5 113 -292.5 127 l0 -860 q188 14 292.5 127 ZM462.5 1017 q-104.5 -113 -104.5 -303 q0 -190 104.5 -303 q104.5 -113 292.5 -127 l0 860 q-188 -14 -292.5 -127 ZM1032 -106 l-277 0 l0 151 q-311 15 -502 198.5 q-191 183.5 -191 470.5 q0 190 87 339 q87 149 244 235 q157 86 362 95 l0 152 l277 0 l0 -152 q311 -14 502 -197.5 q191 -183.5 191 -471.5 q0 -287 -191 -470.5 q-191 -183.5 -502 -198.5 l0 -151 Z" /><glyph glyph-name="Chigreek" unicode="&#x3a7;" d="M43 0 l458 723 l0 8 l-455 712 l355 0 l306 -520 l8 0 l309 520 l337 0 l-472 -718 l0 -7 l466 -718 l-344 0 l-316 505 l-8 0 l-318 -505 l-326 0 Z" /><glyph glyph-name="Psigreek" unicode="&#x3a8;" d="M986 0 l-287 0 l0 309 q-278 5 -438.5 165.5 q-160.5 160.5 -160.5 428.5 l0 540 l287 0 l0 -542 q0 -160 78.5 -248 q78.5 -88 233.5 -98 l0 888 l287 0 l0 -888 q154 10 232.5 98 q78.5 88 78.5 248 l0 542 l287 0 l0 -540 q0 -269 -160.5 -429.5 q-160.5 -160.5 -437.5 -164.5 l0 -309 Z" /><glyph glyph-name="Omegagreek" unicode="&#x3a9;" d="M1178 788 q0 199 -107 313.5 q-107 114.5 -288 114.5 q-181 0 -288 -114.5 q-107 -114.5 -107 -313.5 q0 -167 68 -285 q68 -118 206 -204 l0 -299 l-577 0 l0 239 l292 0 l0 8 q-136 82 -214 230 q-78 148 -78 333 q0 293 193.5 475.5 q193.5 182.5 504.5 182.5 q312 0 505.5 -182.5 q193.5 -182.5 193.5 -475.5 q0 -185 -78.5 -332.5 q-78.5 -147.5 -213.5 -230.5 l0 -8 l292 0 l0 -239 l-577 0 l0 299 q138 86 205.5 204 q67.5 118 67.5 285 Z" /><glyph glyph-name="Iotadieresisgreek" unicode="&#x3aa;" d="M422 0 l-302 0 l0 1443 l302 0 l0 -1443 ZM162.5 1609 q-38.5 -38 -95.5 -38 q-57 0 -95.5 38 q-38.5 38 -38.5 92 q0 54 38.5 92 q38.5 38 95.5 38 q57 0 95.5 -38 q38.5 -38 38.5 -92 q0 -54 -38.5 -92 ZM570.5 1609 q-38.5 -38 -95.5 -38 q-57 0 -95.5 38 q-38.5 38 -38.5 92 q0 54 38.5 92 q38.5 38 95.5 38 q57 0 95.5 -38 q38.5 -38 38.5 -92 q0 -54 -38.5 -92 Z" /><glyph glyph-name="Upsilondieresisgreek" unicode="&#x3ab;" d="M832 0 l-302 0 l0 539 l-502 904 l329 0 l323 -616 l7 0 l324 616 l324 0 l-503 -904 l0 -539 ZM572.5 1609 q-38.5 -38 -95.5 -38 q-57 0 -95.5 38 q-38.5 38 -38.5 92 q0 54 38.5 92 q38.5 38 95.5 38 q57 0 95.5 -38 q38.5 -38 38.5 -92 q0 -54 -38.5 -92 ZM980.5 1609 q-38.5 -38 -95.5 -38 q-57 0 -95.5 38 q-38.5 38 -38.5 92 q0 54 38.5 92 q38.5 38 95.5 38 q57 0 95.5 -38 q38.5 -38 38.5 -92 q0 -54 -38.5 -92 Z" /><glyph glyph-name="alphatonosgreek" unicode="&#x3ac;" d="M578 219 q108 0 172.5 87.5 q64.5 87.5 64.5 230.5 q0 142 -65 230.5 q-65 88.5 -171 88.5 q-103 0 -163.5 -86.5 q-60.5 -86.5 -60.5 -232.5 q0 -148 59 -233 q59 -85 164 -85 ZM500 -16 q-208 0 -326 148 q-118 148 -118 407 q0 256 118.5 403.5 q118.5 147.5 323.5 147.5 q214 0 314 -201 l6 0 l0 184 l288 0 l0 -740 q0 -66 21 -94.5 q21 -28.5 68 -28.5 q35 0 55 9 l5 -209 q-47 -18 -139 -18 q-216 0 -274 167 q-3 4 -10 21 l-6 0 q-47 -93 -130.5 -144.5 q-83.5 -51.5 -195.5 -51.5 ZM476 1221 l79 318 l304 0 l-152 -318 l-231 0 Z" /><glyph glyph-name="epsilontonosgreek" unicode="&#x3ad;" d="M548 -23 q-226 0 -355.5 84.5 q-129.5 84.5 -129.5 228.5 q0 90 51.5 156.5 q51.5 66.5 143.5 93.5 l0 6 q-174 65 -174 232 q0 143 130 230 q130 87 351 87 q233 0 366.5 -99 q133.5 -99 152.5 -278 l-285 0 q-18 78 -73 116 q-55 38 -163 39 q-97 0 -145 -33 q-48 -33 -48 -88 q0 -55 45.5 -81.5 q45.5 -26.5 148.5 -26.5 l141 0 l0 -206 l-140 0 q-101 0 -152.5 -31 q-51.5 -31 -51.5 -85 q0 -59 50.5 -90.5 q50.5 -31.5 147.5 -31.5 q210 0 251 164 l298 0 q-23 -174 -176.5 -280.5 q-153.5 -106.5 -383.5 -106.5 ZM460 1221 l79 318 l304 0 l-152 -318 l-231 0 Z" /><glyph glyph-name="etatonosgreek" unicode="&#x3ae;" d="M1209 -350 l-292 0 l0 972 q0 113 -47.5 170.5 q-47.5 57.5 -151.5 57.5 q-95 0 -151.5 -65 q-56.5 -65 -56.5 -170 l0 -615 l-292 0 l0 740 q0 67 -22 95.5 q-22 28.5 -69 28.5 q-35 0 -64 -9 l0 211 q63 16 148 16 q211 0 275 -154 q9 -26 14 -45 l6 0 q93 209 328 209 q181 0 278 -105.5 q97 -105.5 97 -296.5 l0 -1040 ZM474 1221 l79 318 l304 0 l-152 -318 l-231 0 Z" /><glyph glyph-name="iotatonosgreek" unicode="&#x3af;" d="M99 1074 l292 0 l0 -733 q0 -121 127 -121 q37 0 70 5 l5 -213 q-61 -14 -144 -14 q-187 0 -268.5 68 q-81.5 68 -81.5 225 l0 783 ZM121 1221 l79 318 l304 0 l-152 -318 l-231 0 Z" /><glyph glyph-name="upsilondieresistonosgreek" unicode="&#x3b0;" d="M555 -20 q-233 0 -349 117.5 q-116 117.5 -116 345.5 l0 629 l277 0 l0 -605 q0 -126 46 -184.5 q46 -58.5 143 -58.5 q113 0 164 83.5 q51 83.5 51 257.5 q0 265 -88 507 l283 0 q89 -203 89 -496 q0 -289 -127.5 -442.5 q-127.5 -153.5 -372.5 -153.5 ZM313 1267.5 q-39 -38.5 -96 -38.5 q-57 0 -96 38.5 q-39 38.5 -39 92.5 q0 54 39 92.5 q39 38.5 96 38.5 q57 0 96 -38.5 q39 -38.5 39 -92.5 q0 -54 -39 -92.5 ZM995 1267.5 q-39 -38.5 -96 -38.5 q-57 0 -96 38.5 q-39 38.5 -39 92.5 q0 54 39 92.5 q39 38.5 96 38.5 q57 0 96 -38.5 q39 -38.5 39 -92.5 q0 -54 -39 -92.5 ZM422 1233 l26 325 l292 0 l-126 -325 l-192 0 Z" /><glyph glyph-name="alphagreek" unicode="&#x3b1;" d="M578 218 q108 0 172.5 87.5 q64.5 87.5 64.5 230.5 q0 142 -65 230.5 q-65 88.5 -171 88.5 q-103 0 -163.5 -86.5 q-60.5 -86.5 -60.5 -232.5 q0 -148 59 -233 q59 -85 164 -85 ZM500 -17 q-208 0 -326 148 q-118 148 -118 407 q0 256 118.5 403.5 q118.5 147.5 323.5 147.5 q214 0 314 -201 l6 0 l0 184 l288 0 l0 -740 q0 -66 21 -94.5 q21 -28.5 68 -28.5 q35 0 55 9 l5 -209 q-47 -18 -139 -18 q-216 0 -274 167 q-3 4 -10 21 l-6 0 q-47 -93 -130.5 -144.5 q-83.5 -51.5 -195.5 -51.5 Z" /><glyph glyph-name="betagreek" unicode="&#x3b2;" d="M508 660 l0 212 l69 0 q101 0 155 49.5 q54 49.5 54 139.5 q0 83 -52.5 132 q-52.5 49 -140.5 49 q-208 0 -208 -264 l0 -440 q0 -155 63.5 -237.5 q63.5 -82.5 191.5 -82.5 q101 0 160.5 59.5 q59.5 59.5 59.5 155.5 q0 227 -280 227 l-72 0 ZM95 932 q0 262 125 398 q125 136 368 136 q218 0 340.5 -98 q122.5 -98 122.5 -273 q0 -105 -55.5 -183.5 q-55.5 -78.5 -157.5 -118.5 l0 -5 q163 -36 242 -128.5 q79 -92.5 79 -249.5 q0 -192 -118 -309.5 q-118 -117.5 -312 -117.5 q-118 0 -204.5 50.5 q-86.5 50.5 -131.5 144.5 l-6 0 l0 -528 l-292 0 l0 1282 Z" /><glyph glyph-name="gammagreek" unicode="&#x3b3;" d="M689 -345 l-286 0 l0 285 l-385 1132 l303 0 l246 -838 l6 0 q117 176 171 330.5 q54 154.5 54 334.5 q0 92 -10 173 l280 0 q12 -86 12 -172 q0 -229 -91 -440.5 q-91 -211.5 -300 -496.5 l0 -308 Z" /><glyph glyph-name="deltagreek" unicode="&#x3b4;" d="M578 -23 q-243 0 -382.5 133 q-139.5 133 -139.5 363 q0 188 102.5 311 q102.5 123 272.5 156 l0 5 q-204 91 -204 253 q0 129 106 199 q106 70 294 70 q230 0 372 -65 l-10 -208 q-164 64 -322 64 q-136 0 -136 -83 q0 -33 28 -59.5 q28 -26.5 111 -71.5 q241 -132 334 -259 q93 -127 93 -298 q0 -231 -142.5 -370.5 q-142.5 -139.5 -376.5 -139.5 ZM572 185 q105 0 165 79 q60 79 60 219 q0 143 -60.5 222 q-60.5 79 -162.5 79 q-108 0 -167 -83 q-59 -83 -59 -221 q0 -137 60 -216 q60 -79 164 -79 Z" /><glyph glyph-name="epsilongreek" unicode="&#x3b5;" d="M548 -23 q-226 0 -355.5 84.5 q-129.5 84.5 -129.5 228.5 q0 90 51.5 156.5 q51.5 66.5 143.5 93.5 l0 6 q-174 65 -174 232 q0 143 130 230 q130 87 351 87 q233 0 366.5 -99 q133.5 -99 152.5 -278 l-285 0 q-18 78 -73 116 q-55 38 -163 39 q-97 0 -145 -33 q-48 -33 -48 -88 q0 -55 45.5 -81.5 q45.5 -26.5 148.5 -26.5 l141 0 l0 -206 l-140 0 q-101 0 -152.5 -31 q-51.5 -31 -51.5 -85 q0 -59 50.5 -90.5 q50.5 -31.5 147.5 -31.5 q210 0 251 164 l298 0 q-23 -174 -176.5 -280.5 q-153.5 -106.5 -383.5 -106.5 Z" /><glyph glyph-name="zetagreek" unicode="&#x3b6;" d="M839 -367 l-223 51 q38 63 52 101.5 q14 38.5 14 79.5 q0 62 -40 97.5 q-40 35.5 -156 74.5 q-232 76 -334 189.5 q-102 113.5 -102 293.5 q0 180 119.5 357.5 q119.5 177.5 334.5 328.5 l0 7 l-380 0 l0 230 l808 0 l0 -198 q-303 -190 -445 -352 q-142 -162 -142 -329 q0 -109 60 -173 q60 -64 212 -118 q192 -69 263 -143.5 q71 -74.5 71 -204.5 q0 -71 -26 -139 q-26 -68 -86 -153 Z" /><glyph glyph-name="etagreek" unicode="&#x3b7;" d="M1209 -350 l-292 0 l0 972 q0 113 -47.5 170.5 q-47.5 57.5 -151.5 57.5 q-95 0 -151.5 -65 q-56.5 -65 -56.5 -170 l0 -615 l-292 0 l0 740 q0 67 -22 95.5 q-22 28.5 -69 28.5 q-35 0 -64 -9 l0 211 q63 16 148 16 q211 0 275 -154 q9 -26 14 -45 l6 0 q93 209 328 209 q181 0 278 -105.5 q97 -105.5 97 -296.5 l0 -1040 Z" /><glyph glyph-name="thetagreek" unicode="&#x3b8;" d="M613 -23 q-538 0 -538 750 q0 367 137 553 q137 186 401 186 q263 0 400 -187 q137 -187 137 -553 q0 -749 -537 -749 ZM613 193 q124 0 183 100 q59 100 62 326 l-492 0 q4 -225 63 -325.5 q59 -100.5 184 -100.5 ZM367 834 l491 0 q-10 417 -245 417 q-237 0 -246 -417 Z" /><glyph glyph-name="iotagreek" unicode="&#x3b9;" d="M99 1072 l292 0 l0 -733 q0 -121 127 -121 q37 0 70 5 l5 -213 q-61 -14 -144 -14 q-187 0 -268.5 68 q-81.5 68 -81.5 225 l0 783 Z" /><glyph glyph-name="kappagreek" unicode="&#x3ba;" d="M102 0 l0 1072 l286 0 l0 -488 l5 0 l270 312 q93 108 155.5 145 q62.5 37 153.5 37 q80 0 131 -16 l0 -211 q-27 9 -71 9 q-44 0 -75 -19 q-31 -19 -83 -79 l-134 -149 l400 -613 l-308 0 l-286 445 l-158 -172 l0 -273 l-286 0 Z" /><glyph glyph-name="lambdagreek" unicode="&#x3bb;" d="M24 0 l424 999 l-33 89 q-37 99 -70.5 126 q-33.5 27 -111.5 27 q-51 0 -79 -10 l0 211 q56 17 135 17 q80 0 132 -13.5 q52 -13.5 97.5 -54.5 q45.5 -41 81 -108.5 q35.5 -67.5 75.5 -181.5 l274 -774 q24 -69 52 -93.5 q28 -24.5 80 -24.5 q35 0 55 10 l10 -211 q-46 -17 -143 -17 q-119 0 -184.5 46.5 q-65.5 46.5 -105.5 165.5 l-153 452 l-6 0 l-244 -655 l-286 0 Z" /><glyph glyph-name="nugreek" unicode="&#x3bd;" d="M382 0 l-364 1072 l303 0 l246 -838 l6 0 q116 178 166 329 q50 151 50 336 q0 91 -11 173 l281 0 q11 -90 11 -172 q0 -227 -78 -424.5 q-78 -197.5 -275 -475.5 l-335 0 Z" /><glyph glyph-name="xigreek" unicode="&#x3be;" d="M849 -367 l-223 51 q38 62 52.5 101.5 q14.5 39.5 14.5 78.5 q0 64 -42 100 q-42 36 -170 79 q-168 57 -261 114.5 q-93 57.5 -128.5 120 q-35.5 62.5 -35.5 151.5 q0 112 69 187.5 q69 75.5 200 102.5 l0 5 q-108 40 -158.5 99 q-50.5 59 -50.5 152 q0 93 56.5 149.5 q56.5 56.5 170.5 82.5 l0 6 l-223 0 l0 230 l807 0 l0 -202 l-127 -16 q-226 -28 -313.5 -73 q-87.5 -45 -87.5 -136 q0 -76 65 -109.5 q65 -33.5 204 -33.5 l184 0 l0 -219 l-198 0 q-305 0 -305 -167 q0 -67 56.5 -112 q56.5 -45 226.5 -104 q184 -63 256.5 -139.5 q72.5 -76.5 72.5 -205.5 q0 -73 -26.5 -141 q-26.5 -68 -85.5 -152 Z" /><glyph glyph-name="omicrongreek" unicode="&#x3bf;" d="M584 -23 q-245 0 -386.5 150 q-141.5 150 -141.5 410 q0 258 142 408 q142 150 386 150 q246 0 387.5 -149.5 q141.5 -149.5 141.5 -408.5 q0 -260 -141 -410 q-141 -150 -388 -150 ZM584 206 q110 0 170 86.5 q60 86.5 60 243.5 q0 154 -61 242 q-61 88 -169 88 q-108 0 -168.5 -88 q-60.5 -88 -60.5 -242 q0 -157 60 -243.5 q60 -86.5 169 -86.5 Z" /><glyph glyph-name="pi" unicode="&#x3c0;" d="M278 0 l0 844 l-214 0 l0 228 l1302 0 l0 -228 l-223 0 l0 -518 q0 -61 25 -89 q25 -28 77 -28 q30 0 57 10 l5 -210 q-46 -18 -147 -18 q-162 0 -228.5 65.5 q-66.5 65.5 -66.5 225.5 l0 562 l-309 0 l0 -844 l-278 0 Z" /><glyph glyph-name="rhogreek" unicode="&#x3c1;" d="M608 218 q112 0 176 85.5 q64 85.5 64 236.5 q0 154 -63 240 q-63 86 -173 86 q-113 0 -175.5 -86 q-62.5 -86 -62.5 -239 q0 -156 65.5 -239.5 q65.5 -83.5 168.5 -83.5 ZM83 -350 l0 873 q0 267 143.5 419.5 q143.5 152.5 388.5 152.5 q245 0 388.5 -149.5 q143.5 -149.5 143.5 -406.5 q0 -258 -120 -407 q-120 -149 -327 -149 q-109 0 -194 51 q-85 51 -126 141 l-6 0 l0 -525 l-291 0 Z" /><glyph glyph-name="sigmafinalgreek" unicode="&#x3c2;" d="M961 -73 q0 -73 -26.5 -142 q-26.5 -69 -85.5 -152 l-223 51 q37 60 52 100.5 q15 40.5 15 80.5 q0 60 -40 96.5 q-40 36.5 -155 75.5 q-240 81 -341 202 q-101 121 -101 323 q0 244 139 388.5 q139 144.5 376 144.5 q215 0 341.5 -111 q126.5 -111 143.5 -310 l-271 0 q-14 91 -68 142 q-54 51 -138 51 q-109 0 -169.5 -75.5 q-60.5 -75.5 -60.5 -205.5 q0 -117 59.5 -187 q59.5 -70 218.5 -125 q191 -67 262.5 -143.5 q71.5 -76.5 71.5 -203.5 Z" /><glyph glyph-name="sigmagreek" unicode="&#x3c3;" d="M964 123 q-139 -146 -382 -146 q-243 0 -384.5 145 q-141.5 145 -141.5 391 q0 252 154 405.5 q154 153.5 408 153.5 l640 0 l0 -228 l-278 0 l0 -6 q58 -53 90.5 -140.5 q32.5 -87.5 32.5 -189.5 q0 -239 -139 -385 ZM581 202 q108 0 171 86.5 q63 86.5 63 236.5 q0 142 -59.5 225.5 q-59.5 83.5 -160.5 83.5 q-111 0 -175.5 -85 q-64.5 -85 -64.5 -231 q0 -146 62 -231 q62 -85 164 -85 Z" /><glyph glyph-name="taugreek" unicode="&#x3c4;" d="M717 -4 q-190 0 -270.5 69.5 q-80.5 69.5 -80.5 228.5 l0 550 l-318 0 l0 228 l970 0 l0 -228 l-360 0 l0 -503 q0 -123 129 -123 q37 0 71 5 l5 -213 q-58 -14 -146 -14 Z" /><glyph glyph-name="upsilongreek" unicode="&#x3c5;" d="M555 -20 q-233 0 -349 117.5 q-116 117.5 -116 345.5 l0 629 l277 0 l0 -605 q0 -126 46 -184.5 q46 -58.5 143 -58.5 q113 0 164 83.5 q51 83.5 51 257.5 q0 265 -88 507 l283 0 q89 -203 89 -496 q0 -289 -127.5 -442.5 q-127.5 -153.5 -372.5 -153.5 Z" /><glyph glyph-name="phigreek" unicode="&#x3c6;" d="M632 -350 l0 328 q-169 7 -300.5 74.5 q-131.5 67.5 -207.5 193 q-76 125.5 -76 291.5 q0 250 162 400.5 q162 150.5 422 158.5 l0 223 l266 0 l0 -223 q260 -8 422 -158.5 q162 -150.5 162 -400.5 q0 -166 -76 -291.5 q-76 -125.5 -207.5 -193 q-131.5 -67.5 -300.5 -74.5 l0 -328 l-266 0 ZM893 200 q144 11 226.5 99 q82.5 88 82.5 238 q0 152 -81.5 240.5 q-81.5 88.5 -227.5 95.5 l0 -673 ZM637 200 l0 673 q-146 -7 -227.5 -95.5 q-81.5 -88.5 -81.5 -240.5 q0 -150 82.5 -238 q82.5 -88 226.5 -99 Z" /><glyph glyph-name="chigreek" unicode="&#x3c7;" d="M75 -350 l396 704 l-205 391 q-37 70 -67.5 92.5 q-30.5 22.5 -84.5 22.5 q-35 0 -60 -9 l0 211 q62 16 138 16 q113 0 177.5 -41 q64.5 -41 120.5 -149 l149 -289 l5 0 l248 473 l291 0 l-411 -722 l203 -385 q32 -62 59 -82.5 q27 -20.5 72 -20.5 q38 0 60 9 l10 -211 q-56 -16 -132 -16 q-120 0 -179 36.5 q-59 36.5 -113 140.5 l-149 285 l-5 0 l-233 -456 l-290 0 Z" /><glyph glyph-name="psigreek" unicode="&#x3c8;" d="M615 -350 l0 331 q-253 2 -389 122 q-136 120 -136 341 l0 628 l277 0 l0 -567 q0 -152 56.5 -215 q56.5 -63 191.5 -64 l0 1093 l275 0 l0 -1092 q132 2 203.5 88.5 q71.5 86.5 71.5 250.5 q0 264 -88 506 l283 0 q89 -203 89 -494 q0 -285 -145.5 -440.5 q-145.5 -155.5 -413.5 -156.5 l0 -331 l-275 0 Z" /><glyph glyph-name="omegagreek" unicode="&#x3c9;" d="M1105 -23 q-219 0 -311 242 l-7 0 q-94 -242 -312 -242 q-203 0 -304 136.5 q-101 136.5 -101 393.5 q0 153 40 302.5 q40 149.5 110 262.5 l291 0 q-158 -283 -158 -572 q0 -144 38.5 -211.5 q38.5 -67.5 118.5 -67.5 q69 0 108 53.5 q39 53.5 39 146.5 l0 345 l265 0 l0 -345 q0 -94 39 -147 q39 -53 109 -53 q80 0 118.5 67.5 q38.5 67.5 38.5 211.5 q0 292 -158 572 l291 0 q71 -113 110.5 -262 q39.5 -149 39.5 -303 q0 -257 -101 -393.5 q-101 -136.5 -304 -136.5 Z" /><glyph glyph-name="iotadieresisgreek" unicode="&#x3ca;" d="M99 1072 l292 0 l0 -733 q0 -121 127 -121 q37 0 70 5 l5 -213 q-61 -14 -144 -14 q-187 0 -268.5 68 q-81.5 68 -81.5 225 l0 783 ZM152.5 1268 q-38.5 -38 -95.5 -38 q-57 0 -95.5 38 q-38.5 38 -38.5 92 q0 54 38.5 92 q38.5 38 95.5 38 q57 0 95.5 -38 q38.5 -38 38.5 -92 q0 -54 -38.5 -92 ZM560.5 1268 q-38.5 -38 -95.5 -38 q-57 0 -95.5 38 q-38.5 38 -38.5 92 q0 54 38.5 92 q38.5 38 95.5 38 q57 0 95.5 -38 q38.5 -38 38.5 -92 q0 -54 -38.5 -92 Z" /><glyph glyph-name="upsilondieresisgreek" unicode="&#x3cb;" d="M555 -20 q-233 0 -349 117.5 q-116 117.5 -116 345.5 l0 629 l277 0 l0 -605 q0 -126 46 -184.5 q46 -58.5 143 -58.5 q113 0 164 83.5 q51 83.5 51 257.5 q0 265 -88 507 l283 0 q89 -203 89 -496 q0 -289 -127.5 -442.5 q-127.5 -153.5 -372.5 -153.5 ZM455.5 1268 q-38.5 -38 -95.5 -38 q-57 0 -95.5 38 q-38.5 38 -38.5 92 q0 54 38.5 92 q38.5 38 95.5 38 q57 0 95.5 -38 q38.5 -38 38.5 -92 q0 -54 -38.5 -92 ZM863.5 1268 q-38.5 -38 -95.5 -38 q-57 0 -95.5 38 q-38.5 38 -38.5 92 q0 54 38.5 92 q38.5 38 95.5 38 q57 0 95.5 -38 q38.5 -38 38.5 -92 q0 -54 -38.5 -92 Z" /><glyph glyph-name="omicrontonosgreek" unicode="&#x3cc;" d="M584 -23 q-245 0 -386.5 150 q-141.5 150 -141.5 410 q0 258 142 408 q142 150 386 150 q246 0 387.5 -149.5 q141.5 -149.5 141.5 -408.5 q0 -260 -141 -410 q-141 -150 -388 -150 ZM584 206 q110 0 170 86.5 q60 86.5 60 243.5 q0 154 -61 242 q-61 88 -169 88 q-108 0 -168.5 -88 q-60.5 -88 -60.5 -242 q0 -157 60 -243.5 q60 -86.5 169 -86.5 ZM479 1221 l79 318 l304 0 l-152 -318 l-231 0 Z" /><glyph glyph-name="upsilontonosgreek" unicode="&#x3cd;" d="M555 -20 q-233 0 -349 117.5 q-116 117.5 -116 345.5 l0 629 l277 0 l0 -605 q0 -126 46 -184.5 q46 -58.5 143 -58.5 q113 0 164 83.5 q51 83.5 51 257.5 q0 265 -88 507 l283 0 q89 -203 89 -496 q0 -289 -127.5 -442.5 q-127.5 -153.5 -372.5 -153.5 ZM419 1221 l79 318 l304 0 l-152 -318 l-231 0 Z" /><glyph glyph-name="omegatonosgreek" unicode="&#x3ce;" d="M1105 -23 q-219 0 -311 242 l-7 0 q-94 -242 -312 -242 q-203 0 -304 136.5 q-101 136.5 -101 393.5 q0 153 40 302.5 q40 149.5 110 262.5 l291 0 q-158 -283 -158 -572 q0 -144 38.5 -211.5 q38.5 -67.5 118.5 -67.5 q69 0 108 53.5 q39 53.5 39 146.5 l0 345 l265 0 l0 -345 q0 -94 39 -147 q39 -53 109 -53 q80 0 118.5 67.5 q38.5 67.5 38.5 211.5 q0 292 -158 572 l291 0 q71 -113 110.5 -262 q39.5 -149 39.5 -303 q0 -257 -101 -393.5 q-101 -136.5 -304 -136.5 ZM676 1221 l79 318 l304 0 l-152 -318 l-231 0 Z" /><glyph glyph-name="uni0400" unicode="&#x400;" d="M1086 250 l0 -250 l-956 0 l0 1443 l956 0 l0 -249 l-654 0 l0 -348 l617 0 l0 -232 l-617 0 l0 -364 l654 0 ZM490 1563 l-267 305 l271 0 l226 -305 l-230 0 Z" /><glyph glyph-name="Iocyrillic" unicode="&#x401;" d="M1086 250 l0 -250 l-956 0 l0 1443 l956 0 l0 -249 l-654 0 l0 -348 l617 0 l0 -232 l-617 0 l0 -364 l654 0 ZM499.5 1609 q-38.5 -38 -95.5 -38 q-57 0 -95.5 38 q-38.5 38 -38.5 92 q0 54 38.5 92 q38.5 38 95.5 38 q57 0 95.5 -38 q38.5 -38 38.5 -92 q0 -54 -38.5 -92 ZM907.5 1609 q-38.5 -38 -95.5 -38 q-57 0 -95.5 38 q-38.5 38 -38.5 92 q0 54 38.5 92 q38.5 38 95.5 38 q57 0 95.5 -38 q38.5 -38 38.5 -92 q0 -54 -38.5 -92 Z" /><glyph glyph-name="Djecyrillic" unicode="&#x402;" d="M1129 -67 q-105 0 -146 17 l0 237 q36 -12 118 -12 q109 0 171.5 62.5 q62.5 62.5 62.5 173.5 q0 110 -69 174.5 q-69 64.5 -187 64.5 q-97 0 -178.5 -45.5 q-81.5 -45.5 -117.5 -117.5 l0 -487 l-302 0 l0 1194 l-423 0 l0 249 l1148 0 l0 -249 l-423 0 l0 -409 l8 0 q130 122 348 122 q234 0 366.5 -133 q132.5 -133 132.5 -345 q0 -225 -136.5 -360.5 q-136.5 -135.5 -372.5 -135.5 Z" /><glyph glyph-name="Gjecyrillic" unicode="&#x403;" d="M433 0 l-303 0 l0 1443 l930 0 l0 -250 l-627 0 l0 -1193 ZM733 1543 l-230 0 l226 305 l271 0 l-267 -305 Z" /><glyph glyph-name="Ecyrillic" unicode="&#x404;" d="M1401 472 q-35 -232 -205.5 -368 q-170.5 -136 -427.5 -136 q-315 0 -499 202.5 q-184 202.5 -184 551.5 q0 348 184.5 550.5 q184.5 202.5 498.5 202.5 q252 0 427.5 -144.5 q175.5 -144.5 204.5 -374.5 l-297 0 q-29 119 -120 190.5 q-91 71.5 -215 71.5 q-148 0 -248.5 -99.5 q-100.5 -99.5 -118.5 -269.5 l566 0 l0 -234 l-569 0 q14 -180 115.5 -285 q101.5 -105 255.5 -105 q126 0 214.5 65.5 q88.5 65.5 120.5 181.5 l297 0 Z" /><glyph glyph-name="Dzecyrillic" unicode="&#x405;" d="M76 411 l291 0 q10 -88 93.5 -142.5 q83.5 -54.5 204.5 -54.5 q120 0 195.5 51.5 q75.5 51.5 75.5 131.5 q0 70 -56 113 q-56 43 -187 72 l-188 41 q-397 85 -397 403 q0 198 154.5 320 q154.5 122 397.5 122 q250 0 399 -118.5 q149 -118.5 153 -315.5 l-283 0 q-7 91 -80.5 143.5 q-73.5 52.5 -187.5 52.5 q-112 0 -180.5 -49 q-68.5 -49 -68.5 -129 q0 -66 55.5 -107 q55.5 -41 180.5 -70 l175 -37 q217 -46 316 -143.5 q99 -97.5 99 -262.5 q0 -210 -158 -333.5 q-158 -123.5 -427 -123.5 q-261 0 -415.5 116.5 q-154.5 116.5 -161.5 319.5 Z" /><glyph glyph-name="Icyrillic" unicode="&#x406;" d="M432 0 l-302 0 l0 1443 l302 0 l0 -1443 Z" /><glyph glyph-name="Yicyrillic" unicode="&#x407;" d="M432 0 l-302 0 l0 1443 l302 0 l0 -1443 ZM172.5 1609 q-38.5 -38 -95.5 -38 q-57 0 -95.5 38 q-38.5 38 -38.5 92 q0 54 38.5 92 q38.5 38 95.5 38 q57 0 95.5 -38 q38.5 -38 38.5 -92 q0 -54 -38.5 -92 ZM580.5 1609 q-38.5 -38 -95.5 -38 q-57 0 -95.5 38 q-38.5 38 -38.5 92 q0 54 38.5 92 q38.5 38 95.5 38 q57 0 95.5 -38 q38.5 -38 38.5 -92 q0 -54 -38.5 -92 Z" /><glyph glyph-name="Jecyrillic" unicode="&#x408;" d="M41 425 l293 0 q2 -88 54.5 -141 q52.5 -53 137.5 -53 q95 0 144.5 57 q49.5 57 49.5 166 l0 989 l302 0 l0 -991 q0 -229 -130 -355.5 q-130 -126.5 -363 -126.5 q-221 0 -354.5 124 q-133.5 124 -133.5 331 Z" /><glyph glyph-name="Ljecyrillic" unicode="&#x409;" d="M581 570 q-7 -138 -33 -241.5 q-26 -103.5 -75 -182 q-49 -78.5 -129 -119 q-80 -40.5 -190 -40.5 q-71 0 -109 14 l0 264 q37 -8 67 -8 q43 0 75.5 17 q32.5 17 52.5 45 q20 28 33.5 72 q13.5 44 20 90.5 q6.5 46.5 9.5 108.5 l43 853 l993 0 l0 -484 l279 0 q229 0 372 -132.5 q143 -132.5 143 -346.5 q0 -215 -138 -347.5 q-138 -132.5 -361 -132.5 l-597 0 l0 1194 l-421 0 l-35 -624 ZM1339 241 l215 0 q129 0 200 62 q71 62 71 177 q0 116 -71.5 178.5 q-71.5 62.5 -201.5 62.5 l-213 0 l0 -480 Z" /><glyph glyph-name="Njecyrillic" unicode="&#x40a;" d="M432 623 l0 -623 l-302 0 l0 1443 l302 0 l0 -576 l620 0 l0 576 l302 0 l0 -576 l280 0 q230 0 372.5 -118 q142.5 -118 142.5 -309 q0 -197 -138 -318.5 q-138 -121.5 -362 -121.5 l-597 0 l0 623 l-620 0 ZM1354 241 l230 0 q124 0 192 52.5 q68 52.5 68 148.5 q0 91 -68 140.5 q-68 49.5 -193 49.5 l-229 0 l0 -391 Z" /><glyph glyph-name="Tshecyrillic" unicode="&#x40b;" d="M1068 650 q-94 0 -171.5 -46 q-77.5 -46 -113.5 -117 l0 -487 l-302 0 l0 1194 l-423 0 l0 249 l1148 0 l0 -249 l-423 0 l0 -408 l8 0 q127 121 339 121 q234 0 363.5 -141.5 q129.5 -141.5 129.5 -378.5 l0 -387 l-302 0 l0 369 q0 133 -66 207 q-66 74 -187 74 Z" /><glyph glyph-name="Kjecyrillic" unicode="&#x40c;" d="M1075 1848 l-267 -305 l-230 0 l226 305 l271 0 ZM716 760 l645 -760 l-377 0 l-544 634 l-8 0 l0 -634 l-302 0 l0 1443 l302 0 l0 -611 l8 0 l533 611 l341 0 l-598 -683 Z" /><glyph glyph-name="uni040D" unicode="&#x40d;" d="M1088 0 l0 976 l-12 0 l-655 -976 l-291 0 l0 1443 l301 0 l0 -977 l12 0 l655 977 l291 0 l0 -1443 l-301 0 ZM665 1558 l-267 305 l271 0 l226 -305 l-230 0 Z" /></font>
</defs>
</svg>
